<svg xmlns="http://www.w3.org/2000/svg" viewBox="0 0 54 54"><defs><style>.cls-1{fill:#fff;}.cls-2{fill:#0393db;}</style></defs><title>Asset 1</title><g id="Layer_2" data-name="Layer 2"><g id="Screens"><circle class="cls-1" cx="27" cy="27" r="27"/><path class="cls-2" d="M26.13,17.8H19.68a.75.75,0,0,1,0-1.5h6.45a.75.75,0,0,1,0,1.5Z"/><path class="cls-2" d="M26.13,38H19.68a.75.75,0,0,1,0-1.5h6.45a.75.75,0,0,1,0,1.5Z"/><path class="cls-2" d="M26.13,32.93H19.68a.75.75,0,1,1,0-1.5h6.45a.75.75,0,0,1,0,1.5Z"/><path class="cls-2" d="M26.13,22.84H19.68a.75.75,0,0,1,0-1.5h6.45a.75.75,0,0,1,0,1.5Z"/><path class="cls-2" d="M26.13,27.89H19.68a.75.75,0,1,1,0-1.5h6.45a.75.75,0,1,1,0,1.5Z"/><path class="cls-2" d="M26.13,43.52H13.23a.75.75,0,0,1-.75-.75V11.5a.75.75,0,0,1,.75-.75h12.9a.75.75,0,0,1,.75.75V42.77A.75.75,0,0,1,26.13,43.52ZM14,42h11.4V12.25H14Z"/><path class="cls-2" d="M37.42,43.16a.75.75,0,0,1-.75-.75V11.33a.75.75,0,0,1,1.5,0V42.41A.75.75,0,0,1,37.42,43.16Z"/><path class="cls-2" d="M37.42,43.25a.75.75,0,0,1-.56-.25l-4.37-4.92a.75.75,0,0,1,1.12-1l3.81,4.28,3.81-4.28a.75.75,0,0,1,1.12,1L38,43A.75.75,0,0,1,37.42,43.25Z"/><path class="cls-2" d="M41.79,16.69a.75.75,0,0,1-.56-.25l-3.81-4.28-3.81,4.28a.75.75,0,0,1-1.12-1l4.37-4.92a.77.77,0,0,1,1.12,0l4.37,4.92a.75.75,0,0,1-.56,1.25Z"/></g></g></svg>