<svg viewBox="0 0 54 54" xmlns="http://www.w3.org/2000/svg"><circle cx="27" cy="27" fill="#fff" r="27"/><g fill="#0393db"><path d="m26.13 17.8h-6.45a.75.75 0 0 1 0-1.5h6.45a.75.75 0 0 1 0 1.5z"/><path d="m26.13 38h-6.45a.75.75 0 0 1 0-1.5h6.45a.75.75 0 0 1 0 1.5z"/><path d="m26.13 32.93h-6.45a.75.75 0 1 1 0-1.5h6.45a.75.75 0 0 1 0 1.5z"/><path d="m26.13 22.84h-6.45a.75.75 0 0 1 0-1.5h6.45a.75.75 0 0 1 0 1.5z"/><path d="m26.13 27.89h-6.45a.75.75 0 1 1 0-1.5h6.45a.75.75 0 1 1 0 1.5z"/><path d="m26.13 43.52h-12.9a.75.75 0 0 1 -.75-.75v-31.27a.75.75 0 0 1 .75-.75h12.9a.75.75 0 0 1 .75.75v31.27a.75.75 0 0 1 -.75.75zm-12.13-1.52h11.4v-29.75h-11.4z"/><path d="m37.42 43.16a.75.75 0 0 1 -.75-.75v-31.08a.75.75 0 0 1 1.5 0v31.08a.75.75 0 0 1 -.75.75z"/><path d="m37.42 43.25a.75.75 0 0 1 -.56-.25l-4.37-4.92a.75.75 0 0 1 1.12-1l3.81 4.28 3.81-4.28a.75.75 0 0 1 1.12 1l-4.35 4.92a.75.75 0 0 1 -.58.25z"/><path d="m41.79 16.69a.75.75 0 0 1 -.56-.25l-3.81-4.28-3.81 4.28a.75.75 0 0 1 -1.12-1l4.37-4.92a.77.77 0 0 1 1.12 0l4.37 4.92a.75.75 0 0 1 -.56 1.25z"/></g></svg>