<svg viewBox="0 0 1193.921 818.625" xmlns="http://www.w3.org/2000/svg"><g stroke="#0274b3" stroke-linecap="round" stroke-miterlimit="10" stroke-width="3"><g opacity=".35"><g fill="none"><path d="m157.421 103.625h186"/><path d="m361.921 104.125h-6"/><path d="m821.921 110.125h-186"/><path d="m617.421 109.625h6"/><path d="m504.421 177.5h-80.948"/><path d="m417.421 178h.612"/><path d="m410.421 177.75h-11.5"/><path d="m730.921 352.5h-80.948"/><path d="m643.921 353h.612"/><path d="m584.921 210h80.949"/><path d="m671.921 209.5h-.611"/><path d="m678.921 209.75h11.5"/><path d="m550.421 306.75h-11.5"/><path d="m544.671 312.5v-11.5"/><path d="m706.421 161.75h-11.5"/><path d="m700.671 167.5v-11.5"/><path d="m511.421 115.75h-11.5"/><path d="m505.671 121.5v-11.5"/><path d="m348.483 374.318v8.882a43.638 43.638 0 0 1 -43.588 43.587h-35.807v-41.166h24.044a82.888 82.888 0 0 0 82.8-82.794v-8.883h-39.211v8.883a43.638 43.638 0 0 1 -43.588 43.587h-62.271v-35.287h7.381a82.888 82.888 0 0 0 82.8-82.794v-8.883h-39.212v8.883a43.638 43.638 0 0 1 -43.588 43.587h-40.708v66.652h-6.921a43.638 43.638 0 0 1 -43.588-43.587v-8.885h-39.206v8.883a82.888 82.888 0 0 0 82.8 82.794h5.94v37.247h-37.311a43.638 43.638 0 0 1 -43.588-43.587v-8.883h-39.207v8.883a82.888 82.888 0 0 0 82.8 82.794h37.306v160.894h72.533v-149.125h35.806a82.888 82.888 0 0 0 82.8-82.794v-8.883z"/></g><path d="m302.029 405.272v-11.144a35.6 35.6 0 0 1 35.6-35.6h107.2a35.6 35.6 0 0 1 35.6 35.6v11.144z" fill="#44b4e7"/><path d="m253.624 320.818v-11.144a35.6 35.6 0 0 1 35.6-35.6h107.2a35.6 35.6 0 0 1 35.6 35.6v11.144z" fill="#44b4e7"/><path d="m38.747 310.818v-11.144a35.6 35.6 0 0 1 35.6-35.6h107.2a35.6 35.6 0 0 1 35.6 35.6v11.144z" fill="#44b4e7"/><path d="m1.5 387.272v-11.144a35.6 35.6 0 0 1 35.6-35.6h107.2a35.6 35.6 0 0 1 35.6 35.6v11.144z" fill="#44b4e7"/><path d="m195.575 234.364v-11.143a35.6 35.6 0 0 1 35.6-35.6h107.2a35.6 35.6 0 0 1 35.6 35.6v11.144z" fill="#44b4e7"/><path d="m773.483 576.318v8.882a43.638 43.638 0 0 1 -43.588 43.587h-35.807v-41.166h24.044a82.888 82.888 0 0 0 82.8-82.794v-8.883h-39.211v8.883a43.638 43.638 0 0 1 -43.588 43.587h-62.271v-35.287h7.381a82.888 82.888 0 0 0 82.8-82.794v-8.883h-39.212v8.883a43.638 43.638 0 0 1 -43.588 43.587h-40.708v66.652h-6.921a43.638 43.638 0 0 1 -43.588-43.587v-8.885h-39.206v8.883a82.888 82.888 0 0 0 82.8 82.794h5.94v37.247h-37.311a43.638 43.638 0 0 1 -43.588-43.587v-8.883h-39.207v8.883a82.888 82.888 0 0 0 82.8 82.794h37.306v160.894h72.533v-149.125h35.806a82.888 82.888 0 0 0 82.8-82.794v-8.883z" fill="none"/><path d="m727.029 607.272v-11.144a35.6 35.6 0 0 1 35.6-35.6h107.2a35.6 35.6 0 0 1 35.6 35.6v11.144z" fill="#44b4e7"/><path d="m678.624 522.818v-11.144a35.6 35.6 0 0 1 35.6-35.6h107.2a35.6 35.6 0 0 1 35.6 35.6v11.144z" fill="#44b4e7"/><path d="m463.747 512.818v-11.144a35.6 35.6 0 0 1 35.6-35.6h107.2a35.6 35.6 0 0 1 35.6 35.6v11.144z" fill="#44b4e7"/><path d="m426.5 589.272v-11.144a35.6 35.6 0 0 1 35.6-35.6h107.2a35.6 35.6 0 0 1 35.6 35.6v11.144z" fill="#44b4e7"/><path d="m620.575 436.364v-11.143a35.6 35.6 0 0 1 35.6-35.6h107.2a35.6 35.6 0 0 1 35.6 35.6v11.144z" fill="#44b4e7"/><path d="m1060.483 255.318v8.882a43.638 43.638 0 0 1 -43.588 43.587h-35.807v-41.166h24.044a82.888 82.888 0 0 0 82.8-82.794v-8.883h-39.207v8.883a43.638 43.638 0 0 1 -43.588 43.587h-62.275v-35.287h7.381a82.888 82.888 0 0 0 82.8-82.794v-8.883h-39.212v8.883a43.638 43.638 0 0 1 -43.588 43.587h-40.708v66.652h-6.921a43.638 43.638 0 0 1 -43.588-43.587v-8.885h-39.206v8.883a82.888 82.888 0 0 0 82.8 82.794h5.94v37.247h-37.311a43.638 43.638 0 0 1 -43.588-43.587v-8.883h-39.207v8.883a82.888 82.888 0 0 0 82.8 82.794h37.306v279.894h72.533v-268.125h35.806a82.888 82.888 0 0 0 82.8-82.794v-8.883z" fill="none"/><path d="m1014.029 286.272v-11.144a35.6 35.6 0 0 1 35.6-35.6h107.2a35.6 35.6 0 0 1 35.6 35.6v11.144z" fill="#44b4e7"/><path d="m965.624 201.818v-11.144a35.6 35.6 0 0 1 35.6-35.6h107.2a35.6 35.6 0 0 1 35.6 35.6v11.144z" fill="#44b4e7"/><path d="m750.747 191.818v-11.144a35.6 35.6 0 0 1 35.6-35.6h107.2a35.6 35.6 0 0 1 35.6 35.6v11.144z" fill="#44b4e7"/><path d="m713.5 268.272v-11.144a35.6 35.6 0 0 1 35.6-35.6h107.2a35.6 35.6 0 0 1 35.6 35.6v11.144z" fill="#44b4e7"/><path d="m907.575 115.364v-11.143a35.6 35.6 0 0 1 35.6-35.6h107.2a35.6 35.6 0 0 1 35.6 35.6v11.144z" fill="#44b4e7"/></g><g opacity=".05"><path d="m1060.483 255.318v8.882a43.638 43.638 0 0 1 -43.588 43.587h-35.807v-41.166h24.044a82.888 82.888 0 0 0 82.8-82.794v-8.883h-39.207v8.883a43.638 43.638 0 0 1 -43.588 43.587h-62.275v-35.287h7.381a82.888 82.888 0 0 0 82.8-82.794v-8.883h-39.212v8.883a43.638 43.638 0 0 1 -43.588 43.587h-40.708v66.652h-6.921a43.638 43.638 0 0 1 -43.588-43.587v-8.885h-39.206v8.883a82.888 82.888 0 0 0 82.8 82.794h5.94v37.247h-37.311a43.638 43.638 0 0 1 -43.588-43.587v-8.883h-39.207v8.883a82.888 82.888 0 0 0 82.8 82.794h37.306v279.894h72.533v-268.125h35.806a82.888 82.888 0 0 0 82.8-82.794v-8.883z" fill="none"/><g fill="#44b4e7"><path d="m1014.029 286.272v-11.144a35.6 35.6 0 0 1 35.6-35.6h107.2a35.6 35.6 0 0 1 35.6 35.6v11.144z"/><path d="m965.624 201.818v-11.144a35.6 35.6 0 0 1 35.6-35.6h107.2a35.6 35.6 0 0 1 35.6 35.6v11.144z"/><path d="m750.747 191.818v-11.144a35.6 35.6 0 0 1 35.6-35.6h107.2a35.6 35.6 0 0 1 35.6 35.6v11.144z"/><path d="m713.5 268.272v-11.144a35.6 35.6 0 0 1 35.6-35.6h107.2a35.6 35.6 0 0 1 35.6 35.6v11.144z"/><path d="m907.575 115.364v-11.143a35.6 35.6 0 0 1 35.6-35.6h107.2a35.6 35.6 0 0 1 35.6 35.6v11.144z"/></g></g><g fill="none"><g opacity=".35"><path d="m629.649 61.5h-80.949"/><path d="m542.649 62h.611"/></g><g opacity=".35"><path d="m982.649 1.5h-80.949"/><path d="m895.649 2h.611"/></g><path d="m535.649 61.75h-11.5" opacity=".35"/><g opacity=".35"><path d="m349.649 34.75h-11.5"/><path d="m343.899 40.5v-11.5"/></g><path d="m41.649 21.625h186" opacity=".35"/><path d="m246.149 22.125h-6" opacity=".35"/></g></g></svg>