<svg width="4" height="19" viewBox="0 0 4 19" fill="none" xmlns="http://www.w3.org/2000/svg">
<path d="M2.02441 12.925C1.70775 12.925 1.45775 12.825 1.27441 12.625C1.10775 12.425 1.00775 12.1417 0.974414 11.775L0.224414 2.225C0.174414 1.60833 0.307747 1.11667 0.624414 0.749999C0.941081 0.366665 1.40775 0.174999 2.02441 0.174999C2.62441 0.174999 3.07441 0.366665 3.37441 0.749999C3.69108 1.11667 3.82441 1.60833 3.77441 2.225L3.02441 11.775C3.00775 12.1417 2.90775 12.425 2.72441 12.625C2.55775 12.825 2.32441 12.925 2.02441 12.925ZM2.02441 18.125C1.45775 18.125 0.999414 17.95 0.649414 17.6C0.316081 17.25 0.149414 16.8 0.149414 16.25C0.149414 15.7167 0.316081 15.2833 0.649414 14.95C0.999414 14.6 1.45775 14.425 2.02441 14.425C2.60775 14.425 3.05775 14.6 3.37441 14.95C3.70775 15.2833 3.87441 15.7167 3.87441 16.25C3.87441 16.8 3.70775 17.25 3.37441 17.6C3.05775 17.95 2.60775 18.125 2.02441 18.125Z" fill="white"/>
</svg>
