<svg width="52" height="60" viewBox="0 0 52 60" fill="none" xmlns="http://www.w3.org/2000/svg">
    <path d="M39.4848 0.000864137C38.1026 0.0190757 36.8093 0.367949 35.656 1.00321C32.5866 2.69242 30.6212 6.13946 29.7327 10.2106C28.912 14 28.4502 17.797 24.1869 21.2702L22.9507 22.3065L24.2727 23.2238C28.4977 26.1756 30.8839 27.9608 33.3722 30.0023L34.6427 31.0386L35.2779 29.5436C37.4699 24.5066 41.0391 23.0418 44.4977 21.2022C48.2048 19.2339 51.0072 16.3965 51.7945 13.0141C52.5886 9.62129 51.0935 5.87841 46.9356 2.78734C44.3407 0.852186 41.7881 -0.0294703 39.4848 0.000864137ZM3.53206 13.8123C3.33519 13.8106 3.14434 13.8274 2.94831 13.8463C2.16484 13.9161 1.26286 14.2221 0.681964 14.9845C-0.183312 16.1233 0.0940334 17.4633 0.54461 18.5691C0.995829 19.6695 1.74393 20.8158 2.74227 22.1027C4.73962 24.6709 7.77526 27.7515 11.5675 31.0725L12.0826 31.5142L12.7694 31.4973C16.7063 31.3036 20.7414 32.6065 23.7407 35.2177V35.2347L23.775 35.2687C26.2821 37.2932 27.8606 40.105 28.5309 43.2024L28.6854 43.8819L29.2692 44.2557C33.5538 46.9473 37.3879 48.9797 40.4465 50.1676C41.9728 50.7623 43.3015 51.1659 44.4984 51.2889C45.6957 51.4096 47.0783 51.2927 47.9494 50.1506C48.5306 49.386 48.5743 48.4495 48.4302 47.6873C48.2807 46.9229 47.9521 46.1902 47.5202 45.4279C46.6563 43.9032 45.2909 42.1925 43.5026 40.2634C39.9261 36.4052 34.6548 31.7595 28.4277 27.1315C22.2067 22.499 16.2329 18.7689 11.4991 16.446C9.12938 15.2842 7.08621 14.4662 5.36983 14.0676C4.71976 13.9194 4.12331 13.8183 3.53269 13.8128L3.53206 13.8123ZM10.5201 21.9156C11.2377 21.9477 12.1832 22.3448 13.044 23.0368C14.4212 24.144 15.0801 25.6003 14.5206 26.2816C13.961 26.963 12.3952 26.6074 11.018 25.5002C9.6408 24.3929 8.98194 22.9538 9.54147 22.2724C9.75128 22.0169 10.0895 21.8963 10.5201 21.9156ZM13.9024 32.4141C12.0914 32.4152 10.2441 32.7578 8.47692 33.5014C1.41362 36.477 -1.89716 44.6235 1.11144 51.6107C2.14402 54.0134 3.79281 55.9835 5.79868 57.4036C9.63212 60.1187 14.7619 60.8493 19.3967 58.8986C26.46 55.9225 29.7708 47.7961 26.7622 40.8061C24.5057 35.5655 19.3357 32.4109 13.9026 32.4136L13.9024 32.4141ZM13.9195 36.3385C17.8009 36.3251 21.4817 38.5771 23.1052 42.3521C25.2698 47.3835 22.9358 53.1393 17.8514 55.2801C14.5126 56.6849 10.8436 56.1706 8.11633 54.2268C6.68115 53.2067 5.50754 51.7929 4.7683 50.0647C2.60371 45.0333 4.94928 39.278 10.0393 37.1367C11.3104 36.6016 12.6258 36.3429 13.9195 36.3385ZM34.2309 39.889C34.9485 39.9212 35.8769 40.3182 36.7376 41.0103C38.1148 42.1175 38.7909 43.5567 38.2314 44.238C37.6719 44.9194 36.0889 44.5808 34.7117 43.4736C33.3345 42.3664 32.6756 40.9102 33.2351 40.2288C33.445 39.9733 33.8003 39.8698 34.2309 39.889Z" fill="white"/>
</svg>