<svg width="73" height="61" viewBox="0 0 73 61" fill="none" xmlns="http://www.w3.org/2000/svg">
    <path d="M61.0532 30.3675C61.0532 47.1385 47.4568 60.7349 30.6858 60.7349C13.9135 60.7349 0.318344 47.1385 0.318344 30.3675C0.318344 13.5962 13.9135 0 30.6858 0C42.2873 0 52.3681 6.50708 57.4815 16.0698L52.8916 18.1653C48.5811 10.3377 40.2534 5.03344 30.6858 5.03344C16.6939 5.03344 5.35182 16.3755 5.35182 30.3675C5.35182 44.3591 16.6939 55.7016 30.6858 55.7016C44.6775 55.7016 56.0199 44.3591 56.0199 30.3675C56.0199 27.8849 55.6615 25.4862 54.9956 23.2192L59.6789 21.3093C60.5723 24.1699 61.0533 27.2125 61.0533 30.3675H61.0532Z" fill="white"/>
    <path d="M50.9867 30.3673C50.9867 41.5791 41.8975 50.6682 30.6858 50.6682C19.4736 50.6682 10.3849 41.5791 10.3849 30.3673C10.3849 19.1557 19.4736 10.0664 30.6858 10.0664C38.2188 10.0664 44.7935 14.1696 48.2971 20.2628L44.0139 22.2183C41.2681 17.7371 36.3262 14.747 30.6857 14.747C22.0587 14.747 15.0655 21.7407 15.0655 30.3673C15.0655 38.994 22.0587 45.9876 30.6857 45.9876C39.3125 45.9876 46.306 38.994 46.306 30.3673C46.306 29.1822 46.1733 28.0283 45.9231 26.9189L50.3038 25.1324C50.7484 26.8027 50.9867 28.557 50.9867 30.3673L50.9867 30.3673Z" fill="white"/>
    <path d="M42.2224 30.3676C42.2224 36.7391 37.0572 41.9042 30.6858 41.9042C24.3141 41.9042 19.1492 36.7391 19.1492 30.3676C19.1492 23.9963 24.3141 18.8311 30.6858 18.8311C34.8259 18.8311 38.4566 21.0122 40.4919 24.2878L38.0459 25.4046C36.4506 23.0435 33.7496 21.4909 30.6857 21.4909C25.7832 21.4909 21.809 25.4653 21.809 30.3676C21.809 35.27 25.7832 39.2443 30.6857 39.2443C35.5881 39.2443 39.5624 35.27 39.5624 30.3676C39.5624 29.9525 39.5338 29.5441 39.4785 29.1442L42.0018 28.1151C42.1463 28.8436 42.2223 29.5967 42.2223 30.3676H42.2224Z" fill="white"/>
    <path fill-rule="evenodd" clip-rule="evenodd" d="M32.1866 28.9877L61.9367 15.4053L62.0667 13.648L70.0348 10.2061L67.9494 14.7035L72.6534 16.268L64.6853 19.71L63.3166 18.6L33.0341 30.9496L32.1866 28.9877Z" fill="white"/>
</svg>
