<svg viewBox="0 0 25.001 34.487" xmlns="http://www.w3.org/2000/svg"><g fill="#2492d0"><path d="m12.537 11.5a5.752 5.752 0 1 1 5.752-5.752 5.759 5.759 0 0 1 -5.752 5.752zm0-10a4.252 4.252 0 1 0 4.252 4.252 4.258 4.258 0 0 0 -4.252-4.252z"/><path d="m12.537 27.017c-3.191 0-5.42-2.521-5.42-6.132a.75.75 0 0 1 .75-.75h9.3a.75.75 0 0 1 .75.75c.003 3.615-2.211 6.132-5.38 6.132zm-3.876-5.382c.238 2.034 1.464 3.882 3.877 3.882 2.535 0 3.623-1.952 3.841-3.882z"/><path d="m2.332 21.8a2.332 2.332 0 0 1 -1.771-3.852l5.987-7.011a.75.75 0 1 1 1.141.974l-5.989 7.012a.833.833 0 1 0 1.264 1.086l4.42-5a.75.75 0 0 1 1.313.508l-.079 5.063a.737.737 0 0 1 -.762.738.75.75 0 0 1 -.738-.762l.048-3.037-3.066 3.475a2.318 2.318 0 0 1 -1.768.806z"/><path d="m8.942 34.486a2.338 2.338 0 0 1 -2.124-1.357l-2.632-4.748a3.133 3.133 0 0 1 .161-3.958l2.585-2.223a.75.75 0 1 1 .979 1.137l-2.563 2.203a1.781 1.781 0 0 0 .131 2.082l2.677 4.831a.851.851 0 0 0 1.13.458.836.836 0 0 0 .408-1.1l-1.794-3.968a.749.749 0 0 1 .267-.934l1.9-1.266a.75.75 0 0 1 .832 1.248l-1.373.909 1.532 3.379a2.332 2.332 0 0 1 -2.116 3.3z"/><path d="m22.674 21.8c-.061 0-.121 0-.183-.007a2.314 2.314 0 0 1 -1.593-.805l-3.047-3.448.068 3.014a.75.75 0 0 1 -.733.767h-.016a.751.751 0 0 1 -.75-.733l-.115-5.065a.75.75 0 0 1 1.313-.514l4.413 4.991a.83.83 0 0 0 1.469-.47.819.819 0 0 0 -.2-.6l-5.989-7.014a.75.75 0 1 1 1.141-.974l5.988 7.012a2.331 2.331 0 0 1 -1.766 3.846z"/><path d="m16.059 34.487a2.333 2.333 0 0 1 -2.115-3.308l1.531-3.379-1.369-.913a.75.75 0 0 1 .832-1.248l1.9 1.266a.749.749 0 0 1 .267.934l-1.8 3.959a.831.831 0 0 0 1.044 1.131.824.824 0 0 0 .468-.431l2.683-4.844a1.791 1.791 0 0 0 .128-2.134l-2.538-2.187a.75.75 0 1 1 .979-1.137l2.563 2.204a3.151 3.151 0 0 1 .164 4.01l-2.639 4.766a2.275 2.275 0 0 1 -1.285 1.161 2.349 2.349 0 0 1 -.813.15z"/></g></svg>