<svg width="50" height="39" viewBox="0 0 50 39" fill="none" xmlns="http://www.w3.org/2000/svg">
    <path fill-rule="evenodd" clip-rule="evenodd" d="M47.2727 1.18182C44.6491 0.354545 41.7655 0 39 0C34.3909 0 29.4273 0.945455 26 3.54545C22.5727 0.945455 17.6091 0 13 0C8.39091 0 3.42727 0.945455 0 3.54545V38.1727C0 38.7636 0.590909 39.3545 1.18182 39.3545C1.41818 39.3545 1.53636 39.2364 1.77273 39.2364C4.96364 37.7 9.57273 36.6364 13 36.6364C17.6091 36.6364 22.5727 37.5818 26 40.1818C29.1909 38.1727 34.9818 36.6364 39 36.6364C42.9 36.6364 46.9182 37.3455 50.2273 39.1182C50.4636 39.2364 50.5818 39.2364 50.8182 39.2364C51.4091 39.2364 52 38.6455 52 38.0546V3.54545C50.5818 2.48182 49.0455 1.77273 47.2727 1.18182ZM47.2727 33.091C44.6727 32.2637 41.8364 31.9092 39 31.9092C34.9818 31.9092 29.1909 33.4455 26 35.4546V8.2728C29.1909 6.26371 34.9818 4.72734 39 4.72734C41.8364 4.72734 44.6727 5.08189 47.2727 5.90916V33.091Z" fill="white"/>
</svg>