<svg width="82" height="88" viewBox="0 0 82 88" fill="none" xmlns="http://www.w3.org/2000/svg">
    <path d="M40.1421 30.0922C38.6683 30.092 37.2278 29.6535 36.0025 28.8323C34.7772 28.011 33.8223 26.8439 33.2585 25.4784C32.6947 24.1129 32.5473 22.6105 32.835 21.161C33.1227 19.7116 33.8326 18.3803 34.8748 17.3354C35.9171 16.2905 37.2449 15.579 38.6904 15.2908C40.1359 15.0027 41.6341 15.1509 42.9956 15.7167C44.3571 16.2824 45.5207 17.2403 46.3393 18.4693C47.1579 19.6982 47.5948 21.1429 47.5946 22.6208C47.5922 24.6019 46.8062 26.5012 45.4091 27.9019C44.0119 29.3026 42.1177 30.0903 40.1421 30.0922ZM40.1421 16.6552C38.9658 16.6554 37.8159 17.0054 36.8379 17.6608C35.86 18.3163 35.0978 19.2479 34.6477 20.3377C34.1977 21.4276 34.08 22.6268 34.3095 23.7837C34.5391 24.9406 35.1055 26.0033 35.9373 26.8374C36.769 27.6715 37.8288 28.2396 38.9825 28.4698C40.1362 28.6999 41.3321 28.5819 42.4189 28.1306C43.5057 27.6792 44.4346 26.9149 45.0882 25.9342C45.7419 24.9535 46.0909 23.8004 46.0911 22.6208C46.0895 21.0391 45.4622 19.5227 44.3469 18.4043C43.2316 17.2859 41.7193 16.6568 40.1421 16.6552Z" fill="white"/>
    <path d="M54.5432 72.3892H26.6477C26.5254 72.3896 26.4049 72.3599 26.2966 72.3029C26.1883 72.2458 26.0955 72.1632 26.0263 72.062C25.9572 71.9608 25.9137 71.8443 25.8997 71.7225C25.8857 71.6007 25.9017 71.4773 25.9461 71.363L32.5395 54.3396L27.9768 53.2812C27.785 53.2368 27.6182 53.1185 27.5125 52.9519C27.4067 52.7853 27.3705 52.5837 27.4115 52.3906C27.7985 50.5532 28.2445 48.7057 28.6765 46.9186C29.0263 45.4661 29.3781 44.0147 29.7008 42.5552L29.9114 41.5872C30.5128 38.7848 31.1423 35.886 32.8322 33.4153C34.452 31.0431 36.5861 30.9245 38.6509 31.1386C41.0345 31.3909 42.2514 32.6403 43.6627 34.0887C44.1468 34.5863 44.6479 35.1019 45.2463 35.6327C45.7581 36.0728 46.2953 36.4823 46.8551 36.859C48.9019 38.2944 51.0169 39.7739 48.9821 44.278C50.4566 45.446 54.7275 49.0706 55.798 52.7103C57.2154 57.526 53.3464 61.3043 51.9782 62.4603L55.2528 71.3791C55.2945 71.4927 55.3082 71.6147 55.293 71.7348C55.2777 71.8549 55.2338 71.9696 55.165 72.0691C55.0961 72.1686 55.0045 72.25 54.8976 72.3064C54.7908 72.3628 54.6719 72.3925 54.5511 72.3932L54.5432 72.3892ZM27.7463 70.8815H53.4656L50.3764 62.4663C50.3204 62.3125 50.3157 62.1448 50.3631 61.9881C50.4104 61.8315 50.5072 61.6944 50.639 61.5978C50.6901 61.5596 55.7259 57.8004 54.3476 53.1364C53.219 49.2998 47.644 45.1535 47.5879 45.1123C47.4449 45.0066 47.3437 44.8536 47.3023 44.6804C47.2609 44.5071 47.2817 44.3247 47.3613 44.1654C49.2537 40.3871 48.093 39.5729 45.984 38.0933C45.3773 37.6838 44.7949 37.2391 44.2399 36.7614C43.6014 36.1935 43.0582 35.6347 42.5791 35.1422C41.2259 33.752 40.3339 32.8303 38.4885 32.6383C36.2202 32.3971 35.0565 32.8233 34.0681 34.2677C32.5446 36.4941 31.9512 39.2452 31.3779 41.9069L31.1653 42.8819C30.8396 44.3514 30.4867 45.8129 30.1339 47.2754C29.761 48.8153 29.3781 50.4015 29.0313 51.9806L33.1751 52.9425C33.1801 52.9425 42.6422 55.1971 44.0214 55.5117C44.2892 55.5861 44.5697 55.6036 44.8446 55.5631C45.1196 55.5226 45.383 55.425 45.6182 55.2765C45.8267 55.1116 45.9974 54.9036 46.1185 54.6666C46.2396 54.4297 46.3083 54.1694 46.3199 53.9034C46.4773 52.5585 45.7946 52.2459 44.1988 51.8529L43.8831 51.7734L34.6305 49.3872C34.534 49.3625 34.4432 49.3188 34.3638 49.2585C34.2843 49.1983 34.2176 49.1228 34.1675 49.0364C34.1174 48.9501 34.085 48.8546 34.0721 48.7555C34.0591 48.6565 34.0659 48.5558 34.0921 48.4594L35.9846 41.4887C36.0378 41.2958 36.1651 41.132 36.3387 41.0334C36.5123 40.9347 36.7179 40.9092 36.9103 40.9625C37.1026 41.0158 37.2659 41.1436 37.3643 41.3177C37.4627 41.4917 37.4882 41.6979 37.435 41.8908L35.7431 48.1228L44.5637 50.3934C45.9028 50.7241 48.1472 51.277 47.8184 54.0823C47.7866 54.5596 47.6516 55.0242 47.4228 55.4439C47.194 55.8636 46.8768 56.2283 46.4933 56.5128C46.0856 56.7828 45.6262 56.9646 45.1444 57.0463C44.6627 57.128 44.1692 57.1079 43.6957 56.9873C42.6182 56.741 36.603 55.3106 34.019 54.6955L27.7463 70.8815Z" fill="white"/>
</svg>
