<svg xmlns="http://www.w3.org/2000/svg" viewBox="0 0 122 122"><defs><style>.cls-1{fill:#fff;}</style></defs><title>Week 22_Icons</title><g id="Content"><path class="cls-1" d="M92.27,28.73H75.7v-2a1,1,0,0,0-1-1H68.38a7.55,7.55,0,0,0-14.76,0H47.3a1,1,0,0,0-1,1v2H29.73a1,1,0,0,0-1,1V101.2a1,1,0,0,0,1,1H92.27a1,1,0,0,0,1-1V29.73A1,1,0,0,0,92.27,28.73Zm-44-1h6.18a1,1,0,0,0,1-.91,5.55,5.55,0,0,1,11.06,0,1,1,0,0,0,1,.91H73.7V38.1H48.3ZM74.7,40.1a1,1,0,0,0,1-1v-2h8.42V94.25H37.88V37.13H46.3v2a1,1,0,0,0,1,1Zm16.57,60.1H30.73V30.73H46.3v4.4H36.88a1,1,0,0,0-1,1V95.25a1,1,0,0,0,1,1H85.12a1,1,0,0,0,1-1V36.13a1,1,0,0,0-1-1H75.7v-4.4H91.27Z"/><rect class="cls-1" x="42.59" y="46.44" width="32.16" height="2"/><rect class="cls-1" x="42.59" y="73.12" width="32.16" height="2"/><rect class="cls-1" x="42.59" y="66.45" width="34.54" height="2"/><rect class="cls-1" x="42.54" y="53.11" width="36.93" height="2"/><rect class="cls-1" x="42.59" y="79.8" width="36.93" height="2"/><rect class="cls-1" x="42.54" y="59.78" width="36.93" height="2"/></g></svg>