<svg viewBox="0 0 122 122" xmlns="http://www.w3.org/2000/svg"><g fill="#fff"><path d="m38.86 63.86a2 2 0 1 0 2 2 2 2 0 0 0 -2-2z"/><path d="m38.86 72.72a2 2 0 1 0 2 2 2 2 0 0 0 -2-2z"/><path d="m38.86 81.58a2 2 0 1 0 2 2 2 2 0 0 0 -2-2z"/><path d="m74.29 55a2 2 0 1 0 2 2 2 2 0 0 0 -2-2z"/><path d="m74.29 63.86a2 2 0 1 0 2 2 2 2 0 0 0 -2-2z"/><path d="m83.14 55a2 2 0 1 0 2 2 2 2 0 0 0 -2-2z"/><path d="m83.14 63.86a2 2 0 1 0 2 2 2 2 0 0 0 -2-2z"/><path d="m56.57 55a2 2 0 1 0 2 2 2 2 0 0 0 -2-2z"/><path d="m56.57 63.86a2 2 0 1 0 2 2 2 2 0 0 0 -2-2z"/><path d="m56.57 72.72a2 2 0 1 0 2 2 2 2 0 0 0 -2-2z"/><path d="m56.57 81.58a2 2 0 1 0 2 2 2 2 0 0 0 -2-2z"/><path d="m47.71 55a2 2 0 1 0 2 2 2 2 0 0 0 -2-2z"/><path d="m47.71 63.86a2 2 0 1 0 2 2 2 2 0 0 0 -2-2z"/><path d="m47.71 72.72a2 2 0 1 0 2 2 2 2 0 0 0 -2-2z"/><path d="m47.71 81.58a2 2 0 1 0 2 2 2 2 0 0 0 -2-2z"/><path d="m65.43 55a2 2 0 1 0 2 2 2 2 0 0 0 -2-2z"/><path d="m65.43 63.86a2 2 0 1 0 2 2 2 2 0 0 0 -2-2z"/><path d="m65.43 72.72a2 2 0 1 0 2 2 2 2 0 0 0 -2-2z"/><path d="m65.43 81.58a2 2 0 1 0 2 2 2 2 0 0 0 -2-2z"/><path d="m80 31.59v-4.23h-2v4.23h-34.56v-4.23h-2v4.23h-15v64.05h69.13v-64zm-38.51 2v3.19h2v-3.19h34.51v3.19h2v-3.19h13.57v11.31h-65.14v-11.31zm-13 60.05v-46.74h65.08v46.74z"/><path d="m85.48 73.05a1 1 0 0 0 -1.41.14l-7.25 8.86-3-3a1 1 0 0 0 -1.41 0 1 1 0 0 0 0 1.42l3.83 3.83a1 1 0 0 0 .7.29 1 1 0 0 0 .73-.37l8-9.72a1 1 0 0 0 -.19-1.45z"/></g></svg>