<svg width="43" height="86" viewBox="0 0 43 86" fill="none" xmlns="http://www.w3.org/2000/svg">
<mask id="mask0_4600_14560" style="mask-type:alpha" maskUnits="userSpaceOnUse" x="0" y="0" width="43" height="90">
<path d="M20.8219 63.3115L19.4337 85.6754C19.4154 86.0624 19.7 86.3923 20.083 86.4166C20.466 86.4408 20.7955 86.148 20.8191 85.7627L22.2073 63.3989C22.208 63.3839 22.2087 63.3692 22.2087 63.3545C22.2087 62.9884 21.9261 62.6809 21.558 62.6577C21.175 62.6335 20.8456 62.9262 20.8219 63.3115Z" fill="#808080"/>
<path d="M20.1264 40.9901C20.1264 39.448 18.8833 38.1957 17.3486 38.1957C15.8167 38.1957 14.5736 39.448 14.5736 40.9901C14.5736 42.5342 15.8167 43.7866 17.3486 43.7866C18.8833 43.7866 20.1264 42.5342 20.1264 40.9901ZM15.9618 40.9901C15.9618 40.2199 16.5841 39.5934 17.3486 39.5934C18.1146 39.5934 18.7382 40.2199 18.7382 40.9901C18.7382 41.7614 18.1146 42.3889 17.3486 42.3889C16.5841 42.3889 15.9618 41.7614 15.9618 40.9901Z" fill="#808080"/>
<path d="M25.6789 48.3283C25.6789 46.9791 24.591 45.8833 23.2482 45.8833C21.9081 45.8833 20.8202 46.9791 20.8202 48.3283C20.8202 49.6796 21.9081 50.7754 23.2482 50.7754C24.591 50.7754 25.6789 49.6796 25.6789 48.3283ZM22.2084 48.3283C22.2084 47.751 22.6748 47.281 23.2482 47.281C23.823 47.281 24.2907 47.751 24.2907 48.3283C24.2907 48.9071 23.823 49.3777 23.2482 49.3777C22.6748 49.3777 22.2084 48.9071 22.2084 48.3283Z" fill="#808080"/>
<path d="M24.6367 32.6045C23.2967 32.6045 22.2087 33.7002 22.2087 35.0495C22.2087 36.4008 23.2967 37.4966 24.6367 37.4966C25.9795 37.4966 27.0675 36.4008 27.0675 35.0495C27.0675 33.7002 25.9795 32.6045 24.6367 32.6045ZM24.6367 36.0988C24.0633 36.0988 23.5969 35.6283 23.5969 35.0495C23.5969 34.4721 24.0633 34.0022 24.6367 34.0022C25.2116 34.0022 25.6793 34.4721 25.6793 35.0495C25.6793 35.6283 25.2116 36.0988 24.6367 36.0988Z" fill="#808080"/>
<path d="M22.1607 4.21152C22.1607 4.22892 22.1607 4.24667 22.1607 4.26408L22.2088 7.90044C21.4523 7.30151 20.4897 6.9613 19.5591 6.97737C17.5154 7.00909 15.9022 8.73035 15.9008 10.7829L16.153 29.9568L10.9052 22.7197C10.3006 21.8304 9.3394 21.2772 8.19795 21.1622C6.90525 21.0315 5.54218 21.4987 4.63929 22.3812C1.84795 25.1152 4.77686 28.9494 6.02819 30.5878C8.07523 33.2659 8.79918 35.5519 9.35835 38.5948C9.92842 41.7147 10.9899 47.5221 16.599 51.3648C17.0471 51.6723 17.4029 52.3692 17.3643 52.8568L14.2747 89.1533C14.2307 89.5448 14.5255 89.8764 14.9071 89.9095C15.2888 89.9423 15.6249 89.6574 15.6575 89.2728L18.7471 52.9758C18.8318 51.9914 18.2427 50.8008 17.3799 50.2094C12.6465 46.9665 11.4624 42.3833 10.7235 38.3409C10.71 38.2692 10.6951 38.2017 10.6815 38.131C11.7925 37.7045 12.4906 36.6162 12.4899 35.455C12.4899 35.1458 12.4411 34.8311 12.3367 34.5234C12.0908 33.7938 11.5796 33.2099 10.8984 32.8793C10.2938 32.5855 9.62072 32.5384 8.98153 32.7175C8.50162 31.7378 7.90983 30.7577 7.12827 29.7357C4.69558 26.5485 4.25496 24.7085 5.60659 23.3834C6.22337 22.7808 7.16353 22.4624 8.05962 22.5528C8.78627 22.6262 9.39021 22.9657 9.77183 23.5267L15.1626 30.9618C15.8039 31.846 16.38 31.8832 16.7501 31.7583C17.1209 31.6337 17.548 31.2498 17.5439 30.1554L17.289 10.7645C17.289 10.7543 17.289 10.744 17.289 10.7335C17.289 9.4497 18.3105 8.39454 19.5814 8.37511C20.2912 8.36281 21.032 8.66654 21.5648 9.18727C21.985 9.59744 22.221 10.1015 22.244 10.6119L22.4921 29.4511C22.4975 29.837 22.812 30.1458 23.1957 30.1407C23.5753 30.1356 23.8803 29.8237 23.8803 29.4422C23.8803 29.4388 23.8803 29.4357 23.8803 29.4326L23.8389 26.2901C25.6379 26.1625 27.0675 24.6634 27.0675 22.819C27.0675 20.9449 25.5898 19.4229 23.7474 19.3414L23.5489 4.24535C23.5346 2.92336 24.5588 1.87471 25.8406 1.85458C26.4567 1.84431 27.0403 2.07738 27.4844 2.51083C27.9317 2.9479 28.1825 3.53557 28.1907 4.16511L28.5241 29.3532C28.5295 29.7391 28.8441 30.0479 29.2277 30.0428C29.608 30.0377 29.9123 29.7258 29.9123 29.3443C29.9123 29.3409 29.9123 29.3378 29.9123 29.3347L29.6324 8.18362C29.7693 7.05005 30.9034 6.01537 32.1885 5.99454C32.8047 5.98435 33.3882 6.21742 33.8309 6.64974C34.2437 7.05313 34.4803 7.58748 34.5223 8.16251C32.6941 8.25874 31.2321 9.7732 31.2321 11.6374C31.2321 13.5391 32.7497 15.0843 34.6288 15.1253L34.6911 29.2511C34.6965 29.6371 35.011 29.9459 35.3947 29.9408C35.7749 29.9357 36.0793 29.6238 36.0793 29.2423C36.0793 29.2388 36.0793 29.2358 36.0793 29.2327L35.9085 16.3841C35.9085 16.3739 35.9085 16.3636 35.9085 16.3531C35.9085 15.071 36.9307 14.0152 38.2009 13.993C38.8177 13.9824 39.4007 14.2151 39.844 14.6475C40.292 15.085 40.5429 15.6736 40.5517 16.3049C40.5517 16.3049 40.8018 30.0978 40.8438 31.1669C40.974 34.479 41.1068 37.9051 40.4194 41.1674C39.844 43.9097 38.3792 46.672 36.0664 49.3778C35.8868 49.5873 35.7254 49.8409 35.5831 50.1142C35.5228 50.0968 35.4631 50.0763 35.3967 50.0763L31.9262 50.0763C31.5426 50.0763 31.2321 50.3893 31.2321 50.7752C31.2321 51.1611 31.5426 51.474 31.9262 51.474L35.1046 51.474C35.0483 51.7617 35.0198 52.0426 35.032 52.2968L36.57 86.8213C36.587 87.2069 36.9117 87.5055 37.2947 87.4881C37.677 87.471 37.9799 87.1468 37.9569 86.7585L36.4189 52.2326C36.3891 51.6669 36.7192 50.7567 37.1184 50.2896C39.5858 47.4033 41.1529 44.4315 41.7779 41.4571C42.2137 39.3878 42.337 37.2898 42.337 35.2048C42.337 33.8306 42.2835 32.4619 42.2306 31.1116C42.1886 30.0295 42.1459 28.9491 42.131 27.8725L41.9399 16.2862C41.9263 15.2805 41.525 14.3421 40.8106 13.6442C40.1008 12.9512 39.1662 12.5789 38.1772 12.5952C37.3536 12.6096 36.604 12.9055 35.9939 13.3771L35.9268 8.2867C35.9126 7.28173 35.5112 6.34398 34.7975 5.64651C34.0878 4.95379 33.1538 4.5808 32.1661 4.59681C31.2016 4.61288 30.298 4.98992 29.5978 5.58131L29.5789 4.14674C29.5653 3.14274 29.1647 2.20534 28.451 1.50786C27.7405 0.81375 26.8058 0.440482 25.8182 0.45684C23.7901 0.489265 22.1607 2.16886 22.1607 4.21152ZM10.2958 34.1384C10.6388 34.305 10.897 34.6015 11.0225 34.9734C11.2821 35.7331 10.8984 36.5657 10.1725 36.834L9.24383 34.0842C9.24723 34.0828 9.25125 34.0838 9.25535 34.0824C9.59699 33.959 9.96708 33.9787 10.2958 34.1384ZM25.6793 22.819C25.6793 23.9758 24.7452 24.917 23.597 24.917L23.597 20.7237C24.7452 20.7237 25.6793 21.6635 25.6793 22.819ZM34.7026 13.735C33.5544 13.735 32.6203 12.7939 32.6203 11.6374C32.6203 10.4819 33.5544 9.54181 34.7026 9.54181L34.7026 13.735Z" fill="#808080"/>
<path d="M34.008 40.9901C34.008 39.4477 32.7642 38.1957 31.2302 38.1957C29.699 38.1957 28.4552 39.4477 28.4552 40.9901C28.4552 42.5346 29.699 43.7866 31.2302 43.7866C32.7642 43.7866 34.008 42.5346 34.008 40.9901ZM29.8434 40.9901C29.8434 40.2199 30.4657 39.5934 31.2302 39.5934C31.9962 39.5934 32.6198 40.2199 32.6198 40.9901C32.6198 41.7614 31.9962 42.3889 31.2302 42.3889C30.4657 42.3889 29.8434 41.7614 29.8434 40.9901Z" fill="#808080"/>
<path d="M31.2302 64.0537C32.7642 64.0537 34.008 62.8017 34.008 61.2572C34.008 59.7148 32.7642 58.4627 31.2302 58.4627C29.699 58.4627 28.4552 59.7148 28.4552 61.2572C28.4552 62.8017 29.699 64.0537 31.2302 64.0537ZM29.8434 61.2572C29.8434 60.487 30.4657 59.8605 31.2302 59.8605C31.9962 59.8605 32.6198 60.487 32.6198 61.2572C32.6198 62.0285 31.9962 62.656 31.2302 62.656C30.4657 62.656 29.8434 62.0285 29.8434 61.2572Z" fill="#808080"/>
<path d="M3.15447 30.3448C3.15447 30.2121 3.1172 30.078 3.03856 29.9592C2.80069 29.5982 2.58038 29.2156 2.3845 28.8229C2.2116 28.4782 1.7941 28.3393 1.45177 28.513C1.11013 28.6867 0.971867 29.1064 1.14401 29.4514C1.3657 29.8937 1.61377 30.3243 1.88218 30.7318C2.09368 31.0532 2.52478 31.1413 2.84407 30.928C3.04536 30.7935 3.15447 30.5714 3.15447 30.3448Z" fill="#808080"/>
<path d="M5.14834 34.0055C5.14834 33.926 5.1348 33.8451 5.10634 33.7659C4.92734 33.2729 4.74638 32.82 4.56744 32.4198C4.40946 32.0679 3.99869 31.9113 3.64894 32.07C3.29918 32.229 3.14599 32.6436 3.30126 32.9944C3.4666 33.3633 3.6354 33.784 3.80213 34.2451C3.93366 34.6074 4.33221 34.7945 4.69217 34.662C4.97342 34.5587 5.14834 34.2908 5.14834 34.0055Z" fill="#808080"/>
<path d="M1.5448 26.5052C1.5448 26.4602 1.5407 26.4145 1.53126 26.3684C1.44651 25.9374 1.39841 25.5105 1.38821 25.1C1.37807 24.714 1.06017 24.409 0.676473 24.4189C0.293536 24.4288 0.010828 24.7495 -9.04297e-08 25.1348C0.0122155 25.6252 0.0698263 26.1316 0.170125 26.6408C0.244671 27.0192 0.610046 27.2652 0.985558 27.1901C1.31637 27.1239 1.5448 26.8322 1.5448 26.5052Z" fill="#808080"/>
<path d="M5.19212 19.0269C5.45851 18.9146 5.61843 18.6549 5.61843 18.3815C5.61843 18.2918 5.6015 18.2004 5.56492 18.1123C5.41715 17.756 5.01047 17.5882 4.65662 17.737C4.21329 17.9236 3.76053 18.2024 3.3104 18.5658C3.01152 18.8078 2.96405 19.2483 3.2033 19.5483C3.44326 19.8496 3.88047 19.8977 4.17942 19.6565C4.52779 19.3746 4.86881 19.1627 5.19212 19.0269Z" fill="#808080"/>
<path d="M6.35399 38.0255C6.35399 37.9685 6.34719 37.9102 6.33234 37.8522C6.22656 37.4355 6.10391 36.9704 5.96627 36.4824C5.86187 36.1111 5.47824 35.8951 5.10947 36.0006C4.74007 36.1057 4.52385 36.4936 4.63095 36.8632C4.7645 37.3389 4.88444 37.7918 4.98751 38.1982C5.0824 38.5722 5.45992 38.7977 5.8314 38.7022C6.14521 38.6217 6.35399 38.3374 6.35399 38.0255Z" fill="#808080"/>
<path d="M12.6926 21.3516C12.8512 21.2134 12.9319 21.0193 12.9319 20.8238C12.9319 20.6613 12.8756 20.4982 12.7617 20.3658C12.4133 19.9621 12.0859 19.6144 11.7606 19.3035C11.482 19.038 11.0428 19.0496 10.7791 19.3298C10.5161 19.6096 10.5269 20.0515 10.8048 20.3176C11.0977 20.5971 11.3952 20.9128 11.7138 21.2824C11.9653 21.5738 12.4031 21.6048 12.6926 21.3516Z" fill="#808080"/>
<path d="M1.8397 22.6774C1.88107 22.5832 1.92577 22.4904 1.97325 22.3994C2.11492 22.1281 2.28164 21.8499 2.46738 21.5725C2.54804 21.4524 2.5867 21.3163 2.5867 21.1818C2.5867 20.9572 2.4796 20.7371 2.28095 20.602C1.96374 20.386 1.53194 20.4699 1.31774 20.7897C1.10291 21.1095 0.91037 21.4323 0.74434 21.7496C0.682636 21.8687 0.624331 21.9895 0.570816 22.111C0.415546 22.4648 0.573522 22.8771 0.923975 23.033C1.27436 23.1896 1.6845 23.0303 1.8397 22.6774Z" fill="#808080"/>
<path d="M7.57843 18.6449C7.97157 18.6814 8.36131 18.7742 8.73751 18.921C9.09539 19.0602 9.49735 18.8814 9.63561 18.5214C9.66747 18.4385 9.68239 18.3532 9.68239 18.2692C9.68239 17.9891 9.51428 17.7246 9.23914 17.6175C8.74293 17.4239 8.22707 17.3014 7.70586 17.2534C7.32425 17.2179 6.98601 17.5008 6.95075 17.885C6.91618 18.2747 7.19743 18.6098 7.57843 18.6449Z" fill="#808080"/>
<path d="M7.09554 42.1526C7.09554 42.1093 7.09144 42.0649 7.08332 42.0206C7.00128 41.5893 6.93083 41.1449 6.87454 40.6863C6.82776 40.3034 6.48071 40.0315 6.10047 40.0789C5.72017 40.126 5.44635 40.4734 5.49716 40.8583C5.55547 41.3343 5.63071 41.8138 5.71948 42.2833C5.79139 42.6624 6.15538 42.9109 6.53158 42.8386C6.8644 42.7744 7.09554 42.4812 7.09554 42.1526Z" fill="#808080"/>
<path d="M13.731 64.8054L13.8354 63.4117C13.8368 63.394 13.8375 63.3762 13.8375 63.3585C13.8375 62.9964 13.5602 62.69 13.1955 62.6623C12.8133 62.6333 12.4797 62.9217 12.4513 63.3066L12.3469 64.7003C12.3197 65.0814 12.6038 65.421 12.9868 65.4497C13.369 65.4787 13.7025 65.1903 13.731 64.8054Z" fill="#808080"/>
<path d="M14.3581 56.4426L14.4625 55.0486C14.4639 55.0309 14.4646 55.0132 14.4646 54.9954C14.4646 54.6333 14.1873 54.3269 13.8226 54.2993C13.4403 54.2703 13.1068 54.5586 13.0784 54.9435L12.974 56.3375C12.9428 56.718 13.2316 57.0578 13.6139 57.0868C13.9961 57.1159 14.3296 56.8276 14.3581 56.4426Z" fill="#808080"/>
<path d="M14.0448 60.6237L14.1492 59.23C14.1505 59.2124 14.1512 59.1946 14.1512 59.1769C14.1512 58.8148 13.874 58.5083 13.5093 58.4807C13.127 58.4517 12.7935 58.7401 12.765 59.125L12.6606 60.5186C12.6315 60.9032 12.9182 61.239 13.3005 61.268C13.6828 61.297 14.0163 61.0087 14.0448 60.6237Z" fill="#808080"/>
<path d="M13.1204 52.9104C13.1204 52.7149 13.039 52.5204 12.881 52.3821C12.5543 52.0965 12.2283 51.7867 11.9117 51.4611C11.644 51.1851 11.2041 51.1803 10.9303 51.4502C10.6564 51.7198 10.6517 52.1624 10.9194 52.4385C11.2617 52.7913 11.6162 53.1274 11.9714 53.438C12.2609 53.6908 12.6994 53.6595 12.9502 53.368C13.0648 53.2356 13.1204 53.0728 13.1204 52.9104Z" fill="#808080"/>
<path d="M8.29626 46.156C8.29626 46.0652 8.27863 45.9731 8.24136 45.8843C8.06915 45.4732 7.90916 45.0496 7.76548 44.6259C7.64214 44.2603 7.24831 44.0648 6.88501 44.1891C6.52234 44.3133 6.32438 44.7108 6.45182 45.0756C6.6057 45.5312 6.77722 45.9863 6.96296 46.4283C7.11205 46.7839 7.51873 46.9504 7.87189 46.8002C8.13697 46.6877 8.29626 46.4286 8.29626 46.156Z" fill="#808080"/>
<path d="M10.3275 49.8068C10.3275 49.6659 10.2855 49.5236 10.1974 49.4C9.93911 49.0373 9.69104 48.6598 9.4606 48.2787C9.26063 47.949 8.83362 47.8446 8.50621 48.0453C8.17949 48.2459 8.0751 48.6763 8.27438 49.0056C8.52314 49.4167 8.79086 49.8235 9.06947 50.2149C9.29318 50.5285 9.7263 50.6002 10.0381 50.3753C10.2272 50.2388 10.3275 50.0245 10.3275 49.8068Z" fill="#808080"/>
</mask>
<g mask="url(#mask0_4600_14560)">
<rect x="-13.8821" y="63.355" width="69.8873" height="69.4105" transform="rotate(-90 -13.8821 63.355)" fill="white"/>
</g>
</svg>
