<svg fill="none" height="92" viewBox="0 0 92 92" width="92" xmlns="http://www.w3.org/2000/svg"><path d="m60.4748 60.5356-8.5893-4.4276c-1.1955-.6198-2.7008-.3099-3.542.7527l-3.1436 4.0291c-3.0549-1.6382-5.4015-3.2321-8.1023-5.9329-2.8779-2.8779-4.4275-5.2687-6.0214-8.2352l3.9847-3.0992c1.0627-.8413 1.4169-2.3466.7527-3.542l-4.3832-8.5451c-.797-1.5054-2.7008-1.9924-4.0733-1.0626l-5.4901 3.6305c-1.2397.8413-1.9481 2.3023-1.8596 3.8077.0886 1.5496.31 3.4977.6642 4.8702 1.5939 6.11 5.4015 12.4413 10.7588 17.7986 5.3573 5.4016 11.6886 9.2092 17.7986 10.8031 1.3725.3542 3.3206.5313 4.9145.6642 1.5496.0885 3.0107-.6642 3.8519-1.9481l3.542-5.5344c.9298-1.4168.3985-3.2764-1.0626-4.029z" stroke="#06b9ff" stroke-width="1.5"/><g fill="#06b9ff"><path d="m42.4611 34.4444c0-7.7713 6.3231-14.0944 14.0944-14.0944 7.7714 0 14.0945 6.3231 14.0945 14.0944 0 7.7714-6.3231 14.0945-14.0945 14.0945-7.7713 0-14.0944-6.3231-14.0944-14.0945zm2.1889 0c0 6.5651 5.3405 11.9056 11.9055 11.9056 6.5651 0 11.9056-5.3405 11.9056-11.9056 0-6.565-5.3405-11.9055-11.9056-11.9055-6.565 0-11.9055 5.3405-11.9055 11.9055z" stroke="#06b9ff" stroke-width=".7"/><path d="m57 40.2222h-.8889c-.5523 0-1 .4477-1 1v.8889c0 .5522.4477 1 1 1h.8889c.5523 0 1-.4478 1-1v-.8889c0-.5523-.4477-1-1-1z"/><path d="m58 35.8889v-8.6666c0-.7978-.6467-1.4445-1.4445-1.4445-.7977 0-1.4444.6467-1.4444 1.4445v8.6666c0 .7978.6467 1.4445 1.4444 1.4445.7978 0 1.4445-.6467 1.4445-1.4445z"/></g></svg>