<svg xmlns="http://www.w3.org/2000/svg" viewBox="0 0 59.401 53.992"><defs><style>.a{fill:#fff;}</style></defs><title>icon-muac</title><path class="a" d="M29.7,28.213a.752.752,0,0,1-.374-.1C17.645,21.4,11.722,15.239,11.722,9.8a.752.752,0,0,1,1.5,0c0,4.791,5.826,10.672,16.849,17.006a.752.752,0,0,1-.376,1.4Z"/><path class="a" d="M47.81,53.992a.749.749,0,0,1-.273-.051,109.868,109.868,0,0,1-18.252-9.613.752.752,0,0,1,.831-1.255,109.256,109.256,0,0,0,17.475,9.266L57.37,40.926c-2.415-.891-8.792-3.316-15.954-6.626a.752.752,0,1,1,.631-1.365C51.064,37.1,58.822,39.854,58.9,39.882a.752.752,0,0,1,.32,1.2L48.382,53.729A.751.751,0,0,1,47.81,53.992Z"/><path class="a" d="M17.67,34.371a.749.749,0,0,1-.561-.252C12.361,28.791,9.954,23.35,9.954,17.946,9.954,4.7,20.592,0,29.7,0a.752.752,0,0,1,0,1.5c-8.818,0-18.242,4.319-18.242,16.442,0,5.024,2.278,10.128,6.772,15.172a.752.752,0,0,1-.561,1.253Z"/><path class="a" d="M11.591,53.992a.751.751,0,0,1-.571-.263L.181,41.08a.752.752,0,0,1,.32-1.2c.077-.027,7.835-2.779,16.852-6.947a.752.752,0,1,1,.631,1.365C10.822,37.611,4.446,40.035,2.03,40.926L11.81,52.339c4.365-1.8,36.132-15.6,36.132-34.393C47.942,5.824,38.519,1.5,29.7,1.5a.752.752,0,1,1,0-1.5c9.108,0,19.745,4.7,19.745,17.946,0,8.781-6.53,17.8-18.884,26.084a109.757,109.757,0,0,1-18.7,9.91A.749.749,0,0,1,11.591,53.992Z"/><path class="a" d="M17.669,34.37a.752.752,0,0,1-.315-1.435c18.585-8.589,28.82-16.8,28.82-23.133a.752.752,0,0,1,1.5,0c0,8.907-16.148,18.239-29.694,24.5A.745.745,0,0,1,17.669,34.37Z"/><path class="a" d="M43.872,17.435a.751.751,0,0,1-.7-.468c-.022-.05-2.468-5.508-13.506-5.508S16.25,16.91,16.227,16.966a.753.753,0,0,1-1.4-.561c.1-.263,2.7-6.45,14.839-6.45s14.792,6.181,14.9,6.444a.752.752,0,0,1-.7,1.036Z"/><rect class="a" x="28.917" y="0.812" width="1.504" height="6.275"/><rect class="a" x="36.157" y="1.717" width="1.504" height="6.275"/><rect class="a" x="41.586" y="4.431" width="1.504" height="6.276"/><rect class="a" x="16.248" y="4.431" width="1.504" height="6.276"/><rect class="a" x="21.677" y="1.717" width="1.504" height="6.275"/><rect class="a" x="46.59" y="41.131" width="8.46" height="1.504" transform="translate(-14.051 53.225) rotate(-49.411)"/><rect class="a" x="40.991" y="38.294" width="7.714" height="1.504" transform="translate(-13.983 47.699) rotate(-49.411)"/><rect class="a" x="20.276" y="24.795" width="5.446" height="1.505" transform="translate(-11.345 26.992) rotate(-50.414)"/><rect class="a" x="15.84" y="21.992" width="5.294" height="1.504" transform="translate(-10.813 21.985) rotate(-49.411)"/><rect class="a" x="13.155" y="18.755" width="3.575" height="1.504" transform="translate(-9.593 18.162) rotate(-49.411)"/><rect class="a" x="9.198" y="36.483" width="1.504" height="11.58" transform="translate(-25.112 16.648) rotate(-40.594)"/><rect class="a" x="16.061" y="33.907" width="1.504" height="10.425" transform="translate(-21.407 20.353) rotate(-40.591)"/><rect class="a" x="21.956" y="31.323" width="1.505" height="9.147" transform="translate(-17.9 23.44) rotate(-40.629)"/><rect class="a" x="28.585" y="28.852" width="1.504" height="7.385" transform="translate(-14.042 26.381) rotate(-39.88)"/><rect class="a" x="34.476" y="25.41" width="1.504" height="5.832" transform="translate(-9.953 29.739) rotate(-40.593)"/><rect class="a" x="39.043" y="21.775" width="1.504" height="5.96" transform="translate(-6.532 31.847) rotate(-40.588)"/><rect class="a" x="42.814" y="18.434" width="1.504" height="3.645" transform="translate(-2.696 33.221) rotate(-40.591)"/></svg>