<svg width="36" height="35" viewBox="0 0 36 35" fill="none" xmlns="http://www.w3.org/2000/svg">
<path d="M34.4596 12.184L34.4596 12.184L34.4677 12.1897C34.6625 12.3247 34.8088 12.5188 34.8851 12.7432C34.9614 12.9676 34.9637 13.2106 34.8917 13.4364L35.6062 13.6645L34.8917 13.4364C34.8196 13.6622 34.677 13.859 34.4847 13.9977L34.9236 14.6059L34.4847 13.9977C34.2925 14.1364 34.0609 14.2098 33.8238 14.2071L33.8238 14.207H33.8152H30.5899H29.8399V14.957V32.9265C29.8399 33.2775 29.7004 33.6141 29.4522 33.8623C29.2041 34.1105 28.8674 34.25 28.5164 34.25L23.7073 34.2499L23.702 34.25C23.5286 34.2512 23.3566 34.2179 23.1962 34.1521C23.0357 34.0863 22.8899 33.9893 22.7672 33.8666C22.6446 33.744 22.5475 33.5982 22.4817 33.4377C22.4159 33.2772 22.3827 33.1053 22.3839 32.9318V32.9265V27.002C22.4183 26.3919 22.3291 25.781 22.1215 25.206C21.9112 24.6234 21.5839 24.0901 21.1597 23.6389C20.7354 23.1877 20.2233 22.8281 19.6548 22.5823C19.0864 22.3365 18.4736 22.2097 17.8542 22.2097C17.2349 22.2097 16.6221 22.3365 16.0536 22.5823C15.4852 22.8281 14.9731 23.1877 14.5488 23.6389C14.1246 24.0901 13.7972 24.6234 13.5869 25.206C13.3794 25.781 13.2902 26.3918 13.3246 27.002V32.9265C13.3246 33.2775 13.1852 33.6141 12.937 33.8623C12.6888 34.1105 12.3522 34.25 12.0012 34.25H6.9271C6.58347 34.241 6.2567 34.0986 6.01607 33.8529C5.77382 33.6055 5.63818 33.273 5.63825 32.9267V32.9265V14.957V14.207H4.88825H1.87893V14.207L1.87025 14.2071C1.63322 14.2098 1.40156 14.1364 1.20935 13.9977C1.01713 13.859 0.874498 13.6622 0.802427 13.4364C0.730355 13.2106 0.732646 12.9676 0.808964 12.7432C0.885283 12.5188 1.0316 12.3247 1.2264 12.1897L1.22641 12.1897L1.23183 12.1859L16.984 1.0557L16.984 1.05574L16.991 1.05068C17.261 0.855227 17.5857 0.75 17.919 0.75C18.2523 0.75 18.5771 0.855227 18.8471 1.05068L18.8471 1.05069L18.8515 1.05382L34.4596 12.184Z" stroke="#FFFFFF" stroke-width="1"/>
</svg>
