<svg xmlns="http://www.w3.org/2000/svg" viewBox="0 0 50.534 65.756"><defs><style>.a{fill:#fff;}</style></defs><title>icon-weight</title><path class="a" d="M12.8,62.254H3.5V53.5a.752.752,0,1,1,1.5,0V60.75H12.8a.752.752,0,1,1,0,1.5Z"/><path class="a" d="M47.031,62.254H37.9a.752.752,0,0,1,0-1.5h7.627V53.12a.752.752,0,1,1,1.5,0Z"/><path class="a" d="M46.279,28.607a.752.752,0,0,1-.752-.752V20.229H37.734a.752.752,0,0,1,0-1.5h9.3v9.131A.752.752,0,0,1,46.279,28.607Z"/><path class="a" d="M4.254,28.614a.752.752,0,0,1-.752-.752V18.724h9.132a.752.752,0,1,1,0,1.5H5.006v7.633A.752.752,0,0,1,4.254,28.614Z"/><path class="a" d="M25.267,65.756A25.267,25.267,0,1,1,50.534,40.489,25.3,25.3,0,0,1,25.267,65.756Zm0-49.029A23.762,23.762,0,1,0,49.029,40.489,23.789,23.789,0,0,0,25.267,16.727Z"/><path class="a" d="M25.267,59.919A19.43,19.43,0,1,1,44.7,40.489,19.452,19.452,0,0,1,25.267,59.919Zm0-37.356A17.926,17.926,0,1,0,43.192,40.489,17.946,17.946,0,0,0,25.267,22.564Z"/><rect class="a" x="23.937" y="36.527" width="9.08" height="1.504" transform="translate(-18.02 31.055) rotate(-45)"/><rect class="a" x="24.515" y="21.812" width="1.504" height="4.669"/><rect class="a" x="16.343" y="24.001" width="1.504" height="4.67" transform="translate(-10.879 12.078) rotate(-30.004)"/><rect class="a" x="10.361" y="29.983" width="1.504" height="4.669" transform="translate(-22.431 25.782) rotate(-59.998)"/><rect class="a" x="6.589" y="39.737" width="4.669" height="1.504"/><rect class="a" x="8.779" y="47.909" width="4.669" height="1.504" transform="translate(-22.844 12.078) rotate(-30.004)"/><rect class="a" x="14.76" y="53.891" width="4.67" height="1.504" transform="matrix(0.5, -0.866, 0.866, 0.5, -38.774, 42.122)"/><rect class="a" x="24.515" y="54.498" width="1.504" height="4.67"/><rect class="a" x="32.686" y="52.308" width="1.504" height="4.669" transform="translate(-22.838 24.034) rotate(-29.994)"/><rect class="a" x="38.668" y="46.326" width="1.504" height="4.67" transform="translate(-22.431 58.473) rotate(-60.004)"/><rect class="a" x="39.275" y="39.737" width="4.669" height="1.504"/><rect class="a" x="37.085" y="31.566" width="4.67" height="1.504" transform="translate(-10.878 24.043) rotate(-30.004)"/><rect class="a" x="31.104" y="25.583" width="4.669" height="1.504" transform="translate(-6.089 42.123) rotate(-59.996)"/><path class="a" d="M25.132,13.917a4.206,4.206,0,0,1-2.049-.514,3.777,3.777,0,0,1-1.876-3.478.752.752,0,0,1,1.5,0,2.307,2.307,0,0,0,1.107,2.165,2.946,2.946,0,0,0,2.856-.1,1.838,1.838,0,0,0,.947-1.69c-.048-1.242-.981-1.727-2.5-2.415-1.636-.741-3.671-1.663-3.671-4.4A3.3,3.3,0,0,1,22.626.829,3.832,3.832,0,0,1,25.073,0c1.665,0,3.435,1,3.435,2.868a.752.752,0,0,1-1.5,0c0-.886-.994-1.364-1.931-1.364a2.329,2.329,0,0,0-1.488.484,1.84,1.84,0,0,0-.631,1.5c0,1.682,1.059,2.248,2.788,3.031,1.468.666,3.3,1.494,3.382,3.728a3.336,3.336,0,0,1-1.664,3.031A4.484,4.484,0,0,1,25.132,13.917Z"/><path class="a" d="M25.267,16.848a.752.752,0,0,1-.752-.752V10.342a.752.752,0,1,1,1.5,0V16.1A.752.752,0,0,1,25.267,16.848Z"/></svg>