<svg viewBox="0 0 96 96" xmlns="http://www.w3.org/2000/svg"><path d="m71.52 41a14.66 14.66 0 0 0 -5.52-9.78 14.18 14.18 0 0 0 -10.59-2.88 13.94 13.94 0 0 0 -6.73 2.77l-.23.18-.23-.17a25.47 25.47 0 0 0 -2.22-1.57 14.85 14.85 0 0 0 -7.19-1.88 14 14 0 0 0 -11 5.21c-2.95 3.61-3.81 8.01-2.51 13.12a18.1 18.1 0 0 0 4.82 8.21l.11.11v.15a4.85 4.85 0 0 0 1.57 3.44 4.77 4.77 0 0 0 2.43 1.22h.27v.26a4.51 4.51 0 0 0 1.3 2.49 4.44 4.44 0 0 0 2.49 1.21h.26v.26a4.9 4.9 0 0 0 1.45 2.65 6.36 6.36 0 0 0 3 1.51h.23l.06.22a4 4 0 0 0 2.66 3 4.79 4.79 0 0 0 1.5.24 4 4 0 0 0 2.77-1l.42-.39a24.62 24.62 0 0 0 3.71-4l.15-.23.26.07a3.89 3.89 0 0 0 3.31-.48 3.69 3.69 0 0 0 1.59-2.91v-.33h.33a4.45 4.45 0 0 0 2.7-1.13 4.13 4.13 0 0 0 1.13-2.75v-.34h.34a4.55 4.55 0 0 0 2.94-1.48 3.66 3.66 0 0 0 .9-3.26v-.17l.11-.14a15.28 15.28 0 0 0 3.41-11.43zm-36.52 16.36h-.15a2.82 2.82 0 0 1 -1.85-.79 3.12 3.12 0 0 1 -1-2.09v-.17l4.83-4.67a2.1 2.1 0 0 1 3 .33 2.07 2.07 0 0 1 .36 2.37l-.07.09zm4.13 4h-.13a2.69 2.69 0 0 1 -1.9-.76 2.82 2.82 0 0 1 -.81-1.8v-.18l5.16-5c.39-.2 1.73-.79 2.56 0a2.7 2.7 0 0 1 .64 2.4v.12zm4.44 4.44h-.19a4.47 4.47 0 0 1 -2.13-1.06 3.17 3.17 0 0 1 -.87-1.88v-.18l5.46-5.15h.12a2.7 2.7 0 0 1 2.48.66 3 3 0 0 1 .4 2.09v.12zm9.52-1.69c-.26.7-1.47 2.07-3.61 4.07l-.09.09c-.15.14-.28.25-.36.34a2.42 2.42 0 0 1 -1.6.59 2.75 2.75 0 0 1 -.93-.2c-.58-.19-1.17-.55-1.54-1.87l-.06-.13 5.32-5.5a2.05 2.05 0 0 1 2.16.67 4.13 4.13 0 0 1 .71 1.79v.04zm12.74-9.33a3.08 3.08 0 0 1 -2.7.77h-.12l-9.06-9.14a.88.88 0 0 0 -.63-.26.88.88 0 0 0 -.63 1.51l9.14 9.23a2 2 0 0 1 -.37 2.33 2.38 2.38 0 0 1 -2.44.45l-9.31-9.53a.89.89 0 0 0 -1.26 0 .85.85 0 0 0 -.27.62.87.87 0 0 0 .25.64l9.35 9.57v.1a2.14 2.14 0 0 1 -.78 2.35 1.77 1.77 0 0 1 -1 .27 3.35 3.35 0 0 1 -.92-.13l-.21-.07v-.21a5.58 5.58 0 0 0 -1-2.28 4.28 4.28 0 0 0 -2.87-1.45h-.32v-.32a3.9 3.9 0 0 0 -.92-2.23 4.05 4.05 0 0 0 -3-1.34h-.34v-.34a4.15 4.15 0 0 0 -1.22-2.88 3.22 3.22 0 0 0 -2.67-.92h-.38v-.38a4 4 0 0 0 -1-2.3 3.9 3.9 0 0 0 -5.43-.61l-.07.07-4.53 4.38-.26-.27a16 16 0 0 1 -3.86-6.89c-1.12-4.52-.42-8.33 2.18-11.52a12.52 12.52 0 0 1 15.91-2.89 19.47 19.47 0 0 1 1.71 1.15l.36.27-7.71 7.54a3.89 3.89 0 0 0 -1.34 2.68 3.15 3.15 0 0 0 1.25 2.46c2.49 2.15 6.25 1.89 8.94-.61 1-1 3.39-3.27 4.71-4.56l.26-.27 12.9 13.11v.1a2 2 0 0 1 -.36 1.79zm1.32-4.07-.26.35-13-13.16a.93.93 0 0 0 -1.26 0c-1 1-4.33 4.26-5.58 5.41-2 1.88-4.76 2.12-6.56.58a1.53 1.53 0 0 1 -.63-1.1 2 2 0 0 1 .73-1.35l8.5-8.33a12 12 0 0 1 6.55-3 12.4 12.4 0 0 1 9.25 2.52 12.84 12.84 0 0 1 4.83 8.6 13.25 13.25 0 0 1 -2.59 9.47z" fill="#fff"/></svg>