<svg width="82" height="131" viewBox="0 0 82 131" fill="none" xmlns="http://www.w3.org/2000/svg">
    <path d="M40.1812 13.151C31.2321 -3.53766 13.6184 -0.403313 11.1997 15.3185C9.63674 25.4764 17.0451 45.2614 40.4578 53.7751" stroke="white" stroke-width="4" stroke-linecap="round"/>
    <path d="M40.5005 13.4079C49.4495 -3.28083 67.0633 -0.146477 69.4819 15.5753C71.0449 25.7333 63.6366 45.5182 40.2239 54.0319" stroke="white" stroke-width="4" stroke-linecap="round"/>
    <path d="M39.328 83.3761C39.3201 83.3931 39.2277 83.5806 38.8419 83.9062C38.4643 84.2249 37.914 84.5849 37.1934 84.9593C35.7559 85.7061 33.7874 86.4343 31.5404 86.9883C27.0095 88.1055 21.6591 88.4398 17.5309 87.0636C13.4811 85.7135 10.2094 82.3613 8.05251 78.8549C6.9828 77.1158 6.223 75.3947 5.79387 73.9606C5.57918 73.2432 5.45506 72.6236 5.40866 72.1273C5.36012 71.6082 5.40648 71.3255 5.44112 71.2216C5.4749 71.1203 5.59945 70.8814 5.93072 70.5248C6.24892 70.1823 6.69882 69.7947 7.2787 69.3881C8.43795 68.5754 10.0245 67.7519 11.8748 67.0983C15.5967 65.7838 20.1588 65.2337 24.249 66.5973C28.3468 67.9634 32.3841 71.5988 35.3112 75.4027C36.76 77.2855 37.8852 79.1436 38.579 80.6778C38.9268 81.4468 39.1499 82.0984 39.2601 82.607C39.3149 82.8597 39.3367 83.0543 39.3394 83.1952C39.3416 83.313 39.3299 83.3677 39.328 83.3761Z" stroke="white" stroke-width="3"/>
    <path d="M42.024 82.8566C42.0319 82.8736 42.1243 83.061 42.5101 83.3867C42.8878 83.7054 43.438 84.0654 44.1586 84.4398C45.5961 85.1865 47.5647 85.9148 49.8116 86.4688C54.3425 87.586 59.6929 87.9203 63.8211 86.544C67.8709 85.1939 71.1427 81.8417 73.2995 78.3353C74.3693 76.5963 75.1291 74.8752 75.5582 73.4411C75.7729 72.7237 75.897 72.104 75.9434 71.6078C75.9919 71.0886 75.9456 70.806 75.9109 70.7021C75.8772 70.6007 75.7526 70.3618 75.4213 70.0053C75.1031 69.6628 74.6532 69.2751 74.0734 68.8686C72.9141 68.0559 71.3276 67.2323 69.4772 66.5788C65.7553 65.2643 61.1933 64.7142 57.103 66.0778C53.0053 67.4439 48.9679 71.0793 46.0409 74.8831C44.5921 76.766 43.4669 78.6241 42.773 80.1582C42.4252 80.9272 42.2022 81.5789 42.0919 82.0875C42.0372 82.3402 42.0153 82.5348 42.0127 82.6757C42.0105 82.7935 42.0222 82.8481 42.024 82.8566Z" stroke="white" stroke-width="3"/>
    <path d="M40.6006 54L40.6006 129" stroke="white" stroke-width="4" stroke-linecap="round"/>
</svg>