<svg viewBox="0 0 96 96" xmlns="http://www.w3.org/2000/svg"><g fill="#fff"><path d="m52.18 76.1a2.52 2.52 0 0 1 -1.68-.63 3 3 0 0 1 -1-2.1l-.92-20.5h-1.22l-.78 20.52a3 3 0 0 1 -.93 2.08 2.59 2.59 0 0 1 -1.92.59h-1.89a2.88 2.88 0 0 1 -2.7-3.06.53.53 0 0 1 0-.13l1.3-20.64v-13.8h-15.05a3.14 3.14 0 0 1 0-6.28h45.83a3.14 3.14 0 0 1 0 6.28h-15.7v13.81l1.48 20.59a2.91 2.91 0 0 1 -2.51 3.26h-2.31zm-6.08-24.48h3.77l1 21.7a1.76 1.76 0 0 0 .53 1.23 1.32 1.32 0 0 0 1 .29h2a1.65 1.65 0 0 0 1.35-1.84l-1.48-20.71v-15.11h16.95a1.89 1.89 0 0 0 0-3.77h-45.83a1.89 1.89 0 1 0 0 3.77h16.32v15.06l-1.3 20.76a1.65 1.65 0 0 0 1.4 1.87h2a1.38 1.38 0 0 0 1.07-.29 1.75 1.75 0 0 0 .5-1.26z"/><path d="m48 29.64a5.65 5.65 0 1 1 5.64-5.64 5.65 5.65 0 0 1 -5.64 5.64zm0-10a4.4 4.4 0 1 0 4.38 4.36 4.4 4.4 0 0 0 -4.38-4.4z"/></g></svg>