<svg width="64" height="61" viewBox="0 0 64 61" fill="none" xmlns="http://www.w3.org/2000/svg">
    <path d="M61.0532 30.5139C61.0532 47.2849 47.4568 60.8814 30.6858 60.8814C13.9135 60.8814 0.318344 47.2849 0.318344 30.5139C0.318344 13.7427 13.9135 0.146484 30.6858 0.146484C42.2873 0.146484 52.3681 6.65357 57.4815 16.2163L52.8916 18.3118C48.5811 10.4841 40.2534 5.17993 30.6858 5.17993C16.6939 5.17993 5.35182 16.522 5.35182 30.5139C5.35182 44.5056 16.6939 55.8481 30.6858 55.8481C44.6775 55.8481 56.0199 44.5056 56.0199 30.5139C56.0199 28.0313 55.6615 25.6326 54.9956 23.3657L59.6789 21.4558C60.5723 24.3164 61.0533 27.359 61.0533 30.5139H61.0532Z" fill="white"/>
    <path d="M50.9867 30.5138C50.9867 41.7255 41.8975 50.8147 30.6858 50.8147C19.4736 50.8147 10.3849 41.7255 10.3849 30.5138C10.3849 19.3022 19.4736 10.2129 30.6858 10.2129C38.2188 10.2129 44.7935 14.3161 48.2971 20.4093L44.0139 22.3647C41.2681 17.8836 36.3262 14.8935 30.6857 14.8935C22.0587 14.8935 15.0655 21.8871 15.0655 30.5138C15.0655 39.1405 22.0587 46.1341 30.6857 46.1341C39.3125 46.1341 46.306 39.1405 46.306 30.5138C46.306 29.3287 46.1733 28.1748 45.9231 27.0654L50.3038 25.2788C50.7484 26.9491 50.9867 28.7035 50.9867 30.5138L50.9867 30.5138Z" fill="white"/>
    <path d="M42.2224 30.5141C42.2224 36.8855 37.0572 42.0507 30.6858 42.0507C24.3141 42.0507 19.1492 36.8855 19.1492 30.5141C19.1492 24.1428 24.3141 18.9775 30.6858 18.9775C34.8259 18.9775 38.4566 21.1587 40.4919 24.4343L38.0459 25.551C36.4506 23.19 33.7496 21.6374 30.6857 21.6374C25.7832 21.6374 21.809 25.6118 21.809 30.5141C21.809 35.4165 25.7832 39.3908 30.6857 39.3908C35.5881 39.3908 39.5624 35.4165 39.5624 30.5141C39.5624 30.099 39.5338 29.6906 39.4785 29.2906L42.0018 28.2616C42.1463 28.9901 42.2223 29.7431 42.2223 30.5141H42.2224Z" fill="white"/>
    <path fill-rule="evenodd" clip-rule="evenodd" d="M29 30.2976L54.7311 18.5116L54.8435 16.9867L61.7352 14L59.9315 17.9026L64 19.2602L57.1083 22.2469L55.9245 21.2837L29.733 32L29 30.2976Z" fill="white"/>
</svg>
