<svg viewBox="68 40 86 142" xmlns="http://www.w3.org/2000/svg"><g fill="#2492d0"><path d="m111.34 42.3a22.07 22.07 0 1 0 22.07 22.07 22.1 22.1 0 0 0 -22.07-22.07zm0 41a18.92 18.92 0 1 1 18.92-18.92 18.95 18.95 0 0 1 -18.92 18.91z"/><path d="m152.24 128.59h.63a8.06 8.06 0 0 0 6.1-13.29l-24.53-28.71a1.57 1.57 0 1 0 -2.39 2l24.54 28.74a4.93 4.93 0 0 1 -.53 6.92 4.93 4.93 0 0 1 -7-.57l-18.06-20.4a1.57 1.57 0 0 0 -2.75 1.08l.46 20.44h-35l.32-20.46a1.57 1.57 0 0 0 -2.75-1.07l-18.11 20.5a4.91 4.91 0 0 1 -7.44-6.42l24.6-28.72a1.57 1.57 0 1 0 -2.4-2l-24.53 28.68a8.06 8.06 0 0 0 12.21 10.53l15.28-17.29-.26 16.5a1.5 1.5 0 0 0 0 .35l.07.32-.07.32a1.55 1.55 0 0 0 0 .33 31.77 31.77 0 0 0 .33 4.55l.18 1.28-1.23.37a1.56 1.56 0 0 0 -.57.31l-10.58 9.12c-3.43 3.2-3.6 9.09-.37 14.29l10.87 19.62a8.1 8.1 0 0 0 7.34 4.69 8.07 8.07 0 0 0 7.31-11.41l-6.81-15 6.67-4.45a1.59 1.59 0 0 0 .23-.19l.63-.62.84.24a21.08 21.08 0 0 0 11.5 0l.81-.23.62.57a1.82 1.82 0 0 0 .2.17l6.67 4.45-6.8 15a8.05 8.05 0 0 0 10.12 10.92 7.78 7.78 0 0 0 4.42-4l.05-.1 10.81-19.53c3.32-5.34 3.15-11.32-.38-14.61l-10.46-9a1.55 1.55 0 0 0 -.5-.28l-1.15-.42.17-1.21a32 32 0 0 0 .34-4.6 1.55 1.55 0 0 0 0-.34l-.07-.32.07-.32a1.54 1.54 0 0 0 0-.36l-.37-16.46 15.2 17.2a8 8 0 0 0 5.52 2.89zm-58 23.72a1.56 1.56 0 0 0 -.56 2l7.36 16.24a4.93 4.93 0 0 1 -2.4 6.45 4.82 4.82 0 0 1 -2 .44 5.12 5.12 0 0 1 -4.58-3l-10.96-19.73c-2.4-3.86-2.52-8.24-.25-10.35l10.91-9.36.77 2a20.89 20.89 0 0 0 7 9.39l1.75 1.27zm17.09-5.45c-7.42 0-15.89-4.53-17.38-17.23l-.2-1.67h35l-.19 1.67c-1.21 10.78-7.65 17.23-17.22 17.23zm30.09-2.58c2.33 2.16 2.21 6.63-.27 10.63l-10.93 19.76a4.87 4.87 0 0 1 -2.73 2.49 5 5 0 0 1 -1.72.31 4.85 4.85 0 0 1 -2-.45 4.93 4.93 0 0 1 -2.4-6.53l7.36-16.22a1.56 1.56 0 0 0 -.56-2l-7-4.65 1.75-1.26a20.81 20.81 0 0 0 7.08-9.36l.77-2z"/></g></svg>