<svg width="91" height="95" viewBox="0 0 91 95" fill="none" xmlns="http://www.w3.org/2000/svg">
<path d="M25.0918 54.0028C15.2952 51.5578 10.0595 49.775 1.91797 44.6768L21.7005 2.00293C39.331 10.3527 49.4507 10.8565 68.0483 2.00293L88.3961 44.6768C80.587 49.5185 75.227 51.4198 64.657 54.0028" stroke="white" stroke-width="3"/>
<path d="M34.418 19.5247C42.5269 12.4966 47.3858 12.8907 56.4614 19.5247" stroke="white" stroke-width="3"/>
<path d="M37.8105 23.4809C43.4245 18.0545 46.7883 18.3588 53.0714 23.4809" stroke="white" stroke-width="3"/>
<path d="M39.5059 26.3076C43.6474 23.6361 46.1749 23.8699 50.8102 26.3076" stroke="white" stroke-width="3"/>
<path d="M60.7009 41.2846V36.4803C48.4591 30.1174 41.5454 29.3671 29.0488 36.4803V41.2846M60.7009 41.2846C48.3289 35.2791 41.4651 35.1595 29.0488 41.2846M60.7009 41.2846V48.633C60.661 49.7972 60.4348 50.3423 59.8531 51.215L54.4836 56.8286C53.4079 57.6482 52.9792 58.2821 52.7879 59.9373C52.7879 59.9373 52.7879 69.546 52.7879 76.6112C52.7879 83.6764 37.5271 83.1112 37.5271 76.6112C37.5271 70.1112 37.5271 60.5025 37.5271 60.5025C37.6407 59.1708 37.5436 58.5075 36.6793 57.6764L30.0662 50.3286C29.3647 49.1825 29.1487 48.64 29.0488 47.7851V41.2846" stroke="white" stroke-width="3"/>
<path d="M45.1582 63.8945V68.1337" stroke="white" stroke-width="3" stroke-linecap="round"/>
<path d="M45.1582 72.0898V76.329" stroke="white" stroke-width="3" stroke-linecap="round"/>
<path d="M45.1582 81.6982V93.0026" stroke="white" stroke-width="3" stroke-linecap="round"/>
</svg>
