<svg viewBox="0 0 143.982 130.871" xmlns="http://www.w3.org/2000/svg"><g fill="#06b9ff"><path d="m71.99 68.385a1.824 1.824 0 0 1 -.907-.242c-28.312-16.272-42.669-31.205-42.669-44.385a1.823 1.823 0 0 1 3.647 0c0 11.613 14.122 25.868 40.841 41.222a1.824 1.824 0 0 1 -.912 3.4z"/><path d="m115.888 130.871a1.815 1.815 0 0 1 -.662-.125 266.31 266.31 0 0 1 -44.241-23.3 1.824 1.824 0 0 1 2.015-3.046 264.828 264.828 0 0 0 42.358 22.461l23.702-27.661c-5.855-2.159-21.311-8.037-38.671-16.06a1.823 1.823 0 0 1 1.529-3.31c21.857 10.1 40.66 16.771 40.848 16.838a1.822 1.822 0 0 1 .776 2.9l-26.27 30.659a1.82 1.82 0 0 1 -1.384.644z"/><path d="m42.83 83.312a1.817 1.817 0 0 1 -1.36-.61c-11.508-12.914-17.341-26.102-17.341-39.202 0-32.107 25.783-43.5 47.863-43.5a1.823 1.823 0 0 1 0 3.647c-21.375 0-44.217 10.469-44.217 39.853 0 12.177 5.522 24.55 16.415 36.776a1.823 1.823 0 0 1 -1.36 3.037z"/><path d="m28.1 130.871a1.82 1.82 0 0 1 -1.384-.637l-26.277-30.66a1.822 1.822 0 0 1 .776-2.9c.185-.074 18.991-6.741 40.848-16.842a1.823 1.823 0 0 1 1.529 3.31c-17.36 8.025-32.816 13.9-38.671 16.06l23.7 27.663c10.579-4.375 87.586-37.808 87.586-83.365 0-29.384-22.84-39.853-44.214-39.853a1.823 1.823 0 0 1 0-3.647c22.078 0 47.861 11.393 47.861 43.5 0 21.285-15.829 43.147-45.774 63.226a266.041 266.041 0 0 1 -45.321 24.021 1.815 1.815 0 0 1 -.659.124z"/><path d="m42.828 83.31a1.823 1.823 0 0 1 -.764-3.478c45.047-20.819 69.857-40.732 69.857-56.074a1.823 1.823 0 0 1 3.647 0c0 21.59-39.141 44.21-71.976 59.383a1.805 1.805 0 0 1 -.764.169z"/><path d="m106.342 42.26a1.82 1.82 0 0 1 -1.688-1.135c-.052-.121-5.983-13.35-32.738-13.35s-32.529 13.214-32.583 13.348a1.824 1.824 0 0 1 -3.386-1.359c.254-.639 6.553-15.635 35.969-15.635s35.855 14.982 36.114 15.62a1.824 1.824 0 0 1 -1.688 2.512z"/><path d="m70.093 1.967h3.647v15.21h-3.647z"/><path d="m87.64 4.161h3.647v15.21h-3.647z"/><path d="m100.8 10.741h3.647v15.211h-3.647z"/><path d="m39.383 10.741h3.647v15.211h-3.647z"/><path d="m52.543 4.161h3.647v15.21h-3.647z"/><path d="m112.929 99.698h20.506v3.645h-20.506z" transform="matrix(.65062844 -.75939623 .75939623 .65062844 -34.058 129.012)"/><path d="m99.358 92.822h18.699v3.645h-18.699z" transform="matrix(.65062844 -.75939623 .75939623 .65062844 -33.894 115.618)"/><path d="m52.949 68.174-2.811-2.325 6.641-8.215 4.579.365z"/><path d="m38.395 53.306h12.833v3.645h-12.833z" transform="matrix(.65062844 -.75939623 .75939623 .65062844 -26.209 53.29)"/><path d="m31.886 45.462h8.666v3.645h-8.666z" transform="matrix(.65062844 -.75939623 .75939623 .65062844 -23.254 44.024)"/><path d="m22.295 88.431h3.645v28.069h-3.645z" transform="matrix(.75933945 -.6506947 .6506947 .75933945 -60.87 40.353)"/><path d="m38.931 82.187h3.645v25.269h-3.645z" transform="matrix(.75937352 -.65065494 .65065494 .75937352 -51.89 49.334)"/><path d="m53.221 75.924h3.647v22.172h-3.647z" transform="matrix(.75894182 -.65115844 .65115844 .75894182 -43.388 56.817)"/><path d="m69.288 69.934h3.646v17.899h-3.646z" transform="matrix(.76738901 -.6411818 .6411818 .76738901 -34.038 63.945)"/><path d="m83.567 61.591h3.645v14.135h-3.645z" transform="matrix(.75935081 -.65068145 .65068145 .75935081 -24.126 72.084)"/><path d="m94.637 52.78h3.645v14.447h-3.645z" transform="matrix(.75940759 -.65061518 .65061518 .75940759 -15.832 77.194)"/><path d="m103.777 44.682h3.645v8.834h-3.645z" transform="matrix(.75937352 -.65065494 .65065494 .75937352 -6.536 80.524)"/></g></svg>