<?xml version="1.0" encoding="UTF-8"?>
<svg xmlns="http://www.w3.org/2000/svg" fill="none" height="81" viewBox="0 0 81 81" width="81">
   <path d="m40.5 81c22.3675 0 40.5-18.1325 40.5-40.5s-18.1325-40.5-40.5-40.5-40.5 18.1325-40.5 40.5 18.1325 40.5 40.5 40.5z" fill="#06b9ff" />
   <g fill="#fff">
      <path d="m40.5557 32.5304c-1.7065 0-3.3749-.506-4.7937-1.454-1.4189-.9481-2.5246-2.2956-3.1777-3.8722-.653-1.5765-.824-3.3113-.491-4.985.3329-1.6736 1.1546-3.211 2.3613-4.4177 1.2066-1.2066 2.7439-2.0283 4.4176-2.3613 1.6736-.3329 3.4087-.162 4.9852.491 1.5766.6531 2.9239 1.7589 3.872 3.1778.948 1.4189 1.4542 3.087 1.4542 4.7934-.0028 2.2875-.9127 4.4804-2.5302 6.0979-1.6174 1.6174-3.8103 2.5274-6.0977 2.5301zm0-15c-1.2615 0-2.4946.3741-3.5435 1.0749-1.0489.7009-1.8665 1.697-2.3492 2.8624-.4828 1.1654-.6091 2.4478-.363 3.685s.8538 2.3737 1.7458 3.2657c.8919.8919 2.0283 1.4994 3.2655 1.7455s2.5197.1198 3.6851-.3629c1.1655-.4828 2.1615-1.3003 2.8624-2.3491.7008-1.0489 1.0748-2.282 1.0748-3.5434-.0004-1.692-.6722-3.3147-1.8681-4.5117-1.1958-1.1969-2.8179-1.8704-4.5098-1.8724z" />
      <path d="m40.5565 55.7983c-4.7865 0-8.1302-3.7815-8.1302-9.198 0-.2983.1186-.5845.3296-.7955.2109-.2109.497-.3295.7954-.3295h13.95c.2984 0 .5845.1186.7955.3295.2109.211.3295.4972.3295.7955.0045 5.4165-3.3163 9.198-8.0698 9.198zm-5.8158-8.073c.357 3.051 2.1963 5.823 5.8158 5.823 3.8025 0 5.4342-2.928 5.7612-5.823z" />
      <path d="m25.2494 47.9714c-.6696.0007-1.3253-.1907-1.8893-.5516-.564-.3608-1.0125-.876-1.2924-1.4842-.2798-.6083-.3792-1.284-.2863-1.9471.0928-.6631.3739-1.2856.81-1.7936l8.9821-10.5165c.1939-.2268.4697-.3672.7672-.3904s.5921.0727.8188.2666c.2268.194.3672.47.3904.7675s-.0727.592-.2666.8188l-8.9821 10.5165c-.1069.1245-.1883.2688-.2395.4248-.0511.1559-.0709.3204-.0585.4841.0123.1636.0566.3232.1307.4697s.1765.2769.301.3839c.1245.1069.2689.1883.4248.2395.156.0512.3205.0711.4842.0587.1636-.0123.323-.0569.4694-.1309.1465-.0741.2772-.1763.3842-.3008l6.6299-7.5c.1522-.1723.3534-.2939.5768-.3483.2233-.0544.4579-.039.6723.044s.3985.2297.527.4203c.1285.1907.1954.4161.1919.646l-.1187 7.599c-.0089.297-.1333.5787-.3468.7854-.2134.2068-.499.3221-.7961.3216-.1478-.0024-.2936-.0338-.4292-.0925s-.2583-.1436-.3611-.2497c-.1028-.1062-.1837-.2315-.238-.3689-.0544-.1374-.0811-.2842-.0788-.4319l.0722-4.554-4.6037 5.2095c-.3279.3799-.7341.6843-1.1909.8922-.4567.2079-.9531.3145-1.4549.3123z" />
      <path d="m35.161 67.0035c-.6699.0004-1.3258-.1912-1.8903-.5519-.5646-.3607-1.0141-.8755-1.2953-1.4836l-3.9482-7.1235c-.6498-.866-.9806-1.9299-.9364-3.0118.0443-1.0818.4608-2.1151 1.1792-2.9252l3.876-3.339c.1113-.1002.2416-.1772.3831-.2264.1415-.0493.2914-.0697.4409-.0603.1495.0095.2958.0487.4299.1154.1342.0667.2534.1595.3512.2729.0978.1135.1721.2454.2183.3879.0461.1425.0632.2928.0505.4421-.0127.1492-.0553.2944-.1249.4271-.0695.1326-.1649.25-.2805.3453l-3.8445 3.3105c-.2995.4752-.4417 1.0327-.4064 1.5933.0352.5606.2464 1.0958.6031 1.5297l4.0155 7.2465c.0644.1579.1595.3012.2802.4217.1206.1204.2642.2154.4222.2795.158.064.3272.0957.4977.0933.1704-.0024.3386-.039.4947-.1075.2988-.139.5307-.3902.6453-.6992.1146-.3089.1029-.6506-.033-.9508l-2.7-5.946c-.1106-.2428-.1309-.517-.0575-.7735s.2355-.4784.4577-.626l2.8502-1.9005c.1229-.0838.2612-.1425.4069-.1726s.296-.0309.442-.0026c.1461.0284.2849.0855.4087.1679.1239.0824.2302.1887.3128.3124.0825.1238.1396.2628.168.4088.0285.146.0278.2962-.0021.442-.03.1457-.0887.284-.1725.4069-.0838.123-.191.2281-.3157.3092l-2.0537 1.3695 2.298 5.0685c.2432.5322.3493 1.1169.3079 1.7006-.0413.5837-.2287 1.1477-.5445 1.6403-.3159.4925-.7503.898-1.2634 1.1791-.5132.2812-1.0888.429-1.674.43z" />
      <path d="m55.7612 47.9698c-.0915 0-.1817 0-.2747-.0105-.4584-.033-.9056-.1567-1.3158-.364s-.7753-.494-1.0737-.8435l-4.5703-5.1735.1032 4.5225c.0065.2985-.1059.5874-.3123.8031-.2065.2158-.49.3407-.7885.3474h-.0242c-.2938-.0003-.5757-.1154-.7858-.3209-.2102-.2054-.3321-.4848-.3392-.7786l-.1724-7.5975c-.0054-.2306.0604-.4574.1882-.6495.1278-.192.3114-.3402.5262-.4244.2148-.0841.4503-.1002.6746-.046s.4263.176.579.3489l6.6196 7.491c.1073.1272.2387.2319.3867.3079.1481.0759.3098.1217.4757.1346.2464.0197.4932-.0342.709-.1548.2158-.1205.3908-.3024.5032-.5225.1124-.2202.1571-.4687.1282-.7142s-.13-.4769-.2904-.665l-8.985-10.5195c-.194-.2269-.2896-.5217-.2663-.8193.0234-.2976.1638-.5737.3908-.7677.2269-.1939.5216-.2898.8192-.2664.2976.0233.574.1639.7679.3909l8.9821 10.518c.4353.5073.716 1.1288.809 1.7908.0929.662-.0058 1.3367-.2846 1.9443s-.7259 1.1225-1.2883 1.4838c-.5625.3613-1.2168.5538-1.8853.5546z" />
      <path d="m45.8364 67.0035c-.5863-.0008-1.1629-.1491-1.6769-.431s-.949-.6884-1.2649-1.1823c-.3158-.4939-.5028-1.0593-.5431-1.6441-.0403-.5849.0673-1.1705.3124-1.7031l2.2965-5.064-2.0537-1.3695c-.1247-.0812-.2319-.1862-.3157-.3092-.0838-.1229-.1425-.2613-.1725-.407-.0299-.1457-.0306-.2959-.0021-.4419.0284-.1461.0855-.285.168-.4088.0826-.1238.1889-.23.3128-.3124.1238-.0825.2626-.1395.4087-.1679.146-.0284.2963-.0275.442.0026.1457.03.284.0887.4069.1726l2.8498 1.9005c.222.1478.3843.3698.4574.6263s.0524.5306-.0582.7732l-2.7001 5.94c-.1392.3016-.1529.6461-.0381.9577.1148.3117.3485.565.65.7043.3003.135.642.1465.9507.032s.5599-.3458.6995-.644l4.0261-7.2735c.3713-.442.5902-.9918.6248-1.568.0345-.5762-.1171-1.1483-.4329-1.6315l-3.8115-3.282c-.1181-.0944-.2161-.2116-.2879-.3447s-.1159-.2792-.13-.4298c-.014-.1505.0024-.3024.0484-.4464.0459-.1441.1207-.2774.2193-.392.0987-.1146.2193-.2081.3549-.275.1356-.0668.2834-.1057.4343-.1142.151-.0085.302.0135.4442.0647.1423.0512.2729.1306.3838.2334l3.846 3.309c.7335.8181 1.1592 1.8661 1.2041 2.964.0449 1.098-.2937 2.1772-.958 3.0525l-3.9588 7.149c-.3876.812-1.0803 1.438-1.9273 1.7415-.3871.1433-.7962.2174-1.2089.219z" />
   </g>
</svg>
