<svg width="90" height="90" viewBox="0 0 90 90" fill="none" xmlns="http://www.w3.org/2000/svg">
    <path d="M71 28.25C68.225 27.375 65.175 27 62.25 27C57.375 27 52.125 28 48.5 30.75C44.875 28 39.625 27 34.75 27C29.875 27 24.625 28 21 30.75V67.375C21 68 21.625 68.625 22.25 68.625C22.5 68.625 22.625 68.5 22.875 68.5C26.25 66.875 31.125 65.75 34.75 65.75C39.625 65.75 44.875 66.75 48.5 69.5C51.875 67.375 58 65.75 62.25 65.75C66.375 65.75 70.625 66.5 74.125 68.375C74.375 68.5 74.5 68.5 74.75 68.5C75.375 68.5 76 67.875 76 67.25V30.75C74.5 29.625 72.875 28.875 71 28.25ZM71 62.0002C68.25 61.1252 65.25 60.7502 62.25 60.7502C58 60.7502 51.875 62.3752 48.5 64.5002V35.7502C51.875 33.6252 58 32.0002 62.25 32.0002C65.25 32.0002 68.25 32.3752 71 33.2502V62.0002Z" fill="white"/>
</svg>