<svg xmlns="http://www.w3.org/2000/svg" viewBox="0 0 92 92"><defs><style>.cls-1{fill:gray;}</style></defs><title>completed_circle</title><g id="Content"><path class="cls-1" d="M68.17,73.25H23.83a.76.76,0,0,1-.75-.75V21.83a.76.76,0,0,1,.75-.75H36.29v1.5H24.58V71.75H67.42V22.58H56.06v-1.5H68.17a.76.76,0,0,1,.75.75V72.5A.76.76,0,0,1,68.17,73.25Z"/><path class="cls-1" d="M63.1,69H28.9a.76.76,0,0,1-.75-.75V26.37a.75.75,0,0,1,.75-.75h7.39v1.5H29.65V67.53h32.7V27.12H56.06v-1.5h7a.75.75,0,0,1,.75.75V68.28A.76.76,0,0,1,63.1,69Z"/><path class="cls-1" d="M55.71,29.23H36.29a.76.76,0,0,1-.75-.75V19.72a.76.76,0,0,1,.75-.75h4.44a5.4,5.4,0,0,1,10.54,0h4.44a.75.75,0,0,1,.75.75v8.76A.75.75,0,0,1,55.71,29.23ZM37,27.73H55V20.47H50.62a.74.74,0,0,1-.74-.68,3.9,3.9,0,0,0-7.76,0,.74.74,0,0,1-.74.68H37Z"/><path class="cls-1" d="M46.1,40.51a.5.5,0,0,1-.5-.5V32.27a.5.5,0,0,1,.5-.5.5.5,0,0,1,.5.5V40A.5.5,0,0,1,46.1,40.51Z"/><path class="cls-1" d="M50,36.64H42.23a.5.5,0,0,1,0-1H50a.5.5,0,0,1,0,1Z"/><path class="cls-1" d="M56.51,61.33h-12a.5.5,0,0,1-.5-.5.5.5,0,0,1,.5-.5h12a.5.5,0,0,1,.5.5A.51.51,0,0,1,56.51,61.33Z"/><path class="cls-1" d="M56.51,53.58h-12a.5.5,0,0,1-.5-.5.5.5,0,0,1,.5-.5h12a.5.5,0,0,1,.5.5A.51.51,0,0,1,56.51,53.58Z"/><path class="cls-1" d="M56.59,46.33h-12a.5.5,0,0,1-.5-.5.5.5,0,0,1,.5-.5h12a.5.5,0,0,1,.5.5A.5.5,0,0,1,56.59,46.33Z"/><path class="cls-1" d="M37,63.62a.47.47,0,0,1-.35-.15L35,61.82a.48.48,0,0,1,0-.7.5.5,0,0,1,.71,0L37,62.38,40,58.61a.5.5,0,0,1,.7-.07.52.52,0,0,1,.07.71l-3.43,4.19a.5.5,0,0,1-.36.18Z"/><path class="cls-1" d="M37,55.87a.47.47,0,0,1-.35-.15L35,54.07a.48.48,0,0,1,0-.7.5.5,0,0,1,.71,0L37,54.63,40,50.86a.5.5,0,0,1,.7-.07.52.52,0,0,1,.07.71l-3.43,4.19a.5.5,0,0,1-.36.18Z"/><path class="cls-1" d="M37.08,48.62a.51.51,0,0,1-.36-.15l-1.65-1.65a.5.5,0,0,1,0-.7.5.5,0,0,1,.71,0L37,47.38l3.08-3.77a.5.5,0,0,1,.7-.07.5.5,0,0,1,.07.71l-3.43,4.19a.49.49,0,0,1-.36.18Z"/></g></svg>