<svg width="67" height="67" viewBox="0 0 67 67" fill="none" xmlns="http://www.w3.org/2000/svg">
<path d="M33.5 66C51.4493 66 66 51.4493 66 33.5C66 15.5507 51.4493 1 33.5 1C15.5507 1 1 15.5507 1 33.5C1 51.4493 15.5507 66 33.5 66Z" stroke="white" stroke-width="2"/>
<path d="M23.941 24.8966L16.2939 20.1172C20.0276 23.9468 20.1167 26.0419 16.2939 29.676L23.941 24.8966Z" stroke="white" stroke-width="2" stroke-linecap="round" stroke-linejoin="round"/>
<path d="M43.0586 24.8966L50.7057 20.1172C46.972 23.9468 46.8829 26.0419 50.7057 29.676L43.0586 24.8966Z" stroke="white" stroke-width="2" stroke-linecap="round" stroke-linejoin="round"/>
<path d="M33.4999 37.3232C40.4157 37.3232 46.4768 41.4989 49.4777 47.7135C49.5983 47.963 49.5666 48.1746 49.4236 48.3732C49.2621 48.5979 48.9491 48.7938 48.5335 48.7938H18.4664C18.0508 48.7938 17.7378 48.5979 17.5763 48.3732C17.4333 48.1746 17.4015 47.963 17.5222 47.7135C20.5231 41.4989 26.5841 37.3232 33.4999 37.3232Z" fill="white" stroke="white" stroke-width="2"/>
<path d="M34.456 14.3823C36.0398 14.3823 37.3237 13.0984 37.3237 11.5146C37.3237 9.93086 36.0398 8.64697 34.456 8.64697C32.8723 8.64697 31.5884 9.93086 31.5884 11.5146C31.5884 13.0984 32.8723 14.3823 34.456 14.3823Z" fill="white"/>
<path d="M51.6616 12.4706C53.2453 12.4706 54.5292 11.1868 54.5292 9.603C54.5292 8.01924 53.2453 6.73535 51.6616 6.73535C50.0778 6.73535 48.7939 8.01924 48.7939 9.603C48.7939 11.1868 50.0778 12.4706 51.6616 12.4706Z" fill="white"/>
<path d="M6.73515 44.9703C8.84683 44.9703 10.5587 43.2584 10.5587 41.1468C10.5587 39.0351 8.84683 37.3232 6.73515 37.3232C4.62347 37.3232 2.91162 39.0351 2.91162 41.1468C2.91162 43.2584 4.62347 44.9703 6.73515 44.9703Z" fill="white"/>
<path d="M29.6766 66.0001C31.7882 66.0001 33.5001 64.2882 33.5001 62.1766C33.5001 60.0649 31.7882 58.353 29.6766 58.353C27.5649 58.353 25.853 60.0649 25.853 62.1766C25.853 64.2882 27.5649 66.0001 29.6766 66.0001Z" fill="white"/>
<path d="M57.3972 43.0585C58.9809 43.0585 60.2648 41.7746 60.2648 40.1909C60.2648 38.6071 58.9809 37.3232 57.3972 37.3232C55.8134 37.3232 54.5295 38.6071 54.5295 40.1909C54.5295 41.7746 55.8134 43.0585 57.3972 43.0585Z" fill="white"/>
<path d="M16.294 13.4703C18.4057 13.4703 20.1175 11.7584 20.1175 9.64677C20.1175 7.53509 18.4057 5.82324 16.294 5.82324C14.1823 5.82324 12.4705 7.53509 12.4705 9.64677C12.4705 11.7584 14.1823 13.4703 16.294 13.4703Z" fill="white"/>
</svg>
