<svg width="33" height="60" viewBox="0 0 33 60" fill="none" xmlns="http://www.w3.org/2000/svg">
<path d="M1.74074 55.7406C1.74079 26.6666 31.3706 33.7036 31.3704 4.07397" stroke="#fff" stroke-width="1.5" stroke-linecap="round"/>
<path d="M31.3704 55.9258C31.3703 26.7475 1.74051 33.8098 1.74075 4.07397" stroke="#fff" stroke-width="1.5" stroke-linecap="round"/>
<path d="M1.74074 4.07397H31.3704" stroke="#fff" stroke-linecap="round"/>
<path d="M1.74074 55.9255H31.3704" stroke="#fff" stroke-linecap="round"/>
<path d="M16.5371 53.0188L16.537 53.0188L16.5368 53.0188L16.5355 53.0188L16.5296 53.019L16.5049 53.0198C16.4828 53.0205 16.4495 53.0215 16.4058 53.0226C16.3185 53.0248 16.1895 53.0274 16.0248 53.0292C15.6955 53.0329 15.2239 53.0332 14.6576 53.0199C13.5232 52.9931 12.017 52.9117 10.5161 52.6945C9.00629 52.4759 7.54253 52.1254 6.46962 51.58C5.39141 51.0319 4.83333 50.3594 4.83333 49.5274C4.83333 48.515 5.17454 47.2173 5.81471 45.7736C6.45146 44.3376 7.36898 42.7906 8.48468 41.289C10.6798 38.3345 13.6008 35.6098 16.5819 34.2401C19.2523 35.1776 22.1501 37.8676 24.4171 40.9404C25.568 42.5005 26.5386 44.1356 27.2195 45.6461C27.9051 47.1673 28.2778 48.5201 28.2778 49.5274C28.2778 50.3594 27.7197 51.0319 26.6415 51.58C25.5686 52.1254 24.1048 52.4759 22.595 52.6945C21.0941 52.9117 19.5879 52.9931 18.4535 53.0199C17.8872 53.0332 17.4156 53.0329 17.0863 53.0292C16.9216 53.0274 16.7926 53.0248 16.7053 53.0226C16.6616 53.0215 16.6283 53.0205 16.6062 53.0198L16.5815 53.019L16.5756 53.0188L16.5743 53.0188L16.5741 53.0188L16.574 53.0188L16.5555 53.0181L16.5371 53.0188Z" fill="#fff" stroke="#fff"/>
<path d="M16.536 12.7307L16.536 12.7307L16.5353 12.7306L16.5319 12.7305L16.5168 12.73L16.455 12.7282C16.4003 12.7267 16.3192 12.725 16.2155 12.7238C16.008 12.7213 15.7103 12.7211 15.3527 12.73C14.6356 12.7479 13.6862 12.8022 12.7423 12.9466C11.7895 13.0924 10.8838 13.3239 10.2297 13.6753C9.57685 14.026 9.27777 14.4323 9.27777 14.9148C9.27777 15.5622 9.49826 16.3945 9.91923 17.3364C10.3368 18.2707 10.9363 19.2788 11.6567 20.2675C13.0419 22.169 14.8384 23.9512 16.5728 24.9878C18.2275 24.1187 20.0097 22.3551 21.4085 20.4101C22.136 19.3985 22.7472 18.355 23.1746 17.3904C23.606 16.4169 23.8333 15.5614 23.8333 14.9148C23.8333 14.4323 23.5342 14.026 22.8814 13.6753C22.2273 13.3239 21.3216 13.0924 20.3688 12.9466C19.4249 12.8022 18.4755 12.7479 17.7584 12.73C17.4008 12.7211 17.1031 12.7213 16.8956 12.7238C16.7919 12.725 16.7108 12.7267 16.6561 12.7282L16.5943 12.73L16.5792 12.7305L16.5758 12.7306L16.5751 12.7307L16.5751 12.7307L16.575 12.7307L16.5555 12.7314L16.5361 12.7307L16.536 12.7307Z" fill="#fff" stroke="#fff"/>
<rect x="1.625" y="0.625" width="29.8611" height="2.4537" rx="1.22685" stroke="#fff" stroke-width="1.25"/>
<rect x="1.625" y="56.9214" width="29.8611" height="2.4537" rx="1.22685" stroke="#fff" stroke-width="1.25"/>
</svg>
