<svg viewBox="0 0 55.8 42.03" xmlns="http://www.w3.org/2000/svg"><g fill="#fff"><path d="m40.6 3.33a8.52 8.52 0 0 0 -4.32 1.17 10.06 10.06 0 0 0 -16.6-.24 8.59 8.59 0 1 0 1.57 13.42 10.05 10.05 0 0 0 6.65 2.51 10 10 0 0 0 6.47-2.35 8.59 8.59 0 1 0 6.23-14.51zm-25.4 15.05a6.8 6.8 0 0 1 -.49-13.59h.49a6.73 6.73 0 0 1 3.6 1c0 .08-.07.17-.11.25s-.11.29-.17.44a6.28 6.28 0 0 0 -.25.73c0 .15-.09.29-.13.44s-.11.55-.16.82a2.63 2.63 0 0 1 -.06.39 8.47 8.47 0 0 0 -.08 1.23v1.2a4.88 4.88 0 0 0 .09.6 3 3 0 0 0 .07.35c0 .11.08.35.13.53l.1.36c.06.16.11.33.18.49l.14.36a3.82 3.82 0 0 0 .21.46 2.81 2.81 0 0 0 .18.35c.06.11.17.31.26.45s.12.23.2.34l.31.45.21.27v.06a6.71 6.71 0 0 1 -4.72 2.02zm6.66-2.61a8.11 8.11 0 0 1 -2.16-6.89 8.16 8.16 0 0 1 .53-2 7.22 7.22 0 0 1 .47-1 8.29 8.29 0 0 1 15.49 4.22 8.57 8.57 0 0 1 -.14 1.51v.2a8.29 8.29 0 0 1 -14.16 4zm18.74 2.94a6.81 6.81 0 0 1 -5-2.13l.05-.08.22-.28c.12-.15.23-.31.34-.47l.21-.32.29-.47a.69.69 0 0 0 .14-.35 2.55 2.55 0 0 1 .23-.49c.08-.16.1-.24.15-.36s.12-.34.19-.52.08-.24.11-.36.09-.37.14-.55.05-.24.07-.36.07-.42.1-.62a1 1 0 0 0 0-.31v-.94a11.28 11.28 0 0 0 -.07-1.16.82.82 0 0 0 -.06-.37 6.75 6.75 0 0 0 -.14-.76 1.46 1.46 0 0 0 -.11-.41c-.06-.24-.14-.48-.22-.71a1.09 1.09 0 0 0 -.15-.4 1.57 1.57 0 0 0 -.09-.23 6.86 6.86 0 1 1 4 12.68 4.17 4.17 0 0 1 -.5 0z"/><path d="m40.6 21.91a15.06 15.06 0 0 0 -6.4 1.46 18 18 0 0 0 -12.1-.15 15.2 15.2 0 0 0 -22.1 13.55v.76a.9.9 0 0 0 .9.9h9.1c-.05.59-.1 1.19-.1 1.8v.9a.9.9 0 0 0 .9.9h34.2a.9.9 0 0 0 .9-.9v-.9a11.8 11.8 0 0 0 -.06-1.47h9.06a.9.9 0 0 0 .9-.9v-.75a15.22 15.22 0 0 0 -15.2-15.2zm-25.4 1.47a13.57 13.57 0 0 1 4.55.79l-.17.09-.36.2c-.21.12-.42.23-.62.36s-.25.14-.37.22l-.59.4-.33.23c-.21.16-.42.31-.61.47l-.27.22-.83.72-.06.06c-.25.24-.48.47-.72.72l-.25.27-.48.56-.27.32-.41.55-.26.35-.38.58-.22.35c-.08.12-.26.44-.39.66l-.16.29c-.17.33-.34.65-.49 1l-.1.24c-.11.26-.22.52-.32.78s-.1.26-.15.4-.15.43-.22.65-.08.29-.13.44-.11.44-.17.66-.07.29-.1.43a1.3 1.3 0 0 1 -.06.25h-8.46a13.41 13.41 0 0 1 13.4-13.26zm-3.5 16.85a15.82 15.82 0 0 1 .21-2.57 13.84 13.84 0 0 1 .47-2.1 16.21 16.21 0 0 1 8-9.71 15.43 15.43 0 0 1 1.9-.85 16.2 16.2 0 0 1 21.66 13 15 15 0 0 1 .16 2.23zm33.89-3.23a.88.88 0 0 0 0-.23 2 2 0 0 0 -.09-.42l-.16-.69a2.08 2.08 0 0 0 -.11-.41 2.49 2.49 0 0 1 -.23-.7c0-.23-.08-.24-.13-.36-.09-.28-.2-.55-.31-.82l-.09-.21c-.14-.34-.3-.67-.46-1l-.14-.27-.39-.7-.22-.35c-.07-.11-.24-.39-.37-.58l-.24-.36-.39-.54-.26-.36q-.23-.28-.45-.54l-.27-.31-.63-.67-.14-.16-.77-.71-.35-.19-.56-.42-.37-.27c-.13-.08-.35-.26-.54-.38l-.39-.26-.53-.36-.39-.23-.15-.08a13.4 13.4 0 0 1 16.87 8.58 13.18 13.18 0 0 1 .67 4z"/></g></svg>