<svg xmlns="http://www.w3.org/2000/svg" viewBox="0 0 71.474 67.026"><defs><style>.a{fill:none;stroke:#fff;stroke-linejoin:round;stroke-width:1.5px;}.b{fill:#fff;}</style></defs><title>icon-family-planning</title><rect class="a" x="9.073" y="-2.697" width="17.281" height="40.822" rx="8.641" ry="8.641" transform="translate(17.713 42.764) rotate(-135)"/><path class="b" d="M3.281,32.146a8.64,8.64,0,0,0,12.219,0l9.017-9.017-8.375-8.375L8.473,22.423a1.156,1.156,0,1,1-1.635-1.635l7.669-7.669L12.3,10.91,3.281,19.927A8.641,8.641,0,0,0,3.281,32.146Z"/><rect class="a" x="44.877" y="15.159" width="29.466" height="4.753" rx="2.376" ry="2.376" transform="translate(29.858 -37.015) rotate(45)"/><path class="a" d="M65.705,26.9,31.05,61.554a7.49,7.49,0,0,1-6.742,2.09c-3.241-.648-6.961,1.107-8.762,2.121A3.533,3.533,0,0,1,11.3,65.34h0a3.533,3.533,0,0,1-.425-4.244c1.014-1.8,2.768-5.522,2.121-8.762a7.49,7.49,0,0,1,2.09-6.742L49.742,10.936Z"/></svg>