<svg width="58" height="59" viewBox="0 0 58 59" fill="none" xmlns="http://www.w3.org/2000/svg">
    <circle cx="29" cy="30" r="28" stroke="white" stroke-width="2"/>
    <circle cx="29.5" cy="29.5" r="21.5" stroke="white" stroke-width="2"/>
    <path d="M26.6234 0.000172788C26.1879 0.000172788 25.7701 0.229006 25.4621 0.636319C25.1541 1.04363 24.9811 1.59607 24.9811 2.17211V14.2829C24.9794 15.0412 24.7711 15.7733 24.3944 16.3451C24.0176 16.9168 23.4978 17.2897 22.93 17.3957V2.17211C22.9282 1.60541 22.7597 1.06187 22.4603 0.656507C22.1608 0.251146 21.7538 0.0157667 21.3254 0.000172788H20.7124C20.4955 -0.00246957 20.2802 0.0517587 20.0792 0.159725C19.8782 0.267691 19.6954 0.427253 19.5412 0.629193C19.3871 0.831143 19.2648 1.07147 19.1813 1.33629C19.0978 1.60112 19.0549 1.88519 19.0549 2.17211V17.3657C18.5301 17.2315 18.0579 16.8567 17.7215 16.3075C17.3851 15.7583 17.206 15.0696 17.2157 14.363V2.17211C17.2147 1.88557 17.171 1.6021 17.0872 1.33787C17.0034 1.07365 16.881 0.833845 16.7271 0.632166C16.5732 0.430486 16.3907 0.270864 16.1902 0.162427C15.9896 0.0539906 15.7749 -0.00114839 15.5582 0.000172788H15.3463C14.9326 0.000813359 14.5342 0.206927 14.23 0.577687C13.9258 0.948437 13.738 1.45677 13.7039 2.00196L13 17.696C13.0029 19.5248 13.5316 21.2839 14.4788 22.6165C15.4261 23.9491 16.721 24.7555 18.1012 24.8724L17.4503 53.2175C17.437 54.1527 17.6353 55.0718 18.0196 55.8569C18.404 56.642 18.9568 57.2573 19.6075 57.624C20.2581 57.9908 20.9767 58.0922 21.6712 57.9152C22.3656 57.7381 23.0043 57.2908 23.5052 56.6307C23.8367 56.1794 24.0966 55.6449 24.2695 55.0587C24.4423 54.4725 24.5247 53.8465 24.5118 53.2175L23.8987 24.8724C25.2855 24.7502 26.5849 23.9338 27.5326 22.5894C28.4802 21.2451 29.005 19.4738 29 17.6359L28.2885 2.00196C28.2541 1.45157 28.0631 0.938929 27.7541 0.567438C27.4451 0.195937 27.041 -0.0067734 26.6234 0.000172788ZM22.4607 55.2293C22.0723 55.7391 21.5472 56.0251 21 56.0251C20.4528 56.0251 19.9277 55.7391 19.5392 55.2293C19.3442 54.9662 19.1924 54.6525 19.0934 54.308C18.9944 53.9635 18.9503 53.5957 18.964 53.2275L19.6149 24.8423H22.385L23.0359 53.2275C23.0496 53.5957 23.0056 53.9635 22.9066 54.308C22.8076 54.6525 22.6558 54.9662 22.4607 55.2293ZM23.596 22.8906H18.4418C17.4079 22.8906 16.4155 22.3516 15.6802 21.3904C14.9448 20.4291 14.5257 19.1233 14.5137 17.756L15.2176 2.1621C15.2196 2.11873 15.2339 2.07798 15.2579 2.04821C15.2818 2.01843 15.3134 2.00189 15.3463 2.00196H15.5582C15.5931 2.00189 15.6266 2.01949 15.652 2.05114C15.6773 2.08279 15.6924 2.12609 15.6944 2.17211V14.4131C15.6944 15.7402 16.0931 17.0132 16.8028 17.9517C17.5125 18.8902 18.475 19.4175 19.4787 19.4175C19.7631 19.4202 20.037 19.2747 20.2409 19.0125C20.4449 18.7502 20.5626 18.3923 20.5686 18.0163V2.17211C20.5702 2.12934 20.5833 2.08873 20.6054 2.05756C20.6276 2.02637 20.6575 2.00666 20.6897 2.00196H21.3254C21.3603 2.00189 21.3939 2.01949 21.4192 2.05114C21.4446 2.08279 21.4597 2.12609 21.4617 2.17211V17.8661C21.4617 18.2802 21.5861 18.6774 21.8075 18.9701C22.0289 19.263 22.3293 19.4275 22.6424 19.4275C23.6748 19.4275 24.6651 18.8857 25.3959 17.9213C26.1266 16.9567 26.5382 15.6483 26.5402 14.2829V2.17211C26.5402 1.99195 26.7899 1.98194 26.8051 2.17211L27.509 17.706C27.505 19.0776 27.0917 20.3918 26.3589 21.3626C25.6262 22.3336 24.6333 22.8827 23.596 22.8906Z" fill="white"/>
    <path d="M45.7639 21.5442L42.9491 5.68002C42.6626 4.05717 41.9915 2.61497 41.0435 1.58491C40.0956 0.554861 38.9256 -0.00330361 37.7217 1.47105e-05C37.5312 1.47105e-05 37.3486 0.105005 37.2139 0.291887C37.0793 0.478759 37.0036 0.732227 37.0036 0.996506V53.6411C36.9837 54.2033 37.0464 54.7652 37.1877 55.2927C37.329 55.8203 37.5462 56.3025 37.8258 56.71C38.1055 57.1176 38.4419 57.4422 38.8147 57.6639C39.1874 57.8856 39.5888 58 39.9943 58C40.3999 58 40.8012 57.8856 41.1739 57.6639C41.5468 57.4422 41.8832 57.1176 42.1628 56.71C42.4425 56.3025 42.6595 55.8203 42.8009 55.2927C42.9422 54.7652 43.0048 54.2033 42.985 53.6411V32.9341C44.1841 31.6025 45.0831 29.8221 45.5756 27.8035C46.0681 25.7849 46.1334 23.6127 45.7639 21.5442ZM41.8577 31.6286C41.7553 31.7267 41.6729 31.86 41.6188 32.0155C41.5647 32.1709 41.5406 32.3432 41.5489 32.5155V53.6411C41.5634 53.9368 41.534 54.2335 41.4624 54.5126C41.3908 54.7918 41.2786 55.0476 41.1329 55.2641C40.9871 55.4807 40.8108 55.6533 40.6149 55.7713C40.4191 55.8893 40.2079 55.9502 39.9943 55.9502C39.7808 55.9502 39.5695 55.8893 39.3737 55.7713C39.1778 55.6533 39.0015 55.4807 38.8558 55.2641C38.71 55.0476 38.5978 54.7918 38.5262 54.5126C38.4547 54.2335 38.4252 53.9368 38.4397 53.6411V2.08268C39.1864 2.27248 39.8773 2.75842 40.4291 3.48173C40.9809 4.20503 41.3698 5.13472 41.5489 6.15834L44.3637 22.0225C44.6809 23.7881 44.612 25.6447 44.1657 27.3556C43.7193 29.0666 42.9158 30.5541 41.8577 31.6286Z" fill="white"/>
</svg>
