<svg viewBox="0 0 96 96" xmlns="http://www.w3.org/2000/svg"><g fill="#fff"><path d="m71.1 74.26h-44.33a.75.75 0 0 1 -.75-.75v-50.66a.75.75 0 0 1 .75-.75h12.46v1.5h-11.71v49.16h42.83v-49.16h-11.35v-1.5h12.1a.74.74 0 0 1 .75.75v50.66a.74.74 0 0 1 -.75.75z"/><path d="m66 70h-34.16a.75.75 0 0 1 -.75-.75v-41.87a.75.75 0 0 1 .75-.75h7.39v1.5h-6.64v40.41h32.7v-40.41h-6.29v-1.5h7a.76.76 0 0 1 .75.75v41.91a.76.76 0 0 1 -.75.71z"/><path d="m58.65 30.24h-19.42a.75.75 0 0 1 -.75-.75v-8.75a.74.74 0 0 1 .75-.75h4.44a5.39 5.39 0 0 1 10.53.01h4.45a.75.75 0 0 1 .75.75v8.75a.76.76 0 0 1 -.75.74zm-18.65-1.5h17.9v-7.25h-4.34a.76.76 0 0 1 -.75-.69 3.89 3.89 0 0 0 -7.75 0 .75.75 0 0 1 -.75.69h-4.31z"/><path d="m49.52 41.84a3.77 3.77 0 1 1 3.76-3.76 3.77 3.77 0 0 1 -3.76 3.76zm0-6.33a2.57 2.57 0 1 0 2.57 2.57 2.57 2.57 0 0 0 -2.57-2.57z"/><path d="m55.77 62.05h-13.16a.61.61 0 0 1 -.5-.26.6.6 0 0 1 -.06-.55l3-7.75-1.88-.44a.6.6 0 0 1 -.45-.71c.18-.86.39-1.71.59-2.57.17-.68.33-1.37.49-2.06l.1-.45a10.85 10.85 0 0 1 1.41-3.94 2.86 2.86 0 0 1 3-1.17 3.81 3.81 0 0 1 2.51 1.46c.22.22.46.46.74.71a7.12 7.12 0 0 0 .73.56c1 .68 2.08 1.45 1.17 3.62.81.66 2.66 2.31 3.15 4 .67 2.27-1 4.06-1.75 4.74l1.49 4a.63.63 0 0 1 -.07.55.6.6 0 0 1 -.51.26zm-12.29-1.2h11.43l-1.33-3.63a.59.59 0 0 1 .2-.69s2.27-1.69 1.67-3.72c-.43-1.43-2.38-3.12-3.1-3.65a.58.58 0 0 1 -.18-.75c.79-1.59.39-1.87-.58-2.55a8.92 8.92 0 0 1 -.84-.64c-.3-.27-.56-.53-.8-.77a2.72 2.72 0 0 0 -1.78-1.11c-1-.1-1.45.06-1.86.66a9.92 9.92 0 0 0 -1.23 3.51l-.08.49c-.16.7-.32 1.39-.49 2.09s-.32 1.3-.46 2l1.72.39 5.11 1.21a.69.69 0 0 0 .56-.07.64.64 0 0 0 .23-.47c.05-.4 0-.51-.82-.7l-4.51-1.16a.58.58 0 0 1 -.37-.28.54.54 0 0 1 -.06-.46l.89-3.28a.6.6 0 0 1 1.16.31l-.74 2.7 3.92 1c.62.15 1.9.47 1.72 2a1.75 1.75 0 0 1 -.73 1.31 1.87 1.87 0 0 1 -1.51.26l-4.36-1z"/></g></svg>