<svg xmlns="http://www.w3.org/2000/svg" viewBox="0 0 92 92">
    <defs>
        <style>
            .cls-1{fill:#808080;}
        </style>
    </defs>
    <title>
        icon-forms
    </title>
    <path class="cls-1" d="M62.66,74.76H23.34a.75.75,0,0,1-.75-.75V25.83a.75.75,0,0,1,.75-.75h34a.75.75,0,0,1,.53.22l5.32,5.38a.75.75,0,0,1,.22.53V74A.75.75,0,0,1,62.66,74.76Zm-38.57-1.5H61.91V31.52L57,26.58H24.09Z"/>
    <path class="cls-1" d="M68.66,68.76h-6v-1.5h5.25V20.58H30.09v5.25h-1.5v-6a.75.75,0,0,1,.75-.75H68.66a.75.75,0,0,1,.75.75V68A.75.75,0,0,1,68.66,68.76Z"/>
    <rect class="cls-1" x="27.99" y="34.3" width="26.21" height="1.5"/>
    <rect class="cls-1" x="27.99" y="56.05" width="26.21" height="1.5"/>
    <rect class="cls-1" x="27.99" y="50.61" width="28.15" height="1.5"/>
    <rect class="cls-1" x="27.95" y="39.74" width="30.09" height="1.5"/>
    <rect class="cls-1" x="27.99" y="61.48" width="30.09" height="1.5"/>
    <rect class="cls-1" x="27.95" y="45.17" width="30.09" height="1.5"/>
    <path class="cls-1" d="M62.34,32.44h-5a.75.75,0,0,1-.75-.75v-6h1.5v5.25h4.25Z"/>
</svg>
