<svg fill="none" height="121" viewBox="0 0 85 121" width="85" xmlns="http://www.w3.org/2000/svg"><g fill="#06b9ff"><path d="m75.1791 27.3012c1.4794-1.7484 2.4208-3.9002 2.4208-6.4555v-11.16253c0-5.37954-4.3037-9.68317-9.6832-9.68317h-50.8367c-5.3795 0-9.68313 4.30363-9.68313 9.68317v11.16253c0 2.4208.94142 4.7071 2.42079 6.4555-5.783 2.9587-9.81766 9.0107-9.81766 16.0041v59.0407c0 9.952 8.06931 17.887 17.887 17.887h49.2228c9.9521 0 17.8869-8.07 17.8869-17.887v-59.0407c.1345-6.9934-3.9001-13.0454-9.8176-16.0041zm-58.0991-2.0174c-2.4208 0-4.4381-2.0173-4.4381-4.4381v-11.16253c0-2.42079 2.0173-4.43812 4.4381-4.43812h50.8367c2.4208 0 4.4381 2.01733 4.4381 4.43812v11.16253c0 2.4208-2.0173 4.4381-4.4381 4.4381h-.8069-49.2228zm62.6717 76.9272c0 6.994-5.6485 12.642-12.6419 12.642h-49.2228c-6.9934 0-12.64195-5.648-12.64195-12.642v-58.9057c0-6.9934 5.64855-12.6419 12.64195-12.6419h49.2228c6.9934 0 12.6419 5.6485 12.6419 12.6419z"/><path d="m20.0388 6.99414h-3.9001v16.40756h3.9001z"/><path d="m32.4114 6.99414h-3.9002v16.40756h3.9002z"/><path d="m45.323 6.99414h-3.9001v16.40756h3.9001z"/><path d="m57.5611 6.99414h-3.9002v16.40756h3.9002z"/><path d="m68.7229 6.99414h-3.9001v16.40756h3.9001z"/><path d="m3.49598 62.4054s9.81762-20.8457 29.31852-9.0107c19.5008 11.835 47.4744 13.1798 49.3573 4.3036v45.3227l-3.3623 9.952-7.6658 4.707h-55.8127l-9.01076-4.976s-5.11057-16.1385-4.97608-16.811c.13449-.6724 2.15182-33.4876 2.15182-33.4876z"/><path d="m53.6616 46.1294c3.3424 0 6.052-2.7096 6.052-6.052s-2.7096-6.052-6.052-6.052-6.052 2.7096-6.052 6.052 2.7096 6.052 6.052 6.052z"/><path d="m69.5299 52.8566c2.5996 0 4.7071-2.1075 4.7071-4.7071 0-2.5997-2.1075-4.7071-4.7071-4.7071-2.5997 0-4.7071 2.1074-4.7071 4.7071 0 2.5996 2.1074 4.7071 4.7071 4.7071z"/><path d="m57.5622 56.8886c2.2283 0 4.0347-1.8063 4.0347-4.0346s-1.8064-4.0347-4.0347-4.0347c-2.2282 0-4.0346 1.8064-4.0346 4.0347s1.8064 4.0346 4.0346 4.0346z"/></g></svg>