<svg xmlns="http://www.w3.org/2000/svg" viewBox="0 0 106.75 101.01"><defs><style>.cls-1{fill:#ccc;}.cls-2{fill:#06b9ff;}.cls-3{fill:#fff;}</style></defs><title>Week 22_Icons</title><g id="Content"><circle class="cls-1" cx="50.05" cy="50.4" r="43.21" transform="translate(-15.66 77.35) rotate(-67.5)"/><path class="cls-1" d="M50.05,98.4a48,48,0,1,1,48-48A48.05,48.05,0,0,1,50.05,98.4ZM50.05,4A46.43,46.43,0,1,0,96.48,50.4,46.48,46.48,0,0,0,50.05,4Z"/><circle class="cls-2" cx="89.88" cy="16.68" r="15"/><path class="cls-3" d="M94.89,12.12a.73.73,0,0,0-.47-.15.65.65,0,0,0-.43.24l-5.76,7.35L85.74,17a.63.63,0,0,0-.9,0,.65.65,0,0,0,0,.9l3.48,3.64L95,13A.65.65,0,0,0,94.89,12.12Z"/></g></svg>