<svg width="32" height="61" viewBox="0 0 32 61" fill="none" xmlns="http://www.w3.org/2000/svg">
<path d="M13 32.5C14.5319 32.0254 14.9192 32.8027 15 34V36.5C19.2886 37.9437 21.2811 37.1694 24.5 34.5L23 32C22.2956 31.1032 22.5 31 23.5 30L25 28.5C25.8236 27.6625 24.9351 26.7395 24 26" stroke="#808080" stroke-linecap="round"/>
<path d="M20 17C23.7578 17.588 25.5343 18.1578 25.5 21.5C25.4957 24.2814 25.2413 25.4269 24.5 27" stroke="#808080" stroke-linecap="round"/>
<path d="M29 43.5C29 43.5 28.3184 36.7298 27.5 32.0006C33 26.5003 31 17.5003 25.5 13.5005C22 10.9549 16.5765 10.0392 15.5 11.0002C12.9257 13.2984 11.4776 14.5734 6.50004 13.5002C-3.50403 22.273 0.101907 34.8537 13 37.0002C13 37.0002 13.5001 60.0002 14.5 60.0002H19.5C20.5001 60.0002 18.7738 40.9781 19 39.5002C19.2263 38.0223 21 37.0002 22 39.5002C23.0001 42.0002 24 60.0002 25 60.0002H29.5L29 43.5Z" stroke="#808080"/>
<path d="M16 29.5C15.8095 30.1151 15.9999 30.5 16.5 30.5H17.5C18.3343 30.3983 18.5373 30.5701 18.5 31" stroke="#808080" stroke-width="0.5" stroke-linecap="round"/>
<path d="M6.50004 19C3.95634 26.321 5.24502 30.2182 12.5 32.5C12 31.5 9.00004 24.5 6.50004 19Z" stroke="#808080" stroke-linecap="round"/>
<path d="M24.5 27C23.4824 24.2836 19.4745 22.2378 16.1036 23.5006C12.7327 24.7633 10.9824 28.2836 12 31" stroke="#808080"/>
<circle cx="10" cy="6" r="5.5" stroke="#808080"/>
<path d="M16 29.5002L18 25.5002C18.412 24.9528 19 25 19 26.0002" stroke="#808080" stroke-width="0.5" stroke-linecap="round"/>
<path d="M19 26L18 28C17.7133 28.7382 17.8543 28.9427 18.5 29H20C20.9829 29.0392 20.7262 29.4204 20.5 30" stroke="#808080" stroke-width="0.5" stroke-linecap="round"/>
<path d="M18.5 31L17.5 33C16.6687 34.9681 18 35 18.5 34.5" stroke="#808080" stroke-width="0.5" stroke-linecap="round"/>
<path d="M20.5 30L18.5 34.5" stroke="#808080" stroke-width="0.5" stroke-linecap="round"/>
</svg>
