<svg width="70" height="70" viewBox="0 0 70 70" fill="none" xmlns="http://www.w3.org/2000/svg">
<ellipse rx="21.5314" ry="21.1859" transform="matrix(-1 0 0 1 35.5772 34.8617)" fill="white"/>
<path d="M37.2519 12.3994C37.0333 12.5982 36.4811 13.2767 36.3747 13.702H34.4608C34.2367 13.0295 34.0848 12.8075 33.9026 12.635C33.7391 12.4803 33.5512 12.3654 33.2646 12.0007C32.6798 11.2564 32.733 10.5121 33.2646 9.9539C33.7963 9.39568 35.7101 8.73114 37.2519 9.71467C38.7936 10.6982 37.5443 12.1336 37.2519 12.3994Z" fill="white" stroke="white"/>
<path d="M21.1498 17.5784C21.1361 17.8735 21.2264 18.7437 21.4524 19.1194L20.1006 20.4743C19.4662 20.158 19.2018 20.1087 18.951 20.1159C18.726 20.1223 18.512 20.1742 18.0514 20.1195C17.1115 20.0078 16.6221 19.4445 16.6024 18.6739C16.5827 17.9033 17.464 16.079 19.2492 15.6822C21.0344 15.2854 21.1682 17.1837 21.1498 17.5784Z" fill="white" stroke="white"/>
<path d="M13.2525 33.347C13.4444 33.5716 14.1058 34.1443 14.5276 34.2636L14.4692 36.1766C13.7902 36.3801 13.5637 36.5251 13.3857 36.702C13.2261 36.8606 13.1055 37.045 12.7322 37.3203C11.9704 37.8821 11.2281 37.8062 10.6864 37.2578C10.1446 36.7094 9.53883 34.7761 10.569 33.2651C11.5991 31.7541 12.9957 33.0466 13.2525 33.347Z" fill="white" stroke="white"/>
<path d="M18.5306 49.3188C18.8255 49.3361 19.6967 49.2565 20.0751 49.0351L21.4135 50.4032C21.0895 51.0337 21.037 51.2975 21.0411 51.5483C21.0448 51.7734 21.0941 51.9881 21.0338 52.448C20.9107 53.3865 20.3414 53.8689 19.5706 53.8792C18.7998 53.8895 16.9864 52.9861 16.6114 51.1962C16.2364 49.4063 18.1361 49.2957 18.5306 49.3188Z" fill="white" stroke="white"/>
<path d="M33.946 57.1663C34.1702 56.9738 34.7415 56.3113 34.8598 55.8892L36.7729 55.9435C36.9779 56.6221 37.1234 56.8483 37.3006 57.0259C37.4597 57.1852 37.6443 57.3054 37.9203 57.678C38.4838 58.4386 38.4095 59.1811 37.8622 59.724C37.3149 60.2669 35.383 60.8769 33.8698 59.8499C32.3566 58.823 33.6462 57.4236 33.946 57.1663Z" fill="white" stroke="white"/>
<path d="M50.056 52.0052C50.073 51.7103 49.9923 50.8392 49.7705 50.461L51.1372 49.1212C51.768 49.4444 52.0319 49.4966 52.2827 49.4922C52.5078 49.4883 52.7224 49.4387 53.1823 49.4985C54.121 49.6206 54.6041 50.1893 54.6153 50.9601C54.6264 51.7309 53.7251 53.5453 51.9356 53.9223C50.1461 54.2994 50.0333 52.3997 50.056 52.0052Z" fill="white" stroke="white"/>
<path d="M57.9071 36.5451C57.7111 36.3241 57.0393 35.7637 56.6154 35.6522L56.6387 33.7384C57.3139 33.5225 57.5377 33.3733 57.7123 33.1932C57.8691 33.0316 57.9862 32.8451 58.3544 32.563C59.1057 31.9873 59.8493 32.0496 60.401 32.588C60.9527 33.1264 61.5939 35.0482 60.5917 36.5778C59.5894 38.1075 58.1693 36.8408 57.9071 36.5451Z" fill="white" stroke="white"/>
<path d="M52.8439 20.3699C52.5488 20.3547 51.6783 20.4408 51.3015 20.665L49.9531 19.3068C50.2724 18.6739 50.323 18.4098 50.317 18.159C50.3116 17.9339 50.2607 17.7196 50.3177 17.2593C50.4338 16.3199 50.9995 15.8333 51.7702 15.8173C52.5409 15.8013 54.3609 16.6912 54.7492 18.4783C55.1374 20.2654 53.2385 20.3901 52.8439 20.3699Z" fill="white" stroke="white"/>
<path d="M49.3127 8.12201C48.9392 8.26319 47.908 8.84171 47.5631 9.32348L45.1574 8.37276C45.2097 7.41611 45.1291 7.06165 44.9858 6.75437C44.8571 6.47864 44.678 6.24091 44.499 5.64018C44.1336 4.41414 44.5702 3.50501 45.5157 3.06744C46.4612 2.62988 49.197 2.74529 50.6463 4.7474C52.0956 6.74952 49.8122 7.93316 49.3127 8.12201Z" fill="white" stroke="white"/>
<path d="M47.0075 10.2463C47.167 9.71463 47.4329 9.44881 47.5392 9.34248L45.1468 8.41211C45.1255 8.6035 44.943 9.1121 44.8544 9.34248L42.2759 14.7121L45.0139 15.8019L46.3164 12.0538L47.0075 10.2463Z" fill="white" stroke="white"/>
<path d="M26.4968 6.19988C26.3286 6.56202 25.9963 7.69672 26.0867 8.28229L23.7024 9.2854C23.0707 8.56511 22.7652 8.36815 22.4478 8.2488C22.163 8.14171 21.8687 8.09711 21.3206 7.79298C20.2019 7.17226 19.8781 6.21716 20.2478 5.24309C20.6175 4.26903 22.6535 2.43807 25.0896 2.85526C27.5258 3.27246 26.7217 5.71549 26.4968 6.19988Z" fill="white" stroke="white"/>
<path d="M26.3347 9.33018C26.0768 8.83866 26.0809 8.46276 26.0825 8.3124L23.7219 9.32077C23.8406 9.47243 24.0659 9.9636 24.1637 10.1902L26.0765 15.8313L28.7956 14.6952L27.105 11.1055L26.3347 9.33018Z" fill="white" stroke="white"/>
<path d="M8.95631 21.0286C9.1028 21.4001 9.69595 22.4229 10.1826 22.7609L9.26622 25.1799C8.30893 25.1412 7.95565 25.2269 7.65045 25.3746C7.37658 25.5071 7.14143 25.6897 6.54331 25.8772C5.3226 26.26 4.40733 25.8364 3.95635 24.8972C3.50536 23.958 3.58178 21.2209 5.56305 19.7432C7.54431 18.2655 8.76036 20.5318 8.95631 21.0286Z" fill="white" stroke="white"/>
<path d="M11.1127 23.3033C10.5788 23.1514 10.3092 22.8894 10.2014 22.7846L9.3052 25.19C9.49687 25.2085 10.008 25.3838 10.2396 25.4691L15.6454 27.9708L16.6961 25.2176L12.9299 23.9686L11.1127 23.3033Z" fill="white" stroke="white"/>
<path d="M7.048 43.8496C7.4137 44.0099 8.55534 44.3175 9.13881 44.2144L10.1934 46.5764C9.48696 47.2236 9.29668 47.5333 9.18424 47.8532C9.08335 48.1402 9.04514 48.4355 8.75296 48.99C8.15665 50.1219 7.2088 50.4664 6.22694 50.1179C5.24509 49.7693 3.37041 47.7736 3.73468 45.3289C4.09895 42.8843 6.55884 43.6352 7.048 43.8496Z" fill="white" stroke="white"/>
<path d="M10.1809 43.9436C9.69512 44.2121 9.31922 44.2162 9.16886 44.2178L10.2282 46.556C10.3772 46.434 10.8634 46.1982 11.0878 46.0955L16.6861 44.0608L15.4913 41.3669L11.9391 43.135L10.1809 43.9436Z" fill="white" stroke="white"/>
<path d="M21.9296 61.3327C22.3021 61.1888 23.3291 60.603 23.6706 60.1188L26.0829 61.0523C26.0375 62.0093 26.1206 62.3632 26.2661 62.6695C26.3967 62.9443 26.5776 63.1807 26.7608 63.7802C27.1349 65.0036 26.7048 65.9158 25.7624 66.3601C24.8201 66.8044 22.0836 66.7084 20.62 64.7167C19.1565 62.725 21.4314 61.5251 21.9296 61.3327Z" fill="white" stroke="white"/>
<path d="M24.2196 59.1924C24.0639 59.7251 23.8 59.9928 23.6944 60.0999L26.0934 61.0132C26.1133 60.8217 26.2922 60.3118 26.3791 60.0808L28.9193 54.693L26.1736 53.6227L24.8978 57.3799L24.2196 59.1924Z" fill="white" stroke="white"/>
<path d="M44.6969 63.2341C44.8603 62.8698 45.1774 61.7307 45.0791 61.1464L47.4498 60.1115C48.0911 60.8233 48.3992 61.0161 48.7182 61.1312C49.0043 61.2345 49.2992 61.2751 49.8514 61.5719C50.9782 62.1776 51.3148 63.1283 50.9582 64.1072C50.6015 65.0861 48.5902 66.9442 46.1487 66.5596C43.7072 66.175 44.4785 63.7215 44.6969 63.2341Z" fill="white" stroke="white"/>
<path d="M44.8172 60.1029C45.0816 60.591 45.0826 60.9669 45.083 61.1173L47.4299 60.0774C47.3092 59.9273 47.0773 59.4392 46.9765 59.2139L44.9884 53.599L42.2847 54.7713L44.0232 58.3381L44.8172 60.1029Z" fill="white" stroke="white"/>
<path d="M62.1917 48.4589C62.0529 48.0845 61.4809 47.0497 61.0013 46.7018L61.9672 44.3022C62.9235 44.3605 63.2785 44.2822 63.5867 44.1408C63.8632 44.0139 64.1021 43.8362 64.7039 43.661C65.9322 43.3034 66.8386 43.7457 67.2702 44.694C67.7017 45.6423 67.569 48.3772 65.5578 49.8139C63.5466 51.2505 62.3774 48.9597 62.1917 48.4589Z" fill="white" stroke="white"/>
<path d="M60.0827 46.1413C60.6133 46.3042 60.8774 46.5717 60.9831 46.6787L61.9286 44.2922C61.7373 44.2698 61.2299 44.084 61.0001 43.994L55.6469 41.3816L54.5398 44.1126L58.2795 45.4388L60.0827 46.1413Z" fill="white" stroke="white"/>
<path d="M63.836 25.6935C63.4715 25.5305 62.3323 25.2142 61.748 25.3128L60.7114 22.9429C61.4227 22.3011 61.6153 21.9928 61.7302 21.6738C61.8333 21.3875 61.8737 21.0926 62.1701 20.5403C62.775 19.413 63.7254 19.0757 64.7046 19.4317C65.6838 19.7876 67.5433 21.7976 67.1605 24.2394C66.7776 26.6812 64.3235 25.9116 63.836 25.6935Z" fill="white" stroke="white"/>
<path d="M60.704 25.576C61.1918 25.3112 61.5677 25.31 61.7181 25.3095L60.6765 22.9633C60.5266 23.0841 60.0386 23.3163 59.8134 23.4173L54.1998 25.4095L55.3741 28.1123L58.9397 26.3712L60.704 25.576Z" fill="white" stroke="white"/>
<circle r="3.9873" transform="matrix(-1 0 0 1 40.8937 26.4346)" fill="#CCCCCC"/>
<circle r="3.9873" transform="matrix(-1 0 0 1 21.4355 35.1533)" fill="#CCCCCC"/>
<circle r="1.11645" transform="matrix(-1 0 0 1 23.3495 25.3186)" fill="#CCCCCC"/>
<circle r="1.11645" transform="matrix(-1 0 0 1 37.3317 39.1409)" fill="#CCCCCC"/>
<circle r="1.11645" transform="matrix(-1 0 0 1 35.1519 19.3108)" fill="#CCCCCC"/>
<circle r="1.11645" transform="matrix(-1 0 0 1 46.1036 45.5735)" fill="#CCCCCC"/>
<circle r="3.9873" transform="matrix(-1 0 0 1 37.9696 49.3486)" fill="#CCCCCC"/>
<circle r="1.94049" transform="matrix(-1 0 0 1 27.3633 43.3145)" fill="#CCCCCC"/>
<circle r="1.94049" transform="matrix(-1 0 0 1 30.9254 33.1065)" fill="#CCCCCC"/>
<circle r="1.94049" transform="matrix(-1 0 0 1 30.1279 23.4844)" fill="#CCCCCC"/>
<circle r="1.94049" transform="matrix(-1 0 0 1 50.277 26.4083)" fill="#CCCCCC"/>
<circle r="1.94049" transform="matrix(-1 0 0 1 46.1303 35.3399)" fill="#CCCCCC"/>
</svg>
