<svg width="95" height="95" viewBox="0 0 95 95" fill="none" xmlns="http://www.w3.org/2000/svg">
<path d="M29.2464 49.1992C28.926 49.199 28.6127 49.3006 28.3462 49.491C28.0797 49.6814 27.872 49.9521 27.7493 50.2689C27.6266 50.5857 27.5944 50.9343 27.6569 51.2706C27.7194 51.607 27.8736 51.916 28.1002 52.1584C28.3268 52.4009 28.6155 52.566 28.9298 52.6329C29.2441 52.6997 29.5698 52.6653 29.8658 52.534C30.1618 52.4027 30.4148 52.1804 30.5927 51.8952C30.7706 51.61 30.8655 51.2747 30.8654 50.9318C30.8647 50.4725 30.6939 50.0322 30.3905 49.7074C30.087 49.3827 29.6756 49.1999 29.2464 49.1992Z" fill="#808080"/>
<path d="M58.452 41.3848C58.1316 41.3848 57.8184 41.4865 57.552 41.677C57.2856 41.8675 57.078 42.1383 56.9554 42.4551C56.8329 42.7719 56.8008 43.1205 56.8634 43.4568C56.926 43.793 57.0803 44.1019 57.3069 44.3443C57.5335 44.5867 57.8222 44.7517 58.1365 44.8185C58.4508 44.8853 58.7765 44.8508 59.0724 44.7195C59.3684 44.5881 59.6213 44.3658 59.7992 44.0806C59.9771 43.7955 60.072 43.4603 60.0718 43.1174C60.0714 42.6579 59.9005 42.2173 59.5968 41.8925C59.2931 41.5676 58.8814 41.385 58.452 41.3848Z" fill="#808080"/>
<path d="M58.452 49.1992C58.1316 49.1992 57.8184 49.3009 57.552 49.4914C57.2856 49.6819 57.078 49.9527 56.9554 50.2695C56.8329 50.5863 56.8008 50.9349 56.8634 51.2712C56.926 51.6074 57.0803 51.9163 57.3069 52.1587C57.5335 52.4011 57.8222 52.5661 58.1365 52.6329C58.4508 52.6997 58.7765 52.6653 59.0724 52.5339C59.3684 52.4026 59.6213 52.1803 59.7992 51.8951C59.9771 51.6099 60.072 51.2747 60.0718 50.9318C60.0714 50.4723 59.9005 50.0318 59.5968 49.7069C59.2931 49.3821 58.8814 49.1995 58.452 49.1992Z" fill="#808080"/>
<path d="M65.753 41.3848C65.4326 41.3848 65.1194 41.4865 64.853 41.677C64.5866 41.8675 64.379 42.1383 64.2564 42.4551C64.1338 42.7719 64.1018 43.1205 64.1644 43.4568C64.2269 43.793 64.3813 44.1019 64.6079 44.3443C64.8345 44.5867 65.1232 44.7517 65.4374 44.8185C65.7517 44.8853 66.0774 44.8508 66.3734 44.7195C66.6693 44.5881 66.9223 44.3658 67.1002 44.0806C67.2781 43.7955 67.3729 43.4603 67.3727 43.1174C67.3723 42.6579 67.2015 42.2173 66.8978 41.8925C66.5941 41.5676 66.1823 41.385 65.753 41.3848Z" fill="#808080"/>
<path d="M29.3369 57.2603C29.0164 57.2601 28.7031 57.3616 28.4366 57.552C28.1701 57.7424 27.9624 58.0132 27.8397 58.33C27.717 58.6467 27.6849 58.9953 27.7473 59.3317C27.8098 59.668 27.9641 59.977 28.1907 60.2195C28.4173 60.462 28.7059 60.627 29.0202 60.6939C29.3345 60.7607 29.6603 60.7263 29.9563 60.595C30.2523 60.4637 30.5053 60.2414 30.6832 59.9562C30.8611 59.671 30.956 59.3357 30.9558 58.9928C30.9552 58.5335 30.7844 58.0932 30.4809 57.7685C30.1774 57.4437 29.766 57.261 29.3369 57.2603Z" fill="#808080"/>
<path d="M29.3369 65.0752C29.0167 65.0752 28.7036 65.1768 28.4374 65.3672C28.1712 65.5576 27.9637 65.8281 27.8411 66.1447C27.7186 66.4613 27.6865 66.8096 27.749 67.1457C27.8115 67.4818 27.9657 67.7905 28.1921 68.0329C28.4185 68.2752 28.707 68.4402 29.021 68.5071C29.3351 68.5739 29.6606 68.5395 29.9564 68.4084C30.2522 68.2773 30.5051 68.0552 30.683 67.7703C30.8609 67.4854 30.9558 67.1504 30.9558 66.8078C30.9552 66.3485 30.7844 65.9082 30.4809 65.5834C30.1774 65.2587 29.766 65.0759 29.3369 65.0752Z" fill="#808080"/>
<path d="M43.9396 57.2603C43.6192 57.2603 43.306 57.3619 43.0396 57.5525C42.7732 57.743 42.5656 58.0137 42.4431 58.3305C42.3205 58.6473 42.2884 58.9959 42.351 59.3322C42.4136 59.6685 42.5679 59.9774 42.7945 60.2197C43.0212 60.4621 43.3098 60.6272 43.6241 60.694C43.9384 60.7608 44.2641 60.7263 44.56 60.595C44.856 60.4636 45.1089 60.2413 45.2868 59.9561C45.4647 59.6709 45.5596 59.3357 45.5594 58.9928C45.559 58.5333 45.3881 58.0928 45.0844 57.7679C44.7807 57.4431 44.369 57.2605 43.9396 57.2603Z" fill="#808080"/>
<path d="M43.9396 65.0752C43.6194 65.0754 43.3065 65.1771 43.0404 65.3676C42.7743 65.558 42.5669 65.8287 42.4445 66.1453C42.3221 66.4619 42.2901 66.8102 42.3527 67.1463C42.4152 67.4823 42.5695 67.791 42.796 68.0332C43.0224 68.2754 43.3109 68.4403 43.6249 68.5071C43.9389 68.5739 44.2644 68.5395 44.5602 68.4084C44.856 68.2772 45.1088 68.0551 45.2866 67.7702C45.4645 67.4853 45.5594 67.1504 45.5594 66.8078C45.559 66.3482 45.3881 65.9077 45.0844 65.5828C44.7807 65.258 44.369 65.0754 43.9396 65.0752Z" fill="#808080"/>
<path d="M36.6387 57.2603C36.3182 57.2601 36.005 57.3616 35.7385 57.552C35.472 57.7424 35.2642 58.0132 35.1415 58.33C35.0188 58.6467 34.9867 58.9953 35.0492 59.3317C35.1116 59.668 35.2659 59.977 35.4925 60.2195C35.7191 60.462 36.0078 60.627 36.322 60.6939C36.6363 60.7607 36.9621 60.7263 37.2581 60.595C37.5541 60.4637 37.8071 60.2414 37.985 59.9562C38.1629 59.671 38.2578 59.3357 38.2576 58.9928C38.2572 58.5335 38.0865 58.093 37.783 57.7682C37.4794 57.4434 37.0679 57.2607 36.6387 57.2603Z" fill="#808080"/>
<path d="M36.6387 65.0752C36.3185 65.0752 36.0055 65.1768 35.7392 65.3672C35.473 65.5576 35.2655 65.8281 35.1429 66.1447C35.0204 66.4613 34.9884 66.8096 35.0508 67.1457C35.1133 67.4818 35.2675 67.7905 35.4939 68.0329C35.7203 68.2752 36.0088 68.4402 36.3228 68.5071C36.6369 68.5739 36.9624 68.5395 37.2582 68.4084C37.554 68.2773 37.8069 68.0552 37.9848 67.7703C38.1627 67.4854 38.2576 67.1504 38.2576 66.8078C38.2572 66.3484 38.0865 65.908 37.783 65.5832C37.4794 65.2583 37.0679 65.0757 36.6387 65.0752Z" fill="#808080"/>
<path d="M51.2406 57.2603C50.9202 57.2603 50.607 57.3619 50.3406 57.5525C50.0742 57.743 49.8666 58.0137 49.744 58.3305C49.6214 58.6473 49.5894 58.9959 49.652 59.3322C49.7145 59.6685 49.8689 59.9774 50.0955 60.2197C50.3221 60.4621 50.6108 60.6272 50.9251 60.694C51.2393 60.7608 51.5651 60.7263 51.861 60.595C52.157 60.4636 52.4099 60.2413 52.5878 59.9561C52.7657 59.6709 52.8605 59.3357 52.8604 58.9928C52.8601 58.5332 52.6894 58.0926 52.3857 57.7677C52.0819 57.4428 51.67 57.2603 51.2406 57.2603Z" fill="#808080"/>
<path d="M51.2408 65.0752C50.9207 65.0754 50.6077 65.1771 50.3416 65.3676C50.0755 65.558 49.8681 65.8287 49.7457 66.1453C49.6233 66.4619 49.5913 66.8102 49.6539 67.1463C49.7165 67.4823 49.8707 67.791 50.0972 68.0332C50.3236 68.2754 50.6121 68.4403 50.9261 68.5071C51.2401 68.5739 51.5656 68.5395 51.8614 68.4084C52.1572 68.2772 52.41 68.0551 52.5878 67.7702C52.7657 67.4853 52.8606 67.1504 52.8606 66.8078C52.8604 66.3482 52.6896 65.9075 52.3859 65.5826C52.0822 65.2577 51.6703 65.0752 51.2408 65.0752Z" fill="#808080"/>
<path d="M67.7689 57.55C67.5996 57.402 67.3823 57.332 67.1648 57.3555C66.9473 57.379 66.7474 57.4941 66.6091 57.6753L60.6303 65.4956L58.117 62.8068C58.0404 62.7249 57.9495 62.6599 57.8494 62.6156C57.7494 62.5713 57.6422 62.5486 57.5339 62.5486C57.4256 62.5486 57.3184 62.5715 57.2184 62.6158C57.1184 62.6602 57.0275 62.7252 56.951 62.8072C56.8745 62.8892 56.8138 62.9865 56.7724 63.0935C56.731 63.2006 56.7097 63.3154 56.7097 63.4312C56.7098 63.5471 56.7311 63.6618 56.7726 63.7688C56.8141 63.8759 56.8748 63.9732 56.9514 64.0551L60.1085 67.4329C60.2631 67.5983 60.4727 67.6913 60.6913 67.6913H60.7326C60.8477 67.6847 60.9603 67.6525 61.0632 67.5968C61.1661 67.541 61.257 67.463 61.3302 67.3676L67.886 58.7929C67.9547 58.7032 68.0062 58.5998 68.0375 58.4887C68.0688 58.3776 68.0794 58.2609 68.0685 58.1455C68.0576 58.03 68.0255 57.918 67.9741 57.8158C67.9227 57.7136 67.853 57.6233 67.7689 57.55Z" fill="#808080"/>
<path d="M65.753 49.1992C65.4326 49.1992 65.1194 49.3009 64.853 49.4914C64.5866 49.6819 64.379 49.9527 64.2564 50.2695C64.1338 50.5863 64.1018 50.9349 64.1644 51.2712C64.2269 51.6074 64.3813 51.9163 64.6079 52.1587C64.8345 52.4011 65.1232 52.5661 65.4374 52.6329C65.7517 52.6997 66.0774 52.6653 66.3734 52.5339C66.6693 52.4026 66.9223 52.1803 67.1002 51.8951C67.2781 51.6099 67.3729 51.2747 67.3727 50.9318C67.3723 50.4723 67.2015 50.0318 66.8978 49.7069C66.5941 49.3821 66.1823 49.1995 65.753 49.1992Z" fill="#808080"/>
<path d="M43.8492 41.3848C43.5288 41.3848 43.2156 41.4865 42.9492 41.677C42.6828 41.8675 42.4752 42.1383 42.3526 42.4551C42.23 42.7719 42.198 43.1205 42.2606 43.4568C42.3231 43.793 42.4775 44.1019 42.7041 44.3443C42.9307 44.5867 43.2194 44.7517 43.5337 44.8185C43.8479 44.8853 44.1736 44.8508 44.4696 44.7195C44.7656 44.5881 45.0185 44.3658 45.1964 44.0806C45.3742 43.7955 45.4691 43.4603 45.4689 43.1174C45.4685 42.6579 45.2977 42.2173 44.994 41.8925C44.6903 41.5676 44.2785 41.385 43.8492 41.3848Z" fill="#808080"/>
<path d="M43.8492 49.1992C43.5288 49.1992 43.2156 49.3009 42.9492 49.4914C42.6828 49.6819 42.4752 49.9527 42.3526 50.2695C42.23 50.5863 42.198 50.9349 42.2606 51.2712C42.3231 51.6074 42.4775 51.9163 42.7041 52.1587C42.9307 52.4011 43.2194 52.5661 43.5337 52.6329C43.8479 52.6997 44.1736 52.6653 44.4696 52.5339C44.7656 52.4026 45.0185 52.1803 45.1964 51.8951C45.3742 51.6099 45.4691 51.2747 45.4689 50.9318C45.4685 50.4723 45.2977 50.0318 44.994 49.7069C44.6903 49.3821 44.2785 49.1995 43.8492 49.1992Z" fill="#808080"/>
<path d="M36.5481 41.3848C36.2277 41.3846 35.9144 41.4861 35.6479 41.6765C35.3814 41.8669 35.1736 42.1377 35.0509 42.4545C34.9282 42.7713 34.8961 43.1199 34.9586 43.4562C35.021 43.7926 35.1753 44.1015 35.4019 44.344C35.6285 44.5865 35.9172 44.7516 36.2315 44.8184C36.5458 44.8853 36.8715 44.8509 37.1675 44.7196C37.4635 44.5883 37.7165 44.3659 37.8944 44.0807C38.0723 43.7955 38.1672 43.4603 38.1671 43.1174C38.1666 42.658 37.9959 42.2176 37.6924 41.8928C37.3889 41.568 36.9773 41.3852 36.5481 41.3848Z" fill="#808080"/>
<path d="M36.5481 49.1992C36.2277 49.199 35.9144 49.3006 35.6479 49.491C35.3814 49.6814 35.1736 49.9521 35.0509 50.2689C34.9282 50.5857 34.8961 50.9343 34.9586 51.2706C35.021 51.607 35.1753 51.916 35.4019 52.1584C35.6285 52.4009 35.9172 52.566 36.2315 52.6329C36.5458 52.6997 36.8715 52.6653 37.1675 52.534C37.4635 52.4027 37.7165 52.1804 37.8944 51.8952C38.0723 51.61 38.1672 51.2747 38.1671 50.9318C38.1666 50.4724 37.9959 50.032 37.6924 49.7072C37.3889 49.3824 36.9773 49.1997 36.5481 49.1992Z" fill="#808080"/>
<path d="M51.15 41.3848C50.8296 41.3848 50.5164 41.4865 50.25 41.677C49.9836 41.8675 49.776 42.1383 49.6534 42.4551C49.5309 42.7719 49.4988 43.1205 49.5614 43.4568C49.624 43.793 49.7783 44.1019 50.0049 44.3443C50.2315 44.5867 50.5202 44.7517 50.8345 44.8185C51.1488 44.8853 51.4745 44.8508 51.7704 44.7195C52.0664 44.5881 52.3193 44.3658 52.4972 44.0806C52.6751 43.7955 52.77 43.4603 52.7698 43.1174C52.7696 42.6578 52.5988 42.2171 52.2951 41.8922C51.9913 41.5673 51.5795 41.3848 51.15 41.3848Z" fill="#808080"/>
<path d="M51.15 49.1992C50.8296 49.1992 50.5164 49.3009 50.25 49.4914C49.9836 49.6819 49.776 49.9527 49.6534 50.2695C49.5309 50.5863 49.4988 50.9349 49.5614 51.2712C49.624 51.6074 49.7783 51.9163 50.0049 52.1587C50.2315 52.4011 50.5202 52.5661 50.8345 52.6329C51.1488 52.6997 51.4745 52.6653 51.7704 52.5339C52.0664 52.4026 52.3193 52.1803 52.4972 51.8951C52.6751 51.6099 52.77 51.2747 52.7698 50.9318C52.7696 50.4722 52.5988 50.0315 52.2951 49.7066C51.9913 49.3817 51.5795 49.1992 51.15 49.1992Z" fill="#808080"/>
<path d="M63.125 20.7263V17H61.4763V20.7263H33.0283V17H31.3796V20.7263H19V77.2299H76V20.7263H63.125ZM31.3796 22.4906V25.3135H33.0283V22.4906H61.4763V25.3135H63.125V22.4906H74.3514V32.4679H20.6486V22.4906H31.3796ZM20.6486 75.4656V34.2322H74.3514V75.4656H20.6486Z" fill="#808080"/>
</svg>
