<svg width="22" height="24" viewBox="0 0 22 24" fill="none" xmlns="http://www.w3.org/2000/svg">
    <mask id="path-1-inside-1_539_2001" fill="white">
        <path d="M0 14C0 13.4477 0.447715 13 1 13H5C5.55228 13 6 13.4477 6 14V23C6 23.5523 5.55228 24 5 24H1C0.447715 24 0 23.5523 0 23V14Z"/>
    </mask>
    <path d="M-1 14C-1 12.8954 -0.104569 12 1 12H5C6.10457 12 7 12.8954 7 14H5H1H-1ZM7 23C7 24.1046 6.10457 25 5 25H1C-0.104569 25 -1 24.1046 -1 23H1H5H7ZM1 25C-0.104569 25 -1 24.1046 -1 23V14C-1 12.8954 -0.104569 12 1 12V14V23V25ZM5 12C6.10457 12 7 12.8954 7 14V23C7 24.1046 6.10457 25 5 25V23V14V12Z" fill="white" mask="url(#path-1-inside-1_539_2001)"/>
    <mask id="path-3-inside-2_539_2001" fill="white">
        <path d="M7 11C7 10.4477 7.44772 10 8 10H12C12.5523 10 13 10.4477 13 11V23C13 23.5523 12.5523 24 12 24H8C7.44772 24 7 23.5523 7 23V11Z"/>
    </mask>
    <path d="M6 11C6 9.89543 6.89543 9 8 9H12C13.1046 9 14 9.89543 14 11H12H8H6ZM14 23C14 24.1046 13.1046 25 12 25H8C6.89543 25 6 24.1046 6 23H8H12H14ZM8 25C6.89543 25 6 24.1046 6 23V11C6 9.89543 6.89543 9 8 9V11V23V25ZM12 9C13.1046 9 14 9.89543 14 11V23C14 24.1046 13.1046 25 12 25V23V11V9Z" fill="white" mask="url(#path-3-inside-2_539_2001)"/>
    <mask id="path-5-inside-3_539_2001" fill="white">
        <path d="M14.0898 6.52197H19.7752V22.9995C19.7752 23.5518 19.3275 23.9995 18.7752 23.9995H15.0898C14.5376 23.9995 14.0898 23.5518 14.0898 22.9995V6.52197Z"/>
    </mask>
    <path d="M14.0898 6.52197H19.7752H14.0898ZM20.7752 22.9995C20.7752 24.1041 19.8798 24.9995 18.7752 24.9995H15.0898C13.9853 24.9995 13.0898 24.1041 13.0898 22.9995H15.0898H18.7752H20.7752ZM15.0898 24.9995C13.9853 24.9995 13.0898 24.1041 13.0898 22.9995V6.52197H15.0898V22.9995V24.9995ZM20.7752 6.52197V22.9995C20.7752 24.1041 19.8798 24.9995 18.7752 24.9995V22.9995V6.52197H20.7752Z" fill="white" mask="url(#path-5-inside-3_539_2001)"/>
    <path d="M14.8315 6.83757H13.0017C12.5736 6.83757 12.3435 6.33453 12.6235 6.01061L16.5761 1.43765C16.7755 1.20693 17.1332 1.20693 17.3326 1.43765L21.2852 6.01061C21.5652 6.33453 21.3351 6.83757 20.9069 6.83757H19.0338" stroke="white" stroke-linejoin="round"/>
</svg>