<svg xmlns="http://www.w3.org/2000/svg" viewBox="0 0 92 92"><defs><style>.cls-1{fill:gray;}</style></defs><title>resources</title><g id="Content"><path class="cls-1" d="M70.26,39.43h0a14.69,14.69,0,0,0-5.49-9.79,14.21,14.21,0,0,0-10.6-2.88,13.94,13.94,0,0,0-6.73,2.77l-.22.18L47,29.54A25.73,25.73,0,0,0,44.7,28a14.85,14.85,0,0,0-7.19-1.88,14,14,0,0,0-11,5.21c-2.93,3.61-3.76,8-2.48,13.08a18.08,18.08,0,0,0,4.81,8.21l.11.1v.16a4.82,4.82,0,0,0,1.57,3.44A4.73,4.73,0,0,0,33,57.51l.26,0,0,.26a4.45,4.45,0,0,0,3.78,3.7l.27,0,0,.26a4.82,4.82,0,0,0,1.38,2.62,6.44,6.44,0,0,0,3,1.5L42,66l.07.22a4,4,0,0,0,2.65,3,4.85,4.85,0,0,0,1.5.24,4,4,0,0,0,2.77-1l.42-.39a25,25,0,0,0,3.71-4l.15-.23.26.07a3.92,3.92,0,0,0,3.31-.48,3.69,3.69,0,0,0,1.59-2.91l0-.33.33,0a4.42,4.42,0,0,0,2.7-1.13,4.08,4.08,0,0,0,1.13-2.75v-.34l.34,0a4.57,4.57,0,0,0,2.95-1.35,3.68,3.68,0,0,0,.85-3.26l0-.17.11-.14A15.28,15.28,0,0,0,70.26,39.43ZM33.72,55.78h-.15A2.82,2.82,0,0,1,31.76,55a3.06,3.06,0,0,1-1-2.09v-.17l4.82-4.68a2.13,2.13,0,0,1,3,.34,2.08,2.08,0,0,1,.35,2.37l-.07.09Zm4.14,4h-.15a2.71,2.71,0,0,1-1.9-.76,2.9,2.9,0,0,1-.81-1.8V57l5.16-5c.4-.2,1.74-.79,2.56,0a2.7,2.7,0,0,1,.64,2.4l0,.12Zm4.43,4.44-.19,0A4.44,4.44,0,0,1,40,63.12a3.06,3.06,0,0,1-.87-1.88l0-.19,5.46-5.15h.11a2.67,2.67,0,0,1,2.48.66,3,3,0,0,1,.41,2.09l0,.12Zm9.52-1.69c-.25.7-1.47,2.07-3.6,4.07l-.1.09-.35.33a2.42,2.42,0,0,1-1.61.6,3,3,0,0,1-.91-.15c-.58-.19-1.16-.55-1.54-1.87l-.06-.21L49,59.88a2,2,0,0,1,2.16.67,4,4,0,0,1,.71,1.79v.09Zm12.75-9.33a3.1,3.1,0,0,1-2.71.77l-.12,0L52.67,44.8a.93.93,0,0,0-.63-.27h0a.92.92,0,0,0-.63.26.9.9,0,0,0,0,1.26l9.15,9.23a2.05,2.05,0,0,1-.37,2.33,2.4,2.4,0,0,1-2.45.45l-9.31-9.53a.89.89,0,0,0-1.26,0,.85.85,0,0,0-.27.62.91.91,0,0,0,.25.63l9.35,9.58,0,.1a2.12,2.12,0,0,1-.78,2.39,1.77,1.77,0,0,1-1,.27,3.28,3.28,0,0,1-.91-.13l-.21-.07,0-.21a5.45,5.45,0,0,0-1-2.28A4.23,4.23,0,0,0,49.69,58l-.32,0,0-.32a3.9,3.9,0,0,0-.85-2.23,4,4,0,0,0-3-1.34l-.34,0V53.7A4.22,4.22,0,0,0,44,50.82a3.25,3.25,0,0,0-2.67-.93l-.37,0,0-.38a4,4,0,0,0-1-2.3,3.9,3.9,0,0,0-5.43-.61l-.08.07-4.53,4.38-.26-.27a16.09,16.09,0,0,1-3.85-6.88c-1.15-4.56-.45-8.33,2.15-11.52a12.54,12.54,0,0,1,15.92-2.89,19.72,19.72,0,0,1,1.7,1.15l.36.26-7.7,7.54a3.9,3.9,0,0,0-1.35,2.69,3.18,3.18,0,0,0,1.25,2.46c2.5,2.15,6.26,1.89,8.94-.61,1-1,3.4-3.27,4.71-4.56l.27-.27L64.91,51.3l0,.1A2,2,0,0,1,64.56,53.19Zm1.31-4.07-.26.35-13-13.16a.93.93,0,0,0-1.26,0c-1,1-4.33,4.26-5.57,5.41-2,1.88-4.77,2.12-6.56.57a1.48,1.48,0,0,1-.64-1.09,2.13,2.13,0,0,1,.73-1.35l8.51-8.33a12,12,0,0,1,6.54-3A12.42,12.42,0,0,1,63.67,31a12.87,12.87,0,0,1,4.82,8.6A13.25,13.25,0,0,1,65.87,49.12Z"/></g></svg>