<svg width="22" height="25" viewBox="0 0 22 25" fill="none" xmlns="http://www.w3.org/2000/svg">
    <path d="M7.00441 24.1737V17.6149C7.00441 17.3007 6.85676 17.0048 6.60573 16.8159L3.06335 14.15C2.8915 14.0206 2.76593 13.8393 2.70527 13.633L1.02298 7.9103C0.807703 7.0149 2.16053 6.40984 2.75065 7.41245C2.78454 7.47004 2.8072 7.53287 2.82466 7.59738C2.99246 8.21692 3.92487 11.6257 4.20057 11.8994C4.3355 12.0333 4.94197 12.3314 5.57385 12.6211M7.19122 13.3314C7.19122 13.3314 6.36273 12.9827 5.57385 12.6211M5.57385 12.6211C5.42294 11.919 5.46553 10.6464 6.80666 11.0602C6.86018 11.0767 6.91255 11.1003 6.96169 11.1272L10.0654 12.8256C10.2523 12.962 10.8692 13.4803 11.0935 14.0531M11.0935 14.0531C11.2557 13.7741 11.5696 13.2875 11.8121 13.0566C11.934 12.9406 12.1054 12.8855 12.2528 12.8045L15.2056 11.1834C16.514 10.2628 17.2617 12.1096 15.8598 12.9279M11.0935 14.0531V23.9748M15.8598 12.9279L15.1121 13.4394M15.8598 12.9279L17.6033 11.833C17.805 11.7064 17.9549 11.5118 18.026 11.2844L19.1808 7.58782C19.2097 7.49557 19.2492 7.40578 19.3147 7.33463C19.7409 6.87103 20.6851 6.6907 20.9766 7.81615C20.9936 7.88173 21 7.95007 21 8.01782V8.01782C21 8.08608 20.9928 8.15416 20.9787 8.22093L20.0654 12.5188C19.951 12.9258 19.6527 13.7412 19.3152 13.9984C19.2588 14.0413 19.1953 14.074 19.1379 14.1154L15.5191 16.7258C15.263 16.9105 15.1092 17.2054 15.1042 17.5211L15.0187 22.9519" stroke="white" stroke-width="0.75"/>
    <path d="M10.9633 1.88106C8.34648 -0.0828187 6.85134 1.67658 6.57094 2.90396C6.19699 4.17086 6.57096 5.39829 7.13152 5.97248L10.9633 9.75705" stroke="white" stroke-width="0.75"/>
    <path d="M10.9062 1.88504C13.5979 -0.0877058 15.1358 1.67963 15.4243 2.91255C15.8089 4.18517 15.4242 5.41814 14.8476 5.99492L10.9062 9.79658" stroke="white" stroke-width="0.75"/>
</svg>