<svg height="26.109" width="34" xmlns="http://www.w3.org/2000/svg"><path d="m32.423272 26.076954a1.554 1.554 0 0 1 -1.1-.457l-11.5-11.5a1.559 1.559 0 0 1 0-2.2l11.5-11.5a1.559 1.559 0 0 1 2.2 2.2l-10.391 10.402 10.394 10.394a1.559 1.559 0 0 1 -1.1 2.661z" fill="#06b9ff" transform="matrix(-1 0 0 -1 53.351547 26.110296)"/><path d="m28.897072 14.677092h-27.278a1.559 1.559 0 0 1 0-3.117h27.278a1.559 1.559 0 0 1 0 3.117z" fill="#06b9ff"/><g fill="none"><rect height="100%" width="100%"/><path d="m-1-1h582v402h-582z"/></g></svg>
