<svg xmlns="http://www.w3.org/2000/svg" viewBox="0 0 96 96"><defs><style>.cls-1{fill:#fff;}</style></defs><title>nutritionassessment</title><g id="Content"><path class="cls-1" d="M32.5,55.58a.69.69,0,0,0-.74-.66l-8.33.48L55.28,23.56l-.49,8.32a.7.7,0,0,0,.66.74A.71.71,0,0,0,56.2,32l.59-10.16a.73.73,0,0,0-.74-.75l-10.17.6a.71.71,0,0,0-.45,1.2.74.74,0,0,0,.54.2l8.32-.49L22.44,54.41l.49-8.32a.7.7,0,0,0-1.4-.08l-.6,10.16a.72.72,0,0,0,.21.54.7.7,0,0,0,.53.21l10.17-.6A.71.71,0,0,0,32.5,55.58Z"/><path class="cls-1" d="M76.45,41.42l-11-11a.75.75,0,0,0-1.06,0L34.53,60.29h0l-4.36,4.36a.74.74,0,0,0,0,1.06l11,11a.75.75,0,0,0,1.06,0L76.45,42.48A.75.75,0,0,0,76.45,41.42ZM41.69,75.12l-9.93-9.93,3.3-3.3,4.42,4.42a.75.75,0,0,0,1.06,0,.75.75,0,0,0,0-1.06l-4.42-4.42,2.38-2.38,2.71,2.71a.74.74,0,0,0,.53.22.71.71,0,0,0,.53-.22.74.74,0,0,0,0-1.06l-2.71-2.71,2.13-2.13,4.42,4.42a.77.77,0,0,0,.53.22.79.79,0,0,0,.53-.22.75.75,0,0,0,0-1.06L42.75,54.2,45,52l2.71,2.71a.74.74,0,0,0,.53.22.71.71,0,0,0,.53-.22.74.74,0,0,0,0-1.06L46,50.93l2.3-2.3,4.42,4.42a.71.71,0,0,0,.53.22.74.74,0,0,0,.53-.22.75.75,0,0,0,0-1.06l-4.42-4.42,2.24-2.24L54.33,48a.75.75,0,0,0,1.06,0,.75.75,0,0,0,0-1.06l-2.71-2.71L55,42l4.41,4.42a.75.75,0,0,0,1.07-1.06L56,40.94l2.26-2.27L61,41.39a.75.75,0,0,0,.53.22.79.79,0,0,0,.53-.22.75.75,0,0,0,0-1.06l-2.72-2.72,2.24-2.24L66,39.79a.74.74,0,0,0,.53.22.71.71,0,0,0,.53-.22.74.74,0,0,0,0-1.06l-4.42-4.42L64.93,32,74.86,42Z"/></g></svg>