<svg width="92" height="92" viewBox="0 0 92 92" fill="none" xmlns="http://www.w3.org/2000/svg">
<path d="M41.0365 34.2161L34.5842 27.7811L36.3141 26.0513C36.4962 25.8975 36.6445 25.7077 36.7498 25.4938C36.8551 25.28 36.915 25.0467 36.9259 24.8086C36.9367 24.5705 36.8982 24.3327 36.8128 24.1101C36.7274 23.8876 36.597 23.6851 36.4296 23.5154C36.2623 23.3456 36.0617 23.2123 35.8404 23.1238C35.6191 23.0352 35.3818 22.9934 35.1436 23.0009C34.9053 23.0083 34.6712 23.065 34.4559 23.1672C34.2406 23.2694 34.0487 23.415 33.8923 23.5949L25.5026 31.9673C25.1792 32.2931 24.9984 32.7339 25 33.193C25.0016 33.652 25.1855 34.0916 25.5113 34.415C25.837 34.7385 26.2779 34.9193 26.7369 34.9177C27.196 34.916 27.6355 34.7321 27.959 34.4064L29.6888 32.6766L36.1238 39.1115L41.0365 34.2161Z" fill="#fff"/>
<path d="M69.6133 65.8726L64.6486 60.8733L64.9773 60.5274C65.1583 60.3488 65.302 60.136 65.4 59.9014C65.4981 59.6668 65.5486 59.4151 65.5486 59.1608C65.5486 58.9065 65.4981 58.6548 65.4 58.4202C65.302 58.1856 65.1583 57.9729 64.9773 57.7942L63.9913 56.7909C64.6554 55.9413 64.9867 54.8786 64.923 53.8022C64.8593 52.7257 64.405 51.7094 63.6453 50.9441L48.4228 35.7216L50.6716 33.3863C50.9938 33.0622 51.1746 32.6238 51.1746 32.1668C51.1746 31.7098 50.9938 31.2713 50.6716 30.9472C50.5108 30.7851 50.3195 30.6564 50.1087 30.5686C49.8979 30.4808 49.6718 30.4355 49.4434 30.4355C49.215 30.4355 48.9889 30.4808 48.7782 30.5686C48.5674 30.6564 48.376 30.7851 48.2152 30.9472L32.9235 46.3081C32.7424 46.4632 32.5953 46.6541 32.4915 46.8687C32.3877 47.0833 32.3293 47.317 32.3201 47.5553C32.3109 47.7935 32.3511 48.0311 32.438 48.253C32.525 48.475 32.6569 48.6766 32.8255 48.8452C32.9941 49.0138 33.1957 49.1457 33.4177 49.2327C33.6397 49.3196 33.8772 49.3598 34.1154 49.3506C34.3537 49.3414 34.5874 49.283 34.802 49.1792C35.0167 49.0754 35.2075 48.9283 35.3626 48.7472L37.6286 46.4811L52.8512 61.7037C53.6175 62.468 54.6372 62.9252 55.7176 62.9889C56.7981 63.0527 57.8644 62.7185 58.7153 62.0496L59.7013 63.0529C60.0695 63.4111 60.5629 63.6116 61.0765 63.6116C61.5902 63.6116 62.0836 63.4111 62.4517 63.0529L62.7977 62.707L67.7796 67.7062C68.0229 67.9491 68.3526 68.0856 68.6964 68.0856C69.0402 68.0856 69.37 67.9491 69.6133 67.7062C69.7357 67.5869 69.8329 67.4443 69.8994 67.2869C69.9658 67.1294 70 66.9603 70 66.7894C70 66.6185 69.9658 66.4493 69.8994 66.2919C69.8329 66.1344 69.7357 65.9918 69.6133 65.8726ZM46.3643 44.2842C46.1213 44.041 45.9849 43.7112 45.9849 43.3674C45.9849 43.0236 46.1213 42.6939 46.3643 42.4506L48.6477 40.1672C48.8954 39.9241 49.2296 39.7893 49.5767 39.7925C49.9238 39.7958 50.2554 39.9368 50.4986 40.1845C50.7418 40.4323 50.8765 40.7665 50.8733 41.1136C50.87 41.4607 50.729 41.7923 50.4813 42.0355L48.1979 44.2842C47.9547 44.5272 47.6249 44.6637 47.2811 44.6637C46.9373 44.6637 46.6076 44.5272 46.3643 44.2842ZM49.5645 47.4844C49.3215 47.2412 49.1851 46.9114 49.1851 46.5676C49.1851 46.2238 49.3215 45.8941 49.5645 45.6508L51.8479 43.3501C51.9694 43.2297 52.1135 43.1345 52.2718 43.0697C52.4302 43.005 52.5997 42.9721 52.7708 42.9729C52.9419 42.9737 53.1111 43.0082 53.2689 43.0744C53.4266 43.1406 53.5697 43.2372 53.6901 43.3588C53.8105 43.4803 53.9058 43.6244 53.9705 43.7827C54.0353 43.9411 54.0682 44.1106 54.0674 44.2817C54.0666 44.4528 54.0321 44.622 53.9659 44.7798C53.8997 44.9375 53.803 45.0807 53.6815 45.2011L51.3981 47.4844C51.1549 47.7274 50.8251 47.8639 50.4813 47.8639C50.1375 47.8639 49.8078 47.7274 49.5645 47.4844ZM52.7647 50.6846C52.5248 50.4363 52.3907 50.1045 52.3907 49.7592C52.3907 49.4139 52.5248 49.082 52.7647 48.8337L55.0481 46.5503C55.294 46.3212 55.6193 46.1964 55.9554 46.2023C56.2915 46.2083 56.6122 46.3444 56.8499 46.5821C57.0876 46.8198 57.2238 47.1405 57.2297 47.4766C57.2356 47.8127 57.1109 48.138 56.8817 48.3839L54.5983 50.6846C54.355 50.9276 54.0253 51.064 53.6815 51.064C53.3377 51.064 53.0079 50.9276 52.7647 50.6846ZM60.0819 51.5841L57.7293 53.8675C57.61 53.9899 57.4675 54.0872 57.31 54.1536C57.1526 54.22 56.9834 54.2543 56.8125 54.2543C56.6416 54.2543 56.4724 54.22 56.315 54.1536C56.1575 54.0872 56.0149 53.9899 55.8957 53.8675C55.6527 53.6243 55.5163 53.2945 55.5163 52.9507C55.5163 52.6069 55.6527 52.2772 55.8957 52.0339L58.1791 49.7505C58.425 49.5213 58.7503 49.3966 59.0864 49.4025C59.4225 49.4084 59.7432 49.5446 59.9809 49.7823C60.2186 50.02 60.3548 50.3407 60.3607 50.6768C60.3666 51.0129 60.2419 51.3382 60.0127 51.5841H60.0819Z" fill="#fff"/>
</svg>
