<svg width="92" height="92" viewBox="0 0 92 92" fill="none" xmlns="http://www.w3.org/2000/svg">
<path d="M73.3489 66.3959H18.6489C18.4475 66.3957 18.2544 66.3155 18.1121 66.173C17.9697 66.0305 17.8899 65.8373 17.8899 65.6359V33.642C17.8898 33.5422 17.9092 33.4434 17.9473 33.3512C17.9854 33.259 18.0413 33.1752 18.1118 33.1046C18.1823 33.034 18.266 32.978 18.3582 32.9398C18.4503 32.9016 18.5492 32.882 18.6489 32.882H73.3489C73.4487 32.882 73.5474 32.9016 73.6396 32.9398C73.7319 32.978 73.8157 33.034 73.8862 33.1046C73.9568 33.1751 74.0128 33.2589 74.051 33.3511C74.0892 33.4433 74.1089 33.5422 74.1089 33.642V65.6359C74.1089 65.7357 74.0892 65.8346 74.051 65.9268C74.0128 66.019 73.9568 66.1028 73.8862 66.1733C73.8157 66.2439 73.7319 66.2999 73.6396 66.3381C73.5474 66.3763 73.4487 66.3959 73.3489 66.3959ZM19.4089 64.876H72.5898V34.4009H19.4089V64.876Z" fill="#808080"/>
<path d="M58.0859 34.137L55.5278 27.317H36.47L33.9128 34.137L32.49 33.603L35.2319 26.29C35.2861 26.1452 35.3832 26.0204 35.5103 25.9323C35.6373 25.8442 35.7883 25.797 35.9429 25.797H56.054C56.2087 25.7969 56.3598 25.8441 56.4871 25.9322C56.6143 26.0203 56.7115 26.1451 56.7659 26.29L59.5078 33.603L58.0859 34.137Z" fill="#808080"/>
<path d="M45.9987 61.0531C43.8004 61.0531 41.6515 60.4012 39.8237 59.1798C37.9958 57.9585 36.5712 56.2225 35.7299 54.1915C34.8887 52.1605 34.6685 49.9257 35.0973 47.7696C35.5262 45.6135 36.5849 43.633 38.1393 42.0785C39.6938 40.524 41.6742 39.4654 43.8303 39.0366C45.9864 38.6077 48.2214 38.8278 50.2524 39.6691C52.2834 40.5103 54.0193 41.935 55.2407 43.7629C56.462 45.5907 57.1137 47.7397 57.1137 49.938C57.1105 52.8849 55.9385 55.7102 53.8547 57.794C51.7709 59.8778 48.9456 61.0499 45.9987 61.0531ZM45.9987 40.343C44.0996 40.342 42.243 40.9043 40.6635 41.9588C39.084 43.0133 37.8526 44.5126 37.1254 46.267C36.3982 48.0214 36.2078 49.952 36.5781 51.8147C36.9483 53.6773 37.8626 55.3884 39.2055 56.7313C40.5484 58.0742 42.2596 58.9885 44.1223 59.3588C45.9849 59.729 47.9155 59.5385 49.6699 58.8113C51.4242 58.0841 52.9235 56.8529 53.978 55.2734C55.0324 53.6939 55.5947 51.8371 55.5937 49.938C55.591 47.3941 54.5793 44.9551 52.7805 43.1563C50.9816 41.3574 48.5427 40.3457 45.9987 40.343Z" fill="#808080"/>
</svg>
