<svg fill="none" height="92" viewBox="0 0 92 92" width="92" xmlns="http://www.w3.org/2000/svg"><path d="m23.1526 52.298c-.5166.2019-.7445.7104-.5143 1.1449l2.3594 4.2206c.1159.2102.3274.3738.5874.4546.114.0344.2348.0522.3563.0522.152.0011.3021-.026.4404-.0782l17.8259-6.9385-1.6146 14.0682c-.0312.2769.0968.5492.3454.7342.7815.5391 1.7555.8461 2.7688.8737.2795-.0003.5573-.0295.8282-.087 1.4471-.3147 2.5692-1.3893 3.3346-3.2246l7.015-17.31 13.8933-5.4006c4.0896-1.5901 6.197-4.8145 4.7818-7.3311-.8032-1.3154-2.3416-2.2103-4.1001-2.3857-1.9538-.2457-3.9506.0104-5.7251.7345l-16.033 6.265-17.2382-5.6187c-2.1708-.6813-3.8902-.6638-5.0959.0616-1.0118.6918-1.5874 1.7316-1.5628 2.8221.0105.2766.1777.5325.4509.6906l11.6076 6.6495-6.6476 2.6215-11.1468-2.3596c-.4568-.0936-.9323.078-1.1638.4195l-2.7783 4.1678c-.1442.2209-.1668.483-.0621.7189.1041.2362.3254.4231.6075.5134l8.2523 2.8401zm4.8017-17.3796c.0618-.3694.286-.7057.6295-.9437.598-.3585 1.6885-.306 3.1458.1483l15.3513 4.9896-7.0048 2.7262zm-9.4367 12.6177 1.8244-2.7001 10.7269 2.2193c.2312.0487.4752.0303.6925-.052l34.8651-13.5705c1.3861-.5697 2.9471-.7771 4.4773-.5943 1.0732.0824 2.029.5984 2.5587 1.3805.88 1.5732-.8498 3.8712-3.7756 5.0071l-12.0794 4.719.7342-1.8094c.1855-.4654-.1176-.9684-.6761-1.1227-.5592-.1543-1.1624.0982-1.3476.5637l-8.6299 21.3993c-.5139 1.215-1.1536 1.9404-1.8665 2.0972-.4417.0709-.8988-.0014-1.2793-.2006l2.0973-18.3504c.0548-.4824-.3698-.9107-.9494-.9564-.5789-.0462-1.0928.3082-1.1479.7906l-.3248 2.8048-17.994 6.9905-1.4777-2.6215 2.9563-1.1531c.3806-.1399.6259-.4535.6259-.7996 0-.3465-.2453-.66-.6259-.7996z" fill="#06b9ff"/></svg>