<svg xmlns="http://www.w3.org/2000/svg" viewBox="0 0 92 92"><defs><style>.cls-1{fill:gray;}</style></defs><title>nutritionassessment</title><g id="Content"><path class="cls-1" d="M30.63,53.37a.7.7,0,0,0-.74-.66l-8.33.49L53.41,21.35l-.49,8.33a.7.7,0,0,0,.66.74.71.71,0,0,0,.75-.66l.59-10.17a.72.72,0,0,0-.74-.74L44,19.45a.7.7,0,0,0,.09,1.4l8.32-.49L20.57,52.21l.49-8.32a.71.71,0,0,0-.66-.75.7.7,0,0,0-.74.66L19.06,54a.7.7,0,0,0,.74.74L30,54.11A.7.7,0,0,0,30.63,53.37Z"/><path class="cls-1" d="M74.58,39.21l-11-11a.75.75,0,0,0-1.06,0l-3.35,3.36h0l-3.29,3.3h0L52.55,38.2h0l-6.62,6.62h0L28.3,62.46a.75.75,0,0,0,0,1.06l11,11a.77.77,0,0,0,.53.22.79.79,0,0,0,.53-.22L74.58,40.27a.75.75,0,0,0,0-1.06ZM39.82,72.92,29.89,63l3.3-3.31,4.42,4.42a.75.75,0,0,0,1.06,0,.75.75,0,0,0,0-1.06l-4.42-4.42,2.38-2.38L39.34,59a.79.79,0,0,0,.53.22A.75.75,0,0,0,40.4,59a.74.74,0,0,0,0-1.06l-2.71-2.72,2.13-2.12,4.42,4.42a.76.76,0,0,0,.53.21.77.77,0,0,0,.53-.21.77.77,0,0,0,0-1.07L40.88,52l2.21-2.21L45.8,52.5a.79.79,0,0,0,.53.22.75.75,0,0,0,.53-.22.74.74,0,0,0,0-1.06l-2.71-2.72,2.3-2.29,4.42,4.42a.75.75,0,0,0,.53.22.79.79,0,0,0,.53-.22.75.75,0,0,0,0-1.06l-4.42-4.42,2.24-2.24,2.71,2.71a.75.75,0,0,0,1.06,0,.75.75,0,0,0,0-1.06l-2.71-2.71,2.27-2.27,4.42,4.42a.75.75,0,0,0,.53.22.79.79,0,0,0,.53-.22.75.75,0,0,0,0-1.06l-4.42-4.42,2.26-2.27,2.72,2.71a.73.73,0,0,0,.53.22.74.74,0,0,0,.53-.22.75.75,0,0,0,0-1.06l-2.72-2.71,2.24-2.24,4.42,4.42a.74.74,0,0,0,.53.22.71.71,0,0,0,.53-.22.74.74,0,0,0,0-1.06l-4.42-4.42,2.3-2.3L73,39.74Z"/></g></svg>