<svg width="95" height="95" viewBox="0 0 95 95" fill="none" xmlns="http://www.w3.org/2000/svg">
<path d="M21.6686 45.7767C17.1656 50.1235 11.9343 57.5132 27.0323 52.297C45.9049 45.7767 64.5788 31.5505 65.9694 30.365C67.3601 29.1794 80.6702 17.1267 65.9694 20.0905" stroke="#808080" stroke-linecap="round" stroke-linejoin="round"/>
<path d="M53.3923 39.1879L50.6182 45.0543L46.9249 39.7186L53.3923 39.1879Z" fill="#808080"/>
<path d="M28.8015 42.1015L31.7987 40.4155" stroke="#808080" stroke-linecap="round" stroke-linejoin="round"/>
<path d="M33.8593 39.2924L36.8565 37.6064" stroke="#808080" stroke-linecap="round" stroke-linejoin="round"/>
<path d="M39.1045 36.2943L42.1017 34.6084" stroke="#808080" stroke-linecap="round" stroke-linejoin="round"/>
<path d="M44.3497 33.2973L47.3469 31.6113" stroke="#808080" stroke-linecap="round" stroke-linejoin="round"/>
<path d="M49.5948 30.3002L52.5921 28.6143" stroke="#808080" stroke-linecap="round" stroke-linejoin="round"/>
<path d="M54.8399 27.3026L57.8371 25.6167" stroke="#808080" stroke-linecap="round" stroke-linejoin="round"/>
<path fill-rule="evenodd" clip-rule="evenodd" d="M70.8968 49.9324L70.6482 49.4026C69.5766 47.1175 69.2636 44.6963 69.1685 42.5485C69.1206 41.4661 69.1269 40.3963 69.1376 39.4129C69.1391 39.2776 69.1406 39.1445 69.1421 39.0131C69.1518 38.1644 69.1608 37.3936 69.1434 36.6512C69.0699 33.7267 68.1495 30.8792 66.4847 28.4416C64.5884 26.0887 62.111 24.239 59.2793 23.0714L59.2301 23.0511L59.1816 23.029C55.3487 21.2869 51.1716 20.3874 46.9433 20.3956H46.94C41.6192 20.3999 36.5291 22.4791 32.7866 26.1584C29.0459 29.8358 26.9573 34.8089 26.9616 39.9805C26.9641 43.0469 27.8563 46.5437 29.4066 49.7788C30.9605 53.0215 33.0656 55.7734 35.2817 57.4783L36.4512 58.378L36.4622 71.7512C36.95 72.3542 37.8972 73.0985 39.3177 73.7437C41.0559 74.5331 42.803 74.8522 43.8138 74.7688L43.9356 74.7587L44.0579 74.7586C46.9923 74.7562 48.3648 73.9259 48.9554 73.421C49.1694 73.238 49.3182 73.0658 49.418 72.9302L49.4112 64.6271L53.1575 65.5922L53.1593 65.5927L53.1608 65.593L53.1627 65.5936L53.1809 65.5979C53.2041 65.6036 53.2442 65.6132 53.2998 65.6261C53.4111 65.6518 53.5844 65.6902 53.8106 65.7353C54.264 65.8259 54.924 65.9426 55.7195 66.0401C57.3345 66.2381 59.3948 66.3422 61.3838 66.0488C63.3899 65.7529 65.0615 65.0929 66.2105 63.9916C67.2807 62.9659 68.2221 61.2485 68.2194 58.1042L68.2173 55.5394L70.7391 55.1404L70.7411 55.1401L70.7534 55.138C70.7622 55.1365 70.7751 55.1341 70.7918 55.1309C70.8081 55.1279 70.8282 55.124 70.8518 55.1194C70.9466 55.1006 71.0934 55.0696 71.2757 55.0241C71.6489 54.9311 72.1259 54.7891 72.5906 54.5927C73.0733 54.3886 73.4204 54.1768 73.625 53.9962C73.6662 53.9599 73.6952 53.9308 73.715 53.909C73.7076 53.8285 73.6796 53.6635 73.5746 53.3966C73.4103 52.9793 73.13 52.4971 72.771 51.9985C72.4202 51.511 72.047 51.0806 71.7564 50.7688C71.6133 50.6152 71.4957 50.4961 71.4182 50.4194C71.3984 50.3999 71.3814 50.3833 71.3673 50.3696C71.3538 50.3566 71.343 50.3461 71.3351 50.3386L71.3228 50.3269L71.3211 50.3254L70.8968 49.9324ZM52.4144 68.4986C52.4144 68.4986 53.6174 68.8085 55.4148 69.0251C60.7263 69.6653 71.2289 69.4915 71.2194 58.1017C71.2194 58.1017 76.173 57.3181 76.6725 54.4862C77.1719 51.6545 73.3644 48.1288 73.3644 48.1288C72.0684 45.3652 72.1062 42.1096 72.1418 39.0533C72.1517 38.2084 72.1613 37.3786 72.1425 36.5788C72.054 33.032 70.9263 29.5853 68.8943 26.6512C66.6695 23.8583 63.753 21.6711 60.423 20.2979C56.1971 18.3772 51.5945 17.3866 46.9374 17.3956C40.839 17.4006 34.9922 19.7831 30.6834 24.0191C26.3746 28.255 23.9567 33.9974 23.9616 39.983C23.9675 47.1844 28.0976 55.7366 33.4524 59.8561L33.4629 72.5971C34.9839 75.7807 40.7139 78.0346 44.0604 77.7586C51.1677 77.7529 52.4186 73.6484 52.4186 73.6484L52.4144 68.4986Z" fill="#808080"/>
<path d="M65.967 46.7632C65.9681 48.0059 64.9616 49.0141 63.719 49.0151C62.4762 49.016 61.4681 48.0095 61.467 46.7669C61.4661 45.5243 62.4726 44.516 63.7152 44.5151C64.9578 44.5141 65.9661 45.5206 65.967 46.7632Z" fill="#808080"/>
</svg>
