<svg width="28" height="24" viewBox="0 0 28 24" fill="none" xmlns="http://www.w3.org/2000/svg">
    <path d="M11.7779 16.7964C12.3774 18.5246 12.7992 20.038 12.777 21.9252C14.8019 23.1508 18.3722 22.7468 19.9042 22.3915C20.3704 22.2805 21.263 21.6188 21.1031 19.8604C20.9432 18.1019 21.4362 18.3284 21.969 18.3284H23.8341C25.033 18.2581 25.2106 17.5513 25.1662 17.3292L24.8998 13.9951C24.8998 13.7287 25.7482 13.4191 26.232 13.1958C27.0979 12.7961 27.764 12.9331 26.9647 11.8007C26.3252 10.8948 25.4993 9.06977 25.1662 8.27046L24.4335 5.70108C22.5685 0.972006 14.6421 -0.293625 10.3125 4.2357" stroke="white"/>
    <path d="M15.2991 8.27168L16.5733 18.462C16.5818 18.5299 16.5843 18.5988 16.575 18.6665C16.4247 19.7666 15.3686 19.7535 15.0424 18.9438L13.5808 14.7806C13.3419 14.1 12.483 13.8885 11.9554 14.3803L10.7834 15.4727C9.34286 17.0713 9.11128 15.7747 9.0117 14.9261L7.56787 5.32692C7.47621 4.24405 8.56039 4.37071 8.84551 4.76956C8.91333 4.86444 8.93801 4.98436 8.99037 5.08858L11.0073 9.10337C11.3063 9.69869 12.093 9.84061 12.5812 9.38734L14.0044 8.0661C15.0117 6.83597 15.1979 7.86 15.2991 8.27168Z" stroke="white"/>
    <line x1="9.97462" y1="18.8774" x2="9.70586" y2="19.8932" stroke="white" stroke-linecap="round"/>
    <line x1="6.51189" y1="16.3664" x2="5.72478" y2="17.0626" stroke="white" stroke-linecap="round"/>
    <line x1="17.6144" y1="6.16769" x2="16.8273" y2="6.86384" stroke="white" stroke-linecap="round"/>
    <line x1="13.7052" y1="3.26594" x2="13.5173" y2="4.29979" stroke="white" stroke-linecap="round"/>
    <line x1="19.7504" y1="10.7133" x2="18.7022" y2="10.7865" stroke="white" stroke-linecap="round"/>
    <line x1="4.10731" y1="12.6589" x2="3.06135" y2="12.7595" stroke="white" stroke-linecap="round"/>
</svg>