<svg fill="none" height="70" viewBox="0 0 70 70" width="70" xmlns="http://www.w3.org/2000/svg"><g fill="#808080"><path d="m35 0c-19.2987 0-35 15.7013-35 35 0 19.2988 15.7013 35 35 35 19.2988 0 35-15.7012 35-35 0-19.2987-15.7012-35-35-35zm-20 52.8487-5.76875 1.9226c-3.415-4.44-5.705-9.7813-6.455-15.6013l12.22375 3.0562zm20 14.6513c-9.5238 0-18.1025-4.1175-24.0525-10.665l4.0525-1.35v.765c0 .69.5588 1.25 1.25 1.25h37.5c.6912 0 1.25-.56 1.25-1.25v-.765l4.0525 1.3513c-5.95 6.5462-14.5287 10.6637-24.0525 10.6637zm-17.5-12.5v-16.25h35v16.25zm37.5-12.7738 12.2237-3.0562c-.7487 5.82-3.0399 11.1625-6.4549 15.6013l-5.7688-1.9226zm12.4613-5.6924-12.4613 3.115v-2.1488c0-.69-.5588-1.25-1.25-1.25h-37.5c-.6912 0-1.25.56-1.25 1.25v2.1488l-12.46125-3.115c-.02375-.5088-.03875-1.0201-.03875-1.5338 0-17.92 14.5788-32.5 32.5-32.5s32.5 14.58 32.5 32.5c0 .5137-.015 1.025-.0387 1.5338z"/><path d="m47.25 26.5c-2.481 0-4.5 1.6825-4.5 3.75h-3c0-3.4462 3.3645-6.25 7.5-6.25s7.5 2.8038 7.5 6.25h-3c0-2.0675-2.019-3.75-4.5-3.75z"/><path d="m23.5 26.5c-2.481 0-4.5 1.6825-4.5 3.75h-3c0-3.4462 3.3645-6.25 7.5-6.25s7.5 2.8038 7.5 6.25h-3c0-2.0675-2.019-3.75-4.5-3.75z"/></g></svg>
