<svg width="100" height="62" viewBox="0 0 100 62" fill="none" xmlns="http://www.w3.org/2000/svg">
<path d="M73.9995 49.9998C73.9995 36.7451 63.2545 26 49.9998 26C36.7451 26 26 36.7451 26 49.9998" stroke="white" stroke-width="4" stroke-linecap="round"/>
<path d="M85.9993 49.9996C85.9993 30.1176 69.8817 14 49.9996 14C30.1176 14 14 30.1176 14 49.9996" stroke="white" stroke-width="4" stroke-linecap="round"/>
<path d="M97.9991 49.9995C97.9991 23.4901 76.5089 2 49.9995 2C23.4901 2 2 23.4901 2 49.9995" stroke="white" stroke-width="4" stroke-linecap="round"/>
<path d="M61.9993 49.9999C61.9993 43.3725 56.6267 38 49.9994 38C43.372 38 37.9995 43.3725 37.9995 49.9999" stroke="white" stroke-width="4" stroke-linecap="round"/>
<circle cx="49.9997" cy="54.8" r="5.19993" fill="white" stroke="white" stroke-width="4"/>
</svg>
