<svg fill="none" height="92" viewBox="0 0 92 92" width="92" xmlns="http://www.w3.org/2000/svg"><g stroke="#808080"><path d="m47.5771 22.2283.0044.0031 21.8638 15.5911h-.0001l.0082.0057c.3257.2258.5704.5503.698.9256s.1315.7816.0109 1.1592c-.1205.3777-.359.7066-.6804.9386-.3215.232-.7088.3547-1.1052.3501h-.0087-4.518-.75v.75 25.1715c0 .5714-.227 1.1194-.631 1.5234-.404.4041-.952.6311-1.5234.6311h-23.1344-.8112-6.3003c-.5609-.0136-1.0945-.2455-1.4872-.6465-.3944-.4028-.6152-.9441-.6151-1.5078v-.0002-25.1715-.75h-.75-4.2154v-.0001l-.0087.0001c-.3964.0046-.7837-.1181-1.1052-.3501-.3214-.232-.5599-.5609-.6804-.9386-.1206-.3776-.1167-.7839.0109-1.1592s.3723-.6998.698-.9256h.0001l.0054-.0038 22.0654-15.5911.0001.0001.007-.0051c.4294-.3109.9461-.4783 1.4762-.4783.5302 0 1.0469.1674 1.4763.4783z" stroke-width="1.5"/><path d="m48.3388 32.9954c0 1.4038-1.0721 2.4954-2.3387 2.4954-1.2667 0-2.3387-1.0916-2.3387-2.4954s1.072-2.4954 2.3387-2.4954c1.2666 0 2.3387 1.0916 2.3387 2.4954z"/><path d="m42.0237 41.0546-2.1962 7.7425c-.0974.3102-.2552.4666-.3949.5403-.1451.0765-.3122.0865-.4678.0338-.2806-.0952-.5966-.4367-.409-1.1088l2.4395-8.4153h.0001l.0021-.0078c.1189-.4366.3568-1.0225.7717-1.4905.4026-.454.9741-.8029 1.8148-.8029h4.8084c.8283 0 1.3976.3497 1.8069.8089.4195.4707.6693 1.058.8101 1.4988l2.439 8.3983c.1801.6756-.1406 1.0327-.4205 1.1302-.1516.0529-.3119.0428-.4519-.0341-.1369-.0752-.2988-.2397-.3992-.5755l-2.1967-7.7183-.1034-.3631h-.3775-.6396-.6575l.1757.6336 3.1061 11.2004c.265.9557-.4537 1.9009-1.4454 1.9009h-.8792-.5v.5 10.7078c0 .3282-.1136.5333-.2493.6589-.1434.1328-.3453.2076-.5608.2072s-.4181-.0759-.5622-.2095c-.1365-.1265-.2496-.3314-.2496-.6566v-10.778-.5h-.5-1.0688-.5001l.0001.5001.0017 10.7629v.0001c0 .3326-.1148.5416-.2523.6698-.1449.1351-.3481.2109-.564.2109s-.4191-.0758-.5641-.2109c-.1375-.1283-.2523-.3372-.2523-.6699l-.0007-10.6929v-.4999h-.5-.8958c-.9904 0-1.709-.943-1.4462-1.898l3.083-11.2043.1741-.6326h-.6562-.5911-.3779z"/></g></svg>