<svg viewBox="0 0 48.98 53" xmlns="http://www.w3.org/2000/svg"><g fill="#808080"><path d="m10.38 12.25a6.13 6.13 0 1 1 6.12-6.12 6.13 6.13 0 0 1 -6.12 6.12zm0-10.75a4.63 4.63 0 1 0 4.62 4.63 4.63 4.63 0 0 0 -4.62-4.63z"/><path d="m38 22.75a4.5 4.5 0 1 1 4.5-4.5 4.51 4.51 0 0 1 -4.5 4.5zm0-7.5a3 3 0 1 0 3 3 3 3 0 0 0 -3-3z"/><path d="m43.25 39.25h-15v-1.5h14.41l4.86-19.43 1.46.36-5 20a.75.75 0 0 1 -.73.57z"/><path d="m32.5 40h1.5v13h-1.5z"/><path d="m40.5 40h1.5v13h-1.5z"/><path d="m40.25 36.75h-11a2.25 2.25 0 0 1 0-4.5h5.25v-5a4 4 0 0 1 8 0v7.25a2.25 2.25 0 0 1 -2.25 2.25zm-11-3a.75.75 0 0 0 0 1.5h11a.75.75 0 0 0 .75-.75v-7.25a2.5 2.5 0 0 0 -5 0v5.75a.75.75 0 0 1 -.75.75z"/><path d="m36.5 36h-1.5v-3a.75.75 0 0 1 .51-.71l6-2 .49 1.42-5.5 1.83z"/><path d="m10.25 52.75h-9.5a.75.75 0 0 1 -.75-.75v-34.25a5.51 5.51 0 0 1 5.5-5.5 6.59 6.59 0 0 1 4 1.09l8.2 6.41h5a3.25 3.25 0 0 1 0 6.5h-6-.2a3.51 3.51 0 0 1 -.41 0h-.17a3.45 3.45 0 0 1 -.46-.14l-.12-.06a3.13 3.13 0 0 1 -.38-.19l-6.67-5.27.91-1.19 6.66 5.12h.08l.14.07.22.07h.12.21 6.11a1.75 1.75 0 0 0 0-3.5h-5.27a.75.75 0 0 1 -.46-.16l-8.38-6.46a5.17 5.17 0 0 0 -3.13-.79 4 4 0 0 0 -4 4v33.5h8v-26.65h1.5v27.4a.75.75 0 0 1 -.75.75z"/><path d="m5 33h1.5v19h-1.5z"/><path d="m32.57 20.92a2.55 2.55 0 0 1 -5 .82z"/><path d="m25.05 23.44 3.96-.65-.21-1.25-3.77.61"/></g></svg>