<svg xmlns="http://www.w3.org/2000/svg" viewBox="0 0 96 96"><defs><style>.cls-1{fill:#fff;}</style></defs><title>obhistory</title><g id="Content"><path class="cls-1" d="M71.1,74.26H26.77a.75.75,0,0,1-.75-.75V22.85a.75.75,0,0,1,.75-.75H39.23v1.5H27.52V72.76H70.35V23.6H59V22.1H71.1a.74.74,0,0,1,.75.75V73.51A.74.74,0,0,1,71.1,74.26Z"/><path class="cls-1" d="M66,70H31.84a.75.75,0,0,1-.75-.75V27.38a.75.75,0,0,1,.75-.75h7.39v1.5H32.59V68.54h32.7V28.13H59v-1.5h7a.76.76,0,0,1,.75.75V69.29A.76.76,0,0,1,66,70Z"/><path class="cls-1" d="M58.65,30.24H39.23a.75.75,0,0,1-.75-.75V20.74a.74.74,0,0,1,.75-.75h4.44A5.39,5.39,0,0,1,54.2,20h4.45a.75.75,0,0,1,.75.75v8.75A.76.76,0,0,1,58.65,30.24ZM40,28.74H57.9V21.49H53.56a.76.76,0,0,1-.75-.69,3.89,3.89,0,0,0-7.75,0,.75.75,0,0,1-.75.69H40Z"/><path class="cls-1" d="M49.52,41.84a3.77,3.77,0,1,1,3.76-3.76A3.77,3.77,0,0,1,49.52,41.84Zm0-6.33a2.57,2.57,0,1,0,2.57,2.57A2.57,2.57,0,0,0,49.52,35.51Z"/><path class="cls-1" d="M55.77,62.05H42.61a.61.61,0,0,1-.5-.26.6.6,0,0,1-.06-.55l3-7.75-1.88-.44a.6.6,0,0,1-.45-.71c.18-.86.39-1.71.59-2.57.17-.68.33-1.37.49-2.06l.1-.45a10.85,10.85,0,0,1,1.41-3.94,2.86,2.86,0,0,1,3-1.17,3.81,3.81,0,0,1,2.51,1.46c.22.22.46.46.74.71a7.12,7.12,0,0,0,.73.56c1,.68,2.08,1.45,1.17,3.62.81.66,2.66,2.31,3.15,4,.67,2.27-1,4.06-1.75,4.74l1.49,4a.63.63,0,0,1-.07.55A.6.6,0,0,1,55.77,62.05Zm-12.29-1.2H54.91l-1.33-3.63a.59.59,0,0,1,.2-.69s2.27-1.69,1.67-3.72c-.43-1.43-2.38-3.12-3.1-3.65a.58.58,0,0,1-.18-.75c.79-1.59.39-1.87-.58-2.55a8.92,8.92,0,0,1-.84-.64c-.3-.27-.56-.53-.8-.77a2.72,2.72,0,0,0-1.78-1.11c-1-.1-1.45.06-1.86.66a9.92,9.92,0,0,0-1.23,3.51L45,48c-.16.7-.32,1.39-.49,2.09s-.32,1.3-.46,2l1.72.39,5.11,1.21a.69.69,0,0,0,.56-.07.64.64,0,0,0,.23-.47c.05-.4,0-.51-.82-.7l-4.51-1.16a.58.58,0,0,1-.37-.28.54.54,0,0,1-.06-.46l.89-3.28a.6.6,0,0,1,1.16.31l-.74,2.7,3.92,1c.62.15,1.9.47,1.72,2a1.75,1.75,0,0,1-.73,1.31,1.87,1.87,0,0,1-1.51.26l-4.36-1Z"/></g></svg>