<svg xmlns="http://www.w3.org/2000/svg" viewBox="0 0 96 96"><defs><style>.cls-1{fill:#06b9ff;}</style></defs><title>vitals</title><g id="Content"><path class="cls-1" d="M70.76,47.71H63a.78.78,0,0,0-.75.59l-1.84,7.35-7-28.08a.8.8,0,0,0-.41-.4.86.86,0,0,0-.63,0,.84.84,0,0,0-.48.48L42.26,66l-7-28.08a.8.8,0,0,0-.76-.59.78.78,0,0,0-.74.58l-2.54,9.78H24.12a.78.78,0,1,0,0,1.55h7.67a.76.76,0,0,0,.75-.58l1.93-7.42,7,28.14a.79.79,0,0,0,.36.48.74.74,0,0,0,.58.09A.79.79,0,0,0,43,69.4L52.62,31l7,28.08a.84.84,0,0,0,1,.42.82.82,0,0,0,.47-.48l2.43-9.72h7.17a.78.78,0,0,0,0-1.55Z"/></g></svg>
