<svg width="64" height="64" viewBox="0 0 64 64" fill="none" xmlns="http://www.w3.org/2000/svg">
    <circle cx="32.5" cy="32.5" r="29.5" stroke="#808080" stroke-width="2"/>
    <path d="M55 33C55 45.7225 44.9067 56 32.5 56C20.0933 56 10 45.7225 10 33C10 20.2775 20.0933 10 32.5 10C44.9067 10 55 20.2775 55 33Z" stroke="#808080" stroke-width="2"/>
    <path d="M29.6234 3.00017C29.1879 3.00017 28.7701 3.2288 28.4621 3.63575C28.1541 4.0427 27.9811 4.59465 27.9811 5.17017V17.2702C27.9794 18.0278 27.7711 18.7592 27.3944 19.3305C27.0176 19.9017 26.4978 20.2743 25.93 20.3802V5.17017C25.9282 4.60398 25.7597 4.06092 25.4603 3.65592C25.1608 3.25092 24.7538 3.01575 24.3254 3.00017H23.7124C23.4955 2.99753 23.2802 3.05171 23.0792 3.15958C22.8782 3.26745 22.6954 3.42687 22.5412 3.62863C22.3871 3.8304 22.2648 4.07051 22.1813 4.3351C22.0978 4.59969 22.0549 4.88351 22.0549 5.17017V20.3502C21.5301 20.2161 21.0579 19.8417 20.7215 19.293C20.3851 18.7442 20.206 18.0562 20.2157 17.3502V5.17017C20.2147 4.88389 20.171 4.60067 20.0872 4.33668C20.0034 4.07269 19.881 3.8331 19.7271 3.6316C19.5732 3.4301 19.3907 3.27062 19.1902 3.16228C18.9896 3.05394 18.7749 2.99885 18.5582 3.00017H18.3463C17.9326 3.00081 17.5342 3.20674 17.23 3.57717C16.9258 3.94759 16.738 4.45547 16.7039 5.00017L16 20.6802C16.0029 22.5074 16.5316 24.2649 17.4788 25.5963C18.4261 26.9277 19.721 27.7334 21.1012 27.8502L20.4503 56.1701C20.437 57.1044 20.6353 58.0227 21.0196 58.8071C21.404 59.5915 21.9568 60.2063 22.6075 60.5727C23.2581 60.9391 23.9767 61.0404 24.6712 60.8636C25.3656 60.6867 26.0043 60.2398 26.5052 59.5802C26.8367 59.1293 27.0966 58.5953 27.2695 58.0096C27.4423 57.424 27.5247 56.7985 27.5118 56.1701L26.8987 27.8502C28.2855 27.7281 29.5849 26.9125 30.5326 25.5693C31.4802 24.2262 32.005 22.4564 32 20.6202L31.2885 5.00017C31.2541 4.45027 31.0631 3.93809 30.7541 3.56693C30.4451 3.19576 30.041 2.99323 29.6234 3.00017ZM25.4607 58.1801C25.0723 58.6894 24.5472 58.9752 24 58.9752C23.4528 58.9752 22.9277 58.6894 22.5392 58.1801C22.3442 57.9172 22.1924 57.6038 22.0934 57.2596C21.9944 56.9154 21.9503 56.5479 21.964 56.1801L22.6149 27.8202H25.385L26.0359 56.1801C26.0496 56.5479 26.0056 56.9154 25.9066 57.2596C25.8076 57.6038 25.6558 57.9172 25.4607 58.1801ZM26.596 25.8702H21.4418C20.4079 25.8702 19.4155 25.3317 18.6802 24.3713C17.9448 23.4109 17.5257 22.1062 17.5137 20.7402L18.2176 5.16017C18.2196 5.11684 18.2339 5.07613 18.2579 5.04638C18.2818 5.01663 18.3134 5.0001 18.3463 5.00017H18.5582C18.5931 5.0001 18.6266 5.01769 18.652 5.04931C18.6773 5.08093 18.6924 5.12419 18.6944 5.17017V17.4002C18.6944 18.7262 19.0931 19.998 19.8028 20.9357C20.5125 21.8734 21.475 22.4002 22.4787 22.4002C22.7631 22.4029 23.037 22.2575 23.2409 21.9955C23.4449 21.7335 23.5626 21.3759 23.5686 21.0002V5.17017C23.5702 5.12744 23.5833 5.08687 23.6054 5.05572C23.6276 5.02456 23.6575 5.00487 23.6897 5.00017H24.3254C24.3603 5.0001 24.3939 5.01769 24.4192 5.04931C24.4446 5.08093 24.4597 5.12419 24.4617 5.17017V20.8502C24.4617 21.2639 24.5861 21.6607 24.8075 21.9532C25.0289 22.2458 25.3293 22.4102 25.6424 22.4102C26.6748 22.4102 27.6651 21.8689 28.3959 20.9053C29.1266 19.9416 29.5382 18.6343 29.5402 17.2702V5.17017C29.5402 4.99017 29.7899 4.98017 29.8051 5.17017L30.509 20.6902C30.505 22.0606 30.0917 23.3736 29.3589 24.3436C28.6262 25.3137 27.6333 25.8623 26.596 25.8702Z" fill="#858383"/>
    <path d="M47.239 24.62L44.4242 8.70002C44.1377 7.07146 43.4666 5.62417 42.5186 4.59049C41.5707 3.55681 40.4007 2.99668 39.1968 3.00001C39.0063 3.00001 38.8237 3.10537 38.689 3.29291C38.5544 3.48044 38.4787 3.7348 38.4787 4.00001V56.83C38.4588 57.3941 38.5215 57.958 38.6628 58.4874C38.8041 59.0168 39.0213 59.5007 39.3009 59.9097C39.5806 60.3187 39.917 60.6444 40.2898 60.8669C40.6625 61.0894 41.0639 61.2042 41.4694 61.2042C41.875 61.2042 42.2763 61.0894 42.649 60.8669C43.0219 60.6444 43.3583 60.3187 43.6379 59.9097C43.9176 59.5007 44.1346 59.0168 44.276 58.4874C44.4173 57.958 44.4799 57.3941 44.4601 56.83V36.05C45.6592 34.7138 46.5582 32.9271 47.0507 30.9014C47.5432 28.8757 47.6085 26.6958 47.239 24.62ZM43.3328 34.74C43.2304 34.8384 43.148 34.9722 43.0939 35.1282C43.0398 35.2842 43.0157 35.4571 43.024 35.63V56.83C43.0385 57.1267 43.0091 57.4244 42.9375 57.7045C42.8659 57.9847 42.7537 58.2414 42.608 58.4587C42.4622 58.676 42.2859 58.8492 42.09 58.9677C41.8942 59.0861 41.683 59.1472 41.4694 59.1472C41.2559 59.1472 41.0446 59.0861 40.8488 58.9677C40.6529 58.8492 40.4766 58.676 40.3309 58.4587C40.1851 58.2414 40.0729 57.9847 40.0013 57.7045C39.9298 57.4244 39.9003 57.1267 39.9148 56.83V5.09001C40.6615 5.28048 41.3524 5.76813 41.9042 6.49398C42.456 7.21983 42.8449 8.15279 43.024 9.18003L45.8388 25.1C46.156 26.8718 46.0871 28.735 45.6408 30.4519C45.1944 32.1689 44.3909 33.6617 43.3328 34.74Z" fill="#808080"/>
</svg>
