<svg xmlns="http://www.w3.org/2000/svg" viewBox="0 0 156.272 146.588"><defs><style>.a{fill:#06b9ff;}</style></defs><title>icon-planning-blue</title><path class="a" d="M20.658,77.639A20.658,20.658,0,0,1,6.043,42.366L42.357,6.054a20.666,20.666,0,0,1,29.228,0h0a20.666,20.666,0,0,1,0,29.228L35.272,71.595A20.6,20.6,0,0,1,20.658,77.639Zm36.313-74A16.919,16.919,0,0,0,44.928,8.625L8.614,44.937A17.032,17.032,0,0,0,32.7,69.024L69.014,32.711a17.031,17.031,0,0,0,0-24.086h0A16.921,16.921,0,0,0,56.97,3.636Z"/><path class="a" d="M7.329,70.309a18.849,18.849,0,0,0,26.657,0l19.67-19.67-18.27-18.27L18.657,49.1a2.522,2.522,0,1,1-3.566-3.566L31.821,28.8,27,23.982,7.329,43.652A18.85,18.85,0,0,0,7.329,70.309Z"/><path class="a" d="M149.273,64.495a6.98,6.98,0,0,1-4.951-2.047h0L106.2,24.325a7,7,0,0,1,0-9.9,7.17,7.17,0,0,1,9.9,0l38.123,38.123a7,7,0,0,1-4.952,11.949Zm-2.38-4.619a3.366,3.366,0,1,0,4.761-4.76L113.531,16.993a3.448,3.448,0,0,0-4.76,0,3.366,3.366,0,0,0,0,4.76l38.122,38.123Z"/><path class="a" d="M29.931,146.588a9.135,9.135,0,0,1-4.969-1.44l-.142.14,0-.005-.011.01-2.54-2.561.011-.01-.015-.015.131-.131a9.666,9.666,0,0,1-.077-10c1.774-3.153,5.759-11.206,4.428-17.867A18.1,18.1,0,0,1,31.8,98.355l76.887-76.887L146.08,58.862,69.193,135.749a18.094,18.094,0,0,1-16.348,5.056c-6.66-1.329-14.715,2.654-17.867,4.428A10.309,10.309,0,0,1,29.931,146.588Zm-3.819-5.151a5.9,5.9,0,0,0,7.082.629c4.353-2.452,12.786-6.34,20.363-4.825a14.473,14.473,0,0,0,13.065-4.062l74.316-74.317L108.686,26.609,34.369,100.926a14.477,14.477,0,0,0-4.062,13.065c1.514,7.571-2.373,16.008-4.824,20.364A5.9,5.9,0,0,0,26.112,141.436Z"/></svg>