<svg width="71" height="58" viewBox="0 0 71 58" fill="none" xmlns="http://www.w3.org/2000/svg">
    <path d="M68.0736 25.4155C67.8464 25.1925 67.5244 25.0811 67.2081 25.0735C66.8587 25.0651 66.5128 25.1292 66.1743 25.2088C65.583 25.3567 65.0092 25.5672 64.4509 25.809C64.2704 25.8813 64.1339 26.0243 63.9832 26.1412C63.0847 26.9046 62.2254 27.7121 61.3595 28.5112C59.5287 30.2129 57.7172 31.9343 55.8909 33.6408C55.4611 34.0402 55.0334 34.4421 54.5924 34.8293C55.1992 34.9573 55.7975 35.1247 56.3828 35.3279C58.1031 33.7334 59.8342 32.15 61.5748 30.5768C62.0797 30.1231 62.5832 29.668 63.0998 29.2272C63.4098 28.9548 63.7715 28.7506 64.1251 28.5401C64.6195 28.2565 65.1272 27.9921 65.6606 27.7879C65.899 27.7006 66.1441 27.623 66.3983 27.5993C66.9742 27.583 67.5504 27.6039 68.1252 27.6428C68.1969 27.209 68.2622 26.7737 68.3324 26.3395C68.3889 26.016 68.3131 25.6535 68.0736 25.4155Z" fill="white"/>
    <path d="M64.1029 25.7932C63.7261 25.6307 63.3304 25.4933 62.9185 25.4582C62.7075 25.4331 62.5056 25.5159 62.3153 25.5949C61.7577 25.8423 61.2415 26.1693 60.7309 26.4991C60.6488 26.5565 60.5589 26.6052 60.4851 26.6745C59.7365 27.4628 58.9682 28.2328 58.2059 29.0083C57.1651 30.0531 56.1268 31.1006 55.079 32.1388C54.2531 32.9487 53.4224 33.7538 52.6024 34.57C53.1896 34.5801 53.771 34.6726 54.3473 34.7753C54.7539 34.4451 55.1282 34.0753 55.5162 33.7232C57.2898 32.0696 59.0469 30.3989 60.8212 28.7459C61.653 27.9701 62.4873 27.196 63.3378 26.44C63.5892 26.2201 63.8396 25.9988 64.1029 25.7932Z" fill="white"/>
    <path d="M60.2471 26.6366C59.9563 26.6084 59.6582 26.6154 59.3762 26.6965C59.1248 26.7587 58.937 26.9487 58.7382 27.1014C57.7701 27.9138 56.8607 28.7912 55.9393 29.6544C55.2602 30.29 54.5938 30.9392 53.8964 31.5554C53.4009 31.9444 52.9813 32.4161 52.5575 32.8782C52.0684 33.4223 51.5929 33.9783 51.1249 34.5405C51.5301 34.536 51.9381 34.5701 52.3416 34.5509C53.3729 33.5281 54.4189 32.5198 55.4498 31.4966C56.8361 30.1091 58.2228 28.7216 59.5936 27.3189C59.8117 27.0917 60.0357 26.8697 60.2471 26.6366Z" fill="white"/>
    <path d="M68.1783 27.8447C67.6463 27.796 67.1112 27.7824 66.5771 27.787C66.2453 27.7776 65.9285 27.8941 65.6237 28.0103C65.0517 28.2406 64.5089 28.536 63.9808 28.8516C63.7171 29.012 63.452 29.1741 63.2216 29.38C62.3438 30.1347 61.4909 30.9171 60.6323 31.693C59.2804 32.9274 57.9254 34.159 56.5872 35.4073C57.1111 35.5962 57.6266 35.8265 58.0827 36.1473C58.4581 36.4114 58.7341 36.8174 58.8054 37.2714C58.8981 37.8336 58.7516 38.4018 58.5662 38.9306C58.4525 39.2333 58.3534 39.5488 58.1561 39.8108C57.8759 40.1886 57.5139 40.4993 57.1329 40.7738C56.556 41.1854 55.9267 41.5236 55.2687 41.789C54.8849 41.94 54.4895 42.0719 54.0797 42.131C53.2971 42.2107 52.5098 42.2351 51.7243 42.2751C48.5521 42.4045 45.3786 42.4887 42.205 42.5722C40.8485 42.6049 39.4924 42.6421 38.136 42.6689C37.4278 42.6957 36.7185 42.6894 36.0109 42.7249C36.0102 42.6588 36.0088 42.5931 36.0081 42.5277C38.4643 42.4723 40.9209 42.4146 43.3774 42.3502C46.5573 42.2612 49.7383 42.1815 52.9161 42.0263C53.3494 41.9922 53.7865 41.9873 54.2156 41.9132C54.7753 41.797 55.308 41.5792 55.82 41.3312C56.4324 41.0243 57.0223 40.6615 57.5321 40.2036C57.7986 39.9538 58.0595 39.6807 58.2007 39.3397C58.4022 38.8412 58.5901 38.3277 58.6365 37.7887C58.6649 37.4123 58.5915 37.0164 58.3678 36.7043C58.141 36.3783 57.7892 36.1703 57.4436 35.9872C56.668 35.5934 55.8323 35.3293 54.9895 35.1175C54.15 34.916 53.2918 34.7647 52.4259 34.7563C51.9339 34.7494 51.442 34.7264 50.9501 34.7257C50.3387 34.9696 49.6709 35.0065 49.0202 35.0368C48.6448 35.0395 48.2688 35.0434 47.8941 35.0183C45.9442 35.1627 43.9838 35.1724 42.0336 35.027C40.5076 34.9049 38.9826 34.6881 37.5089 34.2675C36.9137 34.0953 36.3273 33.8893 35.763 33.634C34.0052 32.8682 32.2555 32.0802 30.4615 31.4007C29.0057 30.8482 27.4927 30.4419 25.9512 30.2074C24.1196 29.9231 22.2576 29.8163 20.4057 29.9245C18.0924 30.0644 15.772 30.5546 13.6923 31.5917C13.0163 31.9222 12.3874 32.3352 11.7533 32.7367C10.5928 33.4837 9.44104 34.2501 8.37323 35.1244C7.91254 35.4984 7.48661 35.9121 7.0821 36.3446C10.2908 40.7599 13.5016 45.1739 16.7184 49.5833C18.1366 49.1164 19.5721 48.6909 21.0367 48.3907C21.6146 48.2811 22.1996 48.1788 22.7902 48.1945C23.1003 48.2084 23.3995 48.2985 23.7004 48.3656C25.2278 48.7473 26.7433 49.1724 28.2599 49.5924C31.2846 50.4347 34.3033 51.2982 37.3273 52.144C38.0616 52.3464 38.794 52.5552 39.5332 52.7396C40.4668 52.9504 41.4244 53.1153 42.3851 53.051C42.9375 53.0043 43.5017 52.884 43.9708 52.5778C44.7279 52.1092 45.46 51.6023 46.1935 51.0988C48.3927 49.5746 50.5642 48.0118 52.7212 46.4302C53.9158 45.5524 55.1054 44.668 56.2835 43.7687C57.2642 43.0165 58.246 42.2643 59.1832 41.4585C59.7208 41.0038 60.1699 40.4597 60.632 39.9326C61.9814 38.3517 63.2795 36.729 64.558 35.0914C65.431 33.9694 66.293 32.8386 67.1277 31.6881C67.661 30.947 68.1941 30.2036 68.667 29.4225C68.804 29.1859 68.9515 28.9486 69.021 28.6821C68.8033 28.3492 68.5182 28.0559 68.1783 27.8447Z" fill="white"/>
    <path d="M5.04228 36.2764C4.80737 36.1619 4.53804 36.1188 4.27925 36.1619C3.96042 36.2054 3.67811 36.3662 3.38385 36.4837C3.0422 36.6278 2.69001 36.7454 2.34273 36.8751C2.22475 36.9256 2.09307 36.9677 2.00634 37.0679C1.94103 37.1681 1.99545 37.2878 2.0232 37.3911C2.12819 37.6788 2.27602 37.9485 2.40559 38.225C3.63422 40.7203 4.91341 43.1905 6.22175 45.6453C6.94403 46.997 7.67967 48.3413 8.43461 49.6752C9.09159 50.8275 9.75946 51.9742 10.4702 53.0952C10.8835 53.7419 11.3059 54.3849 11.7771 54.992C11.9937 55.2637 12.2136 55.5375 12.4815 55.7616C12.5714 55.8298 12.6651 55.9067 12.7796 55.9247C12.8523 55.9348 12.8881 55.8632 12.932 55.8221C13.7828 54.9137 14.6522 54.0206 15.4468 53.0628C15.7478 52.6944 16.0455 52.3211 16.2917 51.9137C16.4016 51.7261 16.5069 51.5313 16.5515 51.3173C16.4837 51.2276 16.4195 51.135 16.3514 51.0456L16.2285 50.8765C12.821 46.2086 9.42518 41.532 6.02266 36.8605C5.66028 36.7283 5.38709 36.442 5.04228 36.2764Z" fill="white"/>
    <path d="M40.2867 14.5713V5.27567C40.2867 3.97528 40.6423 2.9187 41.3534 2.10601C42.0646 1.27297 43.0805 0.856445 44.4012 0.856445C45.7219 0.856445 46.7378 1.27298 47.449 2.10601C48.1804 2.91877 48.5462 3.97528 48.5462 5.27567V14.5713H57.7203C59.0613 14.5713 60.1179 14.9371 60.8899 15.6685C61.6824 16.3797 62.0786 17.3854 62.0786 18.6858C62.0786 20.0065 61.6824 21.0326 60.8899 21.7641C60.1179 22.4955 59.0613 22.8613 57.7203 22.8613H48.5462V32.1264C48.5462 33.4471 48.1804 34.5138 47.449 35.3265C46.7175 36.1393 45.7016 36.5457 44.4012 36.5457C43.1008 36.5457 42.0848 36.1393 41.3534 35.3265C40.6422 34.5138 40.2867 33.4471 40.2867 32.1264V22.8613H31.1126C29.8122 22.8613 28.7556 22.4651 27.9429 21.6726C27.1505 20.8599 26.7543 19.8643 26.7543 18.6858C26.7543 17.3854 27.1403 16.3797 27.9124 15.6685C28.7049 14.9371 29.7716 14.5713 31.1126 14.5713H40.2867Z" fill="white"/>
</svg>
