<svg xmlns="http://www.w3.org/2000/svg" viewBox="0 0 136.272 98.408"><defs><style>.a{fill:#06b9ff;}</style></defs><title>icon-photo-blue</title><path class="a" d="M134.43,98.408H1.842A1.842,1.842,0,0,1,0,96.566V19.015a1.842,1.842,0,0,1,1.842-1.842H134.43a1.842,1.842,0,0,1,1.842,1.842V96.566A1.842,1.842,0,0,1,134.43,98.408ZM3.684,94.724h128.9V20.856H3.684Z"/><path class="a" d="M97.432,20.215l-6.2-16.531h-46.2l-6.2,16.531-3.449-1.293L42.037,1.2A1.84,1.84,0,0,1,43.761,0H92.508a1.84,1.84,0,0,1,1.724,1.2l6.648,17.727Z"/><path class="a" d="M68.135,85.457A26.941,26.941,0,1,1,95.077,58.516,26.971,26.971,0,0,1,68.135,85.457Zm0-50.2A23.257,23.257,0,1,0,91.393,58.516,23.283,23.283,0,0,0,68.135,35.259Z"/></svg>