<svg xmlns="http://www.w3.org/2000/svg" viewBox="0 0 96 96"><defs><style>.cls-1{fill:#fff;}</style></defs><title>resources</title><g id="Content"><path class="cls-1" d="M71.52,41h0A14.66,14.66,0,0,0,66,31.22a14.18,14.18,0,0,0-10.59-2.88,13.94,13.94,0,0,0-6.73,2.77l-.23.18-.23-.17A25.47,25.47,0,0,0,46,29.55a14.85,14.85,0,0,0-7.19-1.88,14,14,0,0,0-11,5.21C24.86,36.49,24,40.89,25.3,46a18.1,18.1,0,0,0,4.82,8.21l.11.11v.15a4.85,4.85,0,0,0,1.57,3.44,4.77,4.77,0,0,0,2.43,1.22l.27,0,0,.26a4.51,4.51,0,0,0,1.3,2.49,4.44,4.44,0,0,0,2.49,1.21l.26,0,0,.26A4.9,4.9,0,0,0,40,66,6.36,6.36,0,0,0,43,67.51l.23,0,.06.22a4,4,0,0,0,2.66,3,4.79,4.79,0,0,0,1.5.24,4,4,0,0,0,2.77-1l.42-.39a24.62,24.62,0,0,0,3.71-4l.15-.23.26.07a3.89,3.89,0,0,0,3.31-.48,3.69,3.69,0,0,0,1.59-2.91l0-.33.33,0a4.45,4.45,0,0,0,2.7-1.13,4.13,4.13,0,0,0,1.13-2.75v-.34l.34,0A4.55,4.55,0,0,0,67.1,56,3.66,3.66,0,0,0,68,52.74l0-.17.11-.14A15.28,15.28,0,0,0,71.52,41ZM35,57.36h-.15A2.82,2.82,0,0,1,33,56.57a3.12,3.12,0,0,1-1-2.09v-.17l4.83-4.67a2.1,2.1,0,0,1,3,.33,2.07,2.07,0,0,1,.36,2.37l-.07.09Zm4.13,4H39a2.69,2.69,0,0,1-1.9-.76,2.82,2.82,0,0,1-.81-1.8v-.18l5.16-5c.39-.2,1.73-.79,2.56,0a2.7,2.7,0,0,1,.64,2.4l0,.12Zm4.44,4.44-.19,0a4.47,4.47,0,0,1-2.13-1.06,3.17,3.17,0,0,1-.87-1.88l0-.18,5.46-5.15.12,0a2.7,2.7,0,0,1,2.48.66,3,3,0,0,1,.4,2.09v.12Zm9.52-1.69c-.26.7-1.47,2.07-3.61,4.07l-.09.09c-.15.14-.28.25-.36.34a2.42,2.42,0,0,1-1.6.59A2.75,2.75,0,0,1,46.5,69c-.58-.19-1.17-.55-1.54-1.87L44.9,67l5.32-5.5a2.05,2.05,0,0,1,2.16.67,4.13,4.13,0,0,1,.71,1.79V64Zm12.74-9.33a3.08,3.08,0,0,1-2.7.77l-.12,0-9.06-9.14a.88.88,0,0,0-.63-.26h0a.88.88,0,0,0-.63,1.51l9.14,9.23a2,2,0,0,1-.37,2.33,2.38,2.38,0,0,1-2.44.45l-9.31-9.53a.89.89,0,0,0-1.26,0,.85.85,0,0,0-.27.62.87.87,0,0,0,.25.64l9.35,9.57,0,.1A2.14,2.14,0,0,1,57,63.42a1.77,1.77,0,0,1-1,.27,3.35,3.35,0,0,1-.92-.13l-.21-.07,0-.21a5.58,5.58,0,0,0-1-2.28A4.28,4.28,0,0,0,51,59.55l-.32,0,0-.32A3.9,3.9,0,0,0,49.76,57a4.05,4.05,0,0,0-3-1.34l-.34,0,0-.34a4.15,4.15,0,0,0-1.22-2.88,3.22,3.22,0,0,0-2.67-.92l-.38,0,0-.38a4,4,0,0,0-1-2.3,3.9,3.9,0,0,0-5.43-.61l-.07.07-4.53,4.38-.26-.27A16,16,0,0,1,27,45.52C25.88,41,26.58,37.19,29.18,34a12.52,12.52,0,0,1,15.91-2.89,19.47,19.47,0,0,1,1.71,1.15l.36.27-7.71,7.54a3.89,3.89,0,0,0-1.34,2.68,3.15,3.15,0,0,0,1.25,2.46c2.49,2.15,6.25,1.89,8.94-.61,1-1,3.39-3.27,4.71-4.56l.26-.27,12.9,13.11,0,.1A2,2,0,0,1,65.81,54.77Zm1.32-4.07-.26.35-13-13.16a.93.93,0,0,0-1.26,0c-1,1-4.33,4.26-5.58,5.41-2,1.88-4.76,2.12-6.56.58a1.53,1.53,0,0,1-.63-1.1,2,2,0,0,1,.73-1.35l8.5-8.33a12,12,0,0,1,6.55-3,12.4,12.4,0,0,1,9.25,2.52,12.84,12.84,0,0,1,4.83,8.6A13.25,13.25,0,0,1,67.13,50.7Z"/></g></svg>