<svg width="39" height="52" viewBox="0 0 39 52" fill="none" xmlns="http://www.w3.org/2000/svg">
<path d="M5.5 26.5L1.5 51H18.5L20.5 41.5C21.2895 40.3708 21.8596 40.3747 23 41L25 42.5C26.7607 43.4454 27.6868 43.5607 29 41.5C29 41.5 35.4697 28.5915 36.5 26.5C37.5303 24.4084 33 20 30 24.5C30 24.5 28 30 27 31.9998C26 33.9997 24 32.9998 23 31.5C22 30.0001 22.6268 30.6645 19 24.9999C15.3732 19.3353 7.78624 20.1162 5.5 26.5Z" stroke="#808080"/>
<circle cx="35.75" cy="7.75" r="0.625" stroke="#808080" stroke-width="0.25"/>
<circle cx="37.75" cy="13.75" r="0.625" stroke="#808080" stroke-width="0.25"/>
<circle cx="27.75" cy="18.75" r="0.625" stroke="#808080" stroke-width="0.25"/>
<path d="M30.8708 19.4329C29.7105 17.6763 29.2155 16.5421 28.1283 15.1669C27.8925 14.9357 27.9687 14.9532 28.4658 15.1669C29.816 15.9197 30.8421 17.0489 31.7147 18.6801C32.4531 20.0602 31.6092 20.4367 30.8708 19.4329Z" fill="#808080" stroke="#808080" stroke-width="0.5"/>
<path d="M34.7833 10.3534C32.8533 11.1943 31.8203 11.8758 30.1595 12.4367C29.8357 12.5022 29.9092 12.529 30.4425 12.6206C31.9849 12.7249 33.4605 12.3369 35.0808 11.4444C36.4519 10.6892 35.9493 9.91385 34.7833 10.3534Z" fill="#808080" stroke="#808080" stroke-width="0.5"/>
<path d="M36.0482 18.1944C33.6063 16.3427 32.5362 15.1144 30.268 13.6878C29.7809 13.4547 29.9342 13.4649 30.9408 13.6444C33.6875 14.3283 35.8158 15.4826 37.675 17.2284C39.2483 18.7056 37.5938 19.2428 36.0482 18.1944Z" fill="#808080" stroke="#808080" stroke-width="0.5"/>
<path d="M26.4466 9.52383L26.4466 9.52865C26.4518 10.6219 26.2411 11.7053 25.8264 12.7169C25.4117 13.7284 24.8012 14.6479 24.03 15.4228C23.2589 16.1977 22.3422 16.8126 21.3327 17.2322C20.3232 17.6518 19.2408 17.8678 18.1475 17.8678C17.0543 17.8678 15.9719 17.6518 14.9623 17.2322C13.9528 16.8126 13.0362 16.1977 12.265 15.4228C11.4938 14.6479 10.8834 13.7284 10.4687 12.7169C10.054 11.7053 9.84321 10.6219 9.84851 9.52865L9.84849 9.52383C9.84321 8.43061 10.054 7.34714 10.4687 6.33562C10.8834 5.3241 11.4939 4.40444 12.265 3.62955C13.0362 2.85465 13.9528 2.23972 14.9623 1.82015C15.9719 1.40057 17.0543 1.18457 18.1475 1.18457C19.2408 1.18457 20.3232 1.40057 21.3327 1.82015C22.3422 2.23972 23.2589 2.85465 24.03 3.62955C24.8012 4.40444 25.4117 5.3241 25.8264 6.33562C26.2411 7.34714 26.4518 8.43061 26.4466 9.52383Z" stroke="#808080"/>
</svg>
