<svg viewBox="0 0 106.75 101.01" xmlns="http://www.w3.org/2000/svg"><circle cx="50.05" cy="50.4" fill="#ccc" r="43.21" transform="matrix(.38268343 -.92387953 .92387953 .38268343 -15.66 77.35)"/><path d="m50.05 98.4a48 48 0 1 1 48-48 48.05 48.05 0 0 1 -48 48zm0-94.4a46.43 46.43 0 1 0 46.43 46.4 46.48 46.48 0 0 0 -46.43-46.4z" fill="#ccc"/><circle cx="89.88" cy="16.68" fill="#06b9ff" r="15"/><path d="m94.89 12.12a.73.73 0 0 0 -.47-.15.65.65 0 0 0 -.43.24l-5.76 7.35-2.49-2.56a.63.63 0 0 0 -.9 0 .65.65 0 0 0 0 .9l3.48 3.64 6.68-8.54a.65.65 0 0 0 -.11-.88z" fill="#fff"/></svg>