<svg width="37" height="50" viewBox="0 0 37 50" fill="none" xmlns="http://www.w3.org/2000/svg">
<path d="M33.462 6.74994C33.462 6.77293 33.4528 6.79499 33.4365 6.81129L33.4365 6.81129C33.4202 6.82768 33.398 6.83679 33.3751 6.83679C33.3523 6.83679 33.3301 6.82768 33.3138 6.81129C33.2975 6.795 33.2883 6.77294 33.2883 6.74994C33.2883 6.72694 33.2975 6.70488 33.3138 6.68858C33.3301 6.67219 33.3523 6.66309 33.3751 6.66309C33.398 6.66309 33.4202 6.67219 33.4365 6.68858C33.4528 6.70488 33.462 6.72694 33.462 6.74994Z" stroke="#808080" stroke-width="1.5"/>
<path d="M35.9165 12.4632L35.9164 12.4715L35.9165 12.4799C35.9166 12.4913 35.9145 12.5026 35.9102 12.5132C35.9058 12.524 35.8994 12.5336 35.8914 12.5417L35.8914 12.5417C35.8835 12.5498 35.8739 12.5563 35.8632 12.5607C35.8527 12.5651 35.8414 12.5674 35.8298 12.5674C35.8183 12.5674 35.8069 12.5651 35.7964 12.5607C35.7857 12.5563 35.7762 12.5498 35.7682 12.5417L35.7682 12.5417C35.7602 12.5336 35.7538 12.5239 35.7495 12.5132L35.0661 12.7896L35.7495 12.5132C35.7452 12.5026 35.743 12.4913 35.7432 12.4799L35.7433 12.4715L35.7432 12.4632C35.743 12.4516 35.7452 12.4402 35.7495 12.4296C35.7538 12.4189 35.7602 12.4093 35.7682 12.4012C35.7762 12.3931 35.7857 12.3866 35.7964 12.3822C35.8069 12.3778 35.8183 12.3755 35.8298 12.3755C35.8414 12.3755 35.8527 12.3778 35.8632 12.3822C35.8739 12.3866 35.8835 12.3931 35.8914 12.4012C35.8994 12.4092 35.9058 12.4189 35.9102 12.4296C35.9144 12.4402 35.9166 12.4516 35.9165 12.4632Z" stroke="#808080" stroke-width="1.5"/>
<path d="M26.3982 18.0161C26.4144 18.0323 26.4236 18.0544 26.4236 18.0776C26.4236 18.1006 26.4145 18.1226 26.3982 18.1389C26.382 18.1551 26.36 18.1643 26.3368 18.1643C26.3136 18.1643 26.2916 18.1551 26.2754 18.1389C26.2591 18.1226 26.25 18.1006 26.25 18.0776C26.25 18.0544 26.2592 18.0323 26.2754 18.0161C26.2916 17.9999 26.3136 17.9907 26.3368 17.9907C26.36 17.9907 26.382 17.9999 26.3982 18.0161Z" stroke="#808080" stroke-width="1.5"/>
<path d="M24.4614 8.55884H24.4614L24.4614 8.56608C24.4663 9.58976 24.269 10.6043 23.8807 11.5515C23.4923 12.4987 22.9207 13.3597 22.1986 14.0853C21.4765 14.8109 20.6181 15.3868 19.6728 15.7796C18.7275 16.1725 17.7139 16.3748 16.6902 16.3748C15.6665 16.3748 14.6529 16.1725 13.7076 15.7796C12.7623 15.3868 11.904 14.8109 11.1819 14.0853C10.4597 13.3597 9.88811 12.4987 9.49979 11.5515C9.11146 10.6043 8.9141 9.58976 8.91904 8.56608L8.91907 8.56608L8.91904 8.55884C8.9141 7.53516 9.11146 6.52061 9.49979 5.57342C9.88812 4.62623 10.4598 3.76506 11.1819 3.03947C11.904 2.31385 12.7623 1.73803 13.7076 1.34515C14.6529 0.952258 15.6665 0.75 16.6902 0.75C17.7139 0.75 18.7275 0.952258 19.6728 1.34515C20.6181 1.73803 21.4765 2.31385 22.1986 3.03947C22.9207 3.76506 23.4923 4.62623 23.8807 5.57342C24.269 6.52061 24.4663 7.53516 24.4614 8.55884Z" stroke="#808080" stroke-width="1.5"/>
<path d="M29.8538 18.0138L29.8622 18.0261C29.8644 18.0314 29.8661 18.0368 29.8672 18.0424C29.8692 18.0531 29.869 18.0641 29.8666 18.0747L29.9002 18.0822L29.9002 18.0822L29.8666 18.0747C29.8642 18.0853 29.8597 18.0954 29.8534 18.1041C29.847 18.1128 29.8389 18.1202 29.8296 18.1258L29.8296 18.1258C29.8204 18.1313 29.81 18.1349 29.7991 18.1363C29.7882 18.1377 29.7772 18.1369 29.767 18.134C29.7565 18.131 29.7468 18.1259 29.7384 18.119C29.73 18.1122 29.7231 18.1037 29.7181 18.094L29.0526 18.4398L29.7187 18.0952C29.552 17.773 29.3791 17.4542 29.2001 17.1389C29.4309 17.4197 29.6491 17.7116 29.8538 18.0138Z" stroke="#808080" stroke-width="1.5"/>
<mask id="path-6-inside-1" fill="white">
<path d="M32.5477 9.27653C31.0808 10.1732 29.45 10.7686 27.7504 11.028C27.7276 11.0329 27.7071 11.0455 27.6924 11.0636C27.6777 11.0818 27.6697 11.1045 27.6697 11.1278C27.6697 11.1512 27.6777 11.1738 27.6924 11.192C27.7071 11.2102 27.7276 11.2227 27.7504 11.2276C29.612 11.7043 31.5801 11.5373 33.3348 10.7538C33.4388 10.7069 33.5322 10.6392 33.6092 10.5549C33.6861 10.4705 33.7449 10.3713 33.7821 10.2633C33.8192 10.1554 33.8339 10.041 33.8251 9.92716C33.8164 9.81333 33.7844 9.70246 33.7312 9.60145C33.678 9.50044 33.6047 9.4114 33.5158 9.33979C33.4269 9.26818 33.3243 9.21558 33.2142 9.18512C33.1042 9.15467 32.9891 9.14702 32.876 9.16273C32.763 9.17843 32.6543 9.21712 32.5567 9.2764L32.5477 9.27653Z"/>
</mask>
<path d="M32.5477 9.27653L32.5259 7.77669L32.1156 7.78266L31.7654 7.9967L32.5477 9.27653ZM27.7504 11.028L27.5241 9.5452L27.4803 9.55187L27.4371 9.56111L27.7504 11.028ZM27.6697 11.1278H29.1697H27.6697ZM27.7504 11.2276L28.1225 9.7745L28.0932 9.76701L28.0637 9.7607L27.7504 11.2276ZM33.3348 10.7538L33.9463 12.1235L33.951 12.1213L33.3348 10.7538ZM32.5567 9.2764L32.5785 10.7762L32.9868 10.7703L33.3357 10.5583L32.5567 9.2764ZM31.7654 7.9967C30.4685 8.78944 29.0267 9.31586 27.5241 9.5452L27.9767 12.5109C29.8733 12.2214 31.6931 11.557 33.33 10.5564L31.7654 7.9967ZM27.4371 9.56111C27.0779 9.63783 26.7566 9.8355 26.5262 10.1202L28.8586 12.0071C28.6576 12.2555 28.3772 12.428 28.0637 12.4949L27.4371 9.56111ZM26.5262 10.1202C26.2955 10.4054 26.1697 10.7611 26.1697 11.1278H29.1697C29.1697 11.4478 29.0599 11.7582 28.8586 12.0071L26.5262 10.1202ZM26.1697 11.1278C26.1697 11.4945 26.2955 11.8502 26.5262 12.1354L28.8586 10.2486C29.0599 10.4974 29.1697 10.8078 29.1697 11.1278H26.1697ZM26.5262 12.1354C26.7566 12.4201 27.0779 12.6178 27.4371 12.6945L28.0637 9.7607C28.3772 9.82766 28.6576 10.0002 28.8586 10.2486L26.5262 12.1354ZM27.3783 12.6807C29.5678 13.2414 31.8826 13.0449 33.9463 12.1235L32.7232 9.38412C31.2776 10.0296 29.6561 10.1672 28.1225 9.7745L27.3783 12.6807ZM33.951 12.1213C34.2415 11.9904 34.5024 11.8014 34.7175 11.5656L32.5008 9.54411C32.562 9.477 32.6362 9.42333 32.7185 9.38624L33.951 12.1213ZM34.7175 11.5656C34.9324 11.33 35.0967 11.0528 35.2005 10.7513L32.3637 9.77535C32.3931 9.68975 32.4398 9.61106 32.5008 9.54411L34.7175 11.5656ZM35.2005 10.7513C35.3042 10.4498 35.3451 10.1302 35.3207 9.81225L32.3295 10.0421C32.3226 9.95176 32.3342 9.86099 32.3637 9.77535L35.2005 10.7513ZM35.3207 9.81225C35.2963 9.49438 35.2071 9.18476 35.0584 8.90253L32.404 10.3004C32.3618 10.2202 32.3364 10.1323 32.3295 10.0421L35.3207 9.81225ZM35.0584 8.90253C34.9098 8.62031 34.705 8.37159 34.4567 8.1716L32.5749 10.508C32.5044 10.4512 32.4462 10.3806 32.404 10.3004L35.0584 8.90253ZM34.4567 8.1716C34.208 7.9713 33.9213 7.82443 33.6144 7.73948L32.8141 10.6308C32.7272 10.6067 32.6458 10.5651 32.5749 10.508L34.4567 8.1716ZM33.6144 7.73948C33.3074 7.6545 32.9859 7.63308 32.6697 7.67699L33.0824 10.6485C32.9924 10.661 32.9011 10.6548 32.8141 10.6308L33.6144 7.73948ZM32.6697 7.67699C32.3538 7.72086 32.0503 7.82892 31.7778 7.99451L33.3357 10.5583C33.2583 10.6053 33.1721 10.636 33.0824 10.6485L32.6697 7.67699ZM32.5349 7.77656L32.5259 7.77669L32.5695 10.7764L32.5785 10.7762L32.5349 7.77656Z" fill="#808080" mask="url(#path-6-inside-1)"/>
<path d="M27.841 12.4922L27.841 12.4922M27.841 12.4922L27.8411 12.4922M27.841 12.4922L27.841 12.4922M27.841 12.4922L27.8411 12.4922M27.841 12.4922L27.842 12.4917L27.8412 12.4921M27.841 12.4922L27.8412 12.4921M27.8411 12.4922L27.8412 12.4921M27.8411 12.4922L27.8412 12.4921M27.8412 12.4921L27.8412 12.4921M27.8412 12.4921L27.8412 12.4921M33.6897 15.503C34.1323 15.8385 34.5531 16.2057 34.9485 16.6031L34.9574 16.612L34.9667 16.6207C34.9719 16.6256 34.9762 16.6316 34.9791 16.6384C34.9821 16.6451 34.9836 16.6522 34.9836 16.6594C34.9836 16.6667 34.9822 16.674 34.9794 16.6807L35.6704 16.9721L34.9794 16.6807C34.9766 16.6873 34.9725 16.6933 34.9671 16.6985C34.9619 16.7035 34.9557 16.7074 34.9489 16.71C34.942 16.7126 34.9347 16.7138 34.9275 16.7134C34.92 16.7131 34.9129 16.7113 34.9066 16.7082L34.5807 17.3837L34.9066 16.7082C34.9 16.7051 34.8942 16.7006 34.8894 16.6951L34.8816 16.6862L34.8735 16.6775C34.4948 16.269 34.0998 15.8772 33.6897 15.503Z" stroke="#808080" stroke-width="1.5"/>
<mask id="path-9-inside-2" fill="white">
<path d="M23.184 30.5236C23.2493 30.5841 23.328 30.6283 23.4136 30.6527C23.4992 30.6772 23.5894 30.6811 23.6768 30.6643C23.7642 30.6474 23.8465 30.6103 23.9169 30.5558C23.9873 30.5014 24.0439 30.431 24.0822 30.3506L27.6543 22.8956C28.0938 21.987 28.8756 21.2897 29.8282 20.9563C30.7809 20.6229 31.8268 20.6807 32.7369 21.117C33.6471 21.5532 34.3472 22.3324 34.684 23.2839C35.0208 24.2353 34.9668 25.2815 34.5338 26.1932L27.9847 39.854C27.7623 40.3179 27.4408 40.7272 27.0428 41.0531C26.6448 41.3791 26.1801 41.6136 25.6816 41.7403C25.183 41.867 24.6628 41.8826 24.1575 41.7861C23.6522 41.6897 23.1743 41.4835 22.7574 41.1821L20.5585 39.5908C20.4803 39.5342 20.3888 39.4985 20.2929 39.4871C20.197 39.4757 20.0998 39.4889 20.0104 39.5256C19.921 39.5622 19.8425 39.6212 19.7822 39.6966C19.7219 39.7721 19.6819 39.8616 19.6659 39.9569L18.1459 49.0223C18.1001 49.2958 17.9587 49.5441 17.7469 49.7231C17.5351 49.9021 17.2667 50.0003 16.9894 50H1.17264C1.00233 50.0002 0.834017 49.9632 0.679445 49.8917C0.524872 49.8201 0.387756 49.7158 0.277655 49.5859C0.167553 49.4559 0.0871147 49.3035 0.0419448 49.1393C-0.00322512 48.9751 -0.0120396 48.8031 0.0161165 48.6351L3.82514 25.9153C4.09562 24.3027 4.87424 22.8186 6.04744 21.6796C7.22064 20.5406 8.72706 19.8063 10.347 19.5837C11.9669 19.361 13.6156 19.6618 15.0526 20.442C16.4895 21.2222 17.6397 22.4412 18.3352 23.921C19.5069 26.416 21.1539 28.6587 23.184 30.5234V30.5236Z"/>
</mask>
<path d="M23.184 30.5236H21.684V31.1795L22.1654 31.6248L23.184 30.5236ZM24.0822 30.3506L22.7294 29.7024L22.7276 29.7064L24.0822 30.3506ZM27.6543 22.8956L26.304 22.2423L26.3016 22.2474L27.6543 22.8956ZM34.5338 26.1932L35.8864 26.8417L35.8888 26.8367L34.5338 26.1932ZM27.9847 39.854L29.3372 40.5027L29.3373 40.5025L27.9847 39.854ZM22.7574 41.1821L21.878 42.3973L21.8785 42.3977L22.7574 41.1821ZM20.5585 39.5908L21.4379 38.3756L21.4376 38.3754L20.5585 39.5908ZM19.6659 39.9569L18.1866 39.7086L18.1866 39.7088L19.6659 39.9569ZM18.1459 49.0223L16.6666 48.7743L16.6665 48.7744L18.1459 49.0223ZM16.9894 50L16.9911 48.5H16.9894V50ZM1.17264 50V48.5L1.17095 48.5L1.17264 50ZM0.0161165 48.6351L-1.46324 48.3871L-1.46324 48.3871L0.0161165 48.6351ZM3.82514 25.9153L2.34581 25.6672L2.34579 25.6673L3.82514 25.9153ZM18.3352 23.921L19.6929 23.2834L19.6927 23.283L18.3352 23.921ZM23.184 30.5234H24.684V29.8644L24.1987 29.4187L23.184 30.5234ZM22.1654 31.6248C22.4035 31.845 22.6901 32.0061 23.0018 32.0951L23.8254 29.2104C23.966 29.2505 24.0951 29.3231 24.2025 29.4225L22.1654 31.6248ZM23.0018 32.0951C23.3142 32.1843 23.6426 32.1984 23.9604 32.1372L23.3932 29.1913C23.5362 29.1638 23.6843 29.1701 23.8254 29.2104L23.0018 32.0951ZM23.9604 32.1372C24.2784 32.076 24.578 31.9409 24.8349 31.7422L22.9989 29.3695C23.1149 29.2798 23.2501 29.2189 23.3932 29.1913L23.9604 32.1372ZM24.8349 31.7422C25.0916 31.5435 25.2977 31.2874 25.4368 30.9948L22.7276 29.7064C22.7902 29.5747 22.883 29.4592 22.9989 29.3695L24.8349 31.7422ZM25.4349 30.9988L29.007 23.5438L26.3016 22.2474L22.7294 29.7024L25.4349 30.9988ZM29.0046 23.5488C29.2713 22.9975 29.7456 22.5744 30.3237 22.3721L29.3328 19.5405C28.0055 20.0049 26.9164 20.9765 26.304 22.2424L29.0046 23.5488ZM30.3237 22.3721C30.9017 22.1698 31.5363 22.2049 32.0886 22.4696L33.3853 19.7643C32.1173 19.1565 30.66 19.076 29.3328 19.5405L30.3237 22.3721ZM32.0886 22.4696C32.6408 22.7343 33.0656 23.2071 33.27 23.7844L36.098 22.7833C35.6288 21.4578 34.6533 20.3722 33.3853 19.7643L32.0886 22.4696ZM33.27 23.7844C33.4743 24.3617 33.4416 24.9965 33.1789 25.5497L35.8888 26.8367C36.492 25.5665 36.5673 24.1089 36.098 22.7833L33.27 23.7844ZM33.1812 25.5448L26.6322 39.2056L29.3373 40.5025L35.8864 26.8417L33.1812 25.5448ZM26.6322 39.2054C26.5047 39.4713 26.3204 39.7059 26.0924 39.8926L27.9932 42.2136C28.5611 41.7485 29.0199 41.1644 29.3372 40.5027L26.6322 39.2054ZM26.0924 39.8926C25.8643 40.0794 25.598 40.2139 25.3122 40.2865L26.0509 43.1941C26.7623 43.0134 27.4253 42.6787 27.9932 42.2136L26.0924 39.8926ZM25.3122 40.2865C25.0266 40.3591 24.7284 40.368 24.4387 40.3127L23.8762 43.2595C24.5971 43.3971 25.3395 43.3749 26.0509 43.1941L25.3122 40.2865ZM24.4387 40.3127C24.1491 40.2574 23.8751 40.1393 23.6363 39.9666L21.8785 42.3977C22.4734 42.8278 23.1554 43.1219 23.8762 43.2595L24.4387 40.3127ZM23.6368 39.967L21.4379 38.3756L19.6791 40.806L21.878 42.3973L23.6368 39.967ZM21.4376 38.3754C21.1525 38.1692 20.8195 38.0392 20.4703 37.9976L20.1156 40.9766C19.9582 40.9578 19.8081 40.8992 19.6794 40.8062L21.4376 38.3754ZM20.4703 37.9976C20.1206 37.956 19.7664 38.0044 19.4412 38.1378L20.5795 40.9134C20.4331 40.9735 20.2734 40.9954 20.1156 40.9766L20.4703 37.9976ZM19.4412 38.1378C19.1152 38.2715 18.8293 38.4861 18.6101 38.7605L20.9543 40.6327C20.8556 40.7562 20.7268 40.853 20.5795 40.9134L19.4412 38.1378ZM18.6101 38.7605C18.3909 39.035 18.2449 39.3612 18.1866 39.7086L21.1452 40.2051C21.1189 40.362 21.0529 40.5092 20.9543 40.6327L18.6101 38.7605ZM18.1866 39.7088L16.6666 48.7743L19.6253 49.2704L21.1453 40.2049L18.1866 39.7088ZM16.6665 48.7744C16.6794 48.6974 16.7192 48.6277 16.7785 48.5776L18.7153 50.8686C19.1981 50.4605 19.5207 49.8942 19.6253 49.2703L16.6665 48.7744ZM16.7785 48.5776C16.8378 48.5275 16.9131 48.4999 16.9911 48.5L16.9877 51.5C17.6203 51.5007 18.2324 51.2768 18.7153 50.8686L16.7785 48.5776ZM16.9894 48.5H1.17264V51.5H16.9894V48.5ZM1.17095 48.5C1.21888 48.4999 1.2661 48.5103 1.30935 48.5303L0.049544 51.253C0.401934 51.416 0.78577 51.5004 1.17434 51.5L1.17095 48.5ZM1.30935 48.5303C1.35254 48.5503 1.39107 48.5796 1.42209 48.6162L-0.866779 50.5555C-0.615556 50.852 -0.302799 51.09 0.049544 51.253L1.30935 48.5303ZM1.42209 48.6162C1.45304 48.6527 1.47558 48.6955 1.48823 48.7415L-1.40434 49.5371C-1.30135 49.9115 -1.11793 50.2591 -0.866779 50.5555L1.42209 48.6162ZM1.48823 48.7415C1.5009 48.7875 1.50338 48.8359 1.49548 48.8831L-1.46324 48.3871C-1.52746 48.7702 -1.50735 49.1626 -1.40434 49.5371L1.48823 48.7415ZM1.49547 48.8831L5.3045 26.1633L2.34579 25.6673L-1.46324 48.3871L1.49547 48.8831ZM5.30448 26.1634C5.52208 24.8661 6.14848 23.6721 7.09229 22.7558L5.00259 20.6034C3.59999 21.965 2.66916 23.7393 2.34581 25.6672L5.30448 26.1634ZM7.09229 22.7558C8.03609 21.8396 9.24797 21.2488 10.5512 21.0697L10.1427 18.0976C8.20615 18.3638 6.4052 19.2417 5.00259 20.6034L7.09229 22.7558ZM10.5512 21.0697C11.8544 20.8906 13.1808 21.1325 14.3368 21.7602L15.7683 19.1238C14.0504 18.191 12.0794 17.8315 10.1427 18.0976L10.5512 21.0697ZM14.3368 21.7602C15.4928 22.3879 16.4181 23.3685 16.9776 24.559L19.6927 23.283C18.8612 21.5138 17.4862 20.0566 15.7683 19.1238L14.3368 21.7602ZM16.9774 24.5587C18.2321 27.2302 19.9956 29.6315 22.1693 31.6281L24.1987 29.4187C22.3122 27.6859 20.7817 25.6019 19.6929 23.2834L16.9774 24.5587ZM21.684 30.5234V30.5236H24.684V30.5234H21.684Z" fill="#808080" mask="url(#path-9-inside-2)"/>
</svg>
