<svg xmlns="http://www.w3.org/2000/svg" viewBox="0 0 55.679 72.5"><defs><style>.a,.b{fill:none;stroke:#16cafb;stroke-miterlimit:10;stroke-width:1.5px;}.a{stroke-linecap:round;}</style></defs><title>icon-weight</title><polyline class="a" points="14.063 67.88 4.62 67.88 4.62 59.034"/><polyline class="a" points="51.059 58.618 51.059 67.88 41.799 67.88"/><polyline class="a" points="41.615 21.441 51.059 21.441 51.059 30.699"/><polyline class="a" points="4.62 30.706 4.62 21.441 13.88 21.441"/><circle class="a" cx="27.839" cy="44.661" r="27.089"/><circle class="b" cx="27.839" cy="44.661" r="20.639"/><line class="b" x1="27.839" y1="44.661" x2="34.934" y2="37.566"/><line class="b" x1="27.839" y1="29.181" x2="27.839" y2="24.021"/><line class="b" x1="20.1" y1="31.255" x2="17.52" y2="26.786"/><line class="b" x1="14.434" y1="36.921" x2="9.965" y2="34.341"/><line class="b" x1="12.36" y1="44.661" x2="7.2" y2="44.661"/><line class="b" x1="14.434" y1="52.4" x2="9.965" y2="54.98"/><line class="b" x1="20.1" y1="58.066" x2="17.52" y2="62.535"/><line class="b" x1="27.839" y1="60.14" x2="27.839" y2="65.3"/><line class="b" x1="35.579" y1="58.066" x2="38.159" y2="62.535"/><line class="b" x1="41.245" y1="52.4" x2="45.714" y2="54.98"/><line class="b" x1="43.319" y1="44.661" x2="48.479" y2="44.661"/><line class="b" x1="41.245" y1="36.921" x2="45.714" y2="34.341"/><line class="b" x1="35.579" y1="31.255" x2="38.159" y2="26.786"/><path class="a" d="M24.184,10.887c0,5.068,7.241,4.344,7.087.385-.158-4.088-6.819-2.728-6.819-7.5,0-4.092,6.137-3.732,6.137-.682"/><line class="a" x1="27.839" y1="17.705" x2="27.839" y2="11.347"/></svg>