<svg width="113" height="113" viewBox="0 0 113 113" fill="none" xmlns="http://www.w3.org/2000/svg">
<path d="M96.3886 73.0007C105.522 50.9505 95.051 25.6711 73.0008 16.5376C50.9506 7.40409 25.6712 17.8752 16.5377 39.9254C7.40416 61.9756 17.8752 87.255 39.9255 96.3885C61.9757 105.522 87.2551 95.0509 96.3886 73.0007Z" fill="#CCCCCC"/>
<path d="M56.4639 104.463C46.9704 104.463 37.69 101.648 29.7965 96.3735C21.9029 91.0992 15.7507 83.6026 12.1176 74.8318C8.48464 66.0609 7.53411 56.4097 9.3862 47.0986C11.2383 37.7875 15.8098 29.2347 22.5227 22.5218C29.2357 15.8089 37.7884 11.2373 47.0995 9.38523C56.4106 7.53314 66.0618 8.48367 74.8327 12.1167C83.6035 15.7497 91.1001 21.9019 96.3744 29.7955C101.649 37.6891 104.464 46.9694 104.464 56.4629C104.45 69.1889 99.3878 81.3896 90.3892 90.3883C81.3905 99.3869 69.1899 104.449 56.4639 104.463ZM56.4639 10.0329C47.2809 10.0327 38.304 12.7556 30.6685 17.8573C23.033 22.9589 17.0817 30.2102 13.5674 38.6942C10.0531 47.1781 9.1335 56.5138 10.9249 65.5204C12.7163 74.527 17.1383 82.8001 23.6316 89.2935C30.1249 95.787 38.3979 100.209 47.4045 102.001C56.411 103.792 65.7466 102.873 74.2306 99.3587C82.7147 95.8446 89.9661 89.8935 95.068 82.2581C100.17 74.6227 102.893 65.6459 102.893 56.4629C102.879 44.1533 97.9828 32.352 89.2787 23.6478C80.5747 14.9436 68.7734 10.0472 56.4639 10.0329Z" fill="#CCCCCC"/>
<path d="M92.6831 37.188C100.967 37.188 107.683 30.4723 107.683 22.188C107.683 13.9037 100.967 7.18799 92.6831 7.18799C84.3988 7.18799 77.6831 13.9037 77.6831 22.188C77.6831 30.4723 84.3988 37.188 92.6831 37.188Z" fill="#06B9FF"/>
<path d="M97.685 17.6309C97.5534 17.5232 97.3855 17.4702 97.2159 17.4828C97.1316 17.4915 97.0499 17.5173 96.9758 17.5586C96.9017 17.5998 96.8368 17.6557 96.785 17.7228L91.028 25.0658L88.54 22.4658C88.4202 22.3473 88.2585 22.2809 88.09 22.2809C87.9215 22.2809 87.7598 22.3473 87.64 22.4658C87.525 22.5874 87.4609 22.7484 87.4609 22.9158C87.4609 23.0831 87.525 23.2442 87.64 23.3658L91.126 27.0048L97.778 18.5228C97.88 18.3907 97.9273 18.2243 97.91 18.0582C97.8927 17.8922 97.8121 17.7391 97.685 17.6309Z" fill="white"/>
</svg>
