<svg fill="none" height="90" viewBox="0 0 90 90" width="90" xmlns="http://www.w3.org/2000/svg"><path clip-rule="evenodd" d="m63.7498 18.751h-52.5c-4.12504 0-7.50004 3.3375-7.50004 7.5v33.75h7.50004c0 6.1875 5.025 11.25 11.25 11.25s11.25-5.0625 11.25-11.25h20.625c0 6.1875 5.025 11.25 11.25 11.25s11.25-5.0625 11.25-11.25h9.375v-18.75zm-52.4999 22.5006v-15h15v15zm11.25 24.375c-3.1125 0-5.625-2.5125-5.625-5.625s2.5125-5.625 5.625-5.625 5.625 2.5125 5.625 5.625-2.5125 5.625-5.625 5.625zm26.25-24.375h-15v-15h15zm16.8749 24.375c-3.1125 0-5.625-2.5125-5.625-5.625s2.5125-5.625 5.625-5.625 5.625 2.5125 5.625 5.625-2.5125 5.625-5.625 5.625zm-9.3749-24.375v-15h3.75l15 15z" fill="#06b9ff" fill-rule="evenodd"/></svg>