<svg viewBox="0 0 92 92" xmlns="http://www.w3.org/2000/svg"><g fill="#808080"><path d="m68.17 73.25h-44.34a.76.76 0 0 1 -.75-.75v-50.67a.76.76 0 0 1 .75-.75h12.46v1.5h-11.71v49.17h42.84v-49.17h-11.36v-1.5h12.11a.76.76 0 0 1 .75.75v50.67a.76.76 0 0 1 -.75.75z"/><path d="m63.1 69h-34.2a.76.76 0 0 1 -.75-.75v-41.88a.75.75 0 0 1 .75-.75h7.39v1.5h-6.64v40.41h32.7v-40.41h-6.29v-1.5h7a.75.75 0 0 1 .75.75v41.91a.76.76 0 0 1 -.71.72z"/><path d="m55.71 29.23h-19.42a.76.76 0 0 1 -.75-.75v-8.76a.76.76 0 0 1 .75-.75h4.44a5.4 5.4 0 0 1 10.54 0h4.44a.75.75 0 0 1 .75.75v8.76a.75.75 0 0 1 -.75.75zm-18.71-1.5h18v-7.26h-4.38a.74.74 0 0 1 -.74-.68 3.9 3.9 0 0 0 -7.76 0 .74.74 0 0 1 -.74.68h-4.38z"/><path d="m46.1 40.51a.5.5 0 0 1 -.5-.5v-7.74a.5.5 0 0 1 .5-.5.5.5 0 0 1 .5.5v7.73a.5.5 0 0 1 -.5.51z"/><path d="m50 36.64h-7.77a.5.5 0 0 1 0-1h7.77a.5.5 0 0 1 0 1z"/><path d="m56.51 61.33h-12a.5.5 0 0 1 -.5-.5.5.5 0 0 1 .5-.5h12a.5.5 0 0 1 .5.5.51.51 0 0 1 -.5.5z"/><path d="m56.51 53.58h-12a.5.5 0 0 1 -.5-.5.5.5 0 0 1 .5-.5h12a.5.5 0 0 1 .5.5.51.51 0 0 1 -.5.5z"/><path d="m56.59 46.33h-12a.5.5 0 0 1 -.5-.5.5.5 0 0 1 .5-.5h12a.5.5 0 0 1 .5.5.5.5 0 0 1 -.5.5z"/><path d="m37 63.62a.47.47 0 0 1 -.35-.15l-1.65-1.65a.48.48 0 0 1 0-.7.5.5 0 0 1 .71 0l1.29 1.26 3-3.77a.5.5 0 0 1 .7-.07.52.52 0 0 1 .07.71l-3.43 4.19a.5.5 0 0 1 -.36.18z"/><path d="m37 55.87a.47.47 0 0 1 -.35-.15l-1.65-1.65a.48.48 0 0 1 0-.7.5.5 0 0 1 .71 0l1.29 1.26 3-3.77a.5.5 0 0 1 .7-.07.52.52 0 0 1 .07.71l-3.43 4.19a.5.5 0 0 1 -.36.18z"/><path d="m37.08 48.62a.51.51 0 0 1 -.36-.15l-1.65-1.65a.5.5 0 0 1 0-.7.5.5 0 0 1 .71 0l1.22 1.26 3.08-3.77a.5.5 0 0 1 .7-.07.5.5 0 0 1 .07.71l-3.43 4.19a.49.49 0 0 1 -.36.18z"/></g></svg>