<svg width="115" height="120" viewBox="0 0 115 120" fill="none" xmlns="http://www.w3.org/2000/svg">
<path d="M89.9619 25.6495H72.7593V23.5144C72.7593 23.2279 72.6499 22.9532 72.4552 22.7507C72.2605 22.5482 71.9965 22.4344 71.7211 22.4344H65.1623C64.7843 20.6123 63.8177 18.9801 62.4235 17.8093C61.0293 16.6386 59.2917 16 57.5 16C55.7083 16 53.9707 16.6386 52.5765 17.8093C51.1823 18.9801 50.2157 20.6123 49.8377 22.4344H43.2789C43.0035 22.4344 42.7395 22.5482 42.5448 22.7507C42.3501 22.9532 42.2407 23.2279 42.2407 23.5144V25.6495H25.0381C24.7628 25.6495 24.4988 25.7633 24.3041 25.9658C24.1094 26.1684 24 26.4431 24 26.7295V103.92C24 104.206 24.1094 104.481 24.3041 104.684C24.4988 104.886 24.7628 105 25.0381 105H89.9619C90.2372 105 90.5012 104.886 90.6959 104.684C90.8906 104.481 91 104.206 91 103.92V26.7295C91 26.4431 90.8906 26.1684 90.6959 25.9658C90.5012 25.7633 90.2372 25.6495 89.9619 25.6495ZM44.317 24.5943H50.7294C50.9895 24.5954 51.2404 24.4949 51.4326 24.3127C51.6249 24.1306 51.7444 23.8799 51.7675 23.6105C51.8982 22.1219 52.559 20.7379 53.6202 19.7301C54.6814 18.7224 56.0663 18.1637 57.5031 18.1637C58.9399 18.1637 60.3249 18.7224 61.386 19.7301C62.4472 20.7379 63.108 22.1219 63.2387 23.6105C63.2618 23.8799 63.3814 24.1306 63.5736 24.3127C63.7658 24.4949 64.0168 24.5954 64.2768 24.5943H70.6903V35.7723H44.3221L44.317 24.5943ZM71.7232 37.9323C71.9986 37.9323 72.2626 37.8185 72.4573 37.616C72.652 37.4134 72.7613 37.1388 72.7613 36.8523V34.7171H81.5054V96.4076H33.4967V34.7171H42.2407V36.8523C42.2407 37.1388 42.3501 37.4134 42.5448 37.616C42.7395 37.8185 43.0035 37.9323 43.2789 37.9323H71.7232ZM88.9258 102.84H26.0783V27.8095H42.2428V32.5615H32.4606C32.1853 32.5615 31.9213 32.6753 31.7266 32.8778C31.5319 33.0804 31.4225 33.355 31.4225 33.6415V97.4876C31.4225 97.774 31.5319 98.0487 31.7266 98.2512C31.9213 98.4538 32.1853 98.5676 32.4606 98.5676H82.5435C82.8188 98.5676 83.0829 98.4538 83.2776 98.2512C83.4722 98.0487 83.5816 97.774 83.5816 97.4876V33.6371C83.5816 33.3507 83.4722 33.076 83.2776 32.8735C83.0829 32.6709 82.8188 32.5571 82.5435 32.5571H72.7613V27.8052H88.9258V102.84Z" fill="white"/>
<path d="M63.0255 60.7055L54.5659 52.2685L56.8339 50.0006C57.0726 49.7989 57.2671 49.5501 57.4052 49.2697C57.5432 48.9893 57.6218 48.6834 57.636 48.3712C57.6502 48.059 57.5998 47.7473 57.4878 47.4555C57.3759 47.1637 57.2048 46.8982 56.9854 46.6757C56.766 46.4531 56.503 46.2784 56.2128 46.1623C55.9227 46.0462 55.6116 45.9913 55.2993 46.0011C54.9869 46.0109 54.6799 46.0852 54.3976 46.2192C54.1153 46.3532 53.8638 46.5442 53.6587 46.78L42.659 57.7571C42.2349 58.1841 41.9979 58.7622 42 59.364C42.0021 59.9659 42.2433 60.5422 42.6703 60.9663C43.0974 61.3903 43.6754 61.6274 44.2773 61.6252C44.8791 61.6231 45.4555 61.382 45.8795 60.9549L48.1475 58.6869L56.5844 67.1239L63.0255 60.7055Z" fill="white"/>
<path d="M100.493 102.211L93.9838 95.6561L94.4147 95.2025C94.652 94.9683 94.8404 94.6893 94.969 94.3817C95.0975 94.0742 95.1638 93.7441 95.1638 93.4107C95.1638 93.0774 95.0975 92.7473 94.969 92.4398C94.8404 92.1322 94.652 91.8532 94.4147 91.619L93.122 90.3036C93.9927 89.1897 94.427 87.7964 94.3435 86.385C94.26 84.9736 93.6644 83.6413 92.6684 82.6378L72.7101 62.6795L75.6585 59.6178C76.0809 59.1928 76.318 58.618 76.318 58.0188C76.318 57.4197 76.0809 56.8448 75.6585 56.4199C75.4477 56.2073 75.1968 56.0386 74.9204 55.9234C74.6441 55.8083 74.3476 55.749 74.0482 55.749C73.7488 55.749 73.4524 55.8083 73.176 55.9234C72.8996 56.0386 72.6488 56.2073 72.438 56.4199L52.389 76.5596C52.1515 76.7629 51.9587 77.0131 51.8226 77.2945C51.6864 77.5759 51.6099 77.8824 51.5979 78.1947C51.5858 78.507 51.6384 78.8185 51.7525 79.1096C51.8665 79.4006 52.0394 79.6649 52.2605 79.886C52.4815 80.107 52.7458 80.2799 53.0369 80.3939C53.3279 80.508 53.6394 80.5606 53.9517 80.5485C54.2641 80.5365 54.5705 80.46 54.8519 80.3238C55.1333 80.1877 55.3835 79.9949 55.5868 79.7575L58.5579 76.7864L78.5162 96.7447C79.5209 97.7468 80.8578 98.3462 82.2744 98.4298C83.6909 98.5134 85.0891 98.0753 86.2046 97.1983L87.4974 98.5137C87.9801 98.9834 88.627 99.2462 89.3004 99.2462C89.9739 99.2462 90.6208 98.9834 91.1035 98.5137L91.5571 98.0601L98.0889 104.615C98.4078 104.933 98.8401 105.112 99.2909 105.112C99.7417 105.112 100.174 104.933 100.493 104.615C100.653 104.458 100.781 104.271 100.868 104.065C100.955 103.858 101 103.637 101 103.413C101 103.188 100.955 102.967 100.868 102.76C100.781 102.554 100.653 102.367 100.493 102.211ZM70.0112 73.9061C69.6927 73.5871 69.5137 73.1548 69.5137 72.704C69.5137 72.2533 69.6927 71.8209 70.0112 71.502L73.0049 68.5083C73.3298 68.1895 73.7679 68.0127 74.223 68.017C74.6781 68.0213 75.1129 68.2061 75.4317 68.5309C75.7505 68.8558 75.9272 69.2939 75.9229 69.749C75.9187 70.2041 75.7338 70.6389 75.409 70.9577L72.4153 73.9061C72.0963 74.2246 71.664 74.4035 71.2132 74.4035C70.7625 74.4035 70.3301 74.2246 70.0112 73.9061ZM74.207 78.1018C73.8884 77.7829 73.7095 77.3506 73.7095 76.8998C73.7095 76.449 73.8884 76.0167 74.207 75.6978L77.2007 72.6814C77.3601 72.5235 77.5489 72.3986 77.7566 72.3137C77.9642 72.2289 78.1865 72.1857 78.4108 72.1868C78.6351 72.1878 78.857 72.233 79.0638 72.3199C79.2706 72.4067 79.4583 72.5333 79.6161 72.6927C79.774 72.852 79.8989 73.0409 79.9838 73.2485C80.0686 73.4561 80.1118 73.6785 80.1107 73.9027C80.1096 74.127 80.0644 74.3489 79.9776 74.5557C79.8908 74.7626 79.7641 74.9502 79.6048 75.1081L76.611 78.1018C76.2921 78.4204 75.8598 78.5993 75.409 78.5993C74.9582 78.5993 74.5259 78.4204 74.207 78.1018ZM78.4028 82.2976C78.0882 81.972 77.9124 81.537 77.9124 81.0842C77.9124 80.6315 78.0882 80.1965 78.4028 79.8709L81.3965 76.8771C81.7189 76.5767 82.1454 76.4131 82.5861 76.4209C83.0268 76.4286 83.4472 76.6072 83.7589 76.9188C84.0705 77.2305 84.2491 77.6509 84.2568 78.0916C84.2646 78.5323 84.101 78.9587 83.8006 79.2812L80.8068 82.2976C80.4879 82.6162 80.0556 82.7951 79.6048 82.7951C79.154 82.7951 78.7217 82.6162 78.4028 82.2976ZM87.9963 83.477L84.9119 86.4707C84.7555 86.6312 84.5686 86.7587 84.3621 86.8458C84.1557 86.9329 83.9339 86.9778 83.7098 86.9778C83.4858 86.9778 83.264 86.9329 83.0575 86.8458C82.8511 86.7587 82.6642 86.6312 82.5078 86.4707C82.1893 86.1518 82.0103 85.7194 82.0103 85.2687C82.0103 84.8179 82.1893 84.3856 82.5078 84.0666L85.5016 81.0729C85.824 80.7724 86.2505 80.6089 86.6912 80.6166C87.1318 80.6244 87.5523 80.8029 87.8639 81.1146C88.1756 81.4262 88.3541 81.8467 88.3619 82.2874C88.3697 82.728 88.2061 83.1545 87.9056 83.477H87.9963Z" fill="white"/>
</svg>
