<svg xmlns="http://www.w3.org/2000/svg" viewBox="0 0 118.505 131.283"><defs><style>.a{fill:#06b9ff;}</style></defs><title>icon-height-blue</title><rect class="a" x="27.773" y="24.178" width="25.947" height="3.647"/><rect class="a" x="27.773" y="105.34" width="25.947" height="3.647"/><rect class="a" x="27.773" y="85.049" width="25.947" height="3.647"/><rect class="a" x="27.773" y="44.469" width="25.947" height="3.647"/><rect class="a" x="27.773" y="64.759" width="25.947" height="3.647"/><path class="a" d="M53.721,131.283H1.823A1.824,1.824,0,0,1,0,129.46V3.7A1.824,1.824,0,0,1,1.823,1.881h51.9A1.824,1.824,0,0,1,55.544,3.7V129.46A1.824,1.824,0,0,1,53.721,131.283ZM3.647,127.637H51.9V5.528H3.647Z"/><path class="a" d="M99.1,129.86a1.824,1.824,0,0,1-1.823-1.823V3.005a1.823,1.823,0,1,1,3.647,0V128.037A1.824,1.824,0,0,1,99.1,129.86Z"/><path class="a" d="M99.1,130.222a1.829,1.829,0,0,1-1.363-.611L80.16,109.837a1.824,1.824,0,0,1,2.726-2.424L99.1,125.654l16.216-18.241a1.824,1.824,0,0,1,2.726,2.424l-17.578,19.773A1.829,1.829,0,0,1,99.1,130.222Z"/><path class="a" d="M81.522,23.39a1.824,1.824,0,0,1-1.363-3.035L97.74.582a1.886,1.886,0,0,1,2.726,0l17.578,19.772a1.824,1.824,0,0,1-2.726,2.424L99.1,4.539,82.885,22.779A1.822,1.822,0,0,1,81.522,23.39Z"/></svg>