<svg width="44" height="90" viewBox="0 0 44 90" fill="none" xmlns="http://www.w3.org/2000/svg">
<mask id="mask0_895_7593" style="mask-type:alpha" maskUnits="userSpaceOnUse" x="0" y="0" width="44" height="90">
<path d="M21.6045 63.3115L20.2163 85.6754C20.198 86.0624 20.4826 86.3923 20.8656 86.4166C21.2486 86.4408 21.5781 86.148 21.6017 85.7627L22.9899 63.3989C22.9906 63.3839 22.9913 63.3692 22.9913 63.3545C22.9913 62.9884 22.7087 62.6809 22.3406 62.6577C21.9576 62.6335 21.6282 62.9262 21.6045 63.3115Z" fill="#808080"/>
<path d="M20.909 40.9901C20.909 39.448 19.6659 38.1957 18.1312 38.1957C16.5993 38.1957 15.3562 39.448 15.3562 40.9901C15.3562 42.5342 16.5993 43.7866 18.1312 43.7866C19.6659 43.7866 20.909 42.5342 20.909 40.9901ZM16.7444 40.9901C16.7444 40.2199 17.3667 39.5934 18.1312 39.5934C18.8972 39.5934 19.5208 40.2199 19.5208 40.9901C19.5208 41.7614 18.8972 42.3889 18.1312 42.3889C17.3667 42.3889 16.7444 41.7614 16.7444 40.9901Z" fill="#808080"/>
<path d="M26.4615 48.3283C26.4615 46.9791 25.3736 45.8833 24.0308 45.8833C22.6907 45.8833 21.6028 46.9791 21.6028 48.3283C21.6028 49.6796 22.6907 50.7754 24.0308 50.7754C25.3736 50.7754 26.4615 49.6796 26.4615 48.3283ZM22.991 48.3283C22.991 47.751 23.4574 47.281 24.0308 47.281C24.6056 47.281 25.0733 47.751 25.0733 48.3283C25.0733 48.9071 24.6056 49.3777 24.0308 49.3777C23.4574 49.3777 22.991 48.9071 22.991 48.3283Z" fill="#808080"/>
<path d="M25.4193 32.6045C24.0793 32.6045 22.9913 33.7002 22.9913 35.0495C22.9913 36.4008 24.0793 37.4966 25.4193 37.4966C26.7621 37.4966 27.8501 36.4008 27.8501 35.0495C27.8501 33.7002 26.7621 32.6045 25.4193 32.6045ZM25.4193 36.0988C24.8459 36.0988 24.3795 35.6283 24.3795 35.0495C24.3795 34.4721 24.8459 34.0022 25.4193 34.0022C25.9942 34.0022 26.4618 34.4721 26.4618 35.0495C26.4618 35.6283 25.9942 36.0988 25.4193 36.0988Z" fill="#808080"/>
<path d="M22.9432 4.21152C22.9432 4.22892 22.9432 4.24667 22.9432 4.26408L22.9914 7.90044C22.2349 7.30151 21.2723 6.9613 20.3417 6.97737C18.298 7.00909 16.6848 8.73035 16.6834 10.7829L16.9356 29.9568L11.6878 22.7197C11.0832 21.8304 10.122 21.2772 8.98054 21.1622C7.68785 21.0315 6.32477 21.4987 5.42188 22.3812C2.63055 25.1152 5.55945 28.9494 6.81078 30.5878C8.85783 33.2659 9.58178 35.5519 10.1409 38.5948C10.711 41.7147 11.7725 47.5221 17.3816 51.3648C17.8297 51.6723 18.1855 52.3692 18.1469 52.8568L15.0573 89.1533C15.0133 89.5448 15.3081 89.8764 15.6897 89.9095C16.0714 89.9423 16.4075 89.6574 16.4401 89.2728L19.5297 52.9758C19.6144 51.9914 19.0253 50.8008 18.1625 50.2094C13.4291 46.9665 12.245 42.3833 11.5061 38.3409C11.4926 38.2692 11.4776 38.2017 11.4641 38.131C12.5751 37.7045 13.2732 36.6162 13.2725 35.455C13.2725 35.1458 13.2237 34.8311 13.1193 34.5234C12.8734 33.7938 12.3622 33.2099 11.681 32.8793C11.0764 32.5855 10.4033 32.5384 9.76412 32.7175C9.28421 31.7378 8.69242 30.7577 7.91086 29.7357C5.47817 26.5485 5.03756 24.7085 6.38918 23.3834C7.00596 22.7808 7.94612 22.4624 8.84221 22.5528C9.56887 22.6262 10.1728 22.9657 10.5544 23.5267L15.9452 30.9618C16.5865 31.846 17.1626 31.8832 17.5327 31.7583C17.9035 31.6337 18.3306 31.2498 18.3265 30.1554L18.0716 10.7645C18.0716 10.7543 18.0716 10.744 18.0716 10.7335C18.0716 9.4497 19.0931 8.39454 20.364 8.37511C21.0738 8.36281 21.8146 8.66654 22.3474 9.18727C22.7676 9.59744 23.0036 10.1015 23.0266 10.6119L23.2747 29.4511C23.2801 29.837 23.5946 30.1458 23.9783 30.1407C24.3579 30.1356 24.6629 29.8237 24.6629 29.4422C24.6629 29.4388 24.6629 29.4357 24.6629 29.4326L24.6215 26.2901C26.4205 26.1625 27.8501 24.6634 27.8501 22.819C27.8501 20.9449 26.3724 19.4229 24.53 19.3414L24.3315 4.24535C24.3172 2.92336 25.3414 1.87471 26.6232 1.85458C27.2393 1.84431 27.8229 2.07738 28.2669 2.51083C28.7143 2.9479 28.9651 3.53557 28.9733 4.16511L29.3067 29.3532C29.3121 29.7391 29.6267 30.0479 30.0103 30.0428C30.3906 30.0377 30.6949 29.7258 30.6949 29.3443C30.6949 29.3409 30.6949 29.3378 30.6949 29.3347L30.415 8.18362C30.5519 7.05005 31.686 6.01537 32.9711 5.99454C33.5872 5.98435 34.1708 6.21742 34.6135 6.64974C35.0263 7.05313 35.2629 7.58748 35.3049 8.16251C33.4767 8.25874 32.0147 9.7732 32.0147 11.6374C32.0147 13.5391 33.5323 15.0843 35.4113 15.1253L35.4737 29.2511C35.4791 29.6371 35.7936 29.9459 36.1773 29.9408C36.5575 29.9357 36.8619 29.6238 36.8619 29.2423C36.8619 29.2388 36.8619 29.2358 36.8619 29.2327L36.6911 16.3841C36.6911 16.3739 36.6911 16.3636 36.6911 16.3531C36.6911 15.071 37.7133 14.0152 38.9835 13.993C39.6003 13.9824 40.1833 14.2151 40.6266 14.6475C41.0746 15.085 41.3254 15.6736 41.3343 16.3049C41.3343 16.3049 41.5843 30.0978 41.6264 31.1669C41.7566 34.479 41.8894 37.9051 41.202 41.1674C40.6266 43.9097 39.1618 46.672 36.849 49.3778C36.6694 49.5873 36.508 49.8409 36.3657 50.1142C36.3054 50.0968 36.2457 50.0763 36.1793 50.0763L32.7088 50.0763C32.3252 50.0763 32.0147 50.3893 32.0147 50.7752C32.0147 51.1611 32.3252 51.474 32.7088 51.474L35.8872 51.474C35.8309 51.7617 35.8024 52.0426 35.8146 52.2968L37.3526 86.8213C37.3695 87.2069 37.6943 87.5055 38.0773 87.4881C38.4596 87.471 38.7625 87.1468 38.7395 86.7585L37.2015 52.2326C37.1717 51.6669 37.5018 50.7567 37.901 50.2896C40.3683 47.4033 41.9355 44.4315 42.5605 41.4571C42.9963 39.3878 43.1196 37.2898 43.1196 35.2048C43.1196 33.8306 43.0661 32.4619 43.0132 31.1116C42.9712 30.0295 42.9285 28.9491 42.9136 27.8725L42.7225 16.2862C42.7089 15.2805 42.3076 14.3421 41.5932 13.6442C40.8834 12.9512 39.9488 12.5789 38.9598 12.5952C38.1362 12.6096 37.3866 12.9055 36.7765 13.3771L36.7094 8.2867C36.6952 7.28173 36.2938 6.34398 35.5801 5.64651C34.8704 4.95379 33.9364 4.5808 32.9487 4.59681C31.9842 4.61288 31.0806 4.98992 30.3804 5.58131L30.3615 4.14674C30.3479 3.14274 29.9473 2.20534 29.2336 1.50786C28.5231 0.81375 27.5884 0.440482 26.6008 0.45684C24.5727 0.489265 22.9432 2.16886 22.9432 4.21152ZM11.0784 34.1384C11.4214 34.305 11.6796 34.6015 11.8051 34.9734C12.0647 35.7331 11.681 36.5657 10.9551 36.834L10.0264 34.0842C10.0298 34.0828 10.0338 34.0838 10.0379 34.0824C10.3796 33.959 10.7497 33.9787 11.0784 34.1384ZM26.4619 22.819C26.4619 23.9758 25.5278 24.917 24.3796 24.917L24.3796 20.7237C25.5278 20.7237 26.4619 21.6635 26.4619 22.819ZM35.4852 13.735C34.3369 13.735 33.4029 12.7939 33.4029 11.6374C33.4029 10.4819 34.3369 9.54181 35.4852 9.54181L35.4852 13.735Z" fill="#808080"/>
<path d="M34.7906 40.9901C34.7906 39.4477 33.5468 38.1957 32.0128 38.1957C30.4816 38.1957 29.2378 39.4477 29.2378 40.9901C29.2378 42.5346 30.4816 43.7866 32.0128 43.7866C33.5468 43.7866 34.7906 42.5346 34.7906 40.9901ZM30.626 40.9901C30.626 40.2199 31.2483 39.5934 32.0128 39.5934C32.7788 39.5934 33.4024 40.2199 33.4024 40.9901C33.4024 41.7614 32.7788 42.3889 32.0128 42.3889C31.2483 42.3889 30.626 41.7614 30.626 40.9901Z" fill="#808080"/>
<path d="M32.0128 64.0537C33.5468 64.0537 34.7906 62.8017 34.7906 61.2572C34.7906 59.7148 33.5468 58.4627 32.0128 58.4627C30.4816 58.4627 29.2378 59.7148 29.2378 61.2572C29.2378 62.8017 30.4816 64.0537 32.0128 64.0537ZM30.626 61.2572C30.626 60.487 31.2483 59.8605 32.0128 59.8605C32.7788 59.8605 33.4024 60.487 33.4024 61.2572C33.4024 62.0285 32.7788 62.656 32.0128 62.656C31.2483 62.656 30.626 62.0285 30.626 61.2572Z" fill="#808080"/>
<path d="M38.9552 89.2132C38.9552 88.8273 38.6445 88.5144 38.2611 88.5144C37.8778 88.5144 37.567 88.8273 37.567 89.2132C37.567 89.5992 37.8778 89.9121 38.2611 89.9121C38.6445 89.9121 38.9552 89.5992 38.9552 89.2132Z" fill="#808080"/>
<path d="M3.93707 30.3448C3.93707 30.2121 3.89979 30.078 3.82115 29.9592C3.58328 29.5982 3.36297 29.2156 3.1671 28.8229C2.9942 28.4782 2.57669 28.3393 2.23436 28.513C1.89272 28.6867 1.75446 29.1064 1.9266 29.4514C2.14829 29.8937 2.39637 30.3243 2.66478 30.7318C2.87627 31.0532 3.30738 31.1413 3.62666 30.928C3.82795 30.7935 3.93707 30.5714 3.93707 30.3448Z" fill="#808080"/>
<path d="M5.93093 34.0055C5.93093 33.926 5.9174 33.8451 5.88894 33.7659C5.70993 33.2729 5.52898 32.82 5.35004 32.4198C5.19206 32.0679 4.78129 31.9113 4.43153 32.07C4.08177 32.229 3.92858 32.6436 4.08385 32.9944C4.24919 33.3633 4.41799 33.784 4.58472 34.2451C4.71625 34.6074 5.1148 34.7945 5.47476 34.662C5.75602 34.5587 5.93093 34.2908 5.93093 34.0055Z" fill="#808080"/>
<path d="M2.32739 26.5052C2.32739 26.4602 2.32329 26.4145 2.31385 26.3684C2.2291 25.9374 2.181 25.5105 2.1708 25.1C2.16066 24.714 1.84277 24.409 1.45907 24.4189C1.07613 24.4288 0.793421 24.7495 0.782593 25.1348C0.794808 25.6252 0.852419 26.1316 0.952717 26.6408C1.02726 27.0192 1.39264 27.2652 1.76815 27.1901C2.09896 27.1239 2.32739 26.8322 2.32739 26.5052Z" fill="#808080"/>
<path d="M5.97471 19.0269C6.24111 18.9146 6.40103 18.6549 6.40103 18.3815C6.40103 18.2918 6.38409 18.2004 6.34751 18.1123C6.19974 17.756 5.79306 17.5882 5.43921 17.737C4.99589 17.9236 4.54312 18.2024 4.093 18.5658C3.79412 18.8078 3.74664 19.2483 3.9859 19.5483C4.22585 19.8496 4.66306 19.8977 4.96201 19.6565C5.31039 19.3746 5.6514 19.1627 5.97471 19.0269Z" fill="#808080"/>
<path d="M7.13659 38.0255C7.13659 37.9685 7.12978 37.9102 7.11493 37.8522C7.00915 37.4355 6.8865 36.9704 6.74886 36.4824C6.64447 36.1111 6.26084 35.8951 5.89206 36.0006C5.52266 36.1057 5.30644 36.4936 5.41355 36.8632C5.54709 37.3389 5.66703 37.7918 5.77011 38.1982C5.86499 38.5722 6.24251 38.7977 6.614 38.7022C6.9278 38.6217 7.13659 38.3374 7.13659 38.0255Z" fill="#808080"/>
<path d="M13.4752 21.3516C13.6338 21.2134 13.7145 21.0193 13.7145 20.8238C13.7145 20.6613 13.6582 20.4982 13.5443 20.3658C13.1959 19.9621 12.8685 19.6144 12.5432 19.3035C12.2646 19.038 11.8254 19.0496 11.5617 19.3298C11.2987 19.6096 11.3095 20.0515 11.5874 20.3176C11.8803 20.5971 12.1778 20.9128 12.4964 21.2824C12.7479 21.5738 13.1857 21.6048 13.4752 21.3516Z" fill="#808080"/>
<path d="M2.6223 22.6774C2.66367 22.5832 2.70837 22.4904 2.75584 22.3994C2.89751 22.1281 3.06423 21.8499 3.24997 21.5725C3.33063 21.4524 3.36929 21.3163 3.36929 21.1818C3.36929 20.9572 3.26219 20.7371 3.06354 20.602C2.74633 20.386 2.31453 20.4699 2.10033 20.7897C1.88551 21.1095 1.69296 21.4323 1.52693 21.7496C1.46523 21.8687 1.40692 21.9895 1.35341 22.111C1.19814 22.4648 1.35612 22.8771 1.70657 23.033C2.05695 23.1896 2.46709 23.0303 2.6223 22.6774Z" fill="#808080"/>
<path d="M8.36102 18.6449C8.75416 18.6814 9.1439 18.7742 9.5201 18.921C9.87798 19.0602 10.2799 18.8814 10.4182 18.5214C10.4501 18.4385 10.465 18.3532 10.465 18.2692C10.465 17.9891 10.2969 17.7246 10.0217 17.6175C9.52552 17.4239 9.00966 17.3014 8.48846 17.2534C8.10684 17.2179 7.7686 17.5008 7.73334 17.885C7.69878 18.2747 7.98003 18.6098 8.36102 18.6449Z" fill="#808080"/>
<path d="M7.87813 42.1526C7.87813 42.1093 7.87404 42.0649 7.86592 42.0206C7.78387 41.5893 7.71342 41.1449 7.65713 40.6863C7.61035 40.3034 7.2633 40.0315 6.88307 40.0789C6.50277 40.126 6.22895 40.4734 6.27975 40.8583C6.33806 41.3343 6.4133 41.8138 6.50207 42.2833C6.57398 42.6624 6.93797 42.9109 7.31418 42.8386C7.647 42.7744 7.87813 42.4812 7.87813 42.1526Z" fill="#808080"/>
<path d="M14.5136 64.8054L14.618 63.4117C14.6194 63.394 14.6201 63.3762 14.6201 63.3585C14.6201 62.9964 14.3428 62.69 13.9781 62.6623C13.5958 62.6333 13.2623 62.9217 13.2339 63.3066L13.1295 64.7003C13.1023 65.0814 13.3864 65.421 13.7694 65.4497C14.1516 65.4787 14.4851 65.1903 14.5136 64.8054Z" fill="#808080"/>
<path d="M15.1407 56.4426L15.2451 55.0486C15.2465 55.0309 15.2472 55.0132 15.2472 54.9954C15.2472 54.6333 14.9699 54.3269 14.6052 54.2993C14.2229 54.2703 13.8894 54.5586 13.861 54.9435L13.7566 56.3375C13.7254 56.718 14.0142 57.0578 14.3965 57.0868C14.7787 57.1159 15.1122 56.8276 15.1407 56.4426Z" fill="#808080"/>
<path d="M14.8274 60.6237L14.9318 59.23C14.9331 59.2124 14.9338 59.1946 14.9338 59.1769C14.9338 58.8148 14.6566 58.5083 14.2919 58.4807C13.9096 58.4517 13.5761 58.7401 13.5476 59.125L13.4432 60.5186C13.414 60.9032 13.7008 61.239 14.0831 61.268C14.4654 61.297 14.7989 61.0087 14.8274 60.6237Z" fill="#808080"/>
<path d="M13.903 52.9104C13.903 52.7149 13.8216 52.5204 13.6636 52.3821C13.3369 52.0965 13.0109 51.7867 12.6943 51.4611C12.4266 51.1851 11.9867 51.1803 11.7129 51.4502C11.439 51.7198 11.4342 52.1624 11.702 52.4385C12.0443 52.7913 12.3988 53.1274 12.754 53.438C13.0435 53.6908 13.482 53.6595 13.7328 53.368C13.8474 53.2356 13.903 53.0728 13.903 52.9104Z" fill="#808080"/>
<path d="M9.07886 46.156C9.07886 46.0652 9.06122 45.9731 9.02395 45.8843C8.85174 45.4732 8.69175 45.0496 8.54807 44.6259C8.42473 44.2603 8.0309 44.0648 7.6676 44.1891C7.30493 44.3133 7.10698 44.7108 7.23441 45.0756C7.3883 45.5312 7.55981 45.9863 7.74555 46.4283C7.89465 46.7839 8.30132 46.9504 8.65448 46.8002C8.91956 46.6877 9.07886 46.4286 9.07886 46.156Z" fill="#808080"/>
<path d="M11.1101 49.8068C11.1101 49.6659 11.0681 49.5236 10.98 49.4C10.7217 49.0373 10.4736 48.6598 10.2432 48.2787C10.0432 47.949 9.61621 47.8446 9.2888 48.0453C8.96209 48.2459 8.85769 48.6763 9.05697 49.0056C9.30574 49.4167 9.57345 49.8235 9.85207 50.2149C10.0758 50.5285 10.5089 50.6002 10.8207 50.3753C11.0098 50.2388 11.1101 50.0245 11.1101 49.8068Z" fill="#808080"/>
</mask>
<g mask="url(#mask0_895_7593)">
<rect x="-13.0995" y="63.355" width="69.8873" height="69.4105" transform="rotate(-90 -13.0995 63.355)" fill="#808080"/>
</g>
</svg>
