<svg width="92" height="92" viewBox="0 0 92 92" fill="none" xmlns="http://www.w3.org/2000/svg">
<path d="M33.533 70.399H24.233V61.641C24.2254 61.5379 24.2392 61.4344 24.2735 61.3369C24.3078 61.2393 24.3618 61.1499 24.4322 61.0742C24.5026 60.9985 24.5879 60.9381 24.6827 60.8968C24.7774 60.8555 24.8796 60.8342 24.983 60.8342C25.0863 60.8342 25.1887 60.8555 25.2835 60.8968C25.3783 60.9381 25.4634 60.9985 25.5337 61.0742C25.6041 61.1499 25.6582 61.2393 25.6924 61.3369C25.7267 61.4344 25.7405 61.5379 25.733 61.641V68.894H33.5269C33.7164 68.9079 33.8937 68.9929 34.023 69.132C34.1523 69.2711 34.2242 69.4541 34.2242 69.644C34.2242 69.834 34.1523 70.0169 34.023 70.156C33.8937 70.2951 33.7164 70.3802 33.5269 70.394L33.533 70.399Z" fill="#fff"/>
<path d="M67.7639 70.399H58.6318C58.4424 70.3851 58.2653 70.3001 58.136 70.161C58.0067 70.0219 57.9348 69.8389 57.9348 69.649C57.9348 69.459 58.0067 69.2762 58.136 69.137C58.2653 68.9979 58.4424 68.9128 58.6318 68.899H66.26V61.263C66.2525 61.1599 66.2663 61.0564 66.3005 60.9589C66.3348 60.8613 66.3888 60.7719 66.4592 60.6962C66.5296 60.6205 66.6147 60.5601 66.7095 60.5188C66.8042 60.4775 66.9066 60.4562 67.01 60.4562C67.1134 60.4562 67.2155 60.4775 67.3103 60.5188C67.4051 60.5601 67.4904 60.6205 67.5608 60.6962C67.6312 60.7719 67.6852 60.8613 67.7195 60.9589C67.7538 61.0564 67.7675 61.1599 67.76 61.263L67.7639 70.399Z" fill="#fff"/>
<path d="M67.012 36.752C66.8125 36.752 66.6213 36.6727 66.4802 36.5317C66.3392 36.3907 66.26 36.1994 66.26 36V28.373H58.467C58.3639 28.3805 58.2604 28.3667 58.1628 28.3324C58.0653 28.2982 57.9759 28.2441 57.9001 28.1737C57.8244 28.1034 57.764 28.0181 57.7227 27.9234C57.6814 27.8286 57.6602 27.7263 57.6602 27.623C57.6602 27.5196 57.6814 27.4174 57.7227 27.3226C57.764 27.2278 57.8244 27.1426 57.9001 27.0722C57.9759 27.0018 58.0653 26.9478 58.1628 26.9136C58.2604 26.8793 58.3639 26.8654 58.467 26.873H67.7668V36.004C67.7658 36.2033 67.6858 36.394 67.5442 36.5342C67.4026 36.6745 67.2112 36.7528 67.012 36.752Z" fill="#fff"/>
<path d="M24.9871 36.758C24.7877 36.7577 24.5965 36.6784 24.4556 36.5375C24.3146 36.3965 24.2351 36.2054 24.2349 36.006V26.869H33.3669C33.5564 26.8829 33.7337 26.9679 33.863 27.107C33.9924 27.2461 34.0642 27.4291 34.0642 27.619C34.0642 27.809 33.9924 27.9919 33.863 28.131C33.7337 28.2702 33.5564 28.3552 33.3669 28.369H25.739V36.002C25.7395 36.1011 25.7204 36.1993 25.6829 36.291C25.6453 36.3827 25.5899 36.4661 25.52 36.5363C25.4501 36.6066 25.3671 36.6623 25.2756 36.7004C25.1841 36.7384 25.0862 36.758 24.9871 36.758Z" fill="#fff"/>
<path d="M45.9999 73.901C41.0026 73.901 36.1175 72.4192 31.9623 69.6428C27.8072 66.8664 24.5686 62.9203 22.6562 58.3033C20.7438 53.6864 20.2435 48.606 21.2184 43.7047C22.1934 38.8034 24.5998 34.3012 28.1335 30.7676C31.6671 27.2339 36.1692 24.8275 41.0705 23.8526C45.9718 22.8777 51.0522 23.378 55.6691 25.2904C60.2861 27.2028 64.2324 30.4413 67.0087 34.5965C69.7851 38.7516 71.2668 43.6367 71.2668 48.6341C71.2581 55.3326 68.5932 61.7543 63.8566 66.4909C59.12 71.2275 52.6985 73.8923 45.9999 73.901ZM45.9999 24.8721C41.3003 24.8721 36.7062 26.2657 32.7985 28.8767C28.8909 31.4877 25.8451 35.1988 24.0466 39.5408C22.2481 43.8827 21.7777 48.6604 22.6945 53.2698C23.6114 57.8792 25.8745 62.1132 29.1977 65.4363C32.5209 68.7595 36.7548 71.0226 41.3642 71.9395C45.9736 72.8564 50.7513 72.3858 55.0932 70.5873C59.4351 68.7888 63.1463 65.7431 65.7573 61.8355C68.3683 57.9279 69.7619 53.3338 69.7619 48.6341C69.7548 42.3342 67.2491 36.2944 62.7944 31.8397C58.3397 27.385 52.2998 24.8792 45.9999 24.8721Z" fill="#fff"/>
<path d="M46.0001 68.063C42.1572 68.063 38.4006 66.9235 35.2054 64.7885C32.0101 62.6535 29.5197 59.6189 28.0491 56.0685C26.5785 52.5182 26.1937 48.6115 26.9434 44.8424C27.6931 41.0734 29.5435 37.6113 32.2608 34.8939C34.9781 32.1766 38.4402 30.3261 42.2093 29.5764C45.9783 28.8266 49.8852 29.2114 53.4356 30.682C56.986 32.1526 60.0206 34.643 62.1556 37.8383C64.2906 41.0335 65.43 44.7901 65.43 48.633C65.4242 53.7844 63.3753 58.7231 59.7327 62.3657C56.0901 66.0082 51.1514 68.0572 46.0001 68.063ZM46.0001 30.707C42.4546 30.707 38.9887 31.7584 36.0408 33.7281C33.0929 35.6978 30.7953 38.4975 29.4385 41.773C28.0818 45.0486 27.7268 48.6529 28.4185 52.1302C29.1102 55.6075 30.8175 58.8016 33.3245 61.3086C35.8315 63.8156 39.0254 65.5229 42.5027 66.2146C45.98 66.9063 49.5844 66.5512 52.8599 65.1945C56.1355 63.8377 58.9351 61.5401 60.9048 58.5922C62.8746 55.6443 63.9261 52.1784 63.9261 48.633C63.9205 43.8805 62.0301 39.3243 58.6695 35.9639C55.3089 32.6035 50.7525 30.7133 46.0001 30.708V30.707Z" fill="#fff"/>
<path d="M51.8885 41.6814L45.468 48.1019L46.5315 49.1654L52.952 42.7449L51.8885 41.6814Z" fill="#fff"/>
<path d="M46.752 29.9559H45.248V34.6249H46.752V29.9559Z" fill="#fff"/>
<path d="M37.3115 32.0819L36.009 32.834L38.3443 36.8782L39.6468 36.1261L37.3115 32.0819Z" fill="#fff"/>
<path d="M30.201 38.6445L29.449 39.947L33.4924 42.2817L34.2444 40.9792L30.201 38.6445Z" fill="#fff"/>
<path d="M31.991 47.882H27.322V49.386H31.991V47.882Z" fill="#fff"/>
<path d="M33.4923 54.9872L29.449 57.322L30.2011 58.6245L34.2444 56.2897L33.4923 54.9872Z" fill="#fff"/>
<path d="M38.3443 60.3888L36.009 64.433L37.3115 65.1851L39.6468 61.1409L38.3443 60.3888Z" fill="#fff"/>
<path d="M46.752 62.642H45.248V67.312H46.752V62.642Z" fill="#fff"/>
<path d="M53.6556 60.3891L52.353 61.141L54.6871 65.1847L55.9897 64.4328L53.6556 60.3891Z" fill="#fff"/>
<path d="M58.5068 54.9875L57.7549 56.29L61.7994 58.6248L62.5513 57.3222L58.5068 54.9875Z" fill="#fff"/>
<path d="M64.678 47.882H60.009V49.386H64.678V47.882Z" fill="#fff"/>
<path d="M61.7991 38.6437L57.7549 40.979L58.507 42.2815L62.5511 39.9462L61.7991 38.6437Z" fill="#fff"/>
<path d="M54.6878 32.0828L52.353 36.1261L53.6555 36.8782L55.9903 32.8349L54.6878 32.0828Z" fill="#fff"/>
<path d="M45.865 22.0629C45.1494 22.0686 44.4442 21.8917 43.816 21.549C43.2126 21.199 42.7179 20.6888 42.3868 20.0749C42.0556 19.461 41.901 18.7674 41.94 18.0709C41.9538 17.8815 42.0389 17.7043 42.178 17.575C42.3171 17.4456 42.5 17.3738 42.69 17.3738C42.8799 17.3738 43.0628 17.4456 43.2019 17.575C43.3411 17.7043 43.4261 17.8815 43.44 18.0709C43.4045 18.499 43.4892 18.9285 43.6846 19.311C43.88 19.6935 44.1783 20.0138 44.5459 20.236C44.9915 20.4633 45.4875 20.5734 45.9873 20.5559C46.4872 20.5384 46.9743 20.3938 47.4029 20.1359C47.7022 19.9701 47.9495 19.7241 48.1167 19.4256C48.284 19.1271 48.3647 18.7878 48.3499 18.4459C48.3019 17.2029 47.3679 16.718 45.8499 16.03C44.2139 15.289 42.179 14.367 42.179 11.63C42.1594 11.1269 42.2552 10.626 42.459 10.1656C42.6629 9.70524 42.9694 9.29762 43.355 8.97395C44.0502 8.42276 44.915 8.1298 45.802 8.14497C47.467 8.14497 49.2371 9.14495 49.2371 11.013C49.2446 11.116 49.2306 11.2196 49.1963 11.3172C49.162 11.4147 49.1083 11.5041 49.0379 11.5798C48.9675 11.6555 48.8822 11.7159 48.7874 11.7572C48.6926 11.7984 48.5905 11.8198 48.4871 11.8198C48.3837 11.8198 48.2813 11.7984 48.1866 11.7572C48.0918 11.7159 48.0067 11.6555 47.9363 11.5798C47.8659 11.5041 47.8119 11.4147 47.7776 11.3172C47.7433 11.2196 47.7296 11.116 47.7371 11.013C47.7371 10.127 46.7429 9.64894 45.8059 9.64894C45.269 9.63384 44.7432 9.80484 44.3179 10.1329C44.105 10.318 43.9376 10.5495 43.8284 10.8096C43.7192 11.0697 43.6711 11.3514 43.688 11.6329C43.688 13.3149 44.7459 13.881 46.4749 14.664C47.9429 15.329 49.775 16.157 49.857 18.392C49.883 19.001 49.7416 19.6055 49.4483 20.1399C49.1549 20.6743 48.7207 21.118 48.1929 21.423C47.4901 21.8454 46.685 22.0668 45.865 22.0629Z" fill="#fff"/>
<path d="M46 24.993C45.8005 24.9928 45.6093 24.9133 45.4683 24.7721C45.3273 24.6309 45.2481 24.4395 45.2481 24.24V18.486C45.2406 18.3829 45.2543 18.2793 45.2886 18.1818C45.3229 18.0843 45.3769 17.9949 45.4473 17.9192C45.5177 17.8435 45.6028 17.7831 45.6976 17.7418C45.7923 17.7005 45.8947 17.6792 45.9981 17.6792C46.1015 17.6792 46.2036 17.7005 46.2984 17.7418C46.3932 17.7831 46.4785 17.8435 46.5489 17.9192C46.6193 17.9949 46.6733 18.0843 46.7076 18.1818C46.7418 18.2793 46.7556 18.3829 46.7481 18.486V24.24C46.7481 24.4388 46.6692 24.6296 46.5291 24.7707C46.389 24.9118 46.1989 24.9917 46 24.993Z" fill="#fff"/>
</svg>
