<svg xmlns="http://www.w3.org/2000/svg" viewBox="0 0 92 92"><defs><style>.cls-1{fill:gray;}</style></defs><title>corephysicalexam</title><g id="Content"><path class="cls-1" d="M50.24,74.88a2.51,2.51,0,0,1-1.67-.63,3,3,0,0,1-1-2.1l-.93-20.5H45.43l-.78,20.52a3,3,0,0,1-.94,2.08,2.56,2.56,0,0,1-1.92.59H39.91a2.89,2.89,0,0,1-2.7-3.08.53.53,0,0,1,0-.13L38.52,51V37.21H23.46a3.14,3.14,0,0,1,0-6.28H69.28a3.14,3.14,0,0,1,0,6.28H53.59V51l1.46,20.59a2.91,2.91,0,0,1-2.51,3.26h-2.3ZM44.17,50.39h3.77l1,21.71a1.79,1.79,0,0,0,.52,1.23,1.34,1.34,0,0,0,1,.29h2a1.66,1.66,0,0,0,1.4-1.87h0L52.33,51.07V36h17a2,2,0,0,0,1.89-1.89,2,2,0,0,0-1.89-1.88H23.46a1.89,1.89,0,1,0,0,3.77H39.78V51l-1.3,20.72a1.65,1.65,0,0,0,1.39,1.87h2a1.38,1.38,0,0,0,1.07-.29,1.75,1.75,0,0,0,.5-1.26Z"/><path class="cls-1" d="M46.06,28.42a5.65,5.65,0,1,1,5.65-5.65A5.65,5.65,0,0,1,46.06,28.42Zm0-10a4.4,4.4,0,1,0,4.39,4.39A4.4,4.4,0,0,0,46.06,18.38Z"/></g></svg>