<svg viewBox="0 0 92 92" xmlns="http://www.w3.org/2000/svg"><path d="m69.32 45.17h-7.77a.78.78 0 0 0 -.76.58l-1.79 7.36-7.07-28.11a.8.8 0 0 0 -.41-.4.81.81 0 0 0 -.63 0 .84.84 0 0 0 -.48.48l-9.59 38.39-7-28.08a.82.82 0 0 0 -.82-.59.76.76 0 0 0 -.73.58l-2.54 9.79h-7.05a.76.76 0 0 0 -.77.77.77.77 0 0 0 .77.78h7.68a.78.78 0 0 0 .75-.58l1.89-7.42 7 28.14a.73.73 0 0 0 .35.47.76.76 0 0 0 .59.09.78.78 0 0 0 .56-.56l9.61-38.45 7 28.08a.83.83 0 0 0 1 .42.8.8 0 0 0 .47-.48l2.43-9.71h7.17a.77.77 0 0 0 .77-.78.76.76 0 0 0 -.63-.77z" fill="#808080"/></svg>