<svg xmlns="http://www.w3.org/2000/svg" viewBox="0 0 143.982 130.871"><defs><style>.a{fill:#06b9ff;}</style></defs><title>icon-muac-blue</title><path class="a" d="M71.99,68.385a1.824,1.824,0,0,1-.907-.242C42.771,51.871,28.414,36.938,28.414,23.758a1.823,1.823,0,0,1,3.647,0c0,11.613,14.122,25.868,40.841,41.222a1.824,1.824,0,0,1-.912,3.4Z"/><path class="a" d="M115.888,130.871a1.815,1.815,0,0,1-.662-.125,266.31,266.31,0,0,1-44.241-23.3A1.824,1.824,0,0,1,73,104.4a264.828,264.828,0,0,0,42.358,22.461L139.06,99.2c-5.855-2.159-21.311-8.037-38.671-16.06a1.823,1.823,0,0,1,1.529-3.31c21.857,10.1,40.66,16.771,40.848,16.838a1.822,1.822,0,0,1,.776,2.9l-26.27,30.659A1.82,1.82,0,0,1,115.888,130.871Z"/><path class="a" d="M42.83,83.312a1.817,1.817,0,0,1-1.36-.61C29.962,69.788,24.129,56.6,24.129,43.5,24.129,11.393,49.912,0,71.992,0a1.823,1.823,0,0,1,0,3.647c-21.375,0-44.217,10.469-44.217,39.853,0,12.177,5.522,24.55,16.415,36.776a1.823,1.823,0,0,1-1.36,3.037Z"/><path class="a" d="M28.1,130.871a1.82,1.82,0,0,1-1.384-.637L.439,99.574a1.822,1.822,0,0,1,.776-2.9C1.4,96.6,20.206,89.933,42.063,79.832a1.823,1.823,0,0,1,1.529,3.31c-17.36,8.025-32.816,13.9-38.671,16.06l23.7,27.663C39.2,122.49,116.207,89.057,116.207,43.5c0-29.384-22.84-39.853-44.214-39.853a1.823,1.823,0,0,1,0-3.647c22.078,0,47.861,11.393,47.861,43.5,0,21.285-15.829,43.147-45.774,63.226a266.041,266.041,0,0,1-45.321,24.021A1.815,1.815,0,0,1,28.1,130.871Z"/><path class="a" d="M42.828,83.31a1.823,1.823,0,0,1-.764-3.478C87.111,59.013,111.921,39.1,111.921,23.758a1.823,1.823,0,0,1,3.647,0c0,21.59-39.141,44.21-71.976,59.383A1.805,1.805,0,0,1,42.828,83.31Z"/><path class="a" d="M106.342,42.26a1.82,1.82,0,0,1-1.688-1.135c-.052-.121-5.983-13.35-32.738-13.35S39.387,40.989,39.333,41.123a1.824,1.824,0,0,1-3.386-1.359c.254-.639,6.553-15.635,35.969-15.635s35.855,14.982,36.114,15.62a1.824,1.824,0,0,1-1.688,2.512Z"/><rect class="a" x="70.093" y="1.967" width="3.647" height="15.21"/><rect class="a" x="87.64" y="4.161" width="3.647" height="15.21"/><rect class="a" x="100.8" y="10.741" width="3.647" height="15.211"/><rect class="a" x="39.383" y="10.741" width="3.647" height="15.211"/><rect class="a" x="52.543" y="4.161" width="3.647" height="15.21"/><rect class="a" x="112.929" y="99.698" width="20.506" height="3.645" transform="translate(-34.058 129.012) rotate(-49.411)"/><rect class="a" x="99.358" y="92.822" width="18.699" height="3.645" transform="translate(-33.894 115.618) rotate(-49.411)"/><polygon class="a" points="52.949 68.174 50.138 65.849 56.779 57.634 61.358 57.999 52.949 68.174"/><rect class="a" x="38.395" y="53.306" width="12.833" height="3.645" transform="translate(-26.209 53.29) rotate(-49.411)"/><rect class="a" x="31.886" y="45.462" width="8.666" height="3.645" transform="translate(-23.254 44.024) rotate(-49.411)"/><rect class="a" x="22.295" y="88.431" width="3.645" height="28.069" transform="translate(-60.87 40.353) rotate(-40.594)"/><rect class="a" x="38.931" y="82.187" width="3.645" height="25.269" transform="translate(-51.89 49.334) rotate(-40.591)"/><rect class="a" x="53.221" y="75.924" width="3.647" height="22.172" transform="translate(-43.388 56.817) rotate(-40.629)"/><rect class="a" x="69.288" y="69.934" width="3.646" height="17.899" transform="translate(-34.038 63.945) rotate(-39.88)"/><rect class="a" x="83.567" y="61.591" width="3.645" height="14.135" transform="translate(-24.126 72.084) rotate(-40.593)"/><rect class="a" x="94.637" y="52.78" width="3.645" height="14.447" transform="translate(-15.832 77.194) rotate(-40.588)"/><rect class="a" x="103.777" y="44.682" width="3.645" height="8.834" transform="translate(-6.536 80.524) rotate(-40.591)"/></svg>