<svg fill="none" height="92" viewBox="0 0 92 92" width="92" xmlns="http://www.w3.org/2000/svg"><g fill="#06b9ff"><path d="m46.35 18c-15.6347 0-28.35 12.7153-28.35 28.35 0 15.6346 12.7153 28.35 28.35 28.35 15.6346 0 28.35-12.7154 28.35-28.35 0-15.6347-12.7154-28.35-28.35-28.35zm0 55.4025c-14.9211 0-27.0525-12.1315-27.0525-27.0525 0-14.9211 12.1314-27.0525 27.0525-27.0525 14.921 0 27.0525 12.1314 27.0525 27.0525 0 14.921-12.1315 27.0525-27.0525 27.0525z"/><path d="m46.35 20.582c-14.2074 0-25.768 11.5606-25.768 25.768s11.5606 25.768 25.768 25.768 25.768-11.5606 25.768-25.768-11.5606-25.768-25.768-25.768zm20.87 26.4168h3.5876c-.3439 12.884-10.9248 23.4649-23.8088 23.8088v-3.5876c0-.1816-.1428-.3244-.3244-.3244h-.6487c-.1817 0-.3244.1428-.3244.3244v3.5876c-12.884-.3439-23.465-10.9248-23.8088-23.8088h3.5875c.1817 0 .3244-.1428.3244-.3244v-.6487c0-.1817-.1427-.3244-.3244-.3244h-3.5875c.3438-12.884 10.9248-23.465 23.8088-23.8088v3.5875c0 .1817.1427.3244.3244.3244h.6487c.1816 0 .3244-.1427.3244-.3244v-3.5875c12.884.3438 23.4649 10.9248 23.8088 23.8088h-3.5876c-.1816 0-.3244.1427-.3244.3244v.6487c0 .1816.1428.3244.3244.3244z"/><path d="m49.5095 43.6252c.013-.0519.0195-.1038.0065-.1557-.0195-.0973-.0778-.1817-.1622-.2271l-.2335-.1232-.1622-.2076c-.0584-.0779-.1492-.1233-.2465-.1233-.0584-.0065-.1038.013-.1493.0324l-16.1082-8.6088c-.1362-.0713-.2984-.0389-.4022.0779-.0973.1168-.1038.2854-.0065.4087l11.1454 14.3761c-.013.0519-.0195.1038-.0065.1557.0194.0973.0778.1816.1622.2271l.2335.1232.1622.2076c.0584.0779.1492.1233.2465.1233.0454 0 .1038-.013.1492-.0325l16.1083 8.6153c.0454.026.1038.0389.1557.0389.0908 0 .1816-.0389.2465-.1167.0973-.1168.1038-.2855.0065-.4087zm-5.4754 4.4244-8.1741-10.5421 11.8071 6.3123zm.9926.8369 3.6394-4.2298 8.1742 10.542z"/></g></svg>