<svg xmlns="http://www.w3.org/2000/svg" viewBox="0 0 37.005 54.399"><defs><style>.a,.b{fill:none;stroke:#fff;stroke-width:1.5px;}.a{stroke-miterlimit:10;}.b{stroke-linecap:round;stroke-linejoin:round;}</style></defs><title>icon-baby-grey</title><circle class="a" cx="18.558" cy="9.838" r="9.088"/><path class="b" d="M25.558,34.232c0,4.491-2.509,8.131-7,8.131S11.5,38.723,11.5,34.232Z"/><path class="b" d="M10.371,19.937,1.324,30.532A2.4,2.4,0,0,0,1.582,33.9h0a2.4,2.4,0,0,0,3.372-.258L11.622,26.1l-.12,7.653"/><path class="b" d="M10.829,37.072,6.956,40.406c-1.074,1-1.074,2.914-.025,4.6l4.015,7.249a2.4,2.4,0,0,0,3.172,1.173h0a2.4,2.4,0,0,0,1.173-3.172l-2.713-5.982,2.87-1.913"/><path class="b" d="M26.634,19.937l9.047,10.594a2.4,2.4,0,0,1-.258,3.372h0a2.4,2.4,0,0,1-3.372-.258L25.383,26.1l.175,7.653"/><path class="b" d="M26.177,37.072l3.872,3.334c1.074,1,1.074,2.914.025,4.6l-4.015,7.249a2.4,2.4,0,0,1-3.172,1.173h0a2.4,2.4,0,0,1-1.173-3.172l2.713-5.982-2.87-1.913"/></svg>