<svg viewBox="0 0 56.22 40.599" xmlns="http://www.w3.org/2000/svg"><g fill="#fff"><path d="m55.46 40.6h-54.7a.76.76 0 0 1 -.76-.76v-31.995a.76.76 0 0 1 .76-.76h54.7a.76.76 0 0 1 .76.76v31.994a.76.76 0 0 1 -.76.761zm-53.94-1.521h53.18v-30.479h-53.18z"/><path d="m40.2 8.34-2.562-6.82h-19.058l-2.556 6.82-1.424-.533 2.743-7.314a.759.759 0 0 1 .711-.493h20.111a.759.759 0 0 1 .711.493l2.743 7.313z"/><path d="m28.109 35.256a11.115 11.115 0 1 1 11.115-11.115 11.127 11.127 0 0 1 -11.115 11.115zm0-20.71a9.595 9.595 0 1 0 9.6 9.595 9.606 9.606 0 0 0 -9.6-9.595z"/></g></svg>