<svg xmlns="http://www.w3.org/2000/svg" viewBox="0 0 92 92"><defs><style>.cls-1{fill:gray;}</style></defs><title>breastexam</title><g id="Content"><path class="cls-1" d="M44,76.19a.76.76,0,0,1-.54-.23c-.8-.83,0-4.88,0-4.92.44-2.32,1.46-5.31,3.79-6.36.57-.26,1.29-.52,2.12-.82C53.84,62.23,61.4,59.51,63,50a24,24,0,0,0,.38-4.35.74.74,0,0,1,.73-.76.72.72,0,0,1,.77.74,25.17,25.17,0,0,1-.4,4.62c-1.75,10.37-10.15,13.39-14.66,15-.8.29-1.49.54-2,.77-3,1.37-3.42,8.06-3.19,9a.76.76,0,0,1-.13.92A.75.75,0,0,1,44,76.19Zm.54-1.27Z"/><path class="cls-1" d="M63.05,41.21a.73.73,0,0,1-.67-.42C61.55,39.13,59,36.45,54.67,32c-3.76-3.89-8.9-9.21-15.56-16.62a.75.75,0,0,1,1.12-1C46.87,21.78,52,27.09,55.75,31c4.54,4.7,7,7.29,8,9.16a.74.74,0,0,1-.34,1A.64.64,0,0,1,63.05,41.21Z"/><path class="cls-1" d="M43.15,65.35a.66.66,0,0,1-.23,0c-10.4-3.4-11.82-13.68-11.84-13.78a.75.75,0,1,1,1.49-.19A16,16,0,0,0,43.39,63.88a.77.77,0,0,1,.48.95A.76.76,0,0,1,43.15,65.35Z"/><path class="cls-1" d="M63.75,50.89a.73.73,0,0,1-.44-.15c-5.37-4-4.71-10.76-4-13.05.18-.57.42-1.19,1-1.21h0a.75.75,0,0,1,.75.72.77.77,0,0,1-.25.6c-.4.87-2,7.83,3.33,11.73a.75.75,0,0,1-.45,1.36ZM60.4,38Zm0,0Z"/><path class="cls-1" d="M64.35,46.6l-.22-.1c-1.77-.82-1.87-4.74-1.86-5.92v-.75H63c1.24,0,3.63.71,3.73,3.19s-1.38,3.36-2.18,3.52Zm-.56-5.14a8.22,8.22,0,0,0,.76,3.5,1.93,1.93,0,0,0,.73-1.87A1.77,1.77,0,0,0,63.79,41.46Z"/></g></svg>