<svg width="47" height="47" viewBox="0 0 47 47" fill="none" xmlns="http://www.w3.org/2000/svg">
<path d="M32.8476 0H4.00581C2.94379 0.00127209 1.92564 0.423707 1.17468 1.17464C0.42372 1.92558 0.00127213 2.9437 0 4.00568V8.01137C0 8.43632 0.168816 8.84386 0.46931 9.14435C0.769804 9.44483 1.17736 9.61364 1.60232 9.61364H2.43794L2.82169 18.455V18.4614L3.23349 27.9148L3.55395 35.2853C3.5536 35.2901 3.5536 35.2949 3.55395 35.2997L3.87842 42.7607C3.93864 43.776 4.3892 44.7287 5.13581 45.4195C5.88243 46.1102 6.86725 46.4855 7.88423 46.4667H28.97C29.987 46.4855 30.9718 46.1102 31.7184 45.4195C32.4651 44.7287 32.9156 43.776 32.9758 42.7607L34.0334 18.4614V18.4558L34.4155 9.61364H35.2511C35.6761 9.61364 36.0836 9.44483 36.3841 9.14435C36.6846 8.84386 36.8534 8.43632 36.8534 8.01137V4.00568C36.8522 2.9437 36.4297 1.92558 35.6788 1.17464C34.9278 0.423707 33.9097 0.00127209 32.8476 0ZM4.00581 1.60227H32.8476C33.4851 1.60227 34.0964 1.85549 34.5472 2.30622C34.9979 2.75694 35.2511 3.36826 35.2511 4.00568V4.80682H33.6488V3.20455C33.6488 2.99207 33.5644 2.7883 33.4141 2.63806C33.2639 2.48782 33.0601 2.40341 32.8476 2.40341C32.6352 2.40341 32.4314 2.48782 32.2811 2.63806C32.1309 2.7883 32.0465 2.99207 32.0465 3.20455V4.80682H28.8418V3.20455C28.8418 2.99207 28.7574 2.7883 28.6072 2.63806C28.4569 2.48782 28.2531 2.40341 28.0407 2.40341C27.8282 2.40341 27.6244 2.48782 27.4742 2.63806C27.3239 2.7883 27.2395 2.99207 27.2395 3.20455V4.80682H24.0349V3.20455C24.0349 2.99207 23.9504 2.7883 23.8002 2.63806C23.65 2.48782 23.4462 2.40341 23.2337 2.40341C23.0212 2.40341 22.8174 2.48782 22.6672 2.63806C22.5169 2.7883 22.4325 2.99207 22.4325 3.20455V4.80682H19.2279V3.20455C19.2279 2.99207 19.1435 2.7883 18.9932 2.63806C18.843 2.48782 18.6392 2.40341 18.4267 2.40341C18.2142 2.40341 18.0105 2.48782 17.8602 2.63806C17.71 2.7883 17.6256 2.99207 17.6256 3.20455V4.80682H14.4209V3.20455C14.4209 2.99207 14.3365 2.7883 14.1863 2.63806C14.036 2.48782 13.8322 2.40341 13.6198 2.40341C13.4073 2.40341 13.2035 2.48782 13.0532 2.63806C12.903 2.7883 12.8186 2.99207 12.8186 3.20455V4.80682H9.61394V3.20455C9.61394 2.99207 9.52953 2.7883 9.37929 2.63806C9.22904 2.48782 9.02526 2.40341 8.81278 2.40341C8.6003 2.40341 8.39652 2.48782 8.24627 2.63806C8.09603 2.7883 8.01162 2.99207 8.01162 3.20455V4.80682H4.80697V3.20455C4.80697 2.99207 4.72256 2.7883 4.57232 2.63806C4.42207 2.48782 4.21829 2.40341 4.00581 2.40341C3.79333 2.40341 3.58955 2.48782 3.4393 2.63806C3.28906 2.7883 3.20465 2.99207 3.20465 3.20455V4.80682H1.60232V4.00568C1.60232 3.36826 1.85555 2.75694 2.30629 2.30622C2.75703 1.85549 3.36837 1.60227 4.00581 1.60227ZM5.04732 32.8258H12.0174C12.2299 32.8258 12.4337 32.7414 12.5839 32.5911C12.7342 32.4409 12.8186 32.2371 12.8186 32.0246C12.8186 31.8122 12.7342 31.6084 12.5839 31.4581C12.4337 31.3079 12.2299 31.2235 12.0174 31.2235H4.98082L4.91112 29.6212H12.0174C12.2299 29.6212 12.4337 29.5368 12.5839 29.3866C12.7342 29.2363 12.8186 29.0326 12.8186 28.8201C12.8186 28.6076 12.7342 28.4038 12.5839 28.2536C12.4337 28.1034 12.2299 28.019 12.0174 28.019H4.84142L4.77172 26.4167H12.0174C12.2299 26.4167 12.4337 26.3323 12.5839 26.182C12.7342 26.0318 12.8186 25.828 12.8186 25.6155C12.8186 25.4031 12.7342 25.1993 12.5839 25.0491C12.4337 24.8988 12.2299 24.8144 12.0174 24.8144H4.70202L4.63392 23.233H14.4209C14.6334 23.233 14.8372 23.3174 14.9874 23.4676C15.1377 23.6179 15.2221 23.8216 15.2221 24.0341V33.6477C15.2221 33.8602 15.1377 34.064 14.9874 34.2142C14.8372 34.3645 14.6334 34.4489 14.4209 34.4489H5.12103L5.04732 32.8258ZM28.97 44.8637H7.88343C7.27973 44.8811 6.69264 44.6646 6.24477 44.2595C5.7969 43.8543 5.52288 43.2918 5.47995 42.6894L5.19073 36.0512H14.4209C15.0584 36.0512 15.6697 35.7979 16.1204 35.3472C16.5712 34.8965 16.8244 34.2852 16.8244 33.6477V24.0341C16.8244 23.3967 16.5712 22.7854 16.1204 22.3346C15.6697 21.8839 15.0584 21.6307 14.4209 21.6307H4.56662L4.46247 19.2273H32.3942L31.3743 42.6894C31.3314 43.2919 31.0572 43.8546 30.6092 44.2597C30.1611 44.6649 29.5738 44.8813 28.97 44.8637ZM32.4639 17.625H4.38957L4.04106 9.61364H32.8124L32.4639 17.625ZM35.2511 8.01137H1.60232V6.40909H35.2511V8.01137Z" fill="white"/>
<path d="M45.6663 4.80664H39.257C39.0445 4.80664 38.8407 4.89105 38.6905 5.04129C38.5402 5.19153 38.4558 5.3953 38.4558 5.60778V45.6646C38.4558 45.8771 38.5402 46.0809 38.6905 46.2311C38.8407 46.3813 39.0445 46.4658 39.257 46.4658H45.6663C45.8788 46.4658 46.0825 46.3813 46.2328 46.2311C46.383 46.0809 46.4674 45.8771 46.4674 45.6646V5.60778C46.4674 5.3953 46.383 5.19153 46.2328 5.04129C46.0825 4.89105 45.8788 4.80664 45.6663 4.80664ZM44.8651 38.4544H40.0581V35.2498H44.8651V38.4544ZM44.8651 14.4203H40.0581V11.2157H44.8651V14.4203ZM44.8651 17.6248H40.0581V16.0226H44.8651V17.6248ZM44.8651 22.4316H40.0581V19.2271H44.8651V22.4316ZM44.8651 25.6362H40.0581V24.0339H44.8651V25.6362ZM44.8651 30.443H40.0581V27.2385H44.8651V30.443ZM44.8651 33.6476H40.0581V32.0453H44.8651V33.6476ZM40.0581 6.40891H44.8651V9.61346H40.0581V6.40891ZM40.0581 44.8635V40.0567H44.8651V44.8635H40.0581Z" fill="white"/>
</svg>
