<svg fill="none" height="65" viewBox="0 0 71 65" width="71" xmlns="http://www.w3.org/2000/svg"><path d="m40.3161 0c-14.7869 0-27.1162 11.4386-29.6897 26.4798-8.30999 7.8044-11.78567 15.0737-9.52475 19.9719 1.57828 3.4185 5.69711 5.1384 11.55785 5.1384 1.0487 0 2.1688-.0713 3.3252-.1814 5.5006 8.0043 14.3567 13.2113 24.3322 13.2113 16.6472 0 30.1913-14.4945 30.1913-32.31 0-17.8154-13.5441-32.31-30.1921-32.31zm21.0588 11.7088c-2.1244.9682-4.5621 1.7797-7.2441 2.402-1.7856-5.09526-4.3023-9.10178-7.2507-11.52663 5.6666 1.43291 10.6877 4.67192 14.4948 9.12463zm-20.2956-9.90446c4.6098.48849 8.7665 5.37517 11.3909 12.66646-3.5357.6989-7.4053 1.0879-11.3909 1.1328zm-7.2622.76398c-2.9617 2.4363-5.4899 6.46923-7.2853 11.55398-2.6927-.6232-5.1387-1.4417-7.2729-2.4143 3.8203-4.46863 8.8652-7.71469 14.5582-9.13968zm5.6173-.75078v13.78336c-3.9658-.051-7.8083-.4409-11.3177-1.1362 2.5734-7.23326 6.6643-12.09793 11.3177-12.64716zm-27.6286 28.95306c.3117-6.6734 2.636-12.7853 6.3304-17.664 2.2799 1.0887 4.9257 1.9971 7.8437 2.6845-1.3644 4.4237-2.2 9.526-2.3332 14.9804h-11.8409zm13.8262 16.9221c-3.1795.9074-6.1691 1.5236-8.8767 1.8422-3.1055-4.8506-4.9379-10.7028-4.9807-17.0031h11.8548c.0197 5.4826.7427 10.6439 2.0026 15.1609zm-23.0557-2.0209c-1.726323-3.7389 1.21147-9.9371 7.6916-16.4626-.0913 1.021-.1423 2.0552-.1423 3.1008 0 6.4023 1.7567 12.3708 4.7702 17.3974-6.34111.4427-10.87199-.9004-12.3195-4.0356zm15.3173 5.5099c2.548-.3574 5.3065-.9577 8.2443-1.8079 1.7945 5.5952 4.4478 10.0471 7.62 12.663-6.3773-1.6116-11.9322-5.5152-15.8643-10.8551zm23.1857 11.6578v-7.1311c-.2837.3925-.6431.7261-1.0684.9655l-.5765.3248v5.7994c-4.859-.5941-9.1391-6.0459-11.6895-13.911.8883-.2782 1.7897-.5774 2.7051-.8987l.3627.7394c.1447.2939.4285.47.7278.47.0667 0 .1341-.0088.2015-.0264l2.0027-.5413 2.9304 5.9464c.148.2992.4326.4691.7287.4691.1291 0 .2599-.0326.3824-.1012l1.0758-.6056c.2689-.1514.4375-.4497.4392-.7754l.0255-6.4551c.6785-.2104 1.2912-.4727 1.9344-.8344l2.4525-1.381 2.7881 14.0668c.0535.2702.2229.4973.4557.6143.111.0555.2303.0837.3495.0837.1316 0 .2632-.0335.3833-.1013l3.3416-1.8826c.2393-.1347.4005-.3855.4334-.6742l1.9805-17.5875 2.9098-1.6389c.9943-.5598 2.1071-1.7304 2.9756-3.1307.6983-1.1249 1.4237-2.681.9179-3.7082-.5256-1.0676-2.1211-1.2921-3.3679-1.2921-1.251 0-3.0217.2438-4.2406.9313l-2.7717 1.5605-14.6684-8.2137c-.2393-.1338-.5255-.1338-.7648.0009l-3.3417 1.8817c-.2278.1286-.3865.3636-.4285.6355-.0427.2729.0379.5501.2155.7499l9.2559 10.4274-2.4526 1.3809c-.653.368-1.209.7667-1.7649 1.2569l-4.9265-3.5893c-.2509-.1831-.5766-.2024-.8447-.0528l-1.0766.6055c-.4021.2262-.5576.7579-.3462 1.1891l2.8884 5.8866-1.5519 1.4593c-.1727.1629-.2575.3899-.2673.6241-.8611.2992-1.7115.5791-2.5504.8396-1.2321-4.3788-1.9493-9.3949-1.969-14.6829h6.9456l-1.5627-1.7603h-5.3656c.1316-5.3541.9474-10.3464 2.2699-14.631 3.6822.749 7.7146 1.1697 11.8738 1.2225v5.9491l1.6449.9215v-6.8688c4.1813-.0467 8.245-.4674 11.9559-1.2199 1.0289 3.2918 1.7551 7.0052 2.0981 10.9774.5395-.0713 1.0906-.1127 1.6432-.1171-.3437-4.0628-1.0683-7.8484-2.0997-11.2221 2.9082-.6865 5.5516-1.5887 7.8215-2.6713 3.6937 4.877 6.0171 10.988 6.328 17.6597h-6.045c.1134.5545.1324 1.1398.0403 1.7603h6.0351c-.0502 7.4321-2.5932 14.2393-6.7762 19.515-2.1277-.9734-4.5892-1.8113-7.2968-2.4583l-.1973 1.7542c2.3258.5651 4.456 1.271 6.3287 2.0842-5.0358 5.6217-12.0514 9.1916-19.8375 9.4117zm.57-26.0767-8.8274-9.9441 1.9977-1.1249 13.2793 7.4365zm11.7577-4.6332c.7731-.4348 2.1705-.7279 3.4749-.7279 1.1185 0 1.7263.2174 1.8957.3485.0214.7948-1.6021 3.5726-3.1878 4.4642l-3.2873 1.8519c-.0017.0009-.0033.0009-.005.0018l-8.3873 4.7238c-.0008 0-.0008.0009-.0017.0009l-3.4131 1.9232c-.6506.367-1.2353.6055-1.9534.8009l-6.3262 1.7111-.2912-.8872 4.8015-4.5171c.5568-.5237 1.0725-.903 1.7238-1.2692zm-1.7304 8.2771-1.793 15.9231-1.9985 1.1248-2.6582-13.4164zm-13.9965 7.1584-.0205 5.2317-2.2733-4.6112zm-4.7965-4.4713-2.233-4.5504 3.984 2.9027z" fill="#fff"/></svg>