<svg fill="none" height="50" viewBox="0 0 37 50" width="37" xmlns="http://www.w3.org/2000/svg" xmlns:xlink="http://www.w3.org/1999/xlink"><mask id="a" fill="#fff"><path d="m32.5477 9.27653c-1.4669.89667-3.0977 1.49207-4.7973 1.75147-.0228.0049-.0433.0175-.058.0356-.0147.0182-.0227.0409-.0227.0642 0 .0234.008.046.0227.0642s.0352.0307.058.0356c1.8616.4767 3.8297.3097 5.5844-.4738.104-.0469.1974-.1146.2744-.1989.0769-.0844.1357-.1836.1729-.2916.0371-.1079.0518-.2223.043-.33614-.0087-.11383-.0407-.2247-.0939-.32571s-.1265-.19005-.2154-.26166-.1915-.12421-.3016-.15467c-.11-.03045-.2251-.0381-.3382-.02239-.113.0157-.2217.05439-.3193.11367z" fill="#fff"/></mask><mask id="b" fill="#fff"><path d="m23.184 30.5236c.0653.0605.144.1047.2296.1291.0856.0245.1758.0284.2632.0116.0874-.0169.1697-.054.2401-.1085.0704-.0544.127-.1248.1653-.2052l3.5721-7.455c.4395-.9086 1.2213-1.6059 2.1739-1.9393.9527-.3334 1.9986-.2756 2.9087.1607.9102.4362 1.6103 1.2154 1.9471 2.1669.3368.9514.2828 1.9976-.1502 2.9093l-6.5491 13.6608c-.2224.4639-.5439.8732-.9419 1.1991-.398.326-.8627.5605-1.3612.6872-.4986.1267-1.0188.1423-1.5241.0458-.5053-.0964-.9832-.3026-1.4001-.604l-2.1989-1.5913c-.0782-.0566-.1697-.0923-.2656-.1037s-.1931.0018-.2825.0385c-.0894.0366-.1679.0956-.2282.171-.0603.0755-.1003.165-.1163.2603l-1.52 9.0654c-.0458.2735-.1872.5218-.399.7008s-.4802.2772-.7575.2769h-15.81676c-.17031.0002-.338623-.0368-.493195-.1083-.154573-.0716-.291689-.1759-.40179-.3058-.110102-.13-.1905403-.2824-.2357102-.4466-.04516992-.1642-.0539844-.3362-.0258283-.5042l3.8090235-22.7198c.27048-1.6126 1.0491-3.0967 2.2223-4.2357s2.67962-1.8733 4.29956-2.0959c1.6199-.2227 3.2686.0781 4.7056.8583 1.4369.7802 2.5871 1.9992 3.2826 3.479 1.1717 2.495 2.8187 4.7377 4.8488 6.6024z" fill="#fff"/></mask><g stroke="#808080" stroke-width="1.5"><path d="m33.462 6.74994c0 .02299-.0092.04505-.0255.06135-.0163.01639-.0385.0255-.0614.0255-.0228 0-.045-.00911-.0613-.0255-.0163-.01629-.0255-.03835-.0255-.06135s.0092-.04506.0255-.06136c.0163-.01639.0385-.02549.0613-.02549.0229 0 .0451.0091.0614.02549.0163.0163.0255.03836.0255.06136z"/><path d="m35.9165 12.4632-.0001.0083.0001.0084c.0001.0114-.002.0227-.0063.0333-.0044.0108-.0108.0204-.0188.0285-.0079.0081-.0175.0146-.0282.019-.0105.0044-.0218.0067-.0334.0067-.0115 0-.0229-.0023-.0334-.0067-.0107-.0044-.0202-.0109-.0282-.019-.008-.0081-.0144-.0178-.0187-.0285l-.6834.2764.6834-.2764c-.0043-.0106-.0065-.0219-.0063-.0333l.0001-.0084-.0001-.0083c-.0002-.0116.002-.023.0063-.0336.0043-.0107.0107-.0203.0187-.0284s.0175-.0146.0282-.019c.0105-.0044.0219-.0067.0334-.0067.0116 0 .0229.0023.0334.0067.0107.0044.0203.0109.0282.019.008.008.0144.0177.0188.0284.0042.0106.0064.022.0063.0336z"/><path d="m26.3982 18.0161c.0162.0162.0254.0383.0254.0615 0 .023-.0091.045-.0254.0613-.0162.0162-.0382.0254-.0614.0254s-.0452-.0092-.0614-.0254c-.0163-.0163-.0254-.0383-.0254-.0613 0-.0232.0092-.0453.0254-.0615s.0382-.0254.0614-.0254.0452.0092.0614.0254z"/><path d="m24.4614 8.55884v.00724c.0049 1.02368-.1924 2.03822-.5807 2.98542-.3884.9472-.96 1.8082-1.6821 2.5338s-1.5805 1.3015-2.5258 1.6943c-.9453.3929-1.9589.5952-2.9826.5952s-2.0373-.2023-2.9826-.5952c-.9453-.3928-1.8036-.9687-2.5257-1.6943-.7222-.7256-1.29379-1.5866-1.68211-2.5338-.38833-.9472-.58569-1.96174-.58075-2.98542h.00003l-.00003-.00724c-.00494-1.02368.19242-2.03823.58075-2.98542s.96001-1.80836 1.68211-2.53395c.7221-.72562 1.5804-1.30144 2.5257-1.69432.9453-.392892 1.9589-.59515 2.9826-.59515s2.0373.202258 2.9826.59515c.9453.39288 1.8037.9687 2.5258 1.69432.7221.72559 1.2937 1.58676 1.6821 2.53395.3883.94719.5856 1.96174.5807 2.98542z"/><path d="m29.8538 18.0138.0084.0123c.0022.0053.0039.0107.005.0163.002.0107.0018.0217-.0006.0323l.0336.0075-.0336-.0075c-.0024.0106-.0069.0207-.0132.0294-.0064.0087-.0145.0161-.0238.0217-.0092.0055-.0196.0091-.0305.0105s-.0219.0006-.0321-.0023c-.0105-.003-.0202-.0081-.0286-.015-.0084-.0068-.0153-.0153-.0203-.025l-.6655.3458.6661-.3446c-.1667-.3222-.3396-.641-.5186-.9563.2308.2808.449.5727.6537.8749z"/></g><path d="m32.5477 9.27653-.0218-1.49984-.4103.00597-.3502.21404zm-4.7973 1.75147-.2263-1.4828-.0438.00667-.0432.00924zm-.0807.0998h1.5zm.0807.0998.3721-1.4531-.0293-.00749-.0295-.00631zm5.5844-.4738.6115 1.3697.0047-.0022zm-.7781-1.4774.0218 1.4998.4083-.0059.3489-.212zm-.7913-1.2797c-1.2969.79274-2.7387 1.31916-4.2413 1.5485l.4526 2.9657c1.8966-.2895 3.7164-.9539 5.3533-1.9545zm-4.3283 1.56441c-.3592.07672-.6805.27439-.9109.55909l2.3324 1.8869c-.201.2484-.4814.4209-.7949.4878zm-.9109.55909c-.2307.2852-.3565.6409-.3565 1.0076h3c0 .32-.1098.6304-.3111.8793zm-.3565 1.0076c0 .3667.1258.7224.3565 1.0076l2.3324-1.8868c.2013.2488.3111.5592.3111.8792zm.3565 1.0076c.2304.2847.5517.4824.9109.5591l.6266-2.9338c.3135.06696.5939.2395.7949.4879zm.8521.5453c2.1895.5607 4.5043.3642 6.568-.5572l-1.2231-2.73938c-1.4456.64548-3.0671.78308-4.6007.39038zm6.5727-.5594c.2905-.1309.5514-.3199.7665-.5557l-2.2167-2.02149c.0612-.06711.1354-.12078.2177-.15787zm.7665-.5557c.2149-.2356.3792-.5128.483-.8143l-2.8368-.97595c.0294-.0856.0761-.16429.1371-.23124zm.483-.8143c.1037-.3015.1446-.6211.1202-.93905l-2.9912.22985c-.0069-.09034.0047-.18111.0342-.26675zm.1202-.93905c-.0244-.31787-.1136-.62749-.2623-.90972l-2.6544 1.39787c-.0422-.0802-.0676-.1681-.0745-.2583zm-.2623-.90972c-.1486-.28222-.3534-.53094-.6017-.73093l-1.8818 2.3364c-.0705-.0568-.1287-.1274-.1709-.2076zm-.6017-.73093c-.2487-.2003-.5354-.34717-.8423-.43212l-.8003 2.89132c-.0869-.0241-.1683-.0657-.2392-.1228zm-.8423-.43212c-.307-.08498-.6285-.1064-.9447-.06249l.4127 2.97151c-.09.0125-.1813.0063-.2683-.0177zm-.9447-.06249c-.3159.04387-.6194.15193-.8919.31752l1.5579 2.56379c-.0774.047-.1636.0777-.2533.0902zm-.1348.09957-.009.00013.0436 2.99971.009-.0002z" fill="#808080" mask="url(#a)"/><path d="m27.841 12.4922h.0001m-.0001 0h.0001m-.0001 0 .001-.0005-.0008.0004m-.0002.0001.0002-.0001m-.0001.0001.0001-.0001m-.0001.0001.0001-.0001m5.8485 3.0109c.4426.3355.8634.7027 1.2588 1.1001l.0089.0089.0093.0087c.0052.0049.0095.0109.0124.0177.003.0067.0045.0138.0045.021 0 .0073-.0014.0146-.0042.0213l.691.2914-.691-.2914c-.0028.0066-.0069.0126-.0123.0178-.0052.005-.0114.0089-.0182.0115-.0069.0026-.0142.0038-.0214.0034-.0075-.0003-.0146-.0021-.0209-.0052l-.3259.6755.3259-.6755c-.0066-.0031-.0124-.0076-.0172-.0131l-.0078-.0089-.0081-.0087c-.3787-.4085-.7737-.8003-1.1838-1.1745z" stroke="#808080" stroke-width="1.5"/><path d="m23.184 30.5236h-1.5v.6559l.4814.4453zm.8982-.173-1.3528-.6482-.0018.004zm3.5721-7.455-1.3503-.6533-.0024.0051zm6.8795 3.2976 1.3526.6485.0024-.005zm-6.5491 13.6608 1.3525.6487.0001-.0002zm-5.2273 1.3281-.8794 1.2152.0005.0004zm-2.1989-1.5913.8794-1.2152-.0003-.0002zm-.8926.3661-1.4793-.2483v.0002zm-1.52 9.0654-1.4793-.248-.0001.0001zm-1.1565.9777.0017-1.5h-.0017zm-15.81676 0v-1.5h-.00169zm-1.1565235-1.3649-1.4793565-.248zm3.8090235-22.7198-1.47933-.2481-.00002.0001zm14.51006-1.9943 1.3577-.6376-.0002-.0004zm4.8488 6.6024h1.5v-.659l-.4853-.4457zm-1.0186 1.1014c.2381.2202.5247.3813.8364.4703l.8236-2.8847c.1406.0401.2697.1127.3771.2121zm.8364.4703c.3124.0892.6408.1033.9586.0421l-.5672-2.9459c.143-.0275.2911-.0212.4322.0191zm.9586.0421c.318-.0612.6176-.1963.8745-.395l-1.836-2.3727c.116-.0897.2512-.1506.3943-.1782zm.8745-.395c.2567-.1987.4628-.4548.6019-.7474l-2.7092-1.2884c.0626-.1317.1554-.2472.2713-.3369zm.6-.7434 3.5721-7.455-2.7054-1.2964-3.5722 7.455zm3.5697-7.45c.2667-.5513.741-.9744 1.3191-1.1767l-.9909-2.8316c-1.3273.4644-2.4164 1.436-3.0288 2.7019zm1.3191-1.1767c.578-.2023 1.2126-.1672 1.7649.0975l1.2967-2.7053c-1.268-.6078-2.7253-.6883-4.0525-.2238zm1.7649.0975c.5522.2647.977.7375 1.1814 1.3148l2.828-1.0011c-.4692-1.3255-1.4447-2.4111-2.7127-3.019zm1.1814 1.3148c.2043.5773.1716 1.2121-.0911 1.7653l2.7099 1.287c.6032-1.2702.6785-2.7278.2092-4.0534zm-.0888 1.7604-6.549 13.6608 2.7051 1.2969 6.5491-13.6608zm-6.549 13.6606c-.1275.2659-.3118.5005-.5398.6872l1.9008 2.321c.5679-.4651 1.0267-1.0492 1.344-1.7109zm-.5398.6872c-.2281.1868-.4944.3213-.7802.3939l.7387 2.9076c.7114-.1807 1.3744-.5154 1.9423-.9805zm-.7802.3939c-.2856.0726-.5838.0815-.8735.0262l-.5625 2.9468c.7209.1376 1.4633.1154 2.1747-.0654zm-.8735.0262c-.2896-.0553-.5636-.1734-.8024-.3461l-1.7578 2.4311c.5949.4301 1.2769.7242 1.9977.8618zm-.8019-.3457-2.1989-1.5914-1.7588 2.4304 2.1989 1.5913zm-2.1992-1.5916c-.2851-.2062-.6181-.3362-.9673-.3778l-.3547 2.979c-.1574-.0188-.3075-.0774-.4362-.1704zm-.9673-.3778c-.3497-.0416-.7039.0068-1.0291.1402l1.1383 2.7756c-.1464.0601-.3061.082-.4639.0632zm-1.0291.1402c-.326.1337-.6119.3483-.8311.6227l2.3442 1.8722c-.0987.1235-.2275.2203-.3748.2807zm-.8311.6227c-.2192.2745-.3652.6007-.4235.9481l2.9586.4965c-.0263.1569-.0923.3041-.1909.4276zm-.4235.9483-1.52 9.0655 2.9587.4961 1.52-9.0655zm-1.5201 9.0656c.0129-.077.0527-.1467.112-.1968l1.9368 2.291c.4828-.4081.8054-.9744.91-1.5983zm.112-.1968c.0593-.0501.1346-.0777.2126-.0776l-.0034 3c.6326.0007 1.2447-.2232 1.7276-.6314zm.2109-.0776h-15.81676v3h15.81676zm-15.81845 0c.04793-.0001.09515.0103.1384.0303l-1.259806 2.7227c.35239.163.736226.2474 1.124796.247zm.1384.0303c.04319.02.08172.0493.11274.0859l-2.288869 1.9393c.251223.2965.56398.5345.916323.6975zm.11274.0859c.03095.0365.05349.0793.06614.1253l-2.89257.7956c.10299.3744.28641.722.537561 1.0184zm.06614.1253c.01267.046.01515.0944.00725.1416l-2.95872-.496c-.06422.3831-.04411.7755.0589 1.15zm.00724.1416 3.80903-22.7198-2.95871-.496-3.80903 22.7198zm3.80901-22.7197c.2176-1.2973.844-2.4913 1.78781-3.4076l-2.0897-2.1524c-1.4026 1.3616-2.33343 3.1359-2.65678 5.0638zm1.78781-3.4076c.9438-.9162 2.15568-1.507 3.45891-1.6861l-.4085-2.9721c-1.93655.2662-3.7375 1.1441-5.14011 2.5058zm3.45891-1.6861c1.3032-.1791 2.6296.0628 3.7856.6905l1.4315-2.6364c-1.7179-.9328-3.6889-1.2923-5.6256-1.0262zm3.7856.6905c1.156.6277 2.0813 1.6083 2.6408 2.7988l2.7151-1.276c-.8315-1.7692-2.2065-3.2264-3.9244-4.1592zm2.6406 2.7985c1.2547 2.6715 3.0182 5.0728 5.1919 7.0694l2.0294-2.2094c-1.8865-1.7328-3.417-3.8168-4.5058-6.1353zm4.7066 5.9647v.0002h3v-.0002z" fill="#808080" mask="url(#b)"/></svg>