<svg width="61" height="64" viewBox="0 0 61 64" fill="none" xmlns="http://www.w3.org/2000/svg">
<path d="M28.5028 20.2605C27.1623 19.6403 25.4059 18.561 23.8566 17.0601C21.8741 15.1396 20.2305 12.5286 20.2305 9.3055C20.2305 6.45179 22.5465 4.13574 25.4002 4.13574C26.639 4.13574 27.6909 4.68204 28.5368 5.50007C29.0624 6.00837 29.3251 6.26252 29.5343 6.26249C29.7434 6.26246 30.0066 6.00774 30.533 5.49833C31.3787 4.67988 32.4328 4.13574 33.6718 4.13574C36.5255 4.13574 38.8416 6.44145 38.8416 9.3055C38.8416 12.5316 37.2002 15.1412 35.2194 17.0601C33.6694 18.5618 31.9116 19.6405 30.57 20.2605C29.7042 20.6606 29.3684 20.661 28.5028 20.2605Z" stroke="#808080" stroke-width="1.75" stroke-linecap="round" stroke-linejoin="round"/>
<path d="M12.7871 22C16.6888 22 19.8523 25.1628 19.8525 29.0645C19.8525 32.9662 16.6889 36.1299 12.7871 36.1299C8.88549 36.1297 5.72266 32.9661 5.72266 29.0645C5.72285 25.163 8.88561 22.0002 12.7871 22Z" stroke="#808080" stroke-width="2"/>
<path d="M25.8148 52.0197C25.8148 45.1673 20.2598 39.6123 13.4074 39.6123C6.55499 39.6123 1 45.1673 1 52.0197" stroke="#808080" stroke-width="2" stroke-linecap="round"/>
<path d="M46.2871 22C50.1888 22 53.3523 25.1628 53.3525 29.0645C53.3525 32.9662 50.1889 36.1299 46.2871 36.1299C42.3855 36.1297 39.2227 32.9661 39.2227 29.0645C39.2229 25.163 42.3856 22.0002 46.2871 22Z" stroke="#808080" stroke-width="2"/>
<path d="M59.3148 52.0197C59.3148 45.1673 53.7598 39.6123 46.9074 39.6123C40.055 39.6123 34.5 45.1673 34.5 52.0197" stroke="#808080" stroke-width="2" stroke-linecap="round"/>
<path d="M29.3398 34.6475C31.9942 34.6476 34.1464 36.7995 34.1465 39.4541C34.1465 42.1088 31.9942 44.2606 29.3398 44.2607C26.6854 44.2607 24.5332 42.1088 24.5332 39.4541C24.5332 36.7994 26.6854 34.6475 29.3398 34.6475Z" stroke="#808080" stroke-width="2"/>
<path d="M38.7195 56.9822C38.7195 52.0485 34.7201 48.0488 29.7865 48.0488C24.853 48.0488 20.8535 52.0485 20.8535 56.9822" stroke="#808080" stroke-width="2" stroke-linecap="round"/>
</svg>
