<svg viewBox="0 0 48.89 54.162" xmlns="http://www.w3.org/2000/svg"><g fill="#fff"><path d="m11.458 9.975h10.705v1.504h-10.705z"/><path d="m11.458 43.458h10.705v1.504h-10.705z"/><path d="m11.458 35.087h10.705v1.504h-10.705z"/><path d="m11.458 18.346h10.705v1.504h-10.705z"/><path d="m11.458 26.717h10.705v1.504h-10.705z"/><path d="m22.163 54.162h-21.411a.752.752 0 0 1 -.752-.752v-51.882a.752.752 0 0 1 .752-.752h21.411a.752.752 0 0 1 .752.752v51.882a.752.752 0 0 1 -.752.752zm-20.663-1.505h19.911v-50.377h-19.911z"/><path d="m40.886 53.575a.752.752 0 0 1 -.752-.752v-51.583a.752.752 0 0 1 1.5 0v51.582a.752.752 0 0 1 -.748.753z"/><path d="m40.886 53.724a.755.755 0 0 1 -.562-.252l-7.254-8.158a.752.752 0 0 1 1.124-1l6.691 7.525 6.69-7.525a.752.752 0 0 1 1.124 1l-7.252 8.158a.755.755 0 0 1 -.561.252z"/><path d="m33.633 9.65a.752.752 0 0 1 -.563-1.25l7.253-8.16a.778.778 0 0 1 1.124 0l7.253 8.16a.752.752 0 0 1 -1.124 1l-6.69-7.525-6.691 7.525a.752.752 0 0 1 -.562.25z"/></g></svg>