<svg fill="none" height="75" viewBox="0 0 53 75" width="53" xmlns="http://www.w3.org/2000/svg"><path d="m1.93854 75h44.38526c.645 0 1.168-.5597 1.168-1.25v-17.0215c1.131-1.4129 4.6722-6.5472 4.6722-15.4785s-3.5412-14.0656-4.6722-15.4779v-4.5221c0-.6903-.523-1.25-1.168-1.25h-8.8606l7.3504-7.8662c.4562-.4877.4562-1.2793 0-1.7676l-.3422-.3662 2.6782-2.86621c.4563-.48828.4563-1.2793 0-1.76758l-4.6721-4.999999c-.4557-.488281-1.1954-.488281-1.6517 0l-2.6782 2.866209-.3422-.36621c-.4563-.48828-1.1954-.48828-1.6517 0l-18.6885 19.99999c-.4563.4883-.4563 1.2799 0 1.7676l.3422.3662-3.8463 4.1162c-.4563.4883-.4563 1.2799 0 1.7676l4.6721 5c.4563.4883 1.1954.4883 1.6517 0l3.8463-4.1162.3422.3662c.4562.4883 1.1959.4883 1.6516 0l2.9669-3.1751c2.5288 1.8067 5.9331 1.2085 7.789-1.369 1.5028.8429 7.1068 4.5947 7.1068 13.6603 0 8.2196-6.0774 12.8699-7.3447 13.75h-5.5036v-8.75c0-.6903-.523-1.25-1.1681-1.25h-21.02456c-.64504 0-1.16803.5597-1.16803 1.25v5c0 .6903.52299 1.25 1.16803 1.25h15.18446v2.5h-3.5041c-.6451 0-1.1681.5597-1.1681 1.25v8.75h-12.84833c-3.22407.0043-5.83617 2.8003-5.840162 6.25v2.5c0 .6903.522992 1.25 1.168032 1.25zm39.71316-71.98242 3.0204 3.23242-1.8524 1.98242-3.0205-3.23242zm-22.1927 30.21482-3.0204-3.2324 3.0204-3.2324 3.0205 3.2324zm12.8484-5.7324c-1.9351 0-3.5041-1.6791-3.5041-3.75s1.569-3.75 3.5041-3.75 3.5041 1.6791 3.5041 3.75c-.0023 2.0703-1.5695 3.7476-3.5041 3.75zm3.2155-8.9587c-2.3121-1.6425-5.3856-1.3135-7.3475.7867-1.9625 2.0996-2.2699 5.3888-.7352 7.8632l-2.141 2.2912-5.3565-5.7324 17.0368-18.23242 5.3566 5.73242zm2.5066 6.4587c.1574-.8246.1574-1.6748 0-2.5h7.1263v2.5zm8.2943 16.25c.1631-5.2325-1.8576-10.2716-5.5139-13.75h4.9852c2.7644 3.96 4.1868 8.8098 4.0328 13.75.154 4.9402-1.2684 9.79-4.0322 13.75h-5.3611c3.6968-3.4821 5.8373-8.4802 5.8892-13.75zm-36.209 8.75v-2.5h18.6885v2.5zm18.6885 2.5v8.75c0 .6903-.523 1.25-1.168 1.25-.6451 0-1.1681-.5597-1.1681-1.25v-8.75zm-7.0082 5h2.3361v3.75c0 2.0709 1.5689 3.75 3.5041 3.75 1.9351 0 3.5041-1.6791 3.5041-3.75v-3.75h14.0164v7.5h-23.3607zm-18.68853 13.75c.00229-2.0703 1.56955-3.7476 3.5041-3.75h38.54513v5h-42.04923z" fill="#fff"/></svg>