<svg viewBox="0 0 96 96" xmlns="http://www.w3.org/2000/svg"><g fill="#fff"><path d="m47 66.33a.75.75 0 0 0 -.48-1 16 16 0 0 1 -10.81-12.5.75.75 0 1 0 -1.49.19c0 .1 1.44 10.38 11.84 13.78a.59.59 0 0 0 .23 0 .75.75 0 0 0 .71-.47z"/><path d="m69.91 44.52a3.39 3.39 0 0 0 -3.19-3.14c-1-1.85-3.48-4.41-7.84-8.92-3.75-3.88-8.88-9.19-15.52-16.58a.76.76 0 0 0 -1.06-.06.75.75 0 0 0 0 1.06c6.6 7.42 11.75 12.73 15.5 16.62 2 2.07 3.61 3.74 4.87 5.12a4 4 0 0 0 -.23.57c-.68 2.23-1.31 8.73 3.62 12.73-1.76 9.15-9.15 11.83-13.61 13.44-.83.29-1.54.55-2.12.81-2.33 1.06-3.33 4.06-3.79 6.38 0 0-.76 4.08 0 4.9a.7.7 0 0 0 .54.23.77.77 0 0 0 .52-.21.74.74 0 0 0 .12-.91c-.23-1 .17-7.65 3.19-9 .52-.24 1.21-.49 2-.77 4.51-1.62 12.88-4.64 14.66-15s0 0 0 0a27 27 0 0 0 .43-3.79 3.25 3.25 0 0 0 1.91-3.48zm-6.1-4.61a13.89 13.89 0 0 1 1.6 2.2c0 1 .07 3.85 1.11 5.24a20.39 20.39 0 0 1 -.18 2.83c-3.52-3.44-2.98-8.44-2.53-10.27zm3.88 6.54a8 8 0 0 1 -.76-3.5 1.77 1.77 0 0 1 1.48 1.63 1.91 1.91 0 0 1 -.72 1.87z"/></g></svg>