<svg width="59" height="73" viewBox="0 0 59 73" fill="none" xmlns="http://www.w3.org/2000/svg">
<path d="M35.5217 55.7754C28.3184 59.7035 17.7489 59.4175 11.4847 49.22C11.4847 40.9162 15.855 37.1285 20.9538 34.652C25.0328 32.6708 24.612 27.9506 25.3242 24.7458C27.4144 15.3397 36.1821 14.7236 40.9119 16.005C41.4946 16.1628 42.3647 16.7334 42.66 17.0247C51.8973 26.1367 43.5795 51.3814 35.5217 55.7754Z" fill="#F0F0F0"/>
<path d="M5.65751 71.946C6.28879 68.0126 6.56073 59.6215 2.59825 57.5237C-2.35485 54.9015 5.22048 39.0224 11.4847 49.22M11.4847 49.22C17.7489 59.4175 28.3184 59.7035 35.5217 55.7754C43.5795 51.3814 51.8973 26.1367 42.66 17.0247C42.3647 16.7334 41.4946 16.1628 40.9119 16.005C36.1821 14.7236 27.4144 15.3397 25.3242 24.7458M11.4847 49.22C11.4847 40.9162 15.855 37.1285 20.9538 34.652C25.0328 32.6708 24.612 27.9506 25.3242 24.7458M25.3242 24.7458C22.7505 22.7549 18.9143 17.1704 19.934 8.13829L20.9538 1" stroke="white" stroke-width="1.5" stroke-linecap="round" stroke-linejoin="round"/>
<path d="M32.7797 33.2857L32.9153 38.6639H29.2542L30.7458 42.0252L26 43.5042L29.5254 46.7311L26.678 49.1513L30.2034 50.6303L27.2203 56.0084L33.1864 56.2773L33.7288 62.4622L38.4746 59.1008L40.3729 62.4622L42.5424 59.7731L46.2034 63L47.1525 58.1597L50.678 59.3697L50.2712 55.605L56.3729 55.3361L52.7119 50.2269L58 47.1345L52.7119 44.1765L54.8814 41.2185L51.0847 40.8151L52.0339 36.5126V36.2437L47.2881 37.3193L46.7458 34.0924L43.6271 35.5714L40.5085 31L37.7966 35.8403L32.7797 33.2857Z" fill="white" stroke="#808080" stroke-linecap="round" stroke-linejoin="round"/>
<circle cx="36.8667" cy="50.2148" r="1.36667" fill="white" stroke="#808080"/>
<circle cx="45.2668" cy="52.082" r="1.36667" fill="white" stroke="#808080"/>
<circle cx="41.0669" cy="42.7479" r="3.7" fill="white" stroke="#808080"/>
</svg>
