<svg width="42" height="52" viewBox="0 0 42 52" fill="none" xmlns="http://www.w3.org/2000/svg">
<path d="M16.0338 8.74282C16.0454 8.73982 15.9781 8.73748 15.9897 8.73409C16.0103 8.72823 18.2701 8.14742 20.5267 8.10717C22.7832 8.14742 24.7825 8.72823 24.8031 8.73409C24.8147 8.73748 24.9339 8.73982 24.9455 8.74282C26.706 5.56873 27.1535 1.9825 27.1339 1.79051C27.1346 1.7909 27.0662 1.74648 27.0667 1.747C26.7773 1.55409 26.5473 1.43504 26.4915 1.4043C26.4838 1.4 26.314 1.30634 26.3062 1.3023C24.6799 0.450818 22.6815 0.000521026 20.5267 0C18.3718 0.000521026 16.3734 0.450818 14.7472 1.3023C14.7394 1.30634 14.5695 1.4 14.5618 1.4043C14.5061 1.43504 14.276 1.55396 13.9866 1.747C13.9871 1.74648 13.8873 1.81122 13.888 1.81083C13.8685 2.00282 14.2733 5.56873 16.0338 8.74282Z" fill="white"/>
<path d="M40.4397 43.0953L40.4397 43.0952C35.8117 36.9719 32.2315 32.246 29.3547 28.4488L29.3547 28.4487L28.7299 27.6241C27.7523 26.3335 26.8692 25.1677 26.0678 24.1091L25.8305 23.7956L26.0792 23.4911C26.8896 22.4986 29.4482 19.3551 30.1531 18.3756C30.6159 17.726 31.1103 17.0258 31.3635 16.0465C31.6146 15.0753 31.638 13.7831 31.0531 11.9627L31.0523 11.9604C29.7453 7.82148 28.7726 5.15605 28.3645 4.09325L28.8313 3.91402L28.3645 4.09325C28.1577 3.55466 28.0265 3.26192 27.8316 3.01154C27.7354 2.88798 27.6175 2.7671 27.4539 2.63237C27.3808 3.05403 27.2677 3.60994 27.1046 4.24905C26.7591 5.60265 26.1843 7.34792 25.2764 8.98476L25.2764 8.98478C25.1187 9.26895 24.9513 9.5521 24.7709 9.83016L24.7709 9.83023C23.4963 11.7942 22.3404 13.54 20.9339 15.4988L20.5278 16.0644L20.1216 15.4988C18.7151 13.54 17.5592 11.794 16.2847 9.83024L16.2846 9.83016C16.1042 9.5521 15.9368 9.26895 15.7792 8.98478L15.7792 8.98476C14.8713 7.34792 14.2965 5.60265 13.951 4.24905C13.7878 3.60988 13.6748 3.05393 13.6016 2.63225C13.438 2.76699 13.32 2.88788 13.2239 3.01144C13.029 3.2618 12.8978 3.55453 12.6911 4.09318L12.6911 4.09325C12.283 5.15605 11.3103 7.82148 10.0032 11.9603L10.0025 11.9627C9.41757 13.7831 9.44103 15.0753 9.69213 16.0465C9.94528 17.0256 10.4395 17.7258 10.9021 18.3753C11.6068 19.3545 14.1658 22.4984 14.9762 23.4911L15.2248 23.7956L14.9875 24.1091C14.019 25.3887 12.931 26.825 11.7009 28.4487L11.3024 28.1468L11.7009 28.4488C8.82407 32.246 5.24397 36.972 0.615868 43.0953L0.615834 43.0953C0.460327 43.301 0.461415 43.5683 0.618983 43.7729L0.619063 43.773L6.07695 50.8636L6.07701 50.8637C6.20025 51.0239 6.40894 51.1297 6.64354 51.1299C6.64373 51.1299 6.64392 51.1299 6.64411 51.1299L6.64594 51.1297L6.65424 51.1296C6.893 51.1265 7.1022 51.0145 7.22175 50.8497L7.30125 50.74C8.06669 49.6841 14.1327 41.3159 20.1226 33.0336L20.5278 32.4734L20.9329 33.0336C24.2268 37.588 27.5434 42.1681 29.9892 45.5443C30.0411 45.4756 30.0972 45.4005 30.157 45.3198C30.4823 44.8806 30.9042 44.2919 31.3249 43.6983C31.9912 42.7582 32.6627 41.794 32.9175 41.4281C32.9813 41.3364 33.019 41.2823 33.0239 41.2756L33.0242 41.2751C33.3382 40.8423 33.8475 40.5913 34.3821 40.5825C34.3842 40.5824 34.3862 40.5824 34.3882 40.5824L34.3948 41.0823C34.4003 41.0821 34.4058 41.0821 34.4112 41.0821H34.4115C34.7931 41.0821 35.1518 41.2535 35.3748 41.5433L40.4397 43.0953ZM40.4397 43.0953C40.6278 43.344 40.6234 43.6736 40.4961 43.8389L40.496 43.8389L40.4892 43.8482L39.1673 45.6506L35.7711 41.2384L40.4397 43.0953Z" stroke="white"/>
<path d="M34.6086 40.9727C34.603 40.9727 34.5973 40.9727 34.5915 40.9729C34.1957 40.9781 33.6667 40.9727 33.339 41.5218C33.306 41.5772 32.1784 43.1503 29.9614 46.3567L29.9613 46.3568H39.2714L39.2713 46.3567L35.5922 41.4434C35.3645 41.1477 34.9982 40.9727 34.6086 40.9727Z" fill="white"/>
</svg>
