<svg xmlns="http://www.w3.org/2000/svg" viewBox="0 0 60.326 51.277"><defs><style>.a{fill:#fff;}</style></defs><title>icon-nutrition</title><path class="a" d="M46.453,51.277H13.874a.752.752,0,0,1-.752-.752V42.38h1.5v7.392H45.7V42.38h1.5v8.144A.752.752,0,0,1,46.453,51.277Z"/><path class="a" d="M30.163,48.11A30.2,30.2,0,0,1,0,17.947a.752.752,0,0,1,.752-.752H59.574a.752.752,0,0,1,.752.752A30.2,30.2,0,0,1,30.163,48.11ZM1.514,18.7a28.659,28.659,0,0,0,57.3,0Z"/><path class="a" d="M56.408,18.7H3.92a.753.753,0,0,1-.65-1.131A6.419,6.419,0,0,1,8.877,12.3,10.276,10.276,0,0,1,19.966,7.211,12.189,12.189,0,0,1,31.038,0a12.006,12.006,0,0,1,8.384,3.378,10.243,10.243,0,0,1,3.863-.754A10.387,10.387,0,0,1,53.66,12.959a6.454,6.454,0,0,1,3.392,4.6.753.753,0,0,1-.645,1.141Zm-51.5-1.5h50.51a4.937,4.937,0,0,0-2.817-3.07.751.751,0,0,1-.464-.726l.011-.185c0-.071.01-.142.01-.214a8.881,8.881,0,0,0-8.87-8.87,8.78,8.78,0,0,0-3.717.826.752.752,0,0,1-.86-.163A10.529,10.529,0,0,0,31.038,1.5,10.673,10.673,0,0,0,21.12,8.357a.756.756,0,0,1-.9.459,8.782,8.782,0,0,0-10.205,4.537.751.751,0,0,1-.636.409A4.919,4.919,0,0,0,4.906,17.194Z"/></svg>