<svg xmlns="http://www.w3.org/2000/svg" viewBox="0 0 146.226 124.291"><defs><style>.a{fill:#06b9ff;}</style></defs><title>icon-nutrition-blue</title><path class="a" d="M112.6,124.291H33.63a1.824,1.824,0,0,1-1.823-1.823V102.726h3.647v17.918h75.321V102.726h3.647v19.741A1.824,1.824,0,0,1,112.6,124.291Z"/><path class="a" d="M73.113,116.614A73.2,73.2,0,0,1,0,43.5a1.824,1.824,0,0,1,1.823-1.823H144.4a1.824,1.824,0,0,1,1.823,1.823A73.2,73.2,0,0,1,73.113,116.614ZM3.67,45.324a69.466,69.466,0,0,0,138.885,0Z"/><path class="a" d="M136.727,45.324H9.5a1.824,1.824,0,0,1-1.576-2.741A15.559,15.559,0,0,1,21.517,29.8,24.909,24.909,0,0,1,48.4,17.479,29.545,29.545,0,0,1,75.233,0,29.1,29.1,0,0,1,95.556,8.189a24.828,24.828,0,0,1,9.364-1.827A25.176,25.176,0,0,1,130.067,31.41a15.643,15.643,0,0,1,8.222,11.149,1.824,1.824,0,0,1-1.562,2.765ZM11.892,41.678H134.324a11.967,11.967,0,0,0-6.828-7.442,1.82,1.82,0,0,1-1.125-1.76l.026-.448c.012-.172.024-.344.024-.519a21.526,21.526,0,0,0-21.5-21.5,21.282,21.282,0,0,0-9.01,2,1.823,1.823,0,0,1-2.085-.394A25.52,25.52,0,0,0,75.233,3.647,25.87,25.87,0,0,0,51.192,20.258a1.832,1.832,0,0,1-2.177,1.113,21.287,21.287,0,0,0-24.737,11,1.82,1.82,0,0,1-1.541.992A11.924,11.924,0,0,0,11.892,41.678Z"/></svg>