<svg width="70" height="36" viewBox="0 0 70 36" fill="none" xmlns="http://www.w3.org/2000/svg">
<circle cx="11.8382" cy="7.89211" r="7.89211" fill="#ffffff"/>
<circle cx="57.8754" cy="7.89211" r="7.89211" fill="#ffffff"/>
<circle cx="34.8568" cy="14.4689" r="5.2614" fill="#ffffff"/>
<path d="M42.7507 31.2396C42.7507 35.7799 42.7507 32.8837 34.8586 32.8837C26.6376 32.8837 26.9665 35.7799 26.9665 31.2396C26.9665 26.6993 30.4999 23.0186 34.8586 23.0186C39.2173 23.0186 42.7507 26.6993 42.7507 31.2396Z" fill="#ffffff"/>
<path d="M23.3484 28.9377C23.3484 41.4336 23.3484 33.5415 11.5102 33.5415C-0.327899 33.5415 0.000910691 41.4336 0.000910691 28.9377C0.000910691 24.2158 1.6451 20.387 11.5102 20.3879C22.033 20.3879 23.3484 24.2158 23.3484 28.9377Z" fill="#ffffff"/>
<path d="M69.3857 28.9377C69.3857 41.4336 69.3857 33.5415 57.5475 33.5415C45.7094 33.5415 46.0382 41.4336 46.0382 28.9377C46.0382 24.2158 47.6824 20.387 57.5475 20.3879C68.0703 20.3879 69.3857 24.2158 69.3857 28.9377Z" fill="#ffffff"/>
</svg>
