<svg xmlns="http://www.w3.org/2000/svg" viewBox="0 0 96 96"><defs><style>.cls-1{fill:#fff;}</style></defs><title>corephysicalexam</title><g id="Content"><path class="cls-1" d="M52.18,76.1a2.52,2.52,0,0,1-1.68-.63,3,3,0,0,1-1-2.1l-.92-20.5H47.36l-.78,20.52a3,3,0,0,1-.93,2.08,2.59,2.59,0,0,1-1.92.59H41.84A2.88,2.88,0,0,1,39.14,73a.53.53,0,0,1,0-.13l1.3-20.64V38.43H25.39a3.14,3.14,0,0,1,0-6.28H71.22a3.14,3.14,0,0,1,0,6.28H55.52V52.24L57,72.83a2.91,2.91,0,0,1-2.51,3.26H52.18ZM46.1,51.62h3.77l1,21.7a1.76,1.76,0,0,0,.53,1.23,1.32,1.32,0,0,0,1,.29h2A1.65,1.65,0,0,0,55.75,73h0L54.27,52.29V37.18H71.22a1.89,1.89,0,0,0,0-3.77H25.39a1.89,1.89,0,1,0,0,3.77H41.71V52.24L40.41,73a1.65,1.65,0,0,0,1.4,1.87h2a1.38,1.38,0,0,0,1.07-.29,1.75,1.75,0,0,0,.5-1.26Z"/><path class="cls-1" d="M48,29.64A5.65,5.65,0,1,1,53.64,24,5.65,5.65,0,0,1,48,29.64Zm0-10A4.4,4.4,0,1,0,52.38,24,4.4,4.4,0,0,0,48,19.6Z"/></g></svg>