<svg width="48" height="48" viewBox="0 0 48 48" fill="none" xmlns="http://www.w3.org/2000/svg">
<path d="M33.6302 0.75H4.7884C3.72639 0.751272 2.70823 1.17371 1.95727 1.92464C1.20631 2.67558 0.783865 3.6937 0.782593 4.75568V8.76137C0.782593 9.18632 0.951408 9.59386 1.2519 9.89435C1.5524 10.1948 1.95995 10.3636 2.38492 10.3636H3.22053L3.60428 19.205V19.2114L4.01608 28.6648L4.33655 36.0353C4.33619 36.0401 4.33619 36.0449 4.33655 36.0497L4.66102 43.5107C4.72124 44.526 5.17179 45.4787 5.91841 46.1695C6.66502 46.8602 7.64985 47.2355 8.66683 47.2167H29.7526C30.7696 47.2355 31.7544 46.8602 32.501 46.1695C33.2476 45.4787 33.6982 44.526 33.7584 43.5107L34.8159 19.2114V19.2058L35.1981 10.3636H36.0337C36.4587 10.3636 36.8662 10.1948 37.1667 9.89435C37.4672 9.59386 37.636 9.18632 37.636 8.76137V4.75568C37.6348 3.6937 37.2123 2.67558 36.4614 1.92464C35.7104 1.17371 34.6922 0.751272 33.6302 0.75ZM4.7884 2.35227H33.6302C34.2677 2.35227 34.879 2.60549 35.3298 3.05622C35.7805 3.50694 36.0337 4.11826 36.0337 4.75568V5.55682H34.4314V3.95455C34.4314 3.74207 34.347 3.5383 34.1967 3.38806C34.0465 3.23782 33.8427 3.15341 33.6302 3.15341C33.4177 3.15341 33.214 3.23782 33.0637 3.38806C32.9135 3.5383 32.8291 3.74207 32.8291 3.95455V5.55682H29.6244V3.95455C29.6244 3.74207 29.54 3.5383 29.3898 3.38806C29.2395 3.23782 29.0357 3.15341 28.8233 3.15341C28.6108 3.15341 28.407 3.23782 28.2568 3.38806C28.1065 3.5383 28.0221 3.74207 28.0221 3.95455V5.55682H24.8174V3.95455C24.8174 3.74207 24.733 3.5383 24.5828 3.38806C24.4325 3.23782 24.2288 3.15341 24.0163 3.15341C23.8038 3.15341 23.6 3.23782 23.4498 3.38806C23.2995 3.5383 23.2151 3.74207 23.2151 3.95455V5.55682H20.0105V3.95455C20.0105 3.74207 19.9261 3.5383 19.7758 3.38806C19.6256 3.23782 19.4218 3.15341 19.2093 3.15341C18.9968 3.15341 18.7931 3.23782 18.6428 3.38806C18.4926 3.5383 18.4082 3.74207 18.4082 3.95455V5.55682H15.2035V3.95455C15.2035 3.74207 15.1191 3.5383 14.9689 3.38806C14.8186 3.23782 14.6148 3.15341 14.4023 3.15341C14.1899 3.15341 13.9861 3.23782 13.8358 3.38806C13.6856 3.5383 13.6012 3.74207 13.6012 3.95455V5.55682H10.3965V3.95455C10.3965 3.74207 10.3121 3.5383 10.1619 3.38806C10.0116 3.23782 9.80785 3.15341 9.59537 3.15341C9.38289 3.15341 9.17911 3.23782 9.02887 3.38806C8.87862 3.5383 8.79421 3.74207 8.79421 3.95455V5.55682H5.58956V3.95455C5.58956 3.74207 5.50516 3.5383 5.35491 3.38806C5.20466 3.23782 5.00088 3.15341 4.7884 3.15341C4.57592 3.15341 4.37214 3.23782 4.2219 3.38806C4.07165 3.5383 3.98724 3.74207 3.98724 3.95455V5.55682H2.38492V4.75568C2.38492 4.11826 2.63814 3.50694 3.08888 3.05622C3.53962 2.60549 4.15096 2.35227 4.7884 2.35227ZM5.82991 33.5758H12.8C13.0125 33.5758 13.2163 33.4914 13.3665 33.3411C13.5168 33.1909 13.6012 32.9871 13.6012 32.7746C13.6012 32.5622 13.5168 32.3584 13.3665 32.2081C13.2163 32.0579 13.0125 31.9735 12.8 31.9735H5.76342L5.69372 30.3712H12.8C13.0125 30.3712 13.2163 30.2868 13.3665 30.1366C13.5168 29.9863 13.6012 29.7826 13.6012 29.5701C13.6012 29.3576 13.5168 29.1538 13.3665 29.0036C13.2163 28.8534 13.0125 28.769 12.8 28.769H5.62401L5.55431 27.1667H12.8C13.0125 27.1667 13.2163 27.0823 13.3665 26.932C13.5168 26.7818 13.6012 26.578 13.6012 26.3655C13.6012 26.1531 13.5168 25.9493 13.3665 25.7991C13.2163 25.6488 13.0125 25.5644 12.8 25.5644H5.48461L5.41651 23.983H15.2035C15.416 23.983 15.6198 24.0674 15.77 24.2176C15.9203 24.3679 16.0047 24.5716 16.0047 24.7841V34.3977C16.0047 34.6102 15.9203 34.814 15.77 34.9642C15.6198 35.1145 15.416 35.1989 15.2035 35.1989H5.90362L5.82991 33.5758ZM29.7526 45.6137H8.66603C8.06233 45.6311 7.47523 45.4146 7.02736 45.0095C6.57949 44.6043 6.30547 44.0418 6.26254 43.4394L5.97332 36.8012H15.2035C15.841 36.8012 16.4523 36.5479 16.903 36.0972C17.3538 35.6465 17.607 35.0352 17.607 34.3977V24.7841C17.607 24.1467 17.3538 23.5354 16.903 23.0846C16.4523 22.6339 15.841 22.3807 15.2035 22.3807H5.34922L5.24506 19.9773H33.1768L32.1569 43.4394C32.114 44.0419 31.8398 44.6046 31.3918 45.0097C30.9437 45.4149 30.3564 45.6313 29.7526 45.6137ZM33.2465 18.375H5.17216L4.82365 10.3636H33.595L33.2465 18.375ZM36.0337 8.76137H2.38492V7.15909H36.0337V8.76137Z" fill="#808080"/>
<path d="M46.4489 5.55664H40.0396C39.8271 5.55664 39.6233 5.64105 39.4731 5.79129C39.3228 5.94153 39.2384 6.1453 39.2384 6.35778V46.4146C39.2384 46.6271 39.3228 46.8309 39.4731 46.9811C39.6233 47.1313 39.8271 47.2158 40.0396 47.2158H46.4489C46.6613 47.2158 46.8651 47.1313 47.0154 46.9811C47.1656 46.8309 47.25 46.6271 47.25 46.4146V6.35778C47.25 6.1453 47.1656 5.94153 47.0154 5.79129C46.8651 5.64105 46.6613 5.55664 46.4489 5.55664ZM45.6477 39.2044H40.8407V35.9998H45.6477V39.2044ZM45.6477 15.1703H40.8407V11.9657H45.6477V15.1703ZM45.6477 18.3748H40.8407V16.7726H45.6477V18.3748ZM45.6477 23.1816H40.8407V19.9771H45.6477V23.1816ZM45.6477 26.3862H40.8407V24.7839H45.6477V26.3862ZM45.6477 31.193H40.8407V27.9885H45.6477V31.193ZM45.6477 34.3976H40.8407V32.7953H45.6477V34.3976ZM40.8407 7.15891H45.6477V10.3635H40.8407V7.15891ZM40.8407 45.6135V40.8067H45.6477V45.6135H40.8407Z" fill="#808080"/>
</svg>
