<?xml version="1.0" encoding="UTF-8"?>
<svg xmlns="http://www.w3.org/2000/svg" xmlns:xlink="http://www.w3.org/1999/xlink" width="24pt" height="24pt" viewBox="0 0 24 24" version="1.1">
<defs>
 <style>.a{fill:#b1b1b1;}</style>
</defs>
<g id="surface1">
<path d="M 20.882812 11.109375 L 18.089844 13.90625 C 17.929688 14.066406 17.765625 14.210938 17.59375 14.347656 C 16.941406 14.871094 16.203125 15.234375 15.429688 15.4375 C 14.726562 15.628906 13.992188 15.6875 13.273438 15.609375 C 12.597656 15.539062 11.9375 15.355469 11.316406 15.050781 C 10.730469 14.769531 10.183594 14.390625 9.703125 13.90625 C 9.21875 13.425781 8.839844 12.878906 8.558594 12.292969 C 9.332031 11.746094 10.410156 11.820312 11.101562 12.507812 C 11.8125 13.21875 12.722656 13.601562 13.652344 13.660156 C 14.3125 13.699219 14.988281 13.574219 15.597656 13.28125 C 15.996094 13.09375 16.367188 12.835938 16.691406 12.507812 L 19.488281 9.714844 C 21.03125 8.171875 21.042969 5.675781 19.5 4.132812 C 17.953125 2.589844 15.441406 2.578125 13.894531 4.125 L 11.75 6.269531 C 10.933594 6.054688 10.097656 5.96875 9.261719 6.015625 C 9.398438 5.84375 9.542969 5.679688 9.703125 5.519531 L 12.5 2.726562 C 14.816406 0.410156 18.570312 0.410156 20.886719 2.726562 C 23.199219 5.039062 23.199219 8.796875 20.882812 11.109375 Z M 20.882812 11.109375" class="a"/>
<path d="M 13.894531 18.101562 L 11.101562 20.894531 C 8.785156 23.210938 5.050781 23.234375 2.734375 20.917969 C 0.417969 18.601562 0.398438 14.824219 2.714844 12.507812 L 5.511719 9.714844 C 5.667969 9.554688 5.832031 9.40625 6.003906 9.269531 C 6.65625 8.75 7.394531 8.386719 8.171875 8.179688 C 8.875 7.988281 9.605469 7.933594 10.328125 8.011719 C 11 8.082031 11.664062 8.265625 12.28125 8.566406 C 12.867188 8.847656 13.414062 9.230469 13.894531 9.714844 C 14.378906 10.195312 14.761719 10.742188 15.039062 11.328125 C 14.269531 11.875 13.1875 11.800781 12.5 11.109375 C 11.789062 10.402344 10.875 10.019531 9.949219 9.957031 C 9.289062 9.921875 8.613281 10.046875 8 10.339844 C 7.605469 10.523438 7.234375 10.785156 6.910156 11.109375 L 4.113281 13.90625 C 2.566406 15.453125 2.566406 17.953125 4.113281 19.496094 C 5.65625 21.042969 8.160156 21.042969 9.703125 19.496094 L 11.851562 17.347656 C 12.660156 17.566406 13.503906 17.648438 14.335938 17.605469 C 14.203125 17.777344 14.054688 17.941406 13.894531 18.101562 Z M 13.894531 18.101562" class="a"/>
</g>
</svg>
