<svg xmlns="http://www.w3.org/2000/svg" viewBox="0 0 36.44 42.08"><defs><style>.cls-1{fill:#fff;}</style></defs><title>Week 22_Icons</title><g id="Comments"><path class="cls-1" d="M19.08,22.44H17.35C8.43,22.44,0,31.55,0,41.19v.89H36.44v-.89C36.44,31.55,28,22.44,19.08,22.44ZM18.22,40.3H1.61C2,32,9.61,24.22,17.34,24.22h1.75c7.74,0,15.32,7.78,15.74,16.08Z"/><path class="cls-1" d="M18.22,0a10.4,10.4,0,1,0,10.4,10.4A10.41,10.41,0,0,0,18.22,0Zm8.67,10.4a8.68,8.68,0,1,1-8.67-8.68A8.68,8.68,0,0,1,26.89,10.4Z"/></g></svg>