<svg fill="none" height="122" viewBox="0 0 114 122" width="114" xmlns="http://www.w3.org/2000/svg"><g fill="#808080"><path d="m88.9332 75.397-23.784-40.9749c-.7824-1.661-1.9433-3.0843-3.3754-4.1383-1.4321-1.0541-3.0893-1.7051-4.8186-1.8927l-.1822-.019-.1869.019c-1.7292.1876-3.3863.8384-4.8184 1.8923s-2.5929 2.4769-3.3755 4.1377l-23.784 40.977c-2.194 3.778-2.6632 7.463-1.2868 10.11s4.5488 4.164 8.7061 4.164h49.4816c4.1572 0 7.3306-1.518 8.706-4.164 1.3755-2.646.9121-6.3321-1.2819-10.1111zm-.3458 9.1391c-1.0362 1.993-3.6116 3.136-7.0736 3.136h-49.4816c-3.4574 0-6.0373-1.143-7.0736-3.136s-.5831-4.939 1.2418-8.083l23.8279-41.058c.5128-1.4705 1.4332-2.7381 2.638-3.6331s2.6364-1.3747 4.103-1.3747 2.8981.4797 4.1029 1.3747 2.1252 2.1626 2.638 3.6331l23.8279 41.058c1.8324 3.144 2.2847 6.094 1.2484 8.083z"/><path d="m56.7731 67.0717c.3296-.0002.6456-.1405.8788-.3898.2331-.2494.3644-.5875.3649-.9402v-18.176c.0045-.1778-.0242-.3548-.0847-.5205-.0604-.1657-.1512-.3167-.2671-.4442s-.2546-.2288-.4077-.298c-.1531-.0691-.3175-.1048-.4837-.1048s-.3308.0357-.4839.1048c-.1531.0692-.2917.1705-.4076.298s-.2067.2785-.2671.4442-.0893.3427-.0847.5205v18.181c.0017.3517.1334.6884.3662.9366.2328.2483.548.3879.8766.3884z"/><path d="m56.7731 71.523c-.3918.0002-.7747.1246-1.1003.3576-.3256.2331-.5794.5642-.7292.9515-.1499.3874-.189.8135-.1125 1.2247.0765.4111.2652.7888.5421 1.0853.277.2964.6299.4983 1.0141.5801s.7824.0399 1.1443-.1204c.3619-.1604.6714-.4319.8891-.7804.2178-.3485.3341-.7582.3342-1.1774.0059-.2803-.0414-.5589-.1389-.8191-.0975-.2601-.2432-.4965-.4284-.6947s-.4062-.3542-.6493-.4586-.5034-.1549-.7652-.1486z"/></g></svg>