<svg width="92" height="92" viewBox="0 0 92 92" fill="none" xmlns="http://www.w3.org/2000/svg">
    <path d="M69 26.25C66.225 25.375 63.175 25 60.25 25C55.375 25 50.125 26 46.5 28.75C42.875 26 37.625 25 32.75 25C27.875 25 22.625 26 19 28.75V65.375C19 66 19.625 66.625 20.25 66.625C20.5 66.625 20.625 66.5 20.875 66.5C24.25 64.875 29.125 63.75 32.75 63.75C37.625 63.75 42.875 64.75 46.5 67.5C49.875 65.375 56 63.75 60.25 63.75C64.375 63.75 68.625 64.5 72.125 66.375C72.375 66.5 72.5 66.5 72.75 66.5C73.375 66.5 74 65.875 74 65.25V28.75C72.5 27.625 70.875 26.875 69 26.25ZM69 60.0002C66.25 59.1252 63.25 58.7502 60.25 58.7502C56 58.7502 49.875 60.3752 46.5 62.5002V33.7502C49.875 31.6252 56 30.0002 60.25 30.0002C63.25 30.0002 66.25 30.3752 69 31.2502V60.0002Z" fill="#808080"/>
</svg>
