<svg width="96" height="96" viewBox="0 0 96 96" fill="none" xmlns="http://www.w3.org/2000/svg">
    <g fill="fff">
        <path d="M47.9992 91.2142C71.8662 91.2142 91.2142 71.8662 91.2142 47.9992C91.2142 24.1322 71.8662 4.78418 47.9992 4.78418C24.1322 4.78418 4.78418 24.1322 4.78418 47.9992C4.78418 71.8662 24.1322 91.2142 47.9992 91.2142Z"/>
        <path d="M48 96C38.5065 96 29.2261 93.1849 21.3325 87.9105C13.4389 82.6362 7.28679 75.1397 3.65378 66.3689C0.0207751 57.598 -0.929755 47.9468 0.922336 38.6357C2.77443 29.3246 7.34613 20.7718 14.0591 14.0589C20.772 7.34597 29.3246 2.77442 38.6357 0.922328C47.9468 -0.929762 57.5978 0.0207977 66.3686 3.6538C75.1395 7.28681 82.6363 13.4391 87.9106 21.3327C93.1849 29.2262 96 38.5065 96 48C95.9854 60.726 90.9234 72.9265 81.9248 81.9251C72.9262 90.9237 60.7259 95.9855 48 96ZM48 1.56903C38.817 1.56883 29.84 4.29171 22.2046 9.39334C14.5691 14.495 8.61785 21.7462 5.10349 30.2301C1.58913 38.714 0.669592 48.0495 2.46091 57.0561C4.25223 66.0627 8.67424 74.3358 15.1675 80.8293C21.6607 87.3228 29.9334 91.745 38.9399 93.5367C47.9464 95.3284 57.282 94.4091 65.7661 90.8951C74.2501 87.3811 81.5015 81.4303 86.6035 73.795C91.7054 66.1597 94.429 57.183 94.4292 48C94.4151 35.6904 89.5189 23.8889 80.8149 15.1845C72.1109 6.48013 60.3096 1.58358 48 1.56903Z"/>
        <path fill-rule="evenodd" clip-rule="evenodd" d="M73.2727 25.4318C70.0941 24.4295 66.6005 24 63.25 24C57.6659 24 51.6523 25.1455 47.5 28.2955C43.3477 25.1455 37.3341 24 31.75 24C26.1659 24 20.1523 25.1455 16 28.2955V70.2477C16 70.9636 16.7159 71.6795 17.4318 71.6795C17.7182 71.6795 17.8614 71.5364 18.1477 71.5364C22.0136 69.675 27.5977 68.3864 31.75 68.3864C37.3341 68.3864 43.3477 69.5318 47.5 72.6818C51.3659 70.2477 58.3818 68.3864 63.25 68.3864C67.975 68.3864 72.8432 69.2454 76.8523 71.3932C77.1386 71.5364 77.2818 71.5364 77.5682 71.5364C78.2841 71.5364 79 70.8205 79 70.1045V28.2955C77.2818 27.0068 75.4205 26.1477 73.2727 25.4318ZM73.2727 64.091C70.1227 63.0887 66.6864 62.6592 63.25 62.6592C58.3818 62.6592 51.3659 64.5205 47.5 66.9546V34.0228C51.3659 31.5887 58.3818 29.7274 63.25 29.7274C66.6864 29.7274 70.1227 30.1569 73.2727 31.1592V64.091Z" fill="white"/>
    </g>
</svg>