<svg fill="none" height="51" viewBox="0 0 50 51" width="50" xmlns="http://www.w3.org/2000/svg"><path d="m26.4894 1.4325v.00002l.0054.00381 21.9018 15.63847c.2543.2061.4408.4842.5348.798.0961.3207.0911.6632-.0143.9809-.1055.3177-.3062.5952-.575.7947-.2655.1972-.5847.3089-.915.3203h-4.0298-1v1 26.2923c0 .2512-.0494.4999-.1455.7319-.0962.232-.237.4428-.4146.6204s-.3884.3184-.6204.4146c-.232.0961-.4807.1455-.7319.1455h-30.86311-.00713l-.00713.0001c-.50271.0072-.98802-.1839-1.3509-.5318-.3599-.3451-.57065-.817-.58767-1.3151v-26.277-1h-1-4.04297c-.00029 0-.00057 0-.00085 0-.34501-.0009-.68084-.1112-.9591-.3152-.2785-.2041-.48494-.4915-.58952-.8206s-.101901-.6829.00765-1.0103l-.948333-.3173.948333.3173c.10949-.3273.32006-.6113.60136-.8112.00017-.0001.00034-.0002.00051-.0004l22.12466-15.65306v.00005l.0089-.00639c.3883-.28114.8555-.4325 1.3349-.4325s.9466.15136 1.3349.4325zm8.3528 33.197h.9969l.0031-.9969.0202-6.4517.0032-1.0032h-1.0032-5.5326v-5.4719-1h-1-6.5529-1v1 5.4719h-5.5528-1v1 6.4518 1h1 5.5528v5.4517 1h1 6.5529 1v-1-5.4517z" stroke="#808080" stroke-width="2"/></svg>