<svg width="69" height="61" viewBox="0 0 69 61" fill="none" xmlns="http://www.w3.org/2000/svg">
<path d="M26.7307 29C28.2307 29.3333 30.2307 31 30.2307 35.2108V61" stroke="#808080" stroke-width="2.5"/>
<path d="M42.7307 29C41.2307 29.3333 39.2307 31 39.2307 35.2108V61" stroke="#808080" stroke-width="2.5"/>
<path d="M26.2307 10.0914C26.9182 4.59124 18.2308 1.40966 15.7307 2.09129C12.0641 3.09129 4.23071 8.89082 2.23071 22.0908C0.230713 35.2908 11.7307 43.091 17.7307 43.0911C25.2307 41.5908 24.2307 29.5908 21.7306 25.0913C19.7306 19.5916 25.7307 14.0914 26.2307 10.0914Z" stroke="#808080" stroke-width="2.5"/>
<path d="M43.2307 10.0914C42.5432 4.59124 51.2306 1.40966 53.7307 2.09129C57.3974 3.09129 65.2307 8.89082 67.2307 22.0908C69.2307 35.2908 57.7307 43.091 51.7307 43.0911C44.2307 41.5908 45.2307 29.5908 47.7308 25.0913C49.7308 19.5916 43.7307 14.0914 43.2307 10.0914Z" stroke="#808080" stroke-width="2.5"/>
</svg>
