<svg viewBox="0 0 92 92" xmlns="http://www.w3.org/2000/svg"><g fill="#808080"><path d="m68.42 55.24a.74.74 0 0 1 -.48-.18l-7.27-6.06h-8v-1.5h8.33a.74.74 0 0 1 .48.18l6.24 5.23v-4.69a.76.76 0 0 1 .75-.75h4.53v-24.26h-39.39v16.54h-1.5v-17.29a.75.75 0 0 1 .75-.75h40.93a.75.75 0 0 1 .75.75v25.76a.74.74 0 0 1 -.75.75h-4.62v5.52a.75.75 0 0 1 -.43.68.88.88 0 0 1 -.32.07z"/><path d="m25 72.21a.75.75 0 0 1 -.75-.75v-5.89h-6a.75.75 0 0 1 -.75-.75v-24.65a.75.75 0 0 1 .22-.53.73.73 0 0 1 .53-.22l33.75.24a.75.75 0 0 1 .74.75v24.41a.76.76 0 0 1 -.75.75h-18.86l-7.65 6.43a.76.76 0 0 1 -.48.21zm-6-8.14h6a.75.75 0 0 1 .75.75v5l6.63-5.61a.74.74 0 0 1 .48-.17h18.35v-22.88l-32.21-.23z"/><path d="m40.11 27.99h28.83v1.5h-28.83z"/><path d="m56.81 40.12h8.49v1.5h-8.49z"/><path d="m40.11 34.06h28.83v1.5h-28.83z"/><path d="m27.7 45.97h15.77v1.5h-15.77z"/><path d="m24.06 51.43h23.04v1.5h-23.04z"/><path d="m27.7 56.89h15.77v1.5h-15.77z"/></g></svg>