<svg fill="none" height="78" viewBox="0 0 79 78" width="79" xmlns="http://www.w3.org/2000/svg"><g fill="#fff"><path d="m18.4829 2.40942c0-1.30329 1.0426-2.259031 2.259-2.259031 1.3033 0 2.2591 1.042631 2.2591 2.259031 0 18.94108 15.3787 34.40678 34.4067 34.40678 1.3033 0 2.259 1.0426 2.259 2.259s-1.0426 2.259-2.259 2.259c-10.4263 0-20.1575-4.0836-27.5428-11.382-7.3853-7.3853-11.382-17.1165-11.382-27.54278z"/><path d="m18.4829 75.7412c0-10.4263 4.0836-20.1575 11.382-27.5428s17.1165-11.382 27.5428-11.382c1.3033 0 2.259 1.0426 2.259 2.259s-1.0426 2.2591-2.259 2.2591c-18.9411 0-34.4067 15.3787-34.4067 34.4067 0 1.3033-1.0427 2.2591-2.2591 2.2591s-2.259-1.0427-2.259-2.2591z"/><path d="m27.6055 39.0754c0-1.3033 1.0427-2.259 2.2591-2.259h45.8756c1.3033 0 2.2591 1.0426 2.2591 2.259s-1.0427 2.2591-2.2591 2.2591h-45.7888c-1.3032 0-2.3459-.9558-2.3459-2.2591z"/><path d="m.149437 39.0754c0-1.3033 1.042633-2.259 2.259033-2.259h45.78883c1.3033 0 2.259 1.0426 2.259 2.259s-1.0426 2.2591-2.259 2.2591h-45.78883c-1.2164 0-2.259033-.9558-2.259033-2.2591z"/><path d="m64.4456 30.1257c0-.6082.2607-1.1295.6951-1.6508.8688-.8689 2.3459-.8689 3.2148 0l9.0361 8.9492c.4344.4344.6951 1.0427.6951 1.6509s-.2607 1.2164-.6951 1.6508l-8.9493 8.9492c-.8688.8689-2.3459.8689-3.2147 0-.8689-.8688-.8689-2.3459 0-3.2148l7.2984-7.3853-7.3853-7.3852c-.4344-.4345-.6951-.9558-.6951-1.564z"/></g></svg>