<svg width="46" height="72" viewBox="0 0 46 72" fill="none" xmlns="http://www.w3.org/2000/svg">
<path d="M5.79304 19.2837C5.80456 29.0264 14.1954 33.5075 20.0651 34.8864C21.2198 35.1577 22.2745 34.2922 22.2174 33.1498C21.6731 22.2616 13.3481 18.3749 7.73525 17.6281C6.69038 17.489 5.79184 18.2683 5.79304 19.2837Z" stroke="#808080"/>
<path d="M17.8901 1.75194C12.4036 9.80288 16.804 18.2363 20.8727 22.6861C21.6731 23.5615 23.0322 23.4418 23.6295 22.4664C29.3223 13.169 24.641 5.26349 20.4278 1.4805C19.6434 0.776278 18.4619 0.912838 17.8901 1.75194Z" stroke="#808080"/>
<path d="M36.7025 17.0373C27.0254 18.1648 23.5349 27.0137 22.8375 33.0027C22.7002 34.1809 23.6809 35.1295 24.8092 34.9419C35.5634 33.154 38.4708 24.4385 38.5698 18.7771C38.5882 17.7231 37.7111 16.9198 36.7025 17.0373Z" stroke="#808080"/>
<path d="M38.7617 30.9129C29.0211 30.7097 24.3562 38.9998 22.8482 44.8377C22.5516 45.9861 23.3936 47.0596 24.5369 47.0277C35.4345 46.7235 39.5038 38.4862 40.3741 32.8912C40.5361 31.8496 39.7769 30.9341 38.7617 30.9129Z" stroke="#808080"/>
<path d="M40.3241 44.3897C30.6812 42.9998 25.0397 50.6588 22.8308 56.2691C22.3963 57.3728 23.1011 58.541 24.2398 58.6488C35.0931 59.6764 40.1368 51.997 41.6832 46.5499C41.9711 45.5359 41.3292 44.5346 40.3241 44.3897Z" stroke="#808080"/>
<path d="M4.07089 33.0657C5.20418 42.7422 14.0552 46.2273 20.0446 46.9212C21.2229 47.0577 22.1709 46.0765 21.9826 44.9484C20.1883 34.1952 11.4711 31.293 5.80954 31.1974C4.75561 31.1796 3.95278 32.0572 4.07089 33.0657Z" stroke="#808080"/>
<path d="M3.27373 46.2628C5.21201 55.8107 14.3234 58.5437 20.3499 58.7344C21.5354 58.772 22.3981 57.7149 22.1162 56.6064C19.4291 46.041 10.4998 43.8776 4.85011 44.2557C3.79838 44.3261 3.07172 45.2677 3.27373 46.2628Z" stroke="#808080"/>
<path d="M22.4324 72.0001V22.9961" stroke="#808080"/>
</svg>
