<svg width="44" height="65" viewBox="0 0 44 65" fill="none" xmlns="http://www.w3.org/2000/svg">
<path d="M18.0003 63.4992L19.0003 53.4993C19.0003 52.9993 18.8003 51.3992 18.0003 50.9992C17.0003 50.4992 14.0003 47.4992 13.5003 46.4992C13.0003 45.4992 11.0003 39.9992 11.0003 38.9992C11.0003 37.9992 9.50027 33.9992 9.00027 32.4992C8.60027 31.2992 7.70867 30.5513 5.50016 27.4994C3.29165 24.4474 7.56566 18.6787 12 24.4994L15.5 29.4991C16.3335 30.8323 17.5003 32.621 17.5003 28.9991C17.5003 26.4994 17.4491 23.1012 17.5003 18.9994C17.5401 15.8078 17.4273 13.1144 17.5003 10.9993C17 7.99933 22 4.99933 23.645 10.9993M30.0003 29.4991L29.5868 7.99933M29.5868 7.99933C29.5868 7.99933 29.6157 9.49986 29.5868 4.50005C29.5579 -0.499753 23.645 0.74703 23.645 4.49941C23.645 8.2518 23.645 10.9993 23.645 10.9993M29.5868 7.99933C30.1671 5.7423 35.5 2.99963 36.0003 8.99963V15.4993M36.0003 29.4991V15.4993M36.0003 15.4993C36.0003 13.9996 41 10.9993 42 16.4996C42 16.4996 42.3586 33.4472 42.5003 36.4993C42.642 39.5515 40.6308 46.5119 38.0003 48.9993C37.6864 49.3133 37.1756 50.0212 36.8387 50.9992M23.645 10.9993L24 29.4994M37 63L36.5 53C36.5 52.2552 36.6387 51.5796 36.8387 50.9992M32.5 50.9992H36.8387" stroke="#808080" stroke-width="1.5" stroke-linecap="round"/>
<circle cx="25.5" cy="35.5" r="1.75" stroke="#808080" stroke-width="1.5"/>
<path d="M10.9859 37.7134C12.1273 37.4412 12.8319 36.2952 12.5596 35.1538C12.2874 34.0124 11.1414 33.3078 10 33.5801" stroke="#808080" stroke-width="1.5"/>
<circle cx="24.5" cy="48.5" r="1.75" stroke="#808080" stroke-width="1.5"/>
<circle cx="32" cy="41" r="2.25" stroke="#808080" stroke-width="1.5"/>
<path d="M36 15C34.3431 15 33 13.6569 33 12C33 10.3431 34.3431 9 36 9" stroke="#808080" stroke-width="1.5"/>
<path d="M24 26C25.6569 26 27 24.6569 27 23C27 21.3431 25.6569 20 24 20" stroke="#808080" stroke-width="1.5"/>
<circle cx="32" cy="61" r="2.25" stroke="#808080" stroke-width="1.5"/>
<circle cx="18" cy="41" r="2.25" stroke="#808080" stroke-width="1.5"/>
<path d="M6 36.5L6.5 38" stroke="#808080" stroke-width="1.5" stroke-linecap="round"/>
<path d="M5 33L5.5 34.5" stroke="#808080" stroke-width="1.5" stroke-linecap="round"/>
<path d="M3 29.0942L3.77427 30.4728" stroke="#808080" stroke-width="1.5" stroke-linecap="round"/>
<path d="M1.25525 25L1.49265 26.5632" stroke="#808080" stroke-width="1.5" stroke-linecap="round"/>
<path d="M2.77661 21.1011L1.97127 22.4617" stroke="#808080" stroke-width="1.5" stroke-linecap="round"/>
<path d="M5.40833 18.2734L4.05252 19.0869" stroke="#808080" stroke-width="1.5" stroke-linecap="round"/>
<path d="M9.51965 17.8486L7.99998 17.4121" stroke="#808080" stroke-width="1.5" stroke-linecap="round"/>
<path d="M13.0249 20.3911L12 19.1871" stroke="#808080" stroke-width="1.5" stroke-linecap="round"/>
<path d="M7.1803 41L7.49633 42.5492" stroke="#808080" stroke-width="1.5" stroke-linecap="round"/>
<path d="M8 45.0474L8.63974 46.4933" stroke="#808080" stroke-width="1.5" stroke-linecap="round"/>
<path d="M10 49.0474L10.6397 50.4933" stroke="#808080" stroke-width="1.5" stroke-linecap="round"/>
<path d="M12 52.2207L13.1108 53.3459" stroke="#808080" stroke-width="1.5" stroke-linecap="round"/>
<path d="M14.6459 55L14.4513 56.5691" stroke="#808080" stroke-width="1.5" stroke-linecap="round"/>
<path d="M14.6459 59L14.4513 60.5691" stroke="#808080" stroke-width="1.5" stroke-linecap="round"/>
</svg>
