<svg xmlns="http://www.w3.org/2000/svg" viewBox="0 0 96 96"><defs><style>.cls-1{fill:#fff;}</style></defs><title>breastexam</title><g id="Content"><path class="cls-1" d="M47,66.33a.75.75,0,0,0-.48-1A16,16,0,0,1,35.71,52.83a.75.75,0,1,0-1.49.19c0,.1,1.44,10.38,11.84,13.78a.59.59,0,0,0,.23,0A.75.75,0,0,0,47,66.33Z"/><path class="cls-1" d="M69.91,44.52a3.39,3.39,0,0,0-3.19-3.14c-1-1.85-3.48-4.41-7.84-8.92C55.13,28.58,50,23.27,43.36,15.88a.76.76,0,0,0-1.06-.06.75.75,0,0,0,0,1.06C48.9,24.3,54.05,29.61,57.8,33.5c2,2.07,3.61,3.74,4.87,5.12a4,4,0,0,0-.23.57c-.68,2.23-1.31,8.73,3.62,12.73-1.76,9.15-9.15,11.83-13.61,13.44-.83.29-1.54.55-2.12.81C48,67.23,47,70.23,46.54,72.55c0,0-.76,4.08,0,4.9a.7.7,0,0,0,.54.23.77.77,0,0,0,.52-.21.74.74,0,0,0,.12-.91c-.23-1,.17-7.65,3.19-9,.52-.24,1.21-.49,2-.77,4.51-1.62,12.88-4.64,14.66-15h0s0,0,0,0A27,27,0,0,0,68,48,3.25,3.25,0,0,0,69.91,44.52Zm-6.1-4.61a13.89,13.89,0,0,1,1.6,2.2c0,1,.07,3.85,1.11,5.24a20.39,20.39,0,0,1-.18,2.83C62.82,46.74,63.36,41.74,63.81,39.91Zm3.88,6.54a8,8,0,0,1-.76-3.5,1.77,1.77,0,0,1,1.48,1.63A1.91,1.91,0,0,1,67.69,46.45Z"/></g></svg>