<svg fill="none" height="69" viewBox="0 0 69 69" width="69" xmlns="http://www.w3.org/2000/svg"><g fill="#fff"><path d="m40.7214 50.8374h-38.58548v-30.0021h50.72818v6.9074c0 .2853.1125.559.3128.7608s.4719.3151.7551.3151c.2833 0 .5549-.1133.7552-.3151s.3128-.4755.3128-.7608v-18.85557c0-.28535-.1125-.55902-.3128-.76079-.2003-.20178-.4719-.31513-.7552-.31513h-15.5655v-6.73529c0-.285349-.1125-.559014-.3128-.760789s-.4719-.315131-.7552-.315131c-.2832 0-.5548.113356-.7551.315131s-.3128.47544-.3128.760789v6.73529h-17.4612v-6.73529c0-.285349-.1125-.559014-.3128-.760789s-.4719-.315131-.7551-.315131c-.2833 0-.5549.113356-.7552.315131s-.3128.47544-.3128.760789v6.73529h-15.56554c-.28324 0-.55488.11335-.755161.31513-.200282.20177-.312799.47544-.312799.76079v43.03697c0 .2853.112517.559.312799.7608.200281.2017.471921.3151.755161.3151h39.65344c.2832 0 .5548-.1134.7551-.3151.2003-.2018.3128-.4755.3128-.7608 0-.2854-.1125-.559-.3128-.7608s-.4719-.3151-.7551-.3151zm-24.0879-40.88511v3.33541c0 .2853.1125.559.3128.7608.2003.2017.4719.3151.7552.3151.2832 0 .5548-.1134.7551-.3151.2003-.2018.3128-.4755.3128-.7608v-3.32465h17.4612v3.32465c0 .2853.1125.559.3128.7608.2003.2017.4719.3151.7551.3151.2833 0 .5549-.1134.7552-.3151.2003-.2018.3128-.4755.3128-.7608v-3.32465h14.4976v8.72035h-50.72818v-8.72035z"/><path d="m37.8437 47c.2859 0 .5602-.113.7623-.3142.2022-.2012.3158-.474.3158-.7586v-9.7514c.286 0 .5602-.113.7624-.3142.2022-.2011.3158-.474.3158-.7585s-.1136-.5574-.3158-.7586-.4764-.3142-.7624-.3142v-8.9575c0-.2846-.1136-.5574-.3158-.7586-.2021-.2012-.4764-.3142-.7623-.3142-.286 0-.5602.113-.7624.3142s-.3158.474-.3158.7586v8.9736h-17.628v-8.9736c0-.2846-.1136-.5574-.3158-.7586s-.4765-.3142-.7624-.3142-.5602.113-.7624.3142-.3158.474-.3158.7586v8.9736h-9.90293c-.14159 0-.28179.0278-.4126.0817s-.24966.1329-.34978.2325-.17954.2179-.23372.348c-.05418.1302-.08207.2697-.08207.4106 0 .1408.02789.2803.08207.4105s.1336.2484.23372.348.21897.1787.34978.2326.27101.0816.4126.0816h9.90293v9.7353c0 .2846.1136.5574.3158.7586s.4765.3142.7624.3142.5602-.113.7624-.3142.3158-.474.3158-.7586v-9.7353h17.628v9.7353c0 .2846.1136.5574.3158.7586s.4764.3142.7624.3142z"/><path d="m67.9232 31h-24.8464c-.2856 0-.5595.1134-.7614.3154-.202.2019-.3154.4758-.3154.7614v7.5698c0 .2856.1134.5595.3154.7614.2019.202.4758.3154.7614.3154h1.4105v27.1998c0 .2856.1135.5595.3154.7614.202.202.4758.3154.7614.3154h19.8772c.2856 0 .5594-.1134.7614-.3154.2019-.2019.3153-.4758.3153-.7614v-27.1998h1.4052c.2856 0 .5595-.1134.7614-.3154.202-.2019.3154-.4758.3154-.7614v-7.5698c0-.2856-.1134-.5595-.3154-.7614-.2019-.202-.4758-.3154-.7614-.3154zm-3.5587 35.8464h-17.7236v-26.123h17.7236zm2.482-28.2765h-22.693v-5.4163h22.693z"/><path d="m51.0526 52.0526h2.8948v2.8948c0 .2791.1109.5469.3083.7443s.4651.3083.7443.3083.5469-.1109.7443-.3083.3083-.4652.3083-.7443v-2.8948h2.8948c.2791 0 .5469-.1109.7443-.3083s.3083-.4651.3083-.7443-.1109-.5469-.3083-.7443-.4652-.3083-.7443-.3083h-2.8948v-2.8948c0-.2791-.1109-.5469-.3083-.7443s-.4651-.3083-.7443-.3083-.5469.1109-.7443.3083-.3083.4652-.3083.7443v2.8948h-2.8948c-.2791 0-.5469.1109-.7443.3083s-.3083.4651-.3083.7443.1109.5469.3083.7443.4652.3083.7443.3083z"/></g></svg>