<svg fill="none" height="55" viewBox="0 0 90 55" width="90" xmlns="http://www.w3.org/2000/svg"><g fill="#06b9ff"><path d="m17.4869 0v40.6908c-9.75229-1.6815-17.4869-10.0887-17.4869-20.5136 0-10.0886 7.73461-18.83205 17.4869-20.1772z"/><path d="m41.6993 20.1772c0 10.4249-7.3983 18.8321-17.4869 20.5136v-40.6908c9.7523 1.34515 17.4869 10.0886 17.4869 20.1772z"/><path d="m57.1688 26.2324 14.124 14.1241-11.0975 11.0975c-4.0354 4.0354-10.4249 4.0354-14.124 0-4.0355-4.0355-3.6992-10.4249 0-14.1241z"/><path d="m87.0987 24.5501-11.0974 11.0974-14.1241-14.124 11.0975-11.0975c4.0354-4.03545 10.0886-4.03545 14.124 0 3.6992 3.6992 4.0355 10.0886 0 14.1241z"/></g></svg>