<svg width="52" height="63" viewBox="0 0 52 63" fill="none" xmlns="http://www.w3.org/2000/svg">
<path d="M15.408 62.9834C11.3122 62.9834 7.44842 61.3753 4.52833 58.455C1.60824 55.535 0 51.6712 0 47.5754C0 43.243 4.00108 36.1252 7.87024 29.2418C11.2839 23.1686 14.814 16.8889 15.0031 13.3588C15.0144 13.145 15.1903 12.977 15.4044 12.9751C15.4056 12.9751 15.4068 12.9751 15.408 12.9751C15.6205 12.9751 15.7973 13.1393 15.8124 13.3516C16.0661 16.9029 19.1458 22.4417 22.4062 28.3056L22.7906 28.9971C22.8498 29.1038 22.8579 29.2313 22.8126 29.3446C22.0468 31.259 21.6251 33.1255 21.6251 34.6004C21.6251 40.4831 25.2161 45.872 30.561 48.01C30.7218 48.0744 30.8241 48.2339 30.8153 48.4071C30.3999 56.5807 23.6321 62.9834 15.408 62.9834ZM15.4139 15.6142C14.3839 19.3089 11.5482 24.3535 8.57726 29.639C4.75904 36.4315 0.810947 43.4554 0.810947 47.5754C0.810947 55.6243 7.35921 62.1724 15.408 62.1724C23.1038 62.1724 29.4535 56.2562 29.9882 48.651C27.348 47.5331 25.0923 45.6676 23.4518 43.241C21.7262 40.6885 20.8142 37.7007 20.8142 34.6002C20.8142 33.0717 21.2305 31.1688 21.9884 29.2234L21.6973 28.6996C18.9914 23.8325 16.4079 19.186 15.4139 15.6142Z" fill="#808080"/>
<path d="M19.4624 58.1178C19.2494 58.1178 19.0707 57.9516 19.058 57.7361C19.0447 57.5126 19.2154 57.3207 19.4388 57.3075C22.1319 57.1491 24.0667 55.7478 25.1893 53.1423C26.0431 51.1609 26.0851 49.21 26.0854 49.1907C26.089 48.9691 26.2699 48.792 26.4907 48.792C26.493 48.792 26.4953 48.792 26.4976 48.792C26.7216 48.7958 26.9001 48.9804 26.8963 49.2042C26.8948 49.2903 26.8506 51.3361 25.934 53.4635C24.6977 56.3326 22.4681 57.9419 19.4864 58.1173C19.4786 58.1175 19.4705 58.1178 19.4624 58.1178Z" fill="#808080"/>
<path d="M16.4892 50.1434H14.3267C14.1027 50.1434 13.9212 49.9619 13.9212 49.7379V46.0887H10.2719C10.048 46.0887 9.86646 45.9071 9.86646 45.6832V43.3855C9.86646 43.1615 10.048 42.98 10.2719 42.98H13.9212V39.3308C13.9212 39.1068 14.1027 38.9253 14.3267 38.9253H16.4892C16.7131 38.9253 16.8947 39.1068 16.8947 39.3308V42.98H20.5439C20.7679 42.98 20.9494 43.1615 20.9494 43.3855V45.6832C20.9494 45.9071 20.7679 46.0887 20.5439 46.0887H16.8947V49.7379C16.8947 49.9619 16.7131 50.1434 16.4892 50.1434ZM14.7321 49.3325H16.0837V45.6832C16.0837 45.4592 16.2652 45.2777 16.4892 45.2777H20.1385V43.791H16.4892C16.2652 43.791 16.0837 43.6095 16.0837 43.3855V39.7362H14.7321V43.3855C14.7321 43.6095 14.5506 43.791 14.3267 43.791H10.6774V45.2777H14.3267C14.5506 45.2777 14.7321 45.4592 14.7321 45.6832V49.3325Z" fill="#808080"/>
<path d="M41.3583 33.114H31.0863C30.8623 33.114 30.6808 32.9325 30.6808 32.7085V30.4108C30.6808 30.1869 30.8623 30.0054 31.0863 30.0054H41.3583C41.5822 30.0054 41.7637 30.1869 41.7637 30.4108V32.7085C41.7637 32.9325 41.5822 33.114 41.3583 33.114ZM31.4917 32.3031H40.9528V30.8163H31.4917V32.3031Z" fill="#808080"/>
<path d="M36.2222 50.0084C32.1264 50.0084 28.2626 48.4003 25.3425 45.4801C22.4224 42.5601 20.8143 38.6962 20.8143 34.6004C20.8143 30.2318 24.8392 23.0417 28.7317 16.0884C32.2473 9.80827 35.5679 3.87646 35.8179 0.37655C35.8331 0.164352 36.0097 0 36.2223 0C36.2226 0 36.2229 0 36.2231 0C36.436 0.000405474 36.6125 0.165568 36.6269 0.378036C36.8812 4.12907 40.4387 10.4399 43.8792 16.5429C47.6898 23.3026 51.6303 30.2924 51.6303 34.6004C51.6303 38.6962 50.0222 42.5601 47.102 45.4801C44.1818 48.4002 40.318 50.0084 36.2222 50.0084ZM36.21 2.6026C35.1639 6.25835 32.3684 11.252 29.4392 16.4845C25.5976 23.347 21.6251 30.4432 21.6251 34.6004C21.6251 42.6493 28.1734 49.1975 36.2222 49.1975C44.2711 49.1975 50.8192 42.6493 50.8192 34.6004C50.8192 30.5053 46.932 23.6096 43.1727 16.9411C40.1429 11.5665 37.2526 6.4396 36.21 2.6026Z" fill="#808080"/>
<path d="M40.1415 45.1427C39.9283 45.1427 39.7496 44.9763 39.7371 44.7606C39.7242 44.537 39.895 44.3454 40.1186 44.3324C42.8606 44.1742 44.8322 42.7793 45.9782 40.1864C46.8539 38.2058 46.8994 36.2348 46.8997 36.2151C46.9037 35.9937 47.0845 35.8169 47.305 35.8169C47.3075 35.8169 47.3098 35.8169 47.3123 35.817C47.536 35.8208 47.7144 36.0053 47.7106 36.229C47.7092 36.3152 47.6647 38.3623 46.7303 40.4907C45.4713 43.3584 43.2011 44.9668 40.1652 45.142C40.1573 45.1424 40.1494 45.1427 40.1415 45.1427Z" fill="#808080"/>
</svg>
