<svg width="92" height="92" viewBox="0 0 92 92" fill="none" xmlns="http://www.w3.org/2000/svg">
<path d="M55.3375 25.8376C55.3375 30.9946 51.157 35.1752 46 35.1752C40.8429 35.1752 36.6624 30.9946 36.6624 25.8376C36.6624 20.6806 40.8429 16.5 46 16.5C51.157 16.5 55.3375 20.6806 55.3375 25.8376Z" stroke="#fff"/>
<path d="M62.8261 44.7846L62.8261 44.7846C61.8269 43.1101 60.8044 41.6599 59.4856 40.6242C58.1827 39.601 56.5651 38.963 54.3341 38.963L49.2301 38.9627C46.6524 38.9626 43.2344 38.9624 39.0839 38.9624C35.7007 38.9624 33.3877 40.7017 31.613 43.0257C30.288 44.7609 29.3001 46.7662 28.403 48.5873C28.0821 49.2386 27.7729 49.8663 27.464 50.4497C26.6081 52.0665 25.7114 54.1245 25.0105 56.1241C24.306 58.134 23.8151 60.0409 23.7425 61.3689L23.7425 61.3689C23.5934 64.096 24.4657 66.357 25.4573 67.997C26.455 69.6468 27.5544 70.6367 27.7992 70.8119C30.9468 73.0588 34.582 74.9613 40.5569 75.4593C42.7337 75.6404 44.7978 75.2018 46.3553 74.429C47.9357 73.6448 48.8922 72.5742 49.0625 71.5537L62.8261 44.7846ZM62.8261 44.7846C62.8764 44.8689 62.9272 44.9539 62.9784 45.0396C64.2013 47.088 65.673 49.5529 66.6976 51.7485L67.1507 51.537M62.8261 44.7846L67.1507 51.537M67.1507 51.537L66.6976 51.7485C66.736 51.8308 66.7783 51.9197 66.8237 52.0149C67.275 52.9631 68.0262 54.5414 68.2249 56.5318C68.4412 58.6996 68.0013 61.3775 65.6949 64.2339L65.6948 64.2339C63.2635 67.2456 60.4437 69.1741 58.8653 69.788C58.0731 70.0961 56.816 70.4097 55.5772 70.4396C54.3193 70.47 53.2085 70.2064 52.5577 69.5062L52.5576 69.5061C51.8783 68.7755 51.647 68.0971 51.6498 67.4842C51.6527 66.8566 51.9013 66.2309 52.3035 65.6213C52.936 64.6624 53.8551 63.8637 54.5585 63.2524C54.7703 63.0683 54.9626 62.9012 55.1216 62.7518L56.3416 61.6058L54.6929 61.8949C54.44 61.9393 54.2522 61.9752 54.1005 62.0042C53.8758 62.0472 53.7299 62.0751 53.5679 62.093C53.3226 62.12 53.0546 62.1195 52.4112 62.0815L52.4108 62.0815C51.238 62.013 49.7804 61.5507 48.5501 60.8142L48.55 60.8141C47.4095 60.1319 46.87 59.4579 46.3109 58.7594C46.1438 58.5507 45.975 58.3398 45.7879 58.1258L45.7877 58.1257C45.3095 57.5793 44.3563 56.1343 43.62 54.7885C43.0577 53.7605 42.46 52.9507 41.7011 52.4978C40.9071 52.024 40.015 51.9842 38.9825 52.3218C38.4705 52.4891 37.8263 52.9617 37.4484 53.8088C37.0665 54.6649 36.9753 55.8568 37.4821 57.4393C38.0232 59.1297 38.501 60.0736 38.7863 60.6371C38.839 60.7412 38.8851 60.8324 38.9239 60.9128C38.9991 61.0692 39.0234 61.1441 39.0314 61.1732C39.0117 61.1982 38.9541 61.2645 38.7993 61.3955L38.7992 61.3956C38.408 61.7268 37.7808 62.0115 36.9835 62.2306C36.1955 62.4472 35.284 62.5884 34.3626 62.6593L34.3624 62.6593C34.2855 62.6652 34.1723 62.67 34.0228 62.6764L33.9798 62.6782C33.8142 62.6853 33.618 62.694 33.413 62.7077C33.0145 62.7343 32.5396 62.7819 32.1734 62.8894C31.9982 62.9408 31.7824 63.0236 31.6187 63.1745C31.5304 63.256 31.4428 63.3706 31.3993 63.5228C31.3546 63.6795 31.3685 63.8341 31.4172 63.9705C31.5048 64.2159 31.7066 64.4108 31.9141 64.5681C32.1365 64.7366 32.4393 64.9158 32.8285 65.1104L32.8287 65.1105M67.1507 51.537L32.8287 65.1105M32.8287 65.1105C34.066 65.7286 38.0929 67.5467 44.2922 67.2669C46.1557 67.1828 47.4461 67.6405 48.2107 68.3802M32.8287 65.1105L48.2107 68.3802M48.2107 68.3802C48.9638 69.1087 49.2893 70.191 49.0625 71.5535L48.2107 68.3802ZM60.9049 54.3739V54.3738C60.9049 50.3231 57.6211 47.0386 53.5697 47.0386C49.5195 47.0386 46.2351 50.3231 46.2351 54.3738C46.2351 58.4251 49.5195 61.709 53.5697 61.709C57.6211 61.709 60.9042 58.4251 60.9049 54.3739Z" stroke="#fff"/>
</svg>
