<svg width="92" height="92" viewBox="0 0 92 92" fill="none" xmlns="http://www.w3.org/2000/svg">
<path d="M77.8999 49.8583C77.5118 48.4076 76.1044 47.3945 74.4779 47.3945C73.901 47.3945 73.3357 47.5237 72.7973 47.778C70.7171 48.7586 63.1027 52.3308 59.9471 53.728C59.9491 53.6705 59.9559 53.6137 59.9559 53.5556L59.8856 53.5562C59.5873 51.8425 58.0988 50.5318 56.3005 50.5318H49.2103C47.1916 50.5318 45.3642 49.9699 43.4307 49.3754C41.389 48.7478 39.2789 48.0986 36.8342 48.0986C32.748 48.0986 30.782 49.1083 28.0606 50.5062C26.9353 51.0837 25.6726 51.7302 24.0664 52.4079V50.5325H16.7659V54.8358V69.558V69.9996H24.0658V67.3262C27.6663 66.3192 31.8019 65.766 36.2275 65.741L36.9295 65.7396C41.4093 65.7396 43.8534 66 46.9866 66.8129C48.7315 67.266 50.456 67.1003 52.3003 66.2996C58.5979 63.564 69.006 58.1124 75.0386 54.6295C78.2746 52.7623 78.117 50.6705 77.8999 49.8583ZM22.8491 68.7823H17.9825V51.7485H22.8491V68.7823ZM74.4312 53.5752C68.4271 57.0412 58.0745 62.4643 51.8167 65.183C50.2247 65.8735 48.7734 66.0169 47.293 65.6348C44.0455 64.7928 41.5276 64.5223 36.9302 64.5223L36.2221 64.5237C31.8249 64.5487 27.6975 65.087 24.0658 66.0656V53.7246C25.9344 52.9611 27.3593 52.2327 28.6159 51.5875C31.2811 50.2187 33.0422 49.3145 36.8335 49.3145C39.0957 49.3145 41.1171 49.9367 43.0729 50.5379C45.0071 51.1324 47.0083 51.7478 49.2103 51.7478H56.3005C57.5449 51.7478 58.5621 52.6892 58.7061 53.8951C58.5424 55.4187 57.2643 56.6151 55.6966 56.6151H38.6622V57.8317H55.6966C57.4692 57.8317 58.9908 56.7429 59.6306 55.1915C62.4162 54.0141 73.2078 48.9297 73.3167 48.8783C73.6907 48.7011 74.0816 48.6119 74.4779 48.6119C75.537 48.6119 76.4824 49.2685 76.7246 50.1727C77.0316 51.317 76.195 52.5567 74.4312 53.5752Z" fill="#808080"/>
<g clip-path="url(#clip0)">
<path d="M50.9355 29.7694C52.0481 27.4842 53.1793 25.3843 53.6991 24.4348C54.2191 25.385 55.3499 27.4845 56.4622 29.7694C57.1875 31.2593 57.8992 32.8164 58.4279 34.179C58.9717 35.5805 59.2736 36.6597 59.2736 37.248C59.2736 40.3269 56.7777 42.8228 53.6988 42.8228C50.6199 42.8228 48.124 40.3269 48.124 37.248C48.124 36.6597 48.426 35.5805 48.9698 34.179C49.4985 32.8164 50.2102 31.2593 50.9355 29.7694Z" stroke="#808080" stroke-width="1.5"/>
<path d="M53.6988 41.0432C51.603 41.0432 49.9039 39.3442 49.9039 37.2483C49.9039 37.0155 50.0927 36.8267 50.3256 36.8267C50.5585 36.8267 50.7473 37.0155 50.7473 37.2483C50.7473 38.8784 52.0687 40.1999 53.6988 40.1999C53.9317 40.1999 54.1205 40.3887 54.1205 40.6216C54.1205 40.8544 53.9317 41.0432 53.6988 41.0432Z" fill="#808080"/>
</g>
<g clip-path="url(#clip1)">
<path d="M60.2101 19.0368C60.7635 17.9001 61.3244 16.8364 61.6944 16.1499C62.0645 16.8367 62.6253 17.9003 63.1785 19.0368C63.6324 19.9692 64.0756 20.9391 64.4035 21.7844C64.7466 22.6686 64.9157 23.3003 64.9157 23.6105C64.9157 25.3896 63.4734 26.8319 61.6943 26.8319C59.9152 26.8319 58.4729 25.3896 58.4729 23.6105C58.4729 23.3003 58.642 22.6686 58.985 21.7844C59.313 20.9391 59.7562 19.9692 60.2101 19.0368Z" stroke="#808080" stroke-width="1.5"/>
</g>
<g clip-path="url(#clip2)">
<path d="M48.0005 16.8665C48.1815 16.4945 48.3642 16.1366 48.5253 15.828C48.6865 16.1367 48.8691 16.4946 49.0502 16.8665C49.3005 17.3808 49.5422 17.9103 49.7197 18.3676C49.9122 18.8638 49.9816 19.1599 49.9816 19.2615C49.9816 20.0658 49.3296 20.7178 48.5253 20.7178C47.721 20.7178 47.069 20.0658 47.069 19.2615C47.069 19.1599 47.1384 18.8638 47.3309 18.3676C47.5084 17.9103 47.7501 17.3808 48.0005 16.8665Z" stroke="#808080" stroke-width="1.5"/>
</g>
<defs>
<clipPath id="clip0">
<rect width="20.2237" height="20.2237" fill="white" transform="translate(43.587 23.3491)"/>
</clipPath>
<clipPath id="clip1">
<rect width="12.6986" height="12.6986" fill="white" transform="translate(55.3451 14.8833)"/>
</clipPath>
<clipPath id="clip2">
<rect width="7.05478" height="7.05476" fill="white" transform="translate(44.9979 14.4131)"/>
</clipPath>
</defs>
</svg>
