<svg fill="none" height="92" viewBox="0 0 92 92" width="92" xmlns="http://www.w3.org/2000/svg"><g fill="#fff"><path d="m62.2869 71.6381h-32.5789c-.1994 0-.3907-.0792-.5317-.2203-.1411-.141-.2205-.3323-.2205-.5318v-8.1449h1.5v7.393h31.0742v-7.393h1.5v8.1449c-.0002.1979-.0785.3877-.2175.5284s-.3278.221-.5256.2237z"/><path d="m46 68.4711c-7.9967-.0098-15.6631-3.1908-21.3176-8.8454-5.6546-5.6545-8.8357-13.3209-8.8455-21.3177 0-.1995.0792-.3908.2202-.532s.3322-.2207.5318-.2209h58.822c.1995.0002.3907.0797.5317.2209s.2202.3325.2202.532c-.0098 7.9968-3.1906 15.6632-8.8452 21.3177-5.6545 5.6546-13.3209 8.8356-21.3176 8.8454zm-28.6492-29.4081c.1874 7.4742 3.2882 14.5792 8.6407 19.7992 5.3524 5.22 12.533 8.1417 20.0095 8.1417 7.4764 0 14.6568-2.9217 20.0093-8.1417 5.3524-5.22 8.4532-12.325 8.6406-19.7992z"/><path d="m72.2439 39.0629h-52.4871c-.1322-.0003-.2618-.0354-.3762-.1017-.1143-.0663-.2092-.1615-.2751-.2761-.066-.1146-.1007-.2445-.1006-.3766.0001-.1322.035-.2621.1011-.3766.2393-1.3668.915-2.6193 1.926-3.5697 1.011-.9505 2.3029-1.5477 3.6819-1.7022 1.0627-1.921 2.7127-3.4511 4.7082-4.3661 1.9955-.9151 4.2318-1.167 6.3809-.719.9568-2.1392 2.5101-3.9573 4.4739-5.2362 1.9637-1.279 4.2546-1.9646 6.5981-1.9748 3.128-.0089 6.136 1.203 8.384 3.378 1.227-.4981 2.5386-.7538 3.8628-.753 2.7436.0032 5.3746 1.0917 7.3184 3.0278 1.9438 1.9362 3.0426 4.5627 3.0566 7.3062.8807.4548 1.6449 1.1063 2.2332 1.904.5882.7978.9848 1.7203 1.1589 2.6961.0712.1172.1085.2518.1079.3889-.0005.1994-.08.3904-.2212.5312-.1411.1408-.3323.2198-.5317.2198zm-51.5-1.505h50.51c-.2174-.6861-.5822-1.3164-1.0688-1.8467-.4867-.5303-1.0831-.9478-1.7481-1.2232-.1427-.0586-.2639-.1597-.3469-.2896-.0831-.13-.124-.2824-.1172-.4364l.011-.185c0-.071.01-.142.01-.214-.0029-2.3518-.9385-4.6064-2.6016-6.2693-1.663-1.6628-3.9177-2.5981-6.2695-2.6007-1.2845 0-2.5532.282-3.7168.826-.1424.0659-.3021.0857-.4563.0565-.1542-.0293-.2954-.106-.4038-.2196-.9869-1.0417-2.1764-1.8707-3.4954-2.436s-2.7395-.8548-4.1745-.851c-2.1514.0093-4.2496.6687-6.0196 1.8916-1.7699 1.223-3.1288 2.9524-3.8984 4.9614-.0673.1738-.1965.3166-.3625.4013-.1661.0847-.3574.1053-.5376.0578-1.9626-.5435-4.053-.3882-5.9136.4394s-3.3758 2.2761-4.2864 4.0975c-.0601.1186-.1507.2191-.2624.2911-.1118.0721-.2407.1131-.3736.1189-1.0079.0429-1.9783.3947-2.7795 1.0078-.8012.613-1.3945 1.4576-1.6995 2.4192z"/></g></svg>