<svg xmlns="http://www.w3.org/2000/svg" viewBox="0 0 48.89 54.162"><defs><style>.a{fill:#fff;}</style></defs><title>icon-height</title><rect class="a" x="11.458" y="9.975" width="10.705" height="1.504"/><rect class="a" x="11.458" y="43.458" width="10.705" height="1.504"/><rect class="a" x="11.458" y="35.087" width="10.705" height="1.504"/><rect class="a" x="11.458" y="18.346" width="10.705" height="1.504"/><rect class="a" x="11.458" y="26.717" width="10.705" height="1.504"/><path class="a" d="M22.163,54.162H.752A.752.752,0,0,1,0,53.41V1.528A.752.752,0,0,1,.752.776H22.163a.752.752,0,0,1,.752.752V53.41A.752.752,0,0,1,22.163,54.162ZM1.5,52.657H21.411V2.28H1.5Z"/><path class="a" d="M40.886,53.575a.752.752,0,0,1-.752-.752V1.24a.752.752,0,0,1,1.5,0V52.822A.752.752,0,0,1,40.886,53.575Z"/><path class="a" d="M40.886,53.724a.755.755,0,0,1-.562-.252L33.07,45.314a.752.752,0,0,1,1.124-1l6.691,7.525,6.69-7.525a.752.752,0,0,1,1.124,1l-7.252,8.158A.755.755,0,0,1,40.886,53.724Z"/><path class="a" d="M33.633,9.65A.752.752,0,0,1,33.07,8.4L40.323.24a.778.778,0,0,1,1.124,0L48.7,8.4a.752.752,0,0,1-1.124,1l-6.69-7.525L34.195,9.4A.752.752,0,0,1,33.633,9.65Z"/></svg>