<svg width="54" height="70" viewBox="0 0 54 70" fill="none" xmlns="http://www.w3.org/2000/svg">
    <path d="M27.7396 2.2124C28.4233 2.2124 28.9747 2.76654 28.9747 3.45371V4.33861C29.1991 4.10259 29.5123 3.95454 29.8643 3.95454H39.1241C39.8078 3.95454 40.3561 4.50868 40.3561 5.19585V5.96399C40.3561 6.65116 39.8078 7.2053 39.1241 7.2053H29.8643C29.5123 7.2053 29.1991 7.05725 28.9747 6.82124V10.4253C30.0696 10.7459 30.867 11.7565 30.867 12.9632V16.9329H32.3466C33.8052 16.9329 34.9819 18.1124 34.9819 19.5784V21.895H43.3155C45.8094 21.895 47.8529 23.7661 48.1365 26.1936H48.1701V38.1554H49.0842C50.5883 38.1554 51.7988 39.372 51.7988 40.8838C51.7988 42.3956 51.6276 42.4354 51.6276 42.4354H32.5359C32.5359 42.4354 32.3647 42.3955 32.3647 40.8838C32.3647 39.372 33.624 37.7733 35.0794 38.1554H35.8283V31.6508H7.27193V38.266C7.27193 39.7319 6.09841 40.9146 4.63982 40.9146C4.53729 40.9146 4.43658 40.9075 4.33717 40.8961V40.9146H2.20026V13.1299H4.33717V13.1483C4.43667 13.1369 4.53719 13.1299 4.63982 13.1299C6.09841 13.1299 6.82585 14.3796 7.27193 15.7753V21.8958H20.5V19.5792C20.5 18.1132 21.6735 16.9337 23.1321 16.9337H24.6147V12.964C24.6147 11.7562 25.4107 10.7457 26.5071 10.4261V6.80669C26.2819 7.05189 25.9588 7.20612 25.5991 7.20612H16.3423C15.6586 7.20612 15.1073 6.65198 15.1073 5.96481V5.19667C15.1073 4.5095 15.6586 3.95536 16.3423 3.95536H25.5991C25.9589 3.95536 26.2819 4.10959 26.5071 4.35479V3.45454C26.5071 2.76737 27.0554 2.21323 27.7391 2.21323L27.7396 2.2124Z" fill="white"/>
    <path d="M42.0437 44.8652C44.1399 54.1788 49.2797 55.1103 49.1606 61.0057C49.0613 65.9174 45.5085 67.7398 42.4136 67.7869C38.9949 67.8388 35.7964 66.1192 35.8287 60.9934C35.8586 56.2502 40.4957 54.1587 42.0437 44.8657V44.8652ZM42.704 48.5799C42.704 48.5799 43.6937 52.4995 44.1592 53.0842C44.6247 53.669 45.3209 54.8387 45.3209 54.8387L45.7886 54.5468C45.7886 54.5468 44.0435 52.0316 43.7527 51.2715C43.4618 50.5114 42.704 48.5799 42.704 48.5799ZM46.938 55.994L46.1738 56.1783C46.1738 56.1783 46.4887 56.9988 46.6079 57.3981C46.8547 58.225 46.6079 61.7827 46.6079 61.7827L48.1731 61.9455C48.1731 61.9455 48.3351 61.7801 48.3351 60.0436C48.3351 58.307 46.938 55.994 46.938 55.994Z" fill="white"/>
</svg>
