<svg width="114" height="122" viewBox="0 0 114 122" fill="none" xmlns="http://www.w3.org/2000/svg">
    <path d="M55.8074 41.7188C53.7585 41.7185 51.7558 41.1107 50.0523 39.9721C48.3489 38.8336 47.0213 37.2155 46.2375 35.3224C45.4537 33.4294 45.2488 31.3465 45.6488 29.337C46.0488 27.3275 47.0356 25.4818 48.4846 24.0333C49.9336 22.5847 51.7796 21.5982 53.7892 21.1988C55.7988 20.7993 57.8816 21.0048 59.7744 21.7891C61.6672 22.5735 63.285 23.9015 64.4231 25.6052C65.5611 27.3089 66.1685 29.3119 66.1682 31.3608C66.1649 34.1073 65.0721 36.7404 63.1298 38.6823C61.1874 40.6242 58.5539 41.7162 55.8074 41.7188ZM55.8074 23.0903C54.172 23.0905 52.5734 23.5757 51.2138 24.4845C49.8542 25.3932 48.7946 26.6847 48.1689 28.1956C47.5432 29.7065 47.3796 31.369 47.6987 32.9729C48.0178 34.5769 48.8053 36.0502 49.9617 37.2065C51.118 38.3629 52.5913 39.1504 54.1953 39.4696C55.7992 39.7887 57.4618 39.625 58.9727 38.9993C60.4836 38.3736 61.775 37.3139 62.6837 35.9543C63.5925 34.5947 64.0777 32.9961 64.0779 31.3608C64.0757 29.168 63.2036 27.0657 61.6531 25.5151C60.1025 23.9646 58.0002 23.0925 55.8074 23.0903Z" fill="#808080"/>
    <path d="M75.8282 100.357H37.0467C36.8767 100.358 36.7092 100.317 36.5587 100.237C36.4081 100.158 36.2791 100.044 36.1829 99.9035C36.0868 99.7633 36.0263 99.6018 36.0068 99.4329C35.9874 99.2639 36.0096 99.0929 36.0713 98.9345L45.2378 75.3339L38.8946 73.8666C38.6278 73.805 38.396 73.641 38.249 73.41C38.102 73.1791 38.0516 72.8996 38.1087 72.6319C38.6466 70.0845 39.2666 67.5233 39.8672 65.0456C40.3536 63.032 40.8427 61.0198 41.2914 58.9964L41.5841 57.6544C42.4202 53.7693 43.2953 49.7504 45.6447 46.3252C47.8966 43.0365 50.8635 42.872 53.7341 43.1688C57.0479 43.5186 58.7396 45.2507 60.7017 47.2588C61.3748 47.9486 62.0715 48.6635 62.9034 49.3992C63.6149 50.0094 64.3617 50.5771 65.1399 51.0994C67.9855 53.0893 70.9259 55.1405 68.0971 61.3848C70.1469 63.0041 76.0846 68.0292 77.5728 73.0751C79.5433 79.7514 74.1644 84.9895 72.2623 86.5921L76.8148 98.9567C76.8728 99.1143 76.8919 99.2834 76.8706 99.4499C76.8494 99.6164 76.7884 99.7755 76.6927 99.9134C76.597 100.051 76.4696 100.164 76.321 100.242C76.1725 100.321 76.0072 100.362 75.8393 100.363L75.8282 100.357ZM38.5741 98.267H74.3301L70.0354 86.6004C69.9575 86.3873 69.951 86.1546 70.0169 85.9375C70.0827 85.7203 70.2173 85.5303 70.4005 85.3964C70.4715 85.3434 77.4725 80.1317 75.5564 73.6658C73.9873 68.3468 66.2367 62.5986 66.1587 62.5415C65.9599 62.3949 65.8193 62.1828 65.7617 61.9426C65.7041 61.7025 65.733 61.4496 65.8437 61.2288C68.4746 55.9906 66.8609 54.8618 63.9289 52.8106C63.0854 52.2429 62.2758 51.6264 61.5043 50.9641C60.6166 50.1768 59.8613 49.4021 59.1952 48.7192C57.314 46.792 56.0739 45.5141 53.5084 45.248C50.3549 44.9135 48.737 45.5044 47.363 47.5069C45.2448 50.5935 44.4199 54.4075 43.6228 58.0975L43.3274 59.4493C42.8745 61.4866 42.3839 63.5127 41.8934 65.5403C41.375 67.6751 40.8427 69.8742 40.3605 72.0634L46.1214 73.3969C46.1283 73.3969 59.283 76.5226 61.2004 76.9588C61.5728 77.062 61.9627 77.0862 62.3449 77.03C62.7272 76.9739 63.0934 76.8386 63.4203 76.6327C63.7102 76.4042 63.9476 76.1157 64.1159 75.7872C64.2842 75.4587 64.3797 75.0979 64.3959 74.7292C64.6147 72.8647 63.6656 72.4312 61.4471 71.8864L61.0082 71.7762L48.1448 68.4681C48.0106 68.4338 47.8844 68.3731 47.7739 68.2896C47.6635 68.2061 47.5707 68.1015 47.5011 67.9817C47.4315 67.862 47.3864 67.7296 47.3684 67.5923C47.3504 67.455 47.3598 67.3154 47.3963 67.1818L50.0273 57.5178C50.1013 57.2504 50.2783 57.0234 50.5196 56.8866C50.761 56.7497 51.0468 56.7144 51.3142 56.7883C51.5816 56.8622 51.8087 57.0393 51.9455 57.2807C52.0823 57.522 52.1177 57.8079 52.0438 58.0753L49.6916 66.715L61.9544 69.8629C63.8161 70.3214 66.9363 71.0879 66.4792 74.9772C66.435 75.6389 66.2474 76.283 65.9292 76.8649C65.6111 77.4467 65.1701 77.9523 64.6369 78.3467C64.0702 78.7211 63.4314 78.973 62.7617 79.0863C62.0919 79.1995 61.406 79.1717 60.7476 79.0045C59.2496 78.6631 50.8871 76.68 47.2946 75.8272L38.5741 98.267Z" fill="#808080"/>
</svg>
