<svg viewBox="0 0 96 96" xmlns="http://www.w3.org/2000/svg"><g fill="#fff"><path d="m32.5 55.58a.69.69 0 0 0 -.74-.66l-8.33.48 31.85-31.84-.49 8.32a.7.7 0 0 0 .66.74.71.71 0 0 0 .75-.62l.59-10.16a.73.73 0 0 0 -.74-.75l-10.17.6a.71.71 0 0 0 -.45 1.2.74.74 0 0 0 .54.2l8.32-.49-31.85 31.81.49-8.32a.7.7 0 0 0 -1.4-.08l-.6 10.16a.72.72 0 0 0 .21.54.7.7 0 0 0 .53.21l10.17-.6a.71.71 0 0 0 .66-.74z"/><path d="m76.45 41.42-11-11a.75.75 0 0 0 -1.06 0l-29.86 29.87-4.36 4.36a.74.74 0 0 0 0 1.06l11 11a.75.75 0 0 0 1.06 0l34.22-34.23a.75.75 0 0 0 0-1.06zm-34.76 33.7-9.93-9.93 3.3-3.3 4.42 4.42a.75.75 0 0 0 1.06 0 .75.75 0 0 0 0-1.06l-4.42-4.42 2.38-2.38 2.71 2.71a.74.74 0 0 0 .53.22.71.71 0 0 0 .53-.22.74.74 0 0 0 0-1.06l-2.71-2.71 2.13-2.13 4.42 4.42a.77.77 0 0 0 .53.22.79.79 0 0 0 .53-.22.75.75 0 0 0 0-1.06l-4.42-4.42 2.25-2.2 2.71 2.71a.74.74 0 0 0 .53.22.71.71 0 0 0 .53-.22.74.74 0 0 0 0-1.06l-2.77-2.72 2.3-2.3 4.42 4.42a.71.71 0 0 0 .53.22.74.74 0 0 0 .53-.22.75.75 0 0 0 0-1.06l-4.42-4.42 2.24-2.24 2.73 2.67a.75.75 0 0 0 1.06 0 .75.75 0 0 0 0-1.06l-2.71-2.71 2.32-2.23 4.41 4.42a.75.75 0 0 0 1.07-1.06l-4.48-4.42 2.26-2.27 2.74 2.72a.75.75 0 0 0 .53.22.79.79 0 0 0 .53-.22.75.75 0 0 0 0-1.06l-2.72-2.72 2.24-2.24 4.42 4.42a.74.74 0 0 0 .53.22.71.71 0 0 0 .53-.22.74.74 0 0 0 0-1.06l-4.42-4.42 2.29-2.31 9.93 10z"/></g></svg>