<svg fill="none" height="36" viewBox="0 0 62 36" width="62" xmlns="http://www.w3.org/2000/svg"><g fill="#06b9ff"><path d="m61.8999 15.8588c-.3881-1.4507-1.7955-2.4638-3.422-2.4638-.5769 0-1.1422.1292-1.6806.3835-2.0802.9806-9.6946 4.5528-12.8502 5.95.002-.0575.0088-.1143.0088-.1725l-.0703.0007c-.2983-1.7137-1.7868-3.0244-3.5851-3.0244h-7.0902c-2.0187 0-3.8461-.562-5.7796-1.1564-2.0417-.6276-4.1518-1.2769-6.5965-1.2769-4.0862 0-6.0522 1.0097-8.7736 2.4076-1.1253.5776-2.38797 1.2241-3.99416 1.9018v-1.8754h-7.300571v4.3033 14.7222.4416h7.299891v-2.6734c3.60054-1.007 7.73614-1.5602 12.16174-1.5852l.702-.0014c4.4798 0 6.9239.2604 10.0571 1.0733 1.7449.4531 3.4694.2874 5.3137-.5133 6.2976-2.7356 16.7057-8.1872 22.7383-11.6701 3.236-1.8672 3.0784-3.959 2.8613-4.7712zm-55.05079 18.924h-4.86659v-17.0338h4.86659zm51.58209-15.2071c-6.0041 3.4659-16.3567 8.8891-22.6145 11.6078-1.592.6905-3.0433.8339-4.5237.4518-3.2475-.842-5.7654-1.1125-10.3628-1.1125l-.7081.0013c-4.3972.0251-8.5246.5634-12.15634 1.542v-12.341c1.8686-.7635 3.29354-1.4919 4.55014-2.1371 2.6652-1.3688 4.4263-2.273 8.2176-2.273 2.2622 0 4.2836.6222 6.2394 1.2234 1.9342.5945 3.9354 1.2099 6.1374 1.2099h7.0902c1.2444 0 2.2616.9414 2.4056 2.1472-.1637 1.5237-1.4418 2.7201-3.0095 2.7201h-17.0344v1.2166h17.0344c1.7726 0 3.2942-1.0888 3.934-2.6402 2.7856-1.1774 13.5772-6.2618 13.6861-6.3132.374-.1772.7649-.2665 1.1612-.2665 1.0591 0 2.0045.6567 2.2467 1.5609.307 1.1443-.5296 2.384-2.2934 3.4025z"/><path d="m33.4877 0v11.5771c-2.7747-.4784-4.9752-2.87039-4.9752-5.83641 0-2.87035 2.2005-5.357977 4.9752-5.74069z"/><path d="m40.3764 5.74069c0 2.96602-2.1049 5.35801-4.9753 5.83641v-11.5771c2.7747.382713 4.9753 2.87034 4.9753 5.74069z"/><path d="m44.7777 7.46289 4.0185 4.01851-3.1574 3.1574c-1.1482 1.1481-2.966 1.1481-4.0185 0-1.1481-1.1482-1.0525-2.9661 0-4.0185z"/><path d="m53.293 6.98457-3.1573 3.15733-4.0185-4.01844 3.1574-3.15738c1.1481-1.14813 2.8703-1.14813 4.0184 0 1.0525 1.05246 1.1482 2.87035 0 4.01849z"/></g></svg>