<svg fill="none" height="61" viewBox="0 0 43 61" width="43" xmlns="http://www.w3.org/2000/svg" xmlns:xlink="http://www.w3.org/1999/xlink"><mask id="a" fill="#fff"><path d="m9.70667 4.53577 3.03213 3.81691.168-.14565-3.11934-4.95747-1.10225 1.96213-2.76055-3.36062-.70664.66985 3.62119 3.84688z" fill="#fff"/></mask><mask id="b" fill="#fff"><path d="m12.097 0-.8004.194202 1.0408 4.346418 1.4069-.9805.6224 4.07636.1843-.03603-.2067-4.95103-1.634.97784z" fill="#fff"/></mask><mask id="c" fill="#fff"><path d="m8.30989 8.54791 3.64851 1.78049.0751-.1692-4.12415-2.60695-.12517 1.87071-3.28058-1.53579-.29169.75709 4.10253 1.59234z" fill="#fff"/></mask><path d="m31.5503 34.2945c.0021.0036.0054.0094.0094.0167l-1.4084.3592v20.9946h-19.0168v-23.311-1.3417l-1.14287.7028c-.21052.1295-.42197.2606-.63416.3921-.46552.2886-.93459.5794-1.40513.8601-.80902.4767-1.54578.8944-2.39283 1.2138-.49974.1777-.98542.3284-1.67605.3363-.36138-.0004-.77962-.0537-1.21992-.2336l.00002-.0001-.00702-.0028c-.4276-.1698-.8716-.494-1.17121-.8727-.632183-.8179-.726516-1.6149-.735294-2.3135.006941-.815.156816-1.5739.414724-2.5226.2599-.9376.63473-2.012 1.14999-3.3048 1.02986-2.5826 2.6062-5.9961 4.9087-10.569l.00019-.0004c.566-1.1257 1.93866-1.5794 3.06726-1.0115h.0001c.3116.1568.5707.3752.7714.6335-.3005.9524-.4637 1.9653-.4637 3.0152 0 .2582.0101.5136.0295.766-1.86435 3.7482-3.17755 6.6369-4.0248 8.7445l-.84623 2.105 1.93414-1.1859c.78327-.4803 1.59947-.9612 2.42979-1.3726.7327-.3425 1.3963-.6423 2.1897-.8086l.0737-.0154.0691-.0297c.2643-.1138.5546-.1775.8614-.1775h1.2998c1.6787 1.2639 3.7666 2.0171 6.0272 2.0171s4.3478-.7529 6.0272-2.0171h1.3005c.3901 0 .7552.1036 1.074.2844l.0633.0358.0689.0231c.3653.1221.7868.3007 1.2455.5632l.0024.0013c1.213.6884 2.6731 1.9453 4.1001 4.1005 2.8647 4.3495 5.7172 12.2182 6.9817 27.409.1038 1.2553-.8305 2.3586-2.0876 2.4642-.0659.0051-.1292.0076-.1918.0076-1.1765 0-2.176-.9036-2.2751-2.0979-1.0534-12.8804-3.3443-20.0461-5.3828-23.826l-.0017-.0031c-.0052-.0094-.0097-.0172-.0129-.0228zm0 0-.0024-.0041c-.0009-.0015.0006.001.0024.0041z" stroke="#808080" stroke-width="1.5"/><path d="m28.4265 17.3341c0 4.2991-3.4852 7.7843-7.7843 7.7843s-7.7843-3.4852-7.7843-7.7843c0-4.2992 3.4852-7.7843 7.7843-7.7843s7.7843 3.4851 7.7843 7.7843z" stroke="#808080" stroke-width="1.5"/><g fill="#808080"><path d="m9.70667 4.53577 1.17453-.93302-1.49896-1.88689-1.03127 2.17799zm3.03213 3.81691-1.1745.93302.9739 1.226 1.1831-1.02557zm.168-.14565.9825 1.13345.9725-.84299-.6854-1.08931zm-3.11934-4.95747 1.26954-.79886-1.34258-2.13376-1.23473 2.19796zm-1.10225 1.96213-1.15908.95212 1.39244 1.69511 1.07442-1.91257zm-2.76055-3.36062 1.15908-.952116-1.02224-1.244434-1.16878 1.107932zm-.70664.66985-1.03194-1.08862-1.08483 1.02835 1.02455 1.08841zm3.62119 3.84688-1.09222 1.02813 1.50701 1.60093.9409-1.98714zm-.30705-.89901 3.03214 3.81691 2.349-1.86604-3.0321-3.81691zm5.18914 4.01734.168-.14565-1.965-2.2669-.168.14565zm.4551-2.07795-3.1194-4.95748-2.53912 1.59771 3.11942 4.95747zm-5.69671-4.89328-1.10225 1.96213 2.61555 1.46932 1.10221-1.96213zm1.3646 1.74467-2.76055-3.360616-2.31816 1.904236 2.76055 3.36062zm-4.95157-3.497118-.70664.669848 2.06388 2.17724.70664-.66984zm-.76692 2.786608 3.62119 3.84687 2.18443-2.05627-3.62119-3.84688zm6.0691 3.46066.8675-1.83203-2.71143-1.28384-.86746 1.83202z" mask="url(#a)"/><path d="m12.097 0 1.479-.250084-.2684-1.587206-1.5644.37959zm-.8004.194202-.3537-1.457702-1.45329.352655.34826 1.454365zm1.0408 4.346418-1.4587.34932.5121 2.13878 1.8043-1.25749zm1.4069-.9805 1.4828-.22641-.3637-2.381919-1.9768 1.377729zm.6224 4.07636-1.4828.22641.236 1.54569 1.5346-.29996zm.1843-.03603.2878 1.47213 1.2647-.24721-.0538-1.2875zm-.2067-4.95103 1.4987-.06257-.1052-2.5193982-2.1637 1.2948382zm-1.634.97784-1.479.25008.3659 2.16408 1.8833-1.12702zm-.9671-5.08496-.8003.1942.7074 2.9154.8004-.1942zm-1.90533 2.00122 1.04083 4.34642 2.9175-.69864-1.0408-4.346415zm3.35723 5.22771 1.4068-.9805-1.7153-2.46121-1.4068.98049zm-.9337-1.98469.6225 4.07635 2.9656-.45283-.6224-4.07635zm2.3931 5.32208.1843-.03604-.5755-2.94427-.1844.03603zm1.3952-1.57075-.2067-4.95102-2.9974.12515.2067 4.95102zm-2.4756-6.17558-1.6341.97784 1.5405 2.57427 1.6341-.97784zm.6152 2.01489-.6133-3.627264-2.958.500168.6133 3.627256z" mask="url(#b)"/><path d="m8.30989 8.54791.65784-1.34805-2.16433-1.05618.00649 2.40828zm3.64851 1.78049-.6579 1.348 1.3978.6821.6311-1.4215zm.0751-.1692 1.371.6086.5257-1.18422-1.0952-.69232zm-4.12415-2.60695.80147-1.26793-2.12991-1.34635-.16822 2.51414zm-.12517 1.87071-.63598 1.35854 1.98622.9298.14641-2.1882zm-3.28058-1.53579.63598-1.3585-1.45724-.6822-.57845 1.50143zm-.29169.75709-1.39971-.53927-.53793 1.39623 1.3949.54138zm4.10253 1.59234-.54275 1.3983 2.04867.7952-.00593-2.1976zm-.66239-.34063 3.64845 1.78043 1.3157-2.6961-3.64847-1.78044zm5.67735 1.04103.0751-.1692-2.742-1.21725-.0751.16917zm-.4944-2.04574-4.12418-2.60694-1.60295 2.53585 4.12413 2.60693zm-6.42231-1.43915-.12517 1.87071 2.99331.20028.12517-1.87071zm2.00747.61235-3.28058-1.53579-1.27196 2.717 3.28058 1.53583zm-5.31627-.71656-.29169.75709 2.79943 1.07853.29168-.75708zm.56528 2.6947 4.10252 1.5923 1.0855-2.7967-4.10253-1.59231zm6.14526.1899-.00455-1.68863-2.99999.00809.00456 1.68864z" mask="url(#c)"/></g></svg>