<svg fill="none" height="60" viewBox="0 0 31 60" width="31" xmlns="http://www.w3.org/2000/svg"><g stroke="#06b9ff"><path d="m12.5398 32.4684.1484.4591-1.4477-.534c-.622-.2294-1.47827-.6367-2.28481-1.1109-.79002-.4646-1.61745-1.0424-2.11378-1.6332-2.03972-2.4276-2.35915-5.7279-1.11052-8.4276l.66286-1.4332.692 1.4193c.28289.5802.66721 1.3824 1.10211 2.3417l.00023.0005c.63919 1.4128 1.39143 3.1727 2.09421 5.0589m2.257 3.8594-2.95935-3.5963m2.95935 3.5963c.3865.0191.7762.0081 1.1664-.0326h.0002c.1345-.0141.2505.072.2788.1949 0 .0001.0001.0002.0001.0003l.709 3.1039.0807.3533.327.1563c.6485.31 1.3542.5173 2.1003.5993.2564.0317.5189.0468.7796.0468 1.3179 0 2.5521-.3779 3.5901-1.0357m-9.0322-3.3865 9.0322 3.3865m-11.2892-7.2459c.0002.0004.0003.0009.0005.0013l-.70285.2618m.70235-.2631c-.0001-.0002-.0002-.0005-.0003-.0007l-.70205.2638m.70235-.2631c.0366.0971.1265.2525.2905.477.1475.202.323.4177.5155.6543.0148.0182.0297.0365.0447.055.0391.048.0787.0968.1186.1462m-1.67165-1.0694c.14173.3771.52955.8537.92355 1.3379.0964.1183.1931.2371.2866.3551.1697.0824.3333.158.4869.2252-.0195-.2099-.0292-.4219-.0292-.6357v-.0092c0-.0537 0-.1262.0038-.2039m0 0c.0009-.0171.0019-.0344.0031-.0519m-.0031.0519c.0565.0699.1135.1412.17.2131.1117.142.2216.2866.3218.4294.1166.1661.2357.351.3328.5453-.0522-.317-.0784-.6426-.0784-.9747 0-.0753 0-.1503.0059-.2228.1165-3.2046 2.7455-5.7666 5.9779-5.7666 1.8496 0 3.505.84 4.601 2.1559.4395.5257.7901 1.1265 1.0265 1.7831v.0029c-.5201.8401-1.2156 1.5688-2.0556 2.1419-.4201.2864-.5675.8401-.3367 1.2936l1.2962 2.5228c-.3839.4508-.8372.8401-1.341 1.1548l-9.9173-5.3306m0 0c.1388-3.5985 3.0935-6.4744 6.7269-6.4744 2.0815 0 3.9448.9462 5.1773 2.4259.4936.5906.8889 1.2675 1.1559 2.0091l.0443.1231v.1309.0029.2134l-.1123.1814c-.5758.93-1.3448 1.735-2.2707 2.3667l-.0002.0002c-.1141.0777-.147.2222-.091.3329.0001.0002.0002.0005.0003.0007l1.2949 2.5203.2295.4467-.3256.3823c-.434.5096-.9453.9487-1.5125 1.3032m-10.3168-5.9653 10.3168 5.9653m5.4608-.9266.0003.0016c.3508 1.6932.5803 3.4149.6949 5.144l.9538 18.8931.0004.0081.0006.0082c.0102.1412-.1016.2668-.2531.2668h-3.9976c-.1207 0-.2315-.0909-.25-.2237l-.0005-.0033-2.8781-20.0564c-.0002-.0017-.0004-.0034-.0007-.005-.1021-.7549-.7497-1.3061-1.4994-1.3061h-.0001-.0001-.0001-.0001-.0001-.0001-.0001-.0001-.0001-.0001-.0001-.0001-.0001-.0001-.0001-.0001-.0001-.0001-.0001-.0001-.0001-.0001-.0001-.0001-.0001-.0001-.0001-.0001-.0001-.0001-.0001-.0001-.0001-.0001-.0001-.0001-.0001-.0001-.0001-.0001-.0001-.0001-.0001-.0001-.0001-.0001-.0001-.0001-.0001-.0001-.0001-.0001-.0001-.0001-.0001v-.0001l-.0098.0002c-.8425.011-1.516.709-1.4939 1.5512l.5175 19.7792v.0003c.0034.1478-.1128.2637-.2545.2637h-3.9947c-.1329 0-.2424-.1016-.254-.2303-.0001-.0004-.0001-.0009-.0001-.0013l-1.5993-19.9164-.0005-.0057-.1499-1.7058v-.66l-.6876-.0574c-3.16962-.2645-6.15275-1.7649-8.27596-4.2914-1.91249-2.2768-2.84514-5.0528-2.84514-7.8156 0-2.7696.93637-5.5228 2.766-7.74h.00005l.00598-.0074c.01192-.0149.02795-.0372.04925-.0668.09444-.1316.29255-.4075.69608-.8147.4433-.4473 1.11468-1.0263 2.06189-1.5995.84409.2789 1.74456.4271 2.67792.4271 2.45523 0 4.67523-1.0362 6.23663-2.692.8226-.0142 1.6987.0088 2.6302.077v.0002l.6863.0584c6.2163.5293 11.1163 5.7628 11.1163 12.1155 0 2.9803-1.0766 5.7748-2.9495 7.9409l-.183.2117.0004.2798.75-.001c-.75.001-.75.0014-.75.0017v.0007.0013.0028l.0001.0056.0003.0118c.0002.008.0006.0168.0012.026.0013.0183.0034.04.0071.0643.0049.0316.0138.0769.0319.1298.1683.6374.3142 1.2776.4477 1.9289z" stroke-width="1.5"/><path d="m17.3695 28.3014.0001-.0002.9995-2.0708v-.0001c.1299-.2692.0596-.5872-.1569-.7487v-.0001c-.3069-.229-.7246-.1147-.8814.2107l-.0001.0001-1.8423 3.818-.0001.0001c-.1203.2491-.0535.5603.1964.7382l.0003.0003c.0914.0653.2131.1.3472.1h1.4242c.4451 0 .742.46.5575.8656 0 .0001 0 .0001-.0001.0002l-1.1673 2.57-.0001.0001c-.1271.2796-.0372.6065.1995.7581zm0 0c-.1956.4065.1003.8785.5518.8785h1.3935c.1988 0 .3838.101.4912.2679l.0002.0002c.1077.1669.1231.3774.041.5581h-.0001l-1.9487 4.289v.0001m-.5289-5.9938.5289 5.9938m0 0c-.0975.2149-.3098.3429-.5329.343m.5329-.343-.5329.343m0 0c-.1066 0-.2169-.0297-.3195-.0953z" stroke-width=".5"/><path d="m8.93216 11.5932.02074.0015s.00027.0001.00083.0001l.00255.0001.01021.0003c.00585.0001.01207.0001.01993.0002h.02068c.93574 0 1.8111-.2346 2.576-.6513l.0018-.001c1.6955-.9175 2.8451-2.70912 2.8451-4.77034 0-2.99345-2.4295-5.42276-5.42302-5.42276-2.99583 0-5.42249 2.42901-5.42251 5.42273zm0 0-.02079-.0003m.02079.0003-.02079-.0003m0 0c-2.95165-.049-5.32677-2.45555-5.3269-5.42014z" stroke-width="1.5"/></g></svg>