<?xml version="1.0" encoding="UTF-8" standalone="no"?>
<svg
   xmlns:dc="http://purl.org/dc/elements/1.1/"
   xmlns:cc="http://creativecommons.org/ns#"
   xmlns:rdf="http://www.w3.org/1999/02/22-rdf-syntax-ns#"
   xmlns:svg="http://www.w3.org/2000/svg"
   xmlns="http://www.w3.org/2000/svg"
   xmlns:sodipodi="http://sodipodi.sourceforge.net/DTD/sodipodi-0.dtd"
   xmlns:inkscape="http://www.inkscape.org/namespaces/inkscape"
   viewBox="0 0 31.826 44"
   version="1.1"
   id="svg12"
   sodipodi:docname="icon-down.svg"
   inkscape:version="0.92+devel unknown">
  <metadata
     id="metadata16">
    <rdf:RDF>
      <cc:Work
         rdf:about="">
        <dc:format>image/svg+xml</dc:format>
        <dc:type
           rdf:resource="http://purl.org/dc/dcmitype/StillImage" />
      </cc:Work>
    </rdf:RDF>
  </metadata>
  <sodipodi:namedview
     pagecolor="#ffffff"
     bordercolor="#666666"
     inkscape:document-rotation="0"
     borderopacity="1"
     objecttolerance="10"
     gridtolerance="10"
     guidetolerance="10"
     inkscape:pageopacity="0"
     inkscape:pageshadow="2"
     inkscape:window-width="1600"
     inkscape:window-height="839"
     id="namedview14"
     showgrid="false"
     inkscape:zoom="15.25"
     inkscape:cx="14.86382"
     inkscape:cy="22"
     inkscape:window-x="0"
     inkscape:window-y="0"
     inkscape:window-maximized="1"
     inkscape:current-layer="svg12" />
  <defs
     id="defs4">
    <style
       id="style2">.a{fill:#d4145a;}</style>
  </defs>
  <title
     id="title6">icon-down</title>
  <path
     class="a"
     d="M2,26.087a1.994,1.994,0,0,1,1.414.586l12.5,12.5,12.5-12.5A2,2,0,1,1,31.241,29.5L17.327,43.414a2,2,0,0,1-2.829,0L.586,29.5A2,2,0,0,1,2,26.087Z"
     id="path8"
     style="fill:#666666;fill-opacity:1" />
  <path
     class="a"
     d="M15.913,0a2,2,0,0,1,2,2V42a2,2,0,0,1-4,0V2A2,2,0,0,1,15.913,0Z"
     id="path10"
     style="fill:#666666;fill-opacity:1" />
</svg>
