<svg width="43" height="53" viewBox="0 0 43 53" fill="none" xmlns="http://www.w3.org/2000/svg">
<path d="M16.9889 9.42739C17.0005 9.42439 16.9332 9.42205 16.9448 9.41866C16.9653 9.4128 19.2252 8.83199 21.4817 8.79174C23.7383 8.83199 25.7376 9.4128 25.7582 9.41866C25.7698 9.42205 25.889 9.42439 25.9006 9.42739C27.6611 6.2533 28.1086 2.66708 28.089 2.47508C28.0897 2.47547 28.0213 2.43105 28.0218 2.43157C27.7324 2.23866 27.5023 2.11961 27.4466 2.08887C27.4389 2.08457 27.269 1.99091 27.2612 1.98688C25.635 1.13539 23.6366 0.685091 21.4817 0.68457C19.3269 0.685091 17.3285 1.13539 15.7022 1.98688C15.6944 1.99091 15.5246 2.08457 15.5169 2.08887C15.4611 2.11961 15.2311 2.23853 14.9417 2.43157C14.9422 2.43105 14.8424 2.49579 14.8431 2.4954C14.8235 2.6874 15.2284 6.2533 16.9889 9.42739Z" fill="#C4C4C4"/>
<path d="M41.3948 43.7799L41.3948 43.7798C36.7668 37.6564 33.1866 32.9305 30.3098 29.1333L30.3097 29.1333L29.685 28.3086C28.7074 27.0181 27.8242 25.8523 27.0229 24.7937L26.7856 24.4802L27.0342 24.1756C27.8447 23.1831 30.4033 20.0397 31.1082 19.0602C31.571 18.4106 32.0654 17.7104 32.3185 16.7311C32.5696 15.7599 32.5931 14.4677 32.0082 12.6473L32.0074 12.6449C30.7004 8.50605 29.7277 5.84062 29.3196 4.77782L29.7863 4.59859L29.3196 4.77782C29.1128 4.23923 28.9815 3.94649 28.7867 3.69611C28.6905 3.57256 28.5726 3.45167 28.409 3.31694C28.3358 3.7386 28.2228 4.29451 28.0597 4.93362C27.7142 6.28722 27.1394 8.03249 26.2315 9.66933L26.2315 9.66935C26.0738 9.95352 25.9064 10.2367 25.726 10.5147L25.726 10.5148C24.4514 12.4787 23.2955 14.2246 21.889 16.1833L21.4829 16.7489L21.0767 16.1833C19.6702 14.2246 18.5143 12.4786 17.2398 10.5148L17.2397 10.5147C17.0593 10.2367 16.8919 9.95352 16.7343 9.66935L16.7343 9.66933C15.8264 8.03249 15.2516 6.28722 14.9061 4.93362C14.7429 4.29445 14.6299 3.7385 14.5567 3.31682C14.3931 3.45156 14.2751 3.57245 14.179 3.69601C13.9841 3.94637 13.8529 4.2391 13.6462 4.77775L13.6462 4.77782C13.2381 5.84062 12.2653 8.50605 10.9583 12.6449L10.9576 12.6473C10.3727 14.4677 10.3961 15.7599 10.6472 16.7311C10.9004 17.7102 11.3946 18.4103 11.8572 19.0598C12.5619 20.0391 15.1209 23.183 15.9313 24.1757L16.1799 24.4802L15.9426 24.7936C14.9741 26.0733 13.8861 27.5095 12.656 29.1333L12.2574 28.8314L12.656 29.1333C9.77915 32.9305 6.19905 37.6566 1.57095 43.7798L1.57091 43.7799C1.41541 43.9856 1.41649 44.2529 1.57406 44.4575L1.57414 44.4576L7.03203 51.5482L7.03208 51.5483C7.15533 51.7085 7.36402 51.8143 7.59862 51.8144C7.59881 51.8144 7.599 51.8144 7.59919 51.8144L7.60102 51.8143L7.60931 51.8142C7.84808 51.8111 8.05728 51.6991 8.17683 51.5342L8.25633 51.4246C9.02177 50.3686 15.0877 42.0005 21.0777 33.7182L21.4829 33.158L21.888 33.7182C25.1818 38.2726 28.4985 42.8527 30.9443 46.2289C30.9962 46.1602 31.0523 46.0851 31.1121 46.0044C31.4374 45.5651 31.8593 44.9765 32.28 44.3829C32.9463 43.4428 33.6178 42.4785 33.8726 42.1127C33.9364 42.021 33.9741 41.9669 33.979 41.9601L33.9793 41.9597C34.2932 41.5268 34.8026 41.2759 35.3372 41.267C35.3392 41.267 35.3413 41.267 35.3433 41.2669L35.3499 41.7669C35.3554 41.7666 35.3609 41.7666 35.3663 41.7666H35.3665C35.7482 41.7666 36.1069 41.9381 36.3299 42.2279L41.3948 43.7799ZM41.3948 43.7799C41.5828 44.0286 41.5785 44.3581 41.4512 44.5235L41.4511 44.5234L41.4443 44.5327L40.1223 46.3351L36.7262 41.923L41.3948 43.7799Z" stroke="#808080"/>
<path d="M35.5637 41.6572C35.5581 41.6572 35.5524 41.6572 35.5466 41.6575C35.1508 41.6627 34.6218 41.6572 34.2941 42.2064C34.2611 42.2617 33.1335 43.8349 30.9165 47.0413L30.9164 47.0414H40.2265L40.2264 47.0413L36.5473 42.128C36.3196 41.8323 35.9533 41.6572 35.5637 41.6572Z" fill="#C4C4C4"/>
</svg>
