<svg width="34" height="26.109" xmlns="http://www.w3.org/2000/svg">
 <defs>
  <style>.a{fill:#b1b1b1;}</style>
 </defs>
 <title>icon-arrow</title>
 <g class="currentLayer">
  <title>Layer 1</title>
  <path transform="rotate(180 26.67577362060547,13.055148124694824) " id="svg_1" d="m32.423272,26.076954a1.554,1.554 0 0 1 -1.1,-0.457l-11.5,-11.5a1.559,1.559 0 0 1 0,-2.2l11.5,-11.5a1.559,1.559 0 0 1 2.2,2.2l-10.391,10.402l10.394,10.394a1.559,1.559 0 0 1 -1.1,2.661l-0.003,0z" class="a"/>
  <path id="svg_2" d="m28.897072,14.677092l-27.278,0a1.559,1.559 0 0 1 0,-3.117l27.278,0a1.559,1.559 0 0 1 0,3.117z" class="a"/>
 </g>
 <g>
  <title>Layer 2</title>
  <rect fill="none" y="0" x="0" height="100%" width="100%" id="backgroundrect"/>
 </g>
 <g>
  <title>background</title>
  <rect fill="none" id="canvas_background" height="402" width="582" y="-1" x="-1"/>
 </g>
</svg>
