<svg viewBox="0 0 92 92" xmlns="http://www.w3.org/2000/svg"><g fill="#808080"><path d="m45.82 30.13a7.44 7.44 0 1 1 7.43-7.43 7.43 7.43 0 0 1 -7.43 7.43zm0-13.37a5.94 5.94 0 1 0 5.93 5.94 5.94 5.94 0 0 0 -5.93-5.94z"/><path d="m60.19 72.21h-27.83a.75.75 0 0 1 -.7-1l6.58-16.94-4.56-1a.75.75 0 0 1 -.56-.89c.39-1.82.83-3.66 1.26-5.44.35-1.44.7-2.89 1-4.34l.21-1c.61-2.79 1.23-5.68 2.92-8.13s3.74-2.48 5.8-2.27c2.38.25 3.59 1.5 5 2.94.48.49 1 1 1.58 1.53a16.14 16.14 0 0 0 1.6 1.22c2.05 1.43 4.16 2.91 2.13 7.38 1.47 1.16 5.73 4.77 6.8 8.39 1.41 4.79-2.45 8.55-3.82 9.7l3.27 8.87a.74.74 0 0 1 -.09.69.75.75 0 0 1 -.59.29zm-26.74-1.5h25.66l-3.11-8.37a.75.75 0 0 1 .26-.87c.05 0 5.08-3.77 3.71-8.41-1.13-3.82-6.69-8-6.75-8a.74.74 0 0 1 -.22-.94c1.88-3.76.73-4.57-1.38-6a19.49 19.49 0 0 1 -1.74-1.32c-.63-.57-1.18-1.13-1.65-1.62-1.35-1.38-2.24-2.29-4.09-2.49-2.26-.24-3.42.19-4.41 1.62-1.52 2.22-2.11 5-2.68 7.6l-.21 1c-.33 1.46-.68 2.92-1 4.37s-.75 3.11-1.1 4.68l4.14 1 10.82 2.46a2 2 0 0 0 1.59-.24 1.84 1.84 0 0 0 .7-1.36c.15-1.34-.53-1.65-2.12-2l-.31-.08-9.24-2.37a.77.77 0 0 1 -.46-.35.74.74 0 0 1 -.07-.58l1.89-6.93a.75.75 0 1 1 1.44.39l-1.68 6.2 8.79 2.26c1.34.33 3.57.88 3.25 3.67a3.29 3.29 0 0 1 -1.33 2.42 3.5 3.5 0 0 1 -2.79.47c-1.07-.24-7.07-1.67-9.65-2.28z"/></g></svg>