<svg viewBox="0 0 96 96" xmlns="http://www.w3.org/2000/svg"><g fill="#fff"><path d="m47.58 32.29a7.44 7.44 0 1 0 -7.43-7.43 7.43 7.43 0 0 0 7.43 7.43zm0-13.37a5.94 5.94 0 1 1 -5.93 5.94 5.95 5.95 0 0 1 5.93-5.94z"/><path d="m59.38 64.49c1.37-1.15 5.23-4.91 3.82-9.7-1.07-3.62-5.33-7.22-6.81-8.39 2-4.47-.08-5.95-2.12-7.38a16.14 16.14 0 0 1 -1.6-1.22c-.6-.53-1.1-1-1.58-1.53-1.41-1.44-2.62-2.69-5-2.94-2.06-.21-4.19-.09-5.8 2.27s-2.29 5.34-2.92 8.13l-.21 1c-.32 1.45-.67 2.9-1 4.34-.43 1.78-.87 3.62-1.26 5.45a.74.74 0 0 0 .56.88l4.56 1-6.6 16.95a.74.74 0 0 0 .7 1h27.88a.75.75 0 0 0 .61-.32.77.77 0 0 0 .09-.69zm-24.17 8.38 6.26-16.11c2.58.61 8.58 2 9.65 2.28a3.5 3.5 0 0 0 2.79-.47 3.27 3.27 0 0 0 1.33-2.42c.32-2.79-1.91-3.34-3.25-3.67l-8.8-2.26 1.69-6.22a.74.74 0 0 0 -.52-.92.76.76 0 0 0 -.93.53l-1.88 6.93a.74.74 0 0 0 .07.58.77.77 0 0 0 .46.35l9.23 2.37.32.08c1.59.39 2.27.7 2.12 2a1.88 1.88 0 0 1 -.7 1.37 2 2 0 0 1 -1.59.23c-1.38-.25-10.82-2.52-10.82-2.52l-4.14-1c.35-1.57.73-3.15 1.1-4.68s.7-2.91 1-4.38l.21-1c.57-2.64 1.16-5.38 2.68-7.59 1-1.44 2.15-1.87 4.41-1.63 1.84.2 2.74 1.11 4.09 2.49.47.5 1 1 1.65 1.62a19.49 19.49 0 0 0 1.74 1.32c2.11 1.47 3.26 2.28 1.38 6a.74.74 0 0 0 .22.94c.06 0 5.62 4.17 6.75 8 1.37 4.64-3.66 8.38-3.71 8.42a.74.74 0 0 0 -.26.86l3.08 8.37z"/></g></svg>