<svg height="24pt" viewBox="0 0 24 24" width="24pt" xmlns="http://www.w3.org/2000/svg"><g fill="#b1b1b1"><path d="m20.882812 11.109375-2.792968 2.796875c-.160156.160156-.324219.304688-.496094.441406-.652344.523438-1.390625.886719-2.164062 1.089844-.703126.191406-1.4375.25-2.15625.171875-.675782-.070313-1.335938-.253906-1.957032-.558594-.585937-.28125-1.132812-.660156-1.613281-1.144531-.484375-.480469-.863281-1.027344-1.144531-1.613281.773437-.546875 1.851562-.472657 2.542968.214843.710938.710938 1.621094 1.09375 2.550782 1.152344.660156.039063 1.335937-.085937 1.945312-.378906.398438-.1875.769532-.445312 1.09375-.773438l2.796875-2.792968c1.542969-1.542969 1.554688-4.039063.011719-5.582032-1.546875-1.542968-4.058594-1.554687-5.605469-.007812l-2.144531 2.144531c-.816406-.214843-1.652344-.300781-2.488281-.253906.136719-.171875.28125-.335937.441406-.496094l2.796875-2.792969c2.316406-2.316406 6.070312-2.316406 8.386719 0 2.3125 2.3125 2.3125 6.070313-.003907 8.382813zm0 0"/><path d="m13.894531 18.101562-2.792969 2.792969c-2.316406 2.316407-6.050781 2.339844-8.367187.023438-2.316406-2.316407-2.335937-6.09375-.019531-8.410157l2.796875-2.792968c.15625-.160156.320312-.308594.492187-.445313.652344-.519531 1.390625-.882812 2.167969-1.089843.703125-.191407 1.433594-.246094 2.15625-.167969.671875.070312 1.335937.253906 1.953125.554687.585938.28125 1.132812.664063 1.613281 1.148438.484375.480468.867188 1.027344 1.144531 1.613281-.769531.546875-1.851562.472656-2.539062-.21875-.710938-.707031-1.625-1.089844-2.550781-1.152344-.660157-.035156-1.335938.089844-1.949219.382813-.394531.183594-.765625.445312-1.089844.769531l-2.796875 2.796875c-1.546875 1.546875-1.546875 4.046875 0 5.589844 1.542969 1.546875 4.046875 1.546875 5.589844 0l2.148437-2.148438c.808594.21875 1.652344.300782 2.484376.257813-.132813.171875-.28125.335937-.441407.496093zm0 0"/></g></svg>