<svg width="65" height="67" viewBox="0 0 65 67" fill="none" xmlns="http://www.w3.org/2000/svg">
<path d="M16.2388 47.8525C18.0657 53.119 19.3513 57.7311 19.2836 63.4823C25.4543 67.2172 36.3343 65.9858 41.0029 64.9032C42.4238 64.5649 45.1438 62.5486 44.6567 57.1898C44.1695 51.831 45.6716 52.5211 47.2955 52.5211H52.979C56.6327 52.3069 57.174 50.153 57.0387 49.4763L56.2268 39.3158C56.2268 38.5039 58.812 37.5605 60.2864 36.88C62.9252 35.6621 64.9551 36.0794 62.5193 32.6286C60.5706 29.8681 58.0536 24.3063 57.0387 21.8705L54.8059 14.0405C49.1223 -0.370937 24.9672 -4.22784 11.7732 9.57489" stroke="#808080" stroke-width="2"/>
<path fill-rule="evenodd" clip-rule="evenodd" d="M4.16446 16.769C2.76502 18.5598 1.91707 21.0064 1.91707 23.5607C1.91707 29.2868 5.71739 34.0934 9.73001 37.5527C11.7167 39.2654 13.708 40.6063 15.2048 41.5194C15.9521 41.9753 16.5735 42.323 17.0057 42.5557C17.0919 42.602 17.1705 42.6438 17.241 42.6809C17.3134 42.6408 17.3942 42.5955 17.483 42.5451C17.9163 42.2994 18.5388 41.9336 19.2874 41.4575C20.7865 40.5039 22.781 39.1143 24.7709 37.3677C28.798 33.8332 32.5903 29.0275 32.5903 23.5607C32.5903 21.0068 31.7424 18.5601 30.3431 16.7693C28.9483 14.9843 27.0436 13.8889 24.8921 13.8889C21.9179 13.8889 19.6111 15.8367 18.1141 18.9027L17.2537 20.6649L16.3933 18.9027C14.8961 15.8365 12.5893 13.8889 9.61528 13.8889C7.46394 13.8889 5.55923 14.9841 4.16446 16.769ZM17.2537 43.7685C16.8379 44.6369 16.8372 44.6366 16.8372 44.6366L16.8329 44.6345L16.8219 44.6291L16.7827 44.6098C16.749 44.5931 16.7003 44.5687 16.6376 44.5368C16.5121 44.4729 16.3307 44.3788 16.1012 44.2553C15.6424 44.0084 14.9907 43.6436 14.2103 43.1675C12.6517 42.2166 10.5693 40.8154 8.48219 39.0162C4.34725 35.4515 0 30.1542 0 23.5607C0 20.5966 0.978887 17.7254 2.65708 15.578C4.33987 13.4245 6.76353 11.9612 9.61528 11.9612C12.9736 11.9612 15.5274 13.8536 17.2537 16.5239C18.9798 13.8537 21.5336 11.9612 24.8921 11.9612C27.7441 11.9612 30.1677 13.4248 31.8505 15.5783C33.5286 17.7259 34.5073 20.5971 34.5073 23.5607C34.5073 29.9053 30.152 35.2036 26.0316 38.82C23.9477 40.649 21.8684 42.0967 20.3122 43.0866C19.5331 43.5822 18.8825 43.9646 18.4247 44.2242C18.1957 44.354 18.0147 44.4533 17.8898 44.5207C17.8274 44.5544 17.7789 44.5802 17.7453 44.5978L17.7065 44.6181L17.6956 44.6237L17.6925 44.6255L17.6914 44.6259C17.6914 44.6259 17.6908 44.6263 17.2537 43.7685ZM17.2537 43.7685L17.6914 44.6259L17.267 44.8446L16.8372 44.6366L17.2537 43.7685Z" fill="#808080"/>
</svg>
