<svg width="114" height="122" viewBox="0 0 114 122" fill="none" xmlns="http://www.w3.org/2000/svg">
<path d="M91.3327 88.7584H23.5523C23.3027 88.7584 23.0634 88.6524 22.8869 88.4635C22.7104 88.2747 22.6113 88.0185 22.6113 87.7514V45.3234C22.6113 45.0564 22.7104 44.8002 22.8869 44.6114C23.0634 44.4225 23.3027 44.3164 23.5523 44.3164H91.3327C91.4564 44.3163 91.5789 44.3422 91.6932 44.3928C91.8074 44.4433 91.9113 44.5175 91.9987 44.611C92.0862 44.7045 92.1556 44.8156 92.2029 44.9378C92.2503 45.06 92.2747 45.1911 92.2747 45.3234V87.7474C92.2752 87.8801 92.2511 88.0115 92.204 88.1342C92.1568 88.2569 92.0875 88.3685 92 88.4624C91.9125 88.5563 91.8085 88.6309 91.694 88.6817C91.5795 88.7325 91.4567 88.7586 91.3327 88.7584ZM24.4942 86.7434H90.3918V46.3314H24.4942V86.7434Z" fill="#06B9FF"/>
<path d="M72.419 45.9799L69.2504 36.9359H45.6346L42.4659 45.9799L40.7036 45.2729L44.1003 35.5729C44.1675 35.3807 44.288 35.2151 44.4457 35.0982C44.6033 34.9813 44.7905 34.9188 44.9823 34.9189H69.9026C70.0942 34.919 70.2812 34.9816 70.4387 35.0985C70.5962 35.2153 70.7166 35.3809 70.7838 35.5729L74.1822 45.2729L72.419 45.9799Z" fill="#06B9FF"/>
<path d="M57.442 81.6733C54.7181 81.6731 52.0554 80.8085 49.7906 79.1889C47.5259 77.5692 45.7607 75.2672 44.7185 72.574C43.6762 69.8808 43.4037 66.9173 43.9352 64.0582C44.4667 61.1992 45.7784 58.5731 47.7046 56.5119C49.6308 54.4507 52.0848 53.0471 54.7564 52.4785C57.4279 51.9098 60.1972 52.2017 62.7137 53.3173C65.2302 54.4329 67.3812 56.3221 68.8945 58.7459C70.4078 61.1697 71.2155 64.0193 71.2155 66.9343C71.2115 70.8422 69.7591 74.5889 67.1769 77.3521C64.5947 80.1153 61.0937 81.6693 57.442 81.6733ZM57.442 54.2113C55.0905 54.2113 52.7916 54.9576 50.8364 56.3558C48.8811 57.754 47.3572 59.7412 46.4573 62.0663C45.5574 64.3914 45.322 66.9498 45.7809 69.418C46.2397 71.8863 47.3722 74.1534 49.0351 75.9329C50.6979 77.7123 52.8165 78.9241 55.123 79.4149C57.4294 79.9058 59.82 79.6536 61.9926 78.6904C64.1651 77.7272 66.022 76.0963 67.3283 74.0037C68.6347 71.9111 69.3319 69.4509 69.3317 66.9343C69.328 63.561 68.074 60.327 65.845 57.9418C63.6161 55.5566 60.5941 54.215 57.442 54.2113Z" fill="#06B9FF"/>
</svg>
