<svg width="64" height="66" viewBox="0 0 64 66" fill="none" xmlns="http://www.w3.org/2000/svg">
<path fill-rule="evenodd" clip-rule="evenodd" d="M50 29.0603V13.3333H52.6667V29.0603C52.6667 31.5521 53.5295 34.0178 54.6015 36.5606C55.3519 38.3407 56 40.5134 56 42.6666C55.9999 45.7983 54.5942 47.8729 52.7395 49.1094C50.9588 50.2965 48.8443 50.6666 47.3333 50.6666C45.5103 50.6666 44.3107 50.2778 43.2965 49.7805C42.9829 49.6269 42.6599 49.4475 42.3774 49.2907C42.2531 49.2218 42.1367 49.1571 42.0325 49.101C41.6574 48.899 41.3083 48.7305 40.9117 48.5982C40.5462 48.4763 39.7565 48.391 38.6506 48.3737C37.6002 48.3573 36.4239 48.4021 35.3923 48.4621C34.2626 48.5277 33.26 48.9294 32.0322 49.4215C31.6567 49.5719 31.2602 49.7309 30.8324 49.8913C29.5647 50.3665 27.8816 50.6666 25.3333 50.6666C22.6895 50.6666 21.4261 50.5141 20.5581 50.1421C20.1978 49.9878 19.9017 49.7862 19.7259 49.6667C19.6911 49.643 19.6611 49.6226 19.6362 49.6063C19.5884 49.5753 19.5383 49.5435 19.4815 49.511C19.1767 49.7206 18.7971 49.929 18.231 50.1059C17.1363 50.4479 15.3522 50.6666 11.9999 50.6666C10.8556 50.6666 9.8748 50.3921 9.10984 49.813C8.34125 49.2313 7.92356 48.4429 7.72464 47.6627C7.34544 46.1755 7.70657 44.5406 8.08488 43.5318C8.28002 43.0114 8.77752 42.6666 9.33332 42.6666H14.1989L15.0359 41.997C16.5894 40.7542 18.3566 39.8858 20.1459 39.2455C22.457 38.4186 25.3846 37.1526 28.0376 35.4683C30.6297 33.823 32.8381 31.8549 34.0303 29.6174L35.3394 15.8735L37.994 16.1263L36.6606 30.1263C36.645 30.2899 36.5994 30.4493 36.5258 30.5962C35.0491 33.5495 32.3165 35.9107 29.4667 37.7198C26.5959 39.5422 23.4742 40.8869 21.0443 41.7563C19.4427 42.3294 17.9606 43.0722 16.7018 44.0793L15.8647 44.7489C15.3919 45.1271 14.8045 45.3333 14.1989 45.3333H10.3351C10.2174 45.9125 10.1857 46.5219 10.3086 47.0038C10.393 47.3349 10.5336 47.5463 10.7192 47.6869C10.9084 47.8301 11.2776 47.9999 11.9999 47.9999C15.3144 47.9999 16.7524 47.7741 17.4355 47.5606C17.7376 47.4662 17.879 47.3779 17.9854 47.3034C17.9925 47.2985 18.0069 47.2875 18.0275 47.2719C18.1431 47.1842 18.4518 46.9499 18.737 46.8074C19.0533 46.6493 19.4194 46.6231 19.7549 46.735C20.3805 46.9435 20.7745 47.165 21.0928 47.3727C21.1894 47.4356 21.2606 47.4834 21.3169 47.5213C21.4521 47.6121 21.5012 47.6451 21.6084 47.6911C21.9071 47.8191 22.6435 47.9999 25.3333 47.9999C27.6823 47.9999 29.023 47.7217 29.8965 47.3942C30.1826 47.287 30.4865 47.1641 30.8055 47.035C32.0934 46.514 33.6277 45.8934 35.2377 45.7998C36.2997 45.7382 37.5487 45.6895 38.6922 45.7074C39.7803 45.7243 40.953 45.801 41.7549 46.0683C42.3582 46.2694 42.8591 46.5175 43.2967 46.753C43.4667 46.8446 43.615 46.9271 43.7538 47.0043C43.9995 47.141 44.2155 47.2613 44.4702 47.3861C45.1558 47.7221 45.9562 47.9999 47.3333 47.9999C48.4888 47.9999 50.0411 47.7034 51.2603 46.8905C52.4057 46.127 53.3332 44.8682 53.3334 42.6666C53.3334 41.0083 52.8232 39.2073 52.1442 37.5965C51.0571 35.0178 50 32.1267 50 29.0603Z" fill="#808080"/>
<path fill-rule="evenodd" clip-rule="evenodd" d="M45.3333 30.6667C46.0697 30.6667 46.6667 31.2637 46.6667 32.0001H45.3333C46.6667 32.0001 46.6667 32.0001 46.6667 32.0001V32.0025V32.0051V32.0118L46.6665 32.0294C46.6663 32.0431 46.666 32.0606 46.6653 32.0819C46.6643 32.1243 46.662 32.1817 46.658 32.2523C46.6499 32.3934 46.6341 32.5887 46.6037 32.8259C46.5432 33.2981 46.4229 33.9478 46.1816 34.6717C45.7003 36.1158 44.7095 37.9294 42.686 39.1434C42.0545 39.5222 41.2356 39.3175 40.8567 38.6861C40.4779 38.0546 40.6827 37.2357 41.314 36.8567C42.624 36.0707 43.2999 34.8843 43.6517 33.8285C43.8272 33.3023 43.9152 32.827 43.9588 32.4867C43.9804 32.3177 43.9908 32.1847 43.9957 32.0994C43.9981 32.0567 43.9992 32.0262 43.9997 32.009L44 31.9939C44.0033 31.2603 44.5991 30.6667 45.3333 30.6667Z" fill="#808080"/>
<path d="M48.067 52.75C48.2594 52.4167 48.7406 52.4167 48.933 52.75L53.6962 61C53.8886 61.3333 53.648 61.75 53.2631 61.75H43.7369C43.352 61.75 43.1114 61.3333 43.3038 61L48.067 52.75Z" stroke="#808080"/>
</svg>
