<svg fill="none" height="60" viewBox="0 0 44 60" width="44" xmlns="http://www.w3.org/2000/svg"><path d="m1 60h38c.5522 0 1-.4478 1-1v-13.6172c.9683-1.1304 4-5.2378 4-12.3828s-3.0317-11.2524-4-12.3823v-3.6177c0-.5522-.4478-1-1-1h-7.5859l6.2929-6.29297c.3907-.39014.3907-1.02344 0-1.41406l-.2929-.29297 2.2929-2.29297c.3907-.39062.3907-1.02344 0-1.41406l-4-4.000001c-.3901-.3906252-1.0234-.3906252-1.414 0l-2.293 2.292971-.293-.29297c-.3906-.39063-1.0234-.39063-1.414 0l-16 16.00003c-.3907.3906-.3907 1.0239 0 1.414l.2929.293-3.2929 3.293c-.3907.3906-.3907 1.0239 0 1.414l4 4c.3906.3907 1.0234.3907 1.414 0l3.293-3.2929.293.2929c.3906.3907 1.0239.3907 1.414 0l2.5401-2.54c2.165 1.4453 5.0796.9668 6.6684-1.0952 1.2866.6743 6.0845 3.6758 6.0845 10.9282 0 6.5757-5.2031 10.2959-6.2881 11h-4.7119v-7c0-.5522-.4478-1-1-1h-18c-.55225 0-1 .4478-1 1v4c0 .5522.44775 1 1 1h13v2h-3c-.5522 0-1 .4478-1 1v7h-11c-2.76025.0034-4.99658202 2.2402-5 5v2c0 .5522.447754 1 1 1zm34-57.58594 2.5859 2.58594-1.5859 1.58594-2.5859-2.58594zm-19 24.17184-2.5859-2.5859 2.5859-2.5859 2.5859 2.5859zm11-4.5859c-1.6567 0-3-1.3433-3-3s1.3433-3 3-3 3 1.3433 3 3c-.002 1.6562-1.3438 2.998-3 3zm2.7529-7.167c-1.9795-1.314-4.6108-1.0508-6.2905.6294-1.6802 1.6797-1.9434 4.311-.6294 6.2905l-1.833 1.833-4.5859-4.5859 14.5859-14.58594 4.5859 4.58594zm2.146 5.167c.1348-.6597.1348-1.3398 0-2h6.1011v2zm7.1011 13c.1396-4.186-1.5903-8.2173-4.7207-11h4.2681c2.3667 3.168 3.5844 7.0479 3.4526 11 .1318 3.9521-1.0859 7.832-3.4521 11h-4.5899c3.165-2.7856 4.9976-6.7842 5.042-11zm-31 7v-2h16v2zm16 2v7c0 .5522-.4478 1-1 1s-1-.4478-1-1v-7zm-6 4h2v3c0 1.6567 1.3433 3 3 3s3-1.3433 3-3v-3h12v6h-20zm-16 11c.00195-1.6562 1.34375-2.998 3-3h33v4h-36z" fill="#06b9ff"/></svg>