<svg width="39" height="51" viewBox="0 0 39 51" fill="none" xmlns="http://www.w3.org/2000/svg">
<path d="M5 25.8154L1 50.3154H18L20 40.8154C20.7895 39.6862 21.3596 39.6902 22.5 40.3154L24.5 41.8154C26.2607 42.7608 27.1868 42.8761 28.5 40.8154C28.5 40.8154 34.9697 27.907 36 25.8154C37.0303 23.7239 32.5 19.3154 29.5 23.8154C29.5 23.8154 27.5 29.3154 26.5 31.3153C25.5 33.3151 23.5 32.3153 22.5 30.8154C21.5 29.3156 22.1268 29.9799 18.5 24.3154C14.8732 18.6508 7.28624 19.4316 5 25.8154Z" stroke="white"/>
<circle cx="35.25" cy="7.06543" r="0.625" stroke="white" stroke-width="0.25"/>
<circle cx="37.25" cy="13.0654" r="0.625" stroke="white" stroke-width="0.25"/>
<circle cx="27.25" cy="18.0654" r="0.625" stroke="white" stroke-width="0.25"/>
<path d="M30.3708 18.7483C29.2105 16.9917 28.7155 15.8575 27.6283 14.4823C27.3925 14.2511 27.4687 14.2687 27.9658 14.4823C29.316 15.2351 30.3421 16.3644 31.2147 17.9955C31.9531 19.3757 31.1092 19.7521 30.3708 18.7483Z" stroke="white" stroke-width="0.5"/>
<path d="M34.2833 9.66879C32.3533 10.5098 31.3203 11.1912 29.6595 11.7522C29.3357 11.8176 29.4092 11.8445 29.9425 11.9361C31.4849 12.0403 32.9605 11.6523 34.5808 10.7598C35.9519 10.0046 35.4493 9.22928 34.2833 9.66879Z" stroke="white" stroke-width="0.5"/>
<path d="M35.5482 17.5098C33.1063 15.6581 32.0362 14.4299 29.768 13.0032C29.2809 12.7701 29.4342 12.7803 30.4408 12.9598C33.1875 13.6437 35.3158 14.7981 37.175 16.5438C38.7483 18.021 37.0938 18.5582 35.5482 17.5098Z" stroke="white" stroke-width="0.5"/>
<path d="M25.9466 8.83926L25.9466 8.84408C25.9518 9.9373 25.7411 11.0208 25.3264 12.0323C24.9117 13.0438 24.3012 13.9633 23.53 14.7382C22.7589 15.5131 21.8422 16.1281 20.8327 16.5476C19.8232 16.9672 18.7408 17.1832 17.6475 17.1832C16.5543 17.1832 15.4719 16.9672 14.4623 16.5476C13.4528 16.1281 12.5362 15.5131 11.765 14.7382C10.9938 13.9633 10.3834 13.0438 9.96869 12.0323C9.55398 11.0208 9.34321 9.93729 9.34851 8.84408L9.34849 8.83926C9.34321 7.74604 9.55398 6.66257 9.96869 5.65105C10.3834 4.63953 10.9939 3.71987 11.765 2.94498C12.5362 2.17008 13.4528 1.55515 14.4623 1.13557C15.4719 0.715997 16.5543 0.5 17.6475 0.5C18.7408 0.5 19.8232 0.715997 20.8327 1.13557C21.8422 1.55515 22.7589 2.17008 23.53 2.94498C24.3012 3.71987 24.9117 4.63953 25.3264 5.65105C25.7411 6.66257 25.9518 7.74604 25.9466 8.83926Z" stroke="white"/>
</svg>
