<svg fill="none" height="60" viewBox="0 0 40 60" width="40" xmlns="http://www.w3.org/2000/svg"><path d="m32.2083 28.9936c1.4841 0 2.9153.4771 4.1344 1.2192 1.2191.742 2.2262 1.8551 2.8622 3.1803.2651.53.4241 1.06.5831 1.6431.106.5831.212 1.1661.212 1.7492 0 2.1202-.9011 4.0813-2.2792 5.4595l-.106.106-.106.159c.477.9541.689 1.9612.689 3.0213-.053 1.5901-.636 3.2333-1.7491 4.8234-1.0601 1.4841-2.6503 2.9683-4.6114 4.2404-4.3464 2.8622-10.707 4.9294-18.3927 4.7704-3.55135-.053-6.57263-1.2191-8.85183-3.1273-2.1202-1.8021-3.604332-4.2934-4.24039-7.1556-.636058-2.8623-.4240386-6.0956.74207-9.4879 1.69615-4.7174 5.35349-9.7529 11.50205-14.3113-.7421.212-1.4841.265-2.2262.318-1.21912 0-2.49123-.159-4.02837-.53-.47705-.106-.74207-.5831-.68907-1.0071.37104-2.3852.05301-4.4524-.26502-6.6786-.21202-1.6432-.47704-3.3393-.47704-5.3535v-.053c0-3.2333 1.27211-6.20157 3.49831-8.37477 2.17319-2.1732 5.30049-3.5513252 9.06379-3.60433h.2651c3.7633.0530048 6.8906 1.43113 9.1168 3.60433s3.4983 5.14147 3.4983 8.37477h-.053v.053c0 2.0142-.212 3.7103-.477 5.3535-.2651 2.2262-.5831 4.2934-.212 6.6786.053.477-.2651.9011-.7421 1.0071-1.5372.371-2.7563.53-4.0284.53-.424-.053-.9011-.053-1.3251-.159.7421.5301 1.4841 1.0601 2.1732 1.5902 1.1661.901 2.2262 1.8021 3.1803 2.7032 1.0071-.477 2.1202-.7421 3.3393-.7421zm3.9223 14.9474c-3.0212 2.8623-7.3146 5.5125-11.502 7.1027-5.0885 1.9081-10.1769 2.3322-12.9862-.106l-.106-.0531c-.6361-.636-1.0601-1.4311-1.2191-2.2792-.31804-1.3251 0-2.8092.9011-4.2934.848-1.3251 2.1732-2.6502 3.9753-3.7103 2.3322-1.4311 5.5125-2.4382 9.3289-2.5972-.106-.3711-.106-.7951-.106-1.2191 0-.1591 0-.3181 0-.4771s.053-.318.053-.477c.265-1.9612 1.1661-3.6574 2.5972-4.8765.053-.106.159-.159.265-.212-.848-.7951-1.7491-1.5371-2.7032-2.2792-.424-.318-.9011-.6891-1.3251-.9541-.212.7421-.6361 1.4841-1.2721 2.1202-.7421.7421-1.8022 1.3781-2.9153 1.6432-.4771.159-1.0071.212-1.4841.212-.5301 0-1.0071-.053-1.5372-.212-1.0601-.2651-2.1202-.9011-2.8622-1.6432-.5301-.477-.9011-1.0601-1.1131-1.6961-4.87649 4.0283-7.89777 8.2687-9.3289 12.2441-1.06009 3.0742-1.27211 5.9895-.68906 8.5337.53005 2.4913 1.80216 4.6115 3.65733 6.1486 1.96118 1.6962 4.61143 2.6503 7.73873 2.7033 7.2616.159 13.3042-1.7492 17.3856-4.4525 1.7491-1.1661 3.1273-2.4912 4.0813-3.8163.9011-1.2721 1.4312-2.5972 1.4312-3.8163 0-.5301-.053-1.0601-.2651-1.5372zm-22.474-17.2266c0 .5831.318 1.1661.8481 1.6432.53.53 1.2721 1.0071 2.0672 1.2191.371.053.689.106 1.0601.106.318 0 .689-.053 1.0601-.106.795-.212 1.5371-.6891 2.0671-1.2191.4771-.4771.7951-1.0601.7951-1.6432 0-.159 0-.265 0-.371-.371-.265-.7421-.477-1.1131-.6891-.9541.4241-1.9612.6361-2.8092.6361-.7951 0-1.6962-.212-2.5973-.53-.477.318-.9011.636-1.3781.954zm-1.9082-3.0742c-.106-.1061-.212-.2121-.318-.3181-1.59015-1.5371-2.70325-3.6573-2.70325-5.9365v-7.2087c0-.53002.37103-.90105.90108-.90105.95407 0 2.01417-.15902 3.02127-.42404.7421-.21202 1.4311-.42404 1.9612-.63606-.4771-.84808-.7951-1.74916-.9541-2.65024-.053-.47705.265-.90108.7421-1.00709.477-.05301.954.26502 1.0601.74206.106.90109.53 1.85517 1.1661 2.70325.053 0 .053.05301.053.05301.583.79507 1.3781 1.53714 2.2792 2.17316 1.8021 1.2722 4.1874 2.1732 6.6786 2.1732.477 0 .9011.3711.9011.9011v4.0814c0 2.2792-1.1131 4.3994-2.7033 5.9365-.106.106-.212.212-.318.3181.477.106.9011.159 1.3781.159.9011 0 1.8022-.106 2.8093-.3181-.212-2.2792.053-4.2403.371-6.3075.212-1.6432.4771-3.2863.4771-5.1415v-.053c0-2.75626-1.1131-5.24749-2.9683-7.10265-1.8552-1.85517-4.5584-3.07429-7.8447-3.07429h-.2121c-3.2863 0-5.9895 1.21912-7.84467 3.07429-1.90817 1.85516-2.96827 4.34639-2.96827 7.10265v.053c0 1.8552.21202 3.4983.47704 5.1415.26503 2.0672.58306 4.0283.37104 6.3075 1.00709.2121 1.90817.3181 2.80926.3181.424 0 .9011-.053 1.3781-.159zm3.9754-13.94031c-.7421.31801-1.6432.63601-2.5973.90111-.848.212-1.7491.371-2.5972.424v6.3606c0 1.7491.9011 3.3923 2.1732 4.6644 1.4841 1.4841 3.3923 2.4382 4.9295 2.4382 1.4841 0 3.4453-.9541 4.9294-2.4382 1.2721-1.2721 2.1732-2.9153 2.1732-4.6644v-3.2333c-2.5442-.159-4.9294-1.1131-6.8376-2.4382-.8481-.5831-1.5902-1.2721-2.1732-2.01421zm16.9085 34.87721c-.159 0-.318 0-.424 0-2.1732 0-4.0814-.8481-5.5125-2.2792-.6891-.6891-1.2721-1.5372-1.6962-2.4913-3.6573.053-6.6786 1.0071-8.9048 2.3323-1.5371.901-2.6502 2.0141-3.3393 3.1272-.636 1.0601-.9011 2.0672-.6891 2.9683.1061.477.3181.9541.7421 1.3251 2.2792 1.9612 6.6786 1.4842 11.184-.212 3.0213-1.1131 6.0956-2.8623 8.6398-4.7704zm2.7563-12.8802c-.9541-.5301-2.0142-.9011-3.1803-.9011-1.5372 0-2.9153.5831-3.9754 1.4841-1.0601.9541-1.8021 2.2793-1.9612 3.7634-.053.106-.053.212-.053.371v.3711c0 1.6431.6361 3.1802 1.7492 4.2403 1.0601 1.0601 2.5972 1.7492 4.2404 1.7492 1.6431 0 3.1273-.6891 4.2404-1.7492 1.0601-1.0601 1.7491-2.5972 1.7491-4.2403 0-.4771-.053-.9011-.159-1.3252-.106-.477-.265-.901-.477-1.2721-.4771-1.0071-1.2191-1.8551-2.1732-2.4912z" fill="#808080"/></svg>