<svg viewBox="0 0 50.534 65.756" xmlns="http://www.w3.org/2000/svg"><g fill="#808080"><path d="m12.8 62.254h-9.3v-8.754a.752.752 0 1 1 1.5 0v7.25h7.8a.752.752 0 1 1 0 1.5z"/><path d="m47.031 62.254h-9.131a.752.752 0 0 1 0-1.5h7.627v-7.634a.752.752 0 1 1 1.5 0z"/><path d="m46.279 28.607a.752.752 0 0 1 -.752-.752v-7.626h-7.793a.752.752 0 0 1 0-1.5h9.3v9.131a.752.752 0 0 1 -.755.747z"/><path d="m4.254 28.614a.752.752 0 0 1 -.752-.752v-9.138h9.132a.752.752 0 1 1 0 1.5h-7.628v7.633a.752.752 0 0 1 -.752.757z"/><path d="m25.267 65.756a25.267 25.267 0 1 1 25.267-25.267 25.3 25.3 0 0 1 -25.267 25.267zm0-49.029a23.762 23.762 0 1 0 23.762 23.762 23.789 23.789 0 0 0 -23.762-23.762z"/><path d="m25.267 59.919a19.43 19.43 0 1 1 19.433-19.43 19.452 19.452 0 0 1 -19.433 19.43zm0-37.356a17.926 17.926 0 1 0 17.925 17.926 17.946 17.946 0 0 0 -17.925-17.925z"/><path d="m23.937 36.527h9.08v1.504h-9.08z" transform="matrix(.70710678 -.70710678 .70710678 .70710678 -18.02 31.055)"/><path d="m24.515 21.812h1.504v4.669h-1.504z"/><path d="m16.343 24.001h1.504v4.67h-1.504z" transform="matrix(.8659905 -.50006046 .50006046 .8659905 -10.879 12.078)"/><path d="m10.361 29.983h1.504v4.669h-1.504z" transform="matrix(.50003023 -.86600795 .86600795 .50003023 -22.431 25.782)"/><path d="m6.589 39.737h4.669v1.504h-4.669z"/><path d="m8.779 47.909h4.669v1.504h-4.669z" transform="matrix(.8659905 -.50006046 .50006046 .8659905 -22.844 12.078)"/><path d="m14.76 53.891h4.67v1.504h-4.67z" transform="matrix(.5 -.866 .866 .5 -38.774 42.122)"/><path d="m24.515 54.498h1.504v4.67h-1.504z"/><path d="m32.686 52.308h1.504v4.669h-1.504z" transform="matrix(.86607776 -.49990931 .49990931 .86607776 -22.838 24.034)"/><path d="m38.668 46.326h1.504v4.67h-1.504z" transform="matrix(.49993954 -.86606031 .86606031 .49993954 -22.431 58.473)"/><path d="m39.275 39.737h4.669v1.504h-4.669z"/><path d="m37.085 31.566h4.67v1.504h-4.67z" transform="matrix(.8659905 -.50006046 .50006046 .8659905 -10.878 24.043)"/><path d="m31.104 25.583h4.669v1.504h-4.669z" transform="matrix(.50006046 -.8659905 .8659905 .50006046 -6.089 42.123)"/><path d="m25.132 13.917a4.206 4.206 0 0 1 -2.049-.514 3.777 3.777 0 0 1 -1.876-3.478.752.752 0 0 1 1.5 0 2.307 2.307 0 0 0 1.107 2.165 2.946 2.946 0 0 0 2.856-.1 1.838 1.838 0 0 0 .947-1.69c-.048-1.242-.981-1.727-2.5-2.415-1.636-.741-3.671-1.663-3.671-4.4a3.3 3.3 0 0 1 1.18-2.656 3.832 3.832 0 0 1 2.447-.829c1.665 0 3.435 1 3.435 2.868a.752.752 0 0 1 -1.5 0c0-.886-.994-1.364-1.931-1.364a2.329 2.329 0 0 0 -1.488.484 1.84 1.84 0 0 0 -.631 1.5c0 1.682 1.059 2.248 2.788 3.031 1.468.666 3.3 1.494 3.382 3.728a3.336 3.336 0 0 1 -1.664 3.031 4.484 4.484 0 0 1 -2.332.639z"/><path d="m25.267 16.848a.752.752 0 0 1 -.752-.752v-5.754a.752.752 0 1 1 1.5 0v5.758a.752.752 0 0 1 -.748.748z"/></g></svg>