<svg fill="none" height="74" viewBox="0 0 65 74" width="65" xmlns="http://www.w3.org/2000/svg"><path d="m65 26.9228c0-4.2866-3.4647-7.746-7.7578-7.746-4.2932 0-7.7578 3.4594-7.7578 7.746 0 3.7601 2.7114 6.9187 6.2514 7.5955v20.0041c0 9.25-7.5319 16.7703-16.7961 16.7703s-16.796-7.5203-16.796-16.7703c.8285-.4513 1.3557-1.3537 1.3557-2.3313v-3.8354c10.2434-1.3537 18.1518-10.0772 18.1518-20.6809 0-1.2033-.7532-2.1809-1.8076-2.5569v-12.1077c0-5.18906-3.6906-9.55085-8.5864-10.6037-.3766-1.35365-1.8076-2.3312967-3.5399-2.3312967-1.9583 0-3.6153 1.3536567-3.6153 3.0081267 0 1.65448 1.5817 3.00813 3.6153 3.00813 1.5063 0 2.7868-.75203 3.314-1.80487 3.9919.97764 6.9293 4.51219 6.9293 8.79881v12.0325c-1.0545.376-1.8076 1.3536-1.8076 2.5569 0 8.498-6.9294 15.4167-15.4404 15.4167s-15.44029-6.9187-15.44029-15.4167c0-1.2033-.75319-2.1809-1.80765-2.5569v-12.1077c0-4.36183 3.16338-8.04679 7.30594-8.87402.5272 1.12805 1.8076 1.88008 3.314 1.88008 1.9583 0 3.6153-1.35366 3.6153-3.00813s-1.5817-3.00813-3.6153-3.00813c-1.657 0-3.0881.977642-3.4647 2.2561-4.89568.97764-8.81225 5.41463-8.81225 10.7541v12.0325c-1.054463.376-1.80765 1.3536-1.80765 2.5569 0 10.6789 7.90846 19.4024 18.1518 20.7561v3.8354c0 .9776.5272 1.88 1.3557 2.3313 0 10.754 8.737 19.4776 19.5076 19.4776 10.7705 0 19.5075-8.7236 19.5075-19.4776v-20.0041c3.6906-.6016 6.4774-3.7602 6.4774-7.5955zm-7.7578 4.9634c-2.7868 0-4.9711-2.2561-4.9711-4.9634 0-2.7826 2.2596-4.9635 4.9711-4.9635 2.7868 0 4.971 2.2561 4.971 4.9635.0753 2.7073-2.1842 4.9634-4.971 4.9634z" fill="#06b9ff"/></svg>
