<svg width="49" height="49" viewBox="0 0 49 49" fill="none" xmlns="http://www.w3.org/2000/svg">
<path fill-rule="evenodd" clip-rule="evenodd" d="M23.2544 29.3845C23.2517 29.3898 23.249 29.3953 23.2463 29.4011C23.194 29.5081 23.135 29.6658 23.0801 29.8845C22.8655 30.7411 22.8729 31.7387 22.8804 32.7301C22.8817 32.9111 22.8831 33.0921 22.8831 33.2719C22.8831 33.7564 22.8612 34.3464 22.8398 34.9237C22.8316 35.1397 22.8238 35.3539 22.817 35.5603C22.7906 36.3717 22.7771 37.1841 22.8138 37.9549C22.851 38.736 22.9365 39.3828 23.0713 39.8782C23.1371 40.1195 23.2057 40.2909 23.2648 40.4065C23.3233 40.5205 23.3614 40.5581 23.3599 40.5566C23.8833 41.0787 24.8051 41.57 25.7814 41.7593C26.2975 41.8593 26.6714 41.85 26.9257 41.8082C26.9464 41.4952 26.9483 41.0779 26.9174 40.5568C26.8309 39.0945 26.5106 37.1891 25.9938 35.2931C25.4723 33.3798 24.7974 31.6492 24.0807 30.4619C23.7426 29.9019 23.4551 29.5636 23.2544 29.3845ZM20.1714 32.8262C20.1488 30.7165 20.1048 26.6079 23.3567 26.6079C27.8113 26.6079 30.9932 42.157 29.0841 43.7437C27.1749 45.3303 23.3567 44.3784 21.4474 42.4744C19.9061 40.9372 20.0395 37.3452 20.1352 34.7668C20.1558 34.2112 20.1748 33.7027 20.1748 33.2719C20.1748 33.1368 20.1731 32.9874 20.1714 32.8262Z" fill="white"/>
<path fill-rule="evenodd" clip-rule="evenodd" d="M11.8117 29.3845C11.8142 29.3898 11.8171 29.3953 11.8198 29.4011C11.8721 29.5081 11.9311 29.6658 11.9858 29.8845C12.2006 30.7411 12.1931 31.7387 12.1857 32.7301C12.1843 32.9111 12.183 33.0921 12.183 33.2719C12.183 33.7564 12.2049 34.3464 12.2263 34.9237C12.2343 35.1397 12.2423 35.3539 12.2491 35.5603C12.2755 36.3717 12.289 37.1841 12.2523 37.9549C12.2151 38.736 12.1296 39.3828 11.9947 39.8782C11.9289 40.1195 11.8604 40.2909 11.8011 40.4065C11.7427 40.5205 11.7047 40.5581 11.706 40.5566C11.1828 41.0787 10.2609 41.57 9.28465 41.7593C8.76858 41.8593 8.39456 41.85 8.14025 41.8082C8.11966 41.4952 8.11777 41.0779 8.14864 40.5568C8.23517 39.0945 8.55543 37.1891 9.07218 35.2931C9.59381 33.3798 10.2686 31.6492 10.9853 30.4619C11.3233 29.9019 11.611 29.5636 11.8117 29.3845ZM14.8947 32.8262C14.9173 30.7165 14.9613 26.6079 11.7094 26.6079C7.25476 26.6079 4.0728 42.157 5.98198 43.7437C7.89108 45.3303 11.7094 44.3784 13.6185 42.4744C15.16 40.9372 15.0266 37.3452 14.9309 34.7668C14.9103 34.2112 14.8913 33.7027 14.8913 33.2719C14.8913 33.1368 14.8929 32.9874 14.8947 32.8262Z" fill="white"/>
<path fill-rule="evenodd" clip-rule="evenodd" d="M16.25 25.729H18.9583V32.2741C18.9583 33.1161 18.5751 33.7671 18.0727 34.2066C17.61 34.6115 17.0608 34.8306 16.6292 34.9566C16.1826 35.0868 15.7543 35.1475 15.4501 35.1772C15.2946 35.1922 15.1637 35.1999 15.0686 35.204C15.0208 35.2059 14.9817 35.207 14.9526 35.2075L14.9163 35.208L14.9041 35.2082H14.8995H14.8975C14.8971 35.2082 14.8958 35.2082 14.8958 33.854C14.8958 32.4998 14.8954 32.4998 14.8952 32.4998H14.8933H14.8915L14.8999 32.4997C14.9105 32.4996 14.9296 32.499 14.9558 32.4979C15.0089 32.4958 15.0895 32.491 15.1879 32.4816C15.3916 32.4617 15.6404 32.4237 15.8708 32.3566C16.0652 32.2998 16.1858 32.2397 16.25 32.1976V25.729ZM14.8915 32.4998C14.8911 32.4998 14.8916 32.4998 14.8915 32.4998V32.4998Z" fill="white"/>
<path fill-rule="evenodd" clip-rule="evenodd" d="M18.9583 25.729H16.25V32.2741C16.25 33.1161 16.6332 33.7671 17.1356 34.2066C17.5983 34.6115 18.1476 34.8306 18.5792 34.9566C19.0258 35.0868 19.4541 35.1475 19.7582 35.1772C19.9137 35.1922 20.0446 35.1999 20.1397 35.204C20.1875 35.2059 20.2266 35.207 20.2558 35.2075L20.2921 35.208L20.3042 35.2082H20.3088H20.3109C20.3113 35.2082 20.3125 35.2082 20.3125 33.854C20.3125 32.4998 20.3129 32.4998 20.3132 32.4998H20.3151H20.3168L20.3084 32.4997C20.2979 32.4996 20.2788 32.499 20.2525 32.4979C20.1994 32.4958 20.1189 32.491 20.0204 32.4816C19.8167 32.4617 19.568 32.4237 19.3375 32.3566C19.1432 32.2998 19.0225 32.2397 18.9583 32.1976V25.729ZM20.3168 32.4998C20.3172 32.4998 20.3167 32.4998 20.3168 32.4998V32.4998Z" fill="white"/>
<path d="M35.2083 10.8332C35.2083 11.5811 34.6021 12.1873 33.8542 12.1873C33.1063 12.1873 32.5 11.5811 32.5 10.8332C32.5 10.0853 33.1063 9.479 33.8542 9.479C34.6021 9.479 35.2083 10.0853 35.2083 10.8332Z" fill="white"/>
<path d="M37.9166 14.8957C37.9166 15.6436 37.3103 16.2498 36.5624 16.2498C35.8145 16.2498 35.2083 15.6436 35.2083 14.8957C35.2083 14.1478 35.8145 13.5415 36.5624 13.5415C37.3103 13.5415 37.9166 14.1478 37.9166 14.8957Z" fill="white"/>
<path d="M40.6251 18.9582C40.6251 19.7061 40.0188 20.3123 39.2709 20.3123C38.523 20.3123 37.9167 19.7061 37.9167 18.9582C37.9167 18.2103 38.523 17.604 39.2709 17.604C40.0188 17.604 40.6251 18.2103 40.6251 18.9582Z" fill="white"/>
<path d="M48.7501 17.6042C48.7501 18.3521 48.1438 18.9583 47.3959 18.9583C46.648 18.9583 46.0417 18.3521 46.0417 17.6042C46.0417 16.8563 46.648 16.25 47.3959 16.25C48.1438 16.25 48.7501 16.8563 48.7501 17.6042Z" fill="white"/>
<path d="M48.7501 10.8332C48.7501 11.5811 48.1438 12.1873 47.3959 12.1873C46.648 12.1873 46.0417 11.5811 46.0417 10.8332C46.0417 10.0853 46.648 9.479 47.3959 9.479C48.1438 9.479 48.7501 10.0853 48.7501 10.8332Z" fill="white"/>
<path d="M48.7501 5.41667C48.7501 6.16457 48.1438 6.77083 47.3959 6.77083C46.648 6.77083 46.0417 6.16457 46.0417 5.41667C46.0417 4.66879 46.648 4.0625 47.3959 4.0625C48.1438 4.0625 48.7501 4.66879 48.7501 5.41667Z" fill="white"/>
<path d="M43.3333 8.12516C43.3333 8.87307 42.7271 9.47933 41.9792 9.47933C41.2313 9.47933 40.625 8.87307 40.625 8.12516C40.625 7.37726 41.2313 6.771 41.9792 6.771C42.7271 6.771 43.3333 7.37726 43.3333 8.12516Z" fill="white"/>
<path d="M43.3333 13.5417C43.3333 14.2896 42.7271 14.8958 41.9792 14.8958C41.2313 14.8958 40.625 14.2896 40.625 13.5417C40.625 12.7938 41.2313 12.1875 41.9792 12.1875C42.7271 12.1875 43.3333 12.7938 43.3333 13.5417Z" fill="white"/>
<path d="M32.5001 17.6042C32.5001 18.3521 31.8938 18.9583 31.1459 18.9583C30.398 18.9583 29.7917 18.3521 29.7917 17.6042C29.7917 16.8563 30.398 16.25 31.1459 16.25C31.8938 16.25 32.5001 16.8563 32.5001 17.6042Z" fill="white"/>
<path d="M23.0208 14.8957C23.0208 15.6436 22.4146 16.2498 21.6667 16.2498C20.9188 16.2498 20.3125 15.6436 20.3125 14.8957C20.3125 14.1478 20.9188 13.5415 21.6667 13.5415C22.4146 13.5415 23.0208 14.1478 23.0208 14.8957Z" fill="white"/>
<path d="M18.9583 13.5417C18.9583 14.2896 18.3521 14.8958 17.6042 14.8958C16.8563 14.8958 16.25 14.2896 16.25 13.5417C16.25 12.7938 16.8563 12.1875 17.6042 12.1875C18.3521 12.1875 18.9583 12.7938 18.9583 13.5417Z" fill="white"/>
<path fill-rule="evenodd" clip-rule="evenodd" d="M22.6456 24.4013C21.1499 24.4013 19.9373 23.1887 19.9373 21.6929V20.4111C19.9373 18.9154 21.1499 17.7028 22.6456 17.7028H24.0805C24.3766 17.7028 24.6342 17.5902 24.8031 17.4311C24.967 17.2763 25.0312 17.0977 25.0322 16.9437V16.9337L25.035 16.6128C25.0365 16.4178 25.0384 16.1567 25.0396 15.8899C25.0408 15.6218 25.0414 15.3541 25.0406 15.1438C25.04 15.0379 25.0394 14.9546 25.0383 14.8968C25.038 14.8838 25.0377 14.8735 25.0376 14.8654C25.0029 14.3299 25.1228 13.7605 25.4359 13.2475C25.6787 12.8497 25.9791 12.5809 26.2356 12.4048C25.8945 11.6053 25.5373 10.7667 25.1983 9.90302C25.0758 9.59048 25.0123 9.25776 25.0113 8.92193C25.0113 8.91976 25.0113 8.91773 25.0113 8.91556V8.92193L25.0109 8.90161C25.0105 8.87873 25.0096 8.83838 25.0074 8.7838C25.0028 8.67357 24.9936 8.51013 24.9746 8.3158C24.9345 7.90427 24.8607 7.45658 24.7462 7.10044C24.3514 5.87275 23.5448 4.76961 22.4142 3.9692C21.2836 3.16887 19.8964 2.72044 18.4536 2.70833C17.0636 2.70744 15.7204 3.11836 14.6116 3.86643C13.5025 4.61472 12.6922 5.65568 12.2663 6.82581C11.8414 7.99378 11.8123 9.25261 12.1814 10.4348C12.5511 11.619 13.3097 12.6898 14.3795 13.4815C15.0694 13.9923 15.4764 14.8 15.4764 15.6584V21.6929C15.4764 23.1887 14.2638 24.4013 12.768 24.4013H8.93493C7.26795 24.3971 5.69089 25.0131 4.53559 26.0781C3.39357 27.1309 2.75634 28.5326 2.70833 29.9766V46.0417H33.8492V31.2181C33.8492 31.1874 33.8496 31.1567 33.8506 31.1261C33.8794 30.2844 33.7319 29.443 33.4135 28.6485C33.0949 27.8536 32.6093 27.1169 31.9772 26.4848C31.3449 25.8524 30.5787 25.3377 29.7194 24.9772C28.8672 24.6197 27.9444 24.4229 27.0045 24.4013H22.6456ZM28.0602 21.765C28.9923 21.8775 29.9042 22.1177 30.7668 22.4796C31.9443 22.9734 33.0066 23.6838 33.8924 24.5699C34.7782 25.4558 35.4698 26.4996 35.9274 27.6407C36.3848 28.782 36.5989 29.9979 36.5575 31.2181V48.75H0V29.9363C0.0597458 27.7268 1.0288 25.6273 2.69986 24.0868C4.37092 22.5463 6.61131 21.6871 8.94183 21.6929H12.768V15.6584C11.2514 14.5356 10.1423 12.9916 9.59617 11.242C9.0499 9.4923 9.09363 7.62464 9.72129 5.8997C10.3489 4.17487 11.5291 2.67904 13.097 1.62129C14.6647 0.563537 16.5418 -0.0032898 18.4658 1.43638e-05C20.4541 0.0145852 22.3856 0.630731 23.979 1.75871C25.5724 2.88669 26.7444 4.46761 27.3245 6.27128C27.7197 7.49978 27.7197 8.9138 27.7197 8.9138C28.0522 9.76178 28.4058 10.59 28.7592 11.4181L29.2584 12.6214C29.4447 12.9472 29.5712 13.3006 29.6327 13.6665C29.6462 13.9096 29.5646 14.1487 29.4033 14.3381C29.3303 14.4236 29.2435 14.4964 29.1468 14.5539C29.0297 14.6235 28.8981 14.6709 28.7594 14.692C28.7423 14.692 28.6888 14.6835 28.6148 14.6717C28.5415 14.6601 28.4482 14.6452 28.35 14.6322C28.0608 14.5937 27.7285 14.5711 27.7404 14.692C27.7604 14.8958 27.7404 16.96 27.7404 16.96C27.736 17.6926 27.4876 18.4 27.0382 18.9846C27.0366 18.9868 27.035 18.9888 27.0334 18.991C26.9214 19.1359 26.7972 19.2732 26.6611 19.4016C25.9754 20.0482 25.0476 20.4111 24.0806 20.4111H22.6456V21.6929H27.0334C27.3775 21.6997 27.7202 21.7238 28.0602 21.765ZM25.0369 14.8429C25.0369 14.8427 25.0369 14.8441 25.0371 14.8474L25.0369 14.8429Z" fill="white"/>
</svg>
