<svg width="38" height="25" viewBox="0 0 38 25" fill="none" xmlns="http://www.w3.org/2000/svg">
    <circle cx="18.5005" cy="12.5" r="12" stroke="white"/>
    <ellipse cx="8.6087" cy="13" rx="8.6087" ry="9" fill="#4C06FF"/>
    <path d="M8.99935 14.4697C11.1372 14.4697 12.8327 12.6644 12.8327 10.4848C12.8327 8.30526 11.1372 6.5 8.99935 6.5C6.86154 6.5 5.16602 8.30526 5.16602 10.4848C5.16602 12.6644 6.86154 14.4697 8.99935 14.4697Z" fill="#4C06FF" stroke="white"/>
    <path d="M3.5 18.4546V18.9546H4H14H14.5V18.4546C14.5 17.2833 13.8182 16.275 12.8214 15.5802C11.8229 14.8843 10.4703 14.4697 9 14.4697C7.52975 14.4697 6.17711 14.8843 5.17857 15.5802C4.18175 16.275 3.5 17.2833 3.5 18.4546Z" fill="#4C06FF" stroke="white"/>
    <ellipse cx="28.6087" cy="13" rx="8.6087" ry="9" fill="#4C06FF"/>
    <path d="M28.9993 14.4697C31.1372 14.4697 32.8327 12.6644 32.8327 10.4848C32.8327 8.30526 31.1372 6.5 28.9993 6.5C26.8615 6.5 25.166 8.30526 25.166 10.4848C25.166 12.6644 26.8615 14.4697 28.9993 14.4697Z" fill="#4C06FF" stroke="white"/>
    <path d="M23.5 18.4546V18.9546H24H34H34.5V18.4546C34.5 17.2833 33.8182 16.275 32.8214 15.5802C31.8229 14.8843 30.4703 14.4697 29 14.4697C27.5297 14.4697 26.1771 14.8843 25.1786 15.5802C24.1818 16.275 23.5 17.2833 23.5 18.4546Z" fill="#4C06FF" stroke="white"/>
</svg>