<svg width="60" height="60" viewBox="0 0 60 60" fill="none" xmlns="http://www.w3.org/2000/svg">
<path d="M46.6213 21.6647C46.6228 23.5057 45.1316 24.9992 43.2908 25.0007C41.4498 25.0022 39.9561 23.511 39.9546 21.6702C39.9531 19.8292 41.4443 18.3355 43.2853 18.334C45.1261 18.3325 46.6198 19.8237 46.6213 21.6647Z" fill="white"/>
<path d="M51.647 53.3273C53.4878 53.3258 54.979 51.8322 54.9775 49.9913C54.976 48.1503 53.4825 46.6591 51.6415 46.6606C49.8005 46.6621 48.3093 48.1558 48.3108 49.9967C48.3123 51.8377 49.806 53.3288 51.647 53.3273Z" fill="white"/>
<path d="M46.6413 46.6647C46.6428 48.5057 45.1516 49.9991 43.3106 50.0006C41.4696 50.0021 39.9761 48.511 39.9746 46.6702C39.9731 44.8292 41.4643 43.3355 43.3051 43.334C45.1461 43.3325 46.6398 44.8237 46.6413 46.6647Z" fill="white"/>
<path d="M49.9708 41.6623C51.8118 41.6608 53.3029 40.1671 53.3014 38.3261C53.2999 36.4853 51.8063 34.9941 49.9653 34.9956C48.1244 34.9971 46.6333 36.4906 46.6348 38.3316C46.6363 40.1726 48.1298 41.6638 49.9708 41.6623Z" fill="white"/>
<path d="M46.6288 31.6647C46.6303 33.5057 45.1392 34.9991 43.2982 35.0006C41.4572 35.0021 39.9637 33.511 39.9622 31.6702C39.9607 29.8292 41.4518 28.3355 43.2927 28.334C45.1337 28.3325 46.6273 29.8237 46.6288 31.6647Z" fill="white"/>
<path d="M16.6236 25.0226C14.7826 25.0241 13.2891 23.5331 13.2876 21.6921C13.2861 19.8511 14.7773 18.3575 16.6181 18.356C18.4591 18.3545 19.9528 19.8456 19.9543 21.6866C19.9558 23.5276 18.4646 25.0211 16.6236 25.0226Z" fill="white"/>
<path d="M4.97778 50.0318C4.9793 51.8728 6.4729 53.364 8.3139 53.3625C10.1547 53.361 11.6459 51.8673 11.6444 50.0265C11.6429 48.1855 10.1494 46.6943 8.3084 46.6958C6.46743 46.6973 4.97628 48.191 4.97778 50.0318Z" fill="white"/>
<path d="M16.6439 50.0226C14.8029 50.0241 13.3094 48.5331 13.3079 46.6921C13.3064 44.8511 14.7975 43.3576 16.6384 43.356C18.4794 43.3545 19.973 44.8456 19.9745 46.6866C19.976 48.5276 18.4849 50.0211 16.6439 50.0226Z" fill="white"/>
<path d="M6.63452 38.3635C6.63604 40.2043 8.12957 41.6955 9.97057 41.694C11.8116 41.6925 13.3027 40.199 13.3012 38.358C13.2997 36.517 11.8061 35.0258 9.96507 35.0273C8.12424 35.0288 6.63302 36.5225 6.63452 38.3635Z" fill="white"/>
<path d="M16.6317 35.0226C14.7907 35.0241 13.2972 33.5331 13.2957 31.6921C13.2942 29.8511 14.7852 28.3576 16.6262 28.356C18.4672 28.3545 19.9607 29.8456 19.9623 31.6866C19.9638 33.5276 18.4727 35.0211 16.6317 35.0226Z" fill="white"/>
<path fill-rule="evenodd" clip-rule="evenodd" d="M29.9978 0C31.6644 0 31.6644 6.61662e-05 31.6644 0.000216166L31.6649 24.1601C31.6649 26.4886 32.6048 27.3956 33.3379 27.8231C33.4196 27.8708 33.5018 27.914 33.5836 27.9533C33.5819 27.7541 33.5798 27.5466 33.5774 27.3318C33.5144 21.4508 33.3918 9.99797 42.4564 9.99797C54.8741 9.99797 63.7439 53.3421 58.4221 57.765C53.1001 62.1878 42.4564 59.5341 37.1346 54.2266C32.8379 49.9418 33.2096 39.929 33.4766 32.7413C33.4929 32.3008 33.5088 31.8708 33.5233 31.4536C32.9813 31.3188 32.3248 31.091 31.6588 30.7026C31.0654 30.3566 30.4954 29.9003 30.0001 29.3141C29.5038 29.9023 28.9326 30.3598 28.3379 30.7066C27.6719 31.0951 27.0154 31.3228 26.4734 31.4576C26.4879 31.8736 26.5038 32.302 26.5201 32.741C26.7874 39.9286 27.1598 49.9418 22.8633 54.2266C17.5418 59.5341 6.8981 62.1878 1.57598 57.765C-3.74617 53.3421 5.12121 9.99797 17.5389 9.99797C26.6036 9.99797 26.4816 21.4508 26.4189 27.3318C26.4186 27.3588 26.4184 27.3858 26.4181 27.4126C26.4161 27.6003 26.4143 27.7821 26.4128 27.9575C26.4948 27.9181 26.5769 27.8748 26.6588 27.8271C27.3918 27.3996 28.3316 26.4926 28.3316 24.1641L28.3311 0.000216166C28.3311 6.61662e-05 28.3311 0 29.9978 0ZM42.4564 13.3313C40.8663 13.3313 39.9714 13.8321 39.3453 14.4766C38.6229 15.2203 38.0196 16.4163 37.5961 18.1063C36.8544 21.0645 36.8859 24.4685 36.9114 27.214C36.9158 27.689 36.9199 28.1441 36.9199 28.5741C36.9199 29.8406 36.8638 31.3573 36.8051 32.9353V32.9375C36.7819 33.5581 36.7586 34.1881 36.7381 34.816C36.6636 37.108 36.6211 39.5076 36.7318 41.8288C36.8429 44.1626 37.1046 46.3043 37.5931 48.0978C38.0873 49.9123 38.7491 51.1291 39.4883 51.8665C41.6186 53.9908 44.9823 55.7071 48.4129 56.3723C51.8046 57.03 54.5349 56.5433 56.1339 55.3266C56.1423 55.308 56.1514 55.2861 56.1616 55.2608C56.2603 55.0143 56.3799 54.5908 56.4773 53.9456C56.6721 52.654 56.7226 50.8523 56.5914 48.6323C56.3301 44.216 55.3786 38.6133 53.8756 33.0995C52.3669 27.5645 50.3598 22.3315 48.0844 18.5623C46.9456 16.6755 45.8228 15.2961 44.7814 14.421C43.7506 13.5546 42.9868 13.3313 42.4564 13.3313ZM17.5391 13.3313C19.1293 13.3313 20.0241 13.8321 20.6503 14.4766C21.3728 15.2203 21.9761 16.4163 22.3998 18.1063C23.1414 21.0645 23.1103 24.4685 23.0849 27.214C23.0806 27.689 23.0764 28.1441 23.0764 28.5741C23.0764 29.8406 23.1329 31.3573 23.1916 32.9353C23.2146 33.5566 23.2381 34.1873 23.2586 34.816C23.3334 37.108 23.3759 39.5076 23.2654 41.8288C23.1544 44.1626 22.8928 46.3043 22.4044 48.0978C21.9103 49.9123 21.2486 51.1291 20.5094 51.8665C18.3793 53.9908 15.0158 55.707 11.5851 56.3723C8.19343 57.03 5.46312 56.5433 3.86397 55.3266C3.85568 55.308 3.84642 55.2861 3.83628 55.2608C3.73758 55.0143 3.61788 54.5908 3.52058 53.9456C3.32575 52.654 3.275 50.8521 3.4062 48.6323C3.66722 44.216 4.6184 38.6133 6.12105 33.0995C7.62943 27.5645 9.63626 22.3315 11.9114 18.5623C13.0501 16.6756 14.1728 15.2961 15.2141 14.421C16.2449 13.5546 17.0088 13.3313 17.5391 13.3313Z" fill="white"/>
</svg>
