<svg viewBox="0 0 92 92" xmlns="http://www.w3.org/2000/svg"><g fill="#808080"><path d="m30.63 53.37a.7.7 0 0 0 -.74-.66l-8.33.49 31.85-31.85-.49 8.33a.7.7 0 0 0 .66.74.71.71 0 0 0 .75-.66l.59-10.17a.72.72 0 0 0 -.74-.74l-10.18.6a.7.7 0 0 0 .09 1.4l8.32-.49-31.84 31.85.49-8.32a.71.71 0 0 0 -.66-.75.7.7 0 0 0 -.74.66l-.6 10.2a.7.7 0 0 0 .74.74l10.2-.63a.7.7 0 0 0 .63-.74z"/><path d="m74.58 39.21-11-11a.75.75 0 0 0 -1.06 0l-3.35 3.36-3.29 3.3-3.33 3.33-6.62 6.62-17.63 17.64a.75.75 0 0 0 0 1.06l11 11a.77.77 0 0 0 .53.22.79.79 0 0 0 .53-.22l34.22-34.25a.75.75 0 0 0 0-1.06zm-34.76 33.71-9.93-9.92 3.3-3.31 4.42 4.42a.75.75 0 0 0 1.06 0 .75.75 0 0 0 0-1.06l-4.42-4.42 2.38-2.38 2.71 2.75a.79.79 0 0 0 .53.22.75.75 0 0 0 .53-.22.74.74 0 0 0 0-1.06l-2.71-2.72 2.13-2.12 4.42 4.42a.76.76 0 0 0 .53.21.77.77 0 0 0 .53-.21.77.77 0 0 0 0-1.07l-4.42-4.45 2.21-2.21 2.71 2.71a.79.79 0 0 0 .53.22.75.75 0 0 0 .53-.22.74.74 0 0 0 0-1.06l-2.71-2.72 2.3-2.29 4.42 4.42a.75.75 0 0 0 .53.22.79.79 0 0 0 .53-.22.75.75 0 0 0 0-1.06l-4.42-4.42 2.24-2.24 2.71 2.71a.75.75 0 0 0 1.06 0 .75.75 0 0 0 0-1.06l-2.71-2.71 2.27-2.27 4.42 4.42a.75.75 0 0 0 .53.22.79.79 0 0 0 .53-.22.75.75 0 0 0 0-1.06l-4.42-4.42 2.26-2.27 2.72 2.71a.73.73 0 0 0 .53.22.74.74 0 0 0 .53-.22.75.75 0 0 0 0-1.06l-2.72-2.71 2.24-2.24 4.42 4.42a.74.74 0 0 0 .53.22.71.71 0 0 0 .53-.22.74.74 0 0 0 0-1.06l-4.42-4.42 2.3-2.3 9.94 9.93z"/></g></svg>