<svg width="80" height="65" viewBox="0 0 80 65" fill="none" xmlns="http://www.w3.org/2000/svg">
<path d="M65.2837 1.00005C65.0449 1.01119 64.8107 1.06927 64.5943 1.17096C64.378 1.27265 64.1838 1.41597 64.0228 1.59272C63.8619 1.76948 63.7373 1.9762 63.6563 2.2011C63.5752 2.426 63.5392 2.66466 63.5504 2.90346C63.5616 3.14226 63.6198 3.37651 63.7215 3.59284C63.8232 3.80917 63.9666 4.00334 64.1434 4.16426C64.3202 4.32518 64.5269 4.44971 64.7518 4.53071C64.9767 4.61172 65.2154 4.64763 65.4542 4.63639H73.4371L39.3748 30.9999H21.8181V27.3635C21.8181 24.3732 19.3539 21.909 16.3636 21.909H5.45452C2.46416 21.909 0 24.3732 0 27.3635V38.2726C0 41.2629 2.46416 43.7271 5.45452 43.7271H16.3636C19.3539 43.7271 21.8181 41.2629 21.8181 38.2726V34.6362H39.4032L73.4371 60.9997H65.4542C65.2133 60.9963 64.9741 61.0408 64.7505 61.1307C64.5269 61.2205 64.3234 61.3539 64.1518 61.5231C63.9803 61.6922 63.844 61.8938 63.751 62.1161C63.658 62.3384 63.6101 62.5769 63.6101 62.8179C63.6101 63.0588 63.658 63.2974 63.751 63.5197C63.844 63.742 63.9803 63.9435 64.1518 64.1127C64.3234 64.2819 64.5269 64.4153 64.7505 64.5051C64.9741 64.595 65.2133 64.6395 65.4542 64.6361H78.1814C78.6636 64.636 79.126 64.4444 79.467 64.1035C79.808 63.7625 79.9995 63.3001 79.9996 62.8179V50.0907C80.0051 49.8319 79.9554 49.5748 79.8536 49.3368C79.7519 49.0987 79.6004 48.8852 79.4095 48.7103C79.2185 48.5355 78.9925 48.4035 78.7464 48.3231C78.5003 48.2427 78.2399 48.2158 77.9825 48.2441C77.5307 48.2938 77.1138 48.5109 76.814 48.8527C76.5143 49.1945 76.3535 49.6362 76.3632 50.0907V58.6702L42.9543 32.8181L76.3632 6.93751V15.5454C76.3598 15.7864 76.4043 16.0256 76.4942 16.2491C76.584 16.4727 76.7174 16.6762 76.8866 16.8478C77.0557 17.0194 77.2573 17.1556 77.4796 17.2486C77.7019 17.3416 77.9405 17.3895 78.1814 17.3895C78.4224 17.3895 78.6609 17.3416 78.8832 17.2486C79.1055 17.1556 79.3071 17.0194 79.4762 16.8478C79.6454 16.6762 79.7788 16.4727 79.8686 16.2491C79.9585 16.0256 80.003 15.7864 79.9996 15.5454V2.81822C79.9995 2.33602 79.808 1.87359 79.467 1.53263C79.126 1.19167 78.6636 1.00009 78.1814 1.00005H65.4542C65.3974 0.997381 65.3405 0.997381 65.2837 1.00005ZM5.45452 25.5454H16.3636C17.4023 25.5454 18.1817 26.3248 18.1817 27.3635V38.2726C18.1817 39.3113 17.4023 40.0907 16.3636 40.0907H5.45452C4.4158 40.0907 3.63634 39.3113 3.63634 38.2726V27.3635C3.63634 26.3248 4.4158 25.5454 5.45452 25.5454Z" fill="white"/>
</svg>
