<svg width="92" height="92" viewBox="0 0 92 92" fill="none" xmlns="http://www.w3.org/2000/svg">
<path d="M44.1708 28.681H33.4658V30.185H44.1708V28.681Z" fill="#fff"/>
<path d="M44.1708 62.165H33.4658V63.669H44.1708V62.165Z" fill="#fff"/>
<path d="M44.1708 53.7931H33.4658V55.2971H44.1708V53.7931Z" fill="#fff"/>
<path d="M44.1708 37.052H33.4658V38.556H44.1708V37.052Z" fill="#fff"/>
<path d="M44.1708 45.423H33.4658V46.927H44.1708V45.423Z" fill="#fff"/>
<path d="M44.1748 72.8681H22.7639C22.5646 72.8678 22.3734 72.7885 22.2324 72.6475C22.0915 72.5066 22.0122 72.3154 22.012 72.1161V20.2341C22.0122 20.0347 22.0915 19.8436 22.2324 19.7026C22.3734 19.5617 22.5646 19.4823 22.7639 19.4821H44.1748C44.3742 19.4821 44.5655 19.5613 44.7065 19.7023C44.8476 19.8434 44.9268 20.0346 44.9268 20.2341V72.1161C44.9268 72.2148 44.9074 72.3126 44.8696 72.4039C44.8318 72.4951 44.7764 72.578 44.7065 72.6478C44.6367 72.7177 44.5539 72.7731 44.4626 72.8109C44.3714 72.8486 44.2736 72.8681 44.1748 72.8681ZM23.5159 71.3631H43.4229V20.9871H23.5159V71.3631Z" fill="#fff"/>
<path d="M62.8938 72.2811C62.6941 72.2811 62.5025 72.2018 62.3613 72.0605C62.2201 71.9193 62.1409 71.7278 62.1409 71.5281V19.946C62.1547 19.7566 62.2398 19.5794 62.3789 19.4501C62.518 19.3207 62.7009 19.2489 62.8909 19.2489C63.0808 19.2489 63.2637 19.3207 63.4028 19.4501C63.542 19.5794 63.627 19.7566 63.6409 19.946V71.5281C63.6409 71.7267 63.5623 71.9174 63.4224 72.0584C63.2824 72.1995 63.0925 72.2795 62.8938 72.2811Z" fill="#fff"/>
<path d="M62.8937 72.4299C62.7874 72.4299 62.6824 72.4074 62.5854 72.364C62.4884 72.3205 62.4016 72.2572 62.3307 72.178L55.0778 64.02C54.9528 63.8697 54.891 63.6767 54.9057 63.4818C54.9203 63.2869 55.0103 63.1054 55.1564 62.9755C55.3025 62.8457 55.4934 62.7777 55.6886 62.786C55.8839 62.7943 56.0683 62.8782 56.2028 63.02L62.8937 70.5449L69.5827 63.02C69.7172 62.8782 69.9018 62.7943 70.0971 62.786C70.2924 62.7777 70.4832 62.8457 70.6293 62.9755C70.7754 63.1054 70.8651 63.2869 70.8798 63.4818C70.8945 63.6767 70.8327 63.8697 70.7077 64.02L63.4557 72.178C63.385 72.2571 63.2984 72.3205 63.2016 72.3639C63.1047 72.4073 62.9998 72.4298 62.8937 72.4299Z" fill="#fff"/>
<path d="M55.641 28.356C55.4958 28.356 55.3539 28.3141 55.232 28.2352C55.1102 28.1564 55.0137 28.044 54.9542 27.9116C54.8947 27.7792 54.8746 27.6325 54.8966 27.489C54.9186 27.3456 54.9816 27.2115 55.078 27.103L62.3309 18.946C62.4036 18.8701 62.4911 18.8097 62.5878 18.7684C62.6844 18.7272 62.7883 18.7059 62.8934 18.7059C62.9985 18.7059 63.1027 18.7272 63.1993 18.7684C63.296 18.8097 63.3832 18.8701 63.4559 18.946L70.7079 27.103C70.7774 27.1763 70.8314 27.2627 70.8668 27.3572C70.9022 27.4518 70.9185 27.5525 70.9142 27.6533C70.9099 27.7542 70.8852 27.8531 70.8419 27.9443C70.7986 28.0355 70.7374 28.1171 70.662 28.1841C70.5865 28.2512 70.4983 28.3025 70.4027 28.3348C70.3071 28.3671 70.206 28.3798 70.1053 28.3723C70.0047 28.3647 69.9065 28.337 69.8168 28.2907C69.727 28.2445 69.6474 28.1806 69.5829 28.103L62.8939 20.579L56.203 28.103C56.1325 28.1825 56.0459 28.2461 55.9491 28.2897C55.8522 28.3333 55.7472 28.3559 55.641 28.356Z" fill="#fff"/>
</svg>
