<svg width="49" height="49" viewBox="0 0 49 49" fill="none" xmlns="http://www.w3.org/2000/svg">
<path fill-rule="evenodd" clip-rule="evenodd" d="M23.3794 29.5095C23.3767 29.5148 23.374 29.5203 23.3713 29.5261C23.319 29.6331 23.26 29.7908 23.2051 30.0095C22.9905 30.8661 22.9979 31.8637 23.0054 32.8551C23.0067 33.0361 23.0081 33.2171 23.0081 33.3969C23.0081 33.8814 22.9862 34.4714 22.9648 35.0487C22.9566 35.2647 22.9488 35.4789 22.942 35.6853C22.9156 36.4967 22.9021 37.3091 22.9388 38.0799C22.976 38.861 23.0615 39.5078 23.1963 40.0032C23.2621 40.2445 23.3307 40.4159 23.3898 40.5315C23.4483 40.6455 23.4864 40.6831 23.4849 40.6816C24.0083 41.2037 24.9301 41.695 25.9064 41.8843C26.4225 41.9843 26.7964 41.975 27.0507 41.9332C27.0714 41.6202 27.0733 41.2029 27.0424 40.6818C26.9559 39.2195 26.6356 37.3141 26.1188 35.4181C25.5973 33.5048 24.9224 31.7742 24.2057 30.5869C23.8676 30.0269 23.5801 29.6886 23.3794 29.5095ZM20.2964 32.9512C20.2738 30.8415 20.2298 26.7329 23.4817 26.7329C27.9363 26.7329 31.1182 42.282 29.2091 43.8687C27.2999 45.4553 23.4817 44.5034 21.5724 42.5994C20.0311 41.0622 20.1645 37.4702 20.2602 34.8918C20.2808 34.3362 20.2998 33.8277 20.2998 33.3969C20.2998 33.2618 20.2981 33.1124 20.2964 32.9512Z" fill="#808080"/>
<path fill-rule="evenodd" clip-rule="evenodd" d="M11.9367 29.5095C11.9392 29.5148 11.9421 29.5203 11.9448 29.5261C11.9971 29.6331 12.0561 29.7908 12.1108 30.0095C12.3256 30.8661 12.3181 31.8637 12.3107 32.8551C12.3093 33.0361 12.308 33.2171 12.308 33.3969C12.308 33.8814 12.3299 34.4714 12.3513 35.0487C12.3593 35.2647 12.3673 35.4789 12.3741 35.6853C12.4005 36.4967 12.414 37.3091 12.3773 38.0799C12.3401 38.861 12.2546 39.5078 12.1197 40.0032C12.0539 40.2445 11.9854 40.4159 11.9261 40.5315C11.8677 40.6455 11.8297 40.6831 11.831 40.6816C11.3078 41.2037 10.3859 41.695 9.40965 41.8843C8.89358 41.9843 8.51956 41.975 8.26525 41.9332C8.24466 41.6202 8.24277 41.2029 8.27364 40.6818C8.36017 39.2195 8.68043 37.3141 9.19718 35.4181C9.71881 33.5048 10.3936 31.7742 11.1103 30.5869C11.4483 30.0269 11.736 29.6886 11.9367 29.5095ZM15.0197 32.9512C15.0423 30.8415 15.0863 26.7329 11.8344 26.7329C7.37976 26.7329 4.1978 42.282 6.10698 43.8687C8.01608 45.4553 11.8344 44.5034 13.7435 42.5994C15.285 41.0622 15.1516 37.4702 15.0559 34.8918C15.0353 34.3362 15.0163 33.8277 15.0163 33.3969C15.0163 33.2618 15.0179 33.1124 15.0197 32.9512Z" fill="#808080"/>
<path fill-rule="evenodd" clip-rule="evenodd" d="M16.375 25.854H19.0833V32.3991C19.0833 33.2411 18.7001 33.8921 18.1977 34.3316C17.735 34.7365 17.1858 34.9556 16.7542 35.0816C16.3076 35.2118 15.8793 35.2725 15.5751 35.3022C15.4196 35.3172 15.2887 35.3249 15.1936 35.329C15.1458 35.3309 15.1067 35.332 15.0776 35.3325L15.0413 35.333L15.0291 35.3332H15.0245H15.0225C15.0221 35.3332 15.0208 35.3332 15.0208 33.979C15.0208 32.6248 15.0204 32.6248 15.0202 32.6248H15.0183H15.0165L15.0249 32.6247C15.0355 32.6246 15.0546 32.624 15.0808 32.6229C15.1339 32.6208 15.2145 32.616 15.3129 32.6066C15.5166 32.5867 15.7654 32.5487 15.9958 32.4816C16.1902 32.4248 16.3108 32.3647 16.375 32.3226V25.854ZM15.0165 32.6248C15.0161 32.6248 15.0166 32.6248 15.0165 32.6248V32.6248Z" fill="#808080"/>
<path fill-rule="evenodd" clip-rule="evenodd" d="M19.0833 25.854H16.375V32.3991C16.375 33.2411 16.7582 33.8921 17.2606 34.3316C17.7233 34.7365 18.2726 34.9556 18.7042 35.0816C19.1508 35.2118 19.5791 35.2725 19.8832 35.3022C20.0387 35.3172 20.1696 35.3249 20.2647 35.329C20.3125 35.3309 20.3516 35.332 20.3808 35.3325L20.4171 35.333L20.4292 35.3332H20.4338H20.4359C20.4363 35.3332 20.4375 35.3332 20.4375 33.979C20.4375 32.6248 20.4379 32.6248 20.4382 32.6248H20.4401H20.4418L20.4334 32.6247C20.4229 32.6246 20.4038 32.624 20.3775 32.6229C20.3244 32.6208 20.2439 32.616 20.1454 32.6066C19.9417 32.5867 19.693 32.5487 19.4625 32.4816C19.2682 32.4248 19.1475 32.3647 19.0833 32.3226V25.854ZM20.4418 32.6248C20.4422 32.6248 20.4417 32.6248 20.4418 32.6248V32.6248Z" fill="#808080"/>
<path d="M35.3333 10.9582C35.3333 11.7061 34.7271 12.3123 33.9792 12.3123C33.2313 12.3123 32.625 11.7061 32.625 10.9582C32.625 10.2103 33.2313 9.604 33.9792 9.604C34.7271 9.604 35.3333 10.2103 35.3333 10.9582Z" fill="#808080"/>
<path d="M38.0416 15.0207C38.0416 15.7686 37.4353 16.3748 36.6874 16.3748C35.9395 16.3748 35.3333 15.7686 35.3333 15.0207C35.3333 14.2728 35.9395 13.6665 36.6874 13.6665C37.4353 13.6665 38.0416 14.2728 38.0416 15.0207Z" fill="#808080"/>
<path d="M40.7501 19.0832C40.7501 19.8311 40.1438 20.4373 39.3959 20.4373C38.648 20.4373 38.0417 19.8311 38.0417 19.0832C38.0417 18.3353 38.648 17.729 39.3959 17.729C40.1438 17.729 40.7501 18.3353 40.7501 19.0832Z" fill="#808080"/>
<path d="M48.8751 17.7292C48.8751 18.4771 48.2688 19.0833 47.5209 19.0833C46.773 19.0833 46.1667 18.4771 46.1667 17.7292C46.1667 16.9813 46.773 16.375 47.5209 16.375C48.2688 16.375 48.8751 16.9813 48.8751 17.7292Z" fill="#808080"/>
<path d="M48.8751 10.9582C48.8751 11.7061 48.2688 12.3123 47.5209 12.3123C46.773 12.3123 46.1667 11.7061 46.1667 10.9582C46.1667 10.2103 46.773 9.604 47.5209 9.604C48.2688 9.604 48.8751 10.2103 48.8751 10.9582Z" fill="#808080"/>
<path d="M48.8751 5.54167C48.8751 6.28957 48.2688 6.89583 47.5209 6.89583C46.773 6.89583 46.1667 6.28957 46.1667 5.54167C46.1667 4.79379 46.773 4.1875 47.5209 4.1875C48.2688 4.1875 48.8751 4.79379 48.8751 5.54167Z" fill="#808080"/>
<path d="M43.4583 8.25016C43.4583 8.99807 42.8521 9.60433 42.1042 9.60433C41.3563 9.60433 40.75 8.99807 40.75 8.25016C40.75 7.50226 41.3563 6.896 42.1042 6.896C42.8521 6.896 43.4583 7.50226 43.4583 8.25016Z" fill="#808080"/>
<path d="M43.4583 13.6667C43.4583 14.4146 42.8521 15.0208 42.1042 15.0208C41.3563 15.0208 40.75 14.4146 40.75 13.6667C40.75 12.9188 41.3563 12.3125 42.1042 12.3125C42.8521 12.3125 43.4583 12.9188 43.4583 13.6667Z" fill="#808080"/>
<path d="M32.6251 17.7292C32.6251 18.4771 32.0188 19.0833 31.2709 19.0833C30.523 19.0833 29.9167 18.4771 29.9167 17.7292C29.9167 16.9813 30.523 16.375 31.2709 16.375C32.0188 16.375 32.6251 16.9813 32.6251 17.7292Z" fill="#808080"/>
<path d="M23.1458 15.0207C23.1458 15.7686 22.5396 16.3748 21.7917 16.3748C21.0438 16.3748 20.4375 15.7686 20.4375 15.0207C20.4375 14.2728 21.0438 13.6665 21.7917 13.6665C22.5396 13.6665 23.1458 14.2728 23.1458 15.0207Z" fill="#808080"/>
<path d="M19.0833 13.6667C19.0833 14.4146 18.4771 15.0208 17.7292 15.0208C16.9813 15.0208 16.375 14.4146 16.375 13.6667C16.375 12.9188 16.9813 12.3125 17.7292 12.3125C18.4771 12.3125 19.0833 12.9188 19.0833 13.6667Z" fill="#808080"/>
<path fill-rule="evenodd" clip-rule="evenodd" d="M22.7706 24.5263C21.2749 24.5263 20.0623 23.3137 20.0623 21.8179V20.5361C20.0623 19.0404 21.2749 17.8278 22.7706 17.8278H24.2055C24.5016 17.8278 24.7592 17.7152 24.9281 17.5561C25.092 17.4013 25.1562 17.2227 25.1572 17.0687V17.0587L25.16 16.7378C25.1615 16.5428 25.1634 16.2817 25.1646 16.0149C25.1658 15.7468 25.1664 15.4791 25.1656 15.2688C25.165 15.1629 25.1644 15.0796 25.1633 15.0218C25.163 15.0088 25.1627 14.9985 25.1626 14.9904C25.1279 14.4549 25.2478 13.8855 25.5609 13.3725C25.8037 12.9747 26.1041 12.7059 26.3606 12.5298C26.0195 11.7303 25.6623 10.8917 25.3233 10.028C25.2008 9.71548 25.1373 9.38276 25.1363 9.04693C25.1363 9.04476 25.1363 9.04273 25.1363 9.04056V9.04693L25.1359 9.02661C25.1355 9.00373 25.1346 8.96338 25.1324 8.9088C25.1278 8.79857 25.1186 8.63513 25.0996 8.4408C25.0595 8.02927 24.9857 7.58158 24.8712 7.22544C24.4764 5.99775 23.6698 4.89461 22.5392 4.0942C21.4086 3.29387 20.0214 2.84544 18.5786 2.83333C17.1886 2.83244 15.8454 3.24336 14.7366 3.99143C13.6275 4.73972 12.8172 5.78068 12.3913 6.95081C11.9664 8.11878 11.9373 9.37761 12.3064 10.5598C12.6761 11.744 13.4347 12.8148 14.5045 13.6065C15.1944 14.1173 15.6014 14.925 15.6014 15.7834V21.8179C15.6014 23.3137 14.3888 24.5263 12.893 24.5263H9.05993C7.39295 24.5221 5.81589 25.1381 4.66059 26.2031C3.51857 27.2559 2.88134 28.6576 2.83333 30.1016V46.1667H33.9742V31.3431C33.9742 31.3124 33.9746 31.2817 33.9756 31.2511C34.0044 30.4094 33.8569 29.568 33.5385 28.7735C33.2199 27.9786 32.7343 27.2419 32.1022 26.6098C31.4699 25.9774 30.7037 25.4627 29.8444 25.1022C28.9922 24.7447 28.0694 24.5479 27.1295 24.5263H22.7706ZM28.1852 21.89C29.1173 22.0025 30.0292 22.2427 30.8918 22.6046C32.0693 23.0984 33.1316 23.8088 34.0174 24.6949C34.9032 25.5808 35.5948 26.6246 36.0524 27.7657C36.5098 28.907 36.7239 30.1229 36.6825 31.3431V48.875H0.125V30.0613C0.184746 27.8518 1.1538 25.7523 2.82486 24.2118C4.49592 22.6713 6.73631 21.8121 9.06683 21.8179H12.893V15.7834C11.3764 14.6606 10.2673 13.1166 9.72117 11.367C9.1749 9.6173 9.21863 7.74964 9.84629 6.0247C10.4739 4.29987 11.6541 2.80404 13.222 1.74629C14.7897 0.688537 16.6668 0.12171 18.5908 0.125014C20.5791 0.139585 22.5106 0.755731 24.104 1.88371C25.6974 3.01169 26.8694 4.59261 27.4495 6.39628C27.8447 7.62478 27.8447 9.0388 27.8447 9.0388C28.1772 9.88678 28.5308 10.715 28.8842 11.5431L29.3834 12.7464C29.5697 13.0722 29.6962 13.4256 29.7577 13.7915C29.7712 14.0346 29.6896 14.2737 29.5283 14.4631C29.4553 14.5486 29.3685 14.6214 29.2718 14.6789C29.1547 14.7485 29.0231 14.7959 28.8844 14.817C28.8673 14.817 28.8138 14.8085 28.7398 14.7967C28.6665 14.7851 28.5732 14.7702 28.475 14.7572C28.1858 14.7187 27.8535 14.6961 27.8654 14.817C27.8854 15.0208 27.8654 17.085 27.8654 17.085C27.861 17.8176 27.6126 18.525 27.1632 19.1096C27.1616 19.1118 27.16 19.1138 27.1584 19.116C27.0464 19.2609 26.9222 19.3982 26.7861 19.5266C26.1004 20.1732 25.1726 20.5361 24.2056 20.5361H22.7706V21.8179H27.1584C27.5025 21.8247 27.8452 21.8488 28.1852 21.89ZM25.1619 14.9679C25.1619 14.9677 25.1619 14.9691 25.1621 14.9724L25.1619 14.9679Z" fill="#808080"/>
</svg>
