<svg width="62" height="62" viewBox="0 0 62 62" fill="none" xmlns="http://www.w3.org/2000/svg">
<path d="M30.314 5.11716L30.3142 5.11731C32.0589 7.35329 31.9933 10.5835 30.6879 13.8401C29.3753 17.1146 26.7727 20.5306 23.2294 23.2748L22.9233 22.8795L23.2294 23.2748C19.1621 26.4249 14.4656 28.2572 10.3243 28.2572C8.36567 28.2572 5.53701 27.8351 3.82293 25.6384L30.314 5.11716ZM30.314 5.11716C28.5993 2.92141 25.7716 2.49843 23.8127 2.49843C19.6714 2.49843 14.975 4.33155 10.9076 7.48078L10.9076 7.48083C7.23498 10.3255 4.49774 13.8961 3.22631 17.5551L3.22625 17.5553M30.314 5.11716L3.22625 17.5553M3.22625 17.5553C2.9054 18.4798 2.54226 19.8273 2.51011 21.2721M3.22625 17.5553L2.51011 21.2721M25.1547 8.46775L25.1532 8.46705C25.0275 8.40668 24.8767 8.45982 24.8164 8.58462C24.8164 8.5847 24.8163 8.58479 24.8163 8.58488L24.3658 8.36786L25.1547 8.46775ZM25.1547 8.46775C25.2804 8.52756 25.3321 8.67596 25.2727 8.7995C23.8228 11.8132 21.4704 14.6427 18.4626 16.9723C14.8402 19.778 10.7273 21.4868 6.89238 21.8097C6.88261 21.8103 6.87397 21.8106 6.86585 21.8106C6.73413 21.8106 6.62563 21.7103 6.61461 21.5821C6.60321 21.4463 6.7044 21.3243 6.84483 21.3126L6.84512 21.3126M25.1547 8.46775L6.84512 21.3126M6.84512 21.3126C10.6193 20.9965 14.6301 19.3061 18.1509 16.5793L6.84512 21.3126ZM56.0237 31.3266L56.0236 31.3267C55.5724 32.0827 54.8547 33.1143 53.881 33.9761C52.9069 34.8383 51.6476 35.5554 50.1246 35.6171C50.0547 35.6204 49.9842 35.6221 49.9144 35.6221C47.3944 35.6221 45.102 33.8071 43.4303 31.1282C41.7471 28.4307 40.6213 24.7567 40.4594 20.7913L40.4594 20.7912C40.2901 16.6232 41.1977 12.5158 42.9836 9.52316M56.0237 31.3266L48.9061 5.73224L48.8859 5.23265C48.8854 5.23267 48.8848 5.2327 48.8843 5.23272C47.3606 5.29478 46.1006 6.01174 45.1261 6.87395C44.1522 7.73561 43.4345 8.76693 42.9836 9.52316M56.0237 31.3266C57.8094 28.3333 58.7179 24.2267 58.547 20.0585L56.0237 31.3266ZM42.9836 9.52316L43.4129 9.77937L42.9835 9.52331C42.9835 9.52326 42.9835 9.52321 42.9836 9.52316ZM48.4777 31.2283C50.2587 28.2411 51.1328 24.3436 50.9671 20.2589L50.9671 20.2587C50.8282 16.8559 49.9873 13.6559 48.5211 11.0072L48.5208 11.0067C48.4553 10.8886 48.4969 10.7376 48.6205 10.6698L48.6221 10.6689C48.7413 10.603 48.896 10.6458 48.9645 10.7681C50.4574 13.4654 51.329 16.74 51.4714 20.2387C51.6428 24.4522 50.7243 28.4431 48.9124 31.4815L48.9123 31.4817C48.8656 31.5601 48.7819 31.6049 48.6947 31.6049C48.6502 31.6049 48.6063 31.5937 48.5658 31.5699C48.4453 31.4982 48.4078 31.3457 48.4777 31.2283ZM48.4777 31.2283L48.0483 30.9723M48.4777 31.2283C48.4777 31.2283 48.4778 31.2283 48.4778 31.2282L48.0483 30.9723M48.0483 30.9723C49.7707 28.0833 50.6301 24.2858 50.4675 20.2791L48.0483 30.9723ZM2.51011 21.2721C2.47791 22.7186 2.77747 24.299 3.82288 25.6383L2.51011 21.2721ZM2.23491 26.8634L2.23489 26.8634C0.246722 24.3156 -0.000475834 20.7231 1.32696 16.9024C2.65262 13.0867 5.53273 9.11042 9.6725 5.9042C14.2949 2.32497 19.4612 0.5 23.812 0.5C27.2569 0.5 30.1432 1.63944 31.9022 3.89233C33.8903 6.44008 34.1375 10.0326 32.8101 13.8533C31.4844 17.6689 28.6043 21.6452 24.4645 24.8515C19.8421 28.4307 14.6758 30.2556 10.3243 30.2556C6.87924 30.2556 3.99308 29.1169 2.23491 26.8634ZM31.758 57.5798L31.7581 57.5797C33.3805 55.7624 33.4474 52.922 32.4794 50.0198C31.5032 47.0927 29.4383 43.9655 26.5614 41.415C22.9551 38.2175 18.5753 36.2712 14.8174 36.2712C13.376 36.2712 11.2556 36.5721 9.84531 38.151C8.87647 39.2352 8.53745 40.5769 8.48744 41.817C8.43747 43.0561 8.67364 44.2333 8.89625 45.0443C9.78341 48.2765 12.0319 51.6467 15.0426 54.3159L15.0426 54.3159C18.6482 57.5118 23.0272 59.4581 26.7866 59.4581C28.2277 59.4581 30.3475 59.1588 31.758 57.5798ZM28.0365 53.5002L28.0369 53.5003C28.1717 53.5365 28.2498 53.6739 28.2138 53.8064L28.2138 53.8066C28.1845 53.9147 28.0841 53.9904 27.971 53.9904C27.9477 53.9904 27.9262 53.9875 27.9063 53.9821L27.904 53.9814C25.0151 53.2026 22.1425 51.6074 19.6046 49.3578C16.5456 46.6458 14.3757 43.3279 13.471 40.0323L13.471 40.0321C13.4351 39.9016 13.5113 39.7639 13.6467 39.7262C13.7873 39.6895 13.9234 39.7718 13.9591 39.9015C14.8473 43.1407 16.9809 46.3613 19.9421 48.9862C22.4069 51.1715 25.2035 52.7362 28.0365 53.5002ZM49.095 3.23007H49.095C52.001 3.22972 54.7582 5.00304 56.8605 8.02531C58.9594 11.0426 60.3636 15.2546 60.5555 19.9778L60.5555 19.978C60.7519 24.7799 59.6562 29.1556 57.7526 32.3464C55.8463 35.5418 53.1702 37.4943 50.2043 37.6142L50.2027 37.6143C50.1069 37.6184 50.0096 37.6205 49.9144 37.6205C47.0076 37.6205 44.2502 35.8475 42.1476 32.8254C40.0485 29.8083 38.644 25.5963 38.4509 20.8719C38.2553 16.0699 39.351 11.6942 41.2547 8.50345C43.1608 5.30845 45.8367 3.35598 48.8034 3.2357C48.9013 3.23215 48.9986 3.23007 49.095 3.23007ZM60.6821 44.3656L60.6821 44.3655C59.9367 42.5963 57.7102 41.6444 55.1157 41.6444C53.4491 41.6444 51.6764 42.0234 49.9859 42.7295L49.9857 42.7296C47.7333 43.6715 45.8735 45.1063 44.7099 46.6631C43.5574 48.2049 43.0245 49.9653 43.664 51.483C44.4095 53.2523 46.6353 54.2034 49.2304 54.2034C50.8962 54.2034 52.6682 53.8252 54.3596 53.1182L54.3597 53.1182C56.6848 52.146 58.6361 50.6565 59.8346 48.8981C60.1405 48.4494 60.5341 47.7743 60.7634 46.9915C60.9933 46.2068 61.0672 45.2799 60.6821 44.3656ZM49.789 42.2699L49.5961 41.8086L49.7891 42.2699C51.6141 41.5066 53.4532 41.1452 55.1149 41.1452C58.0823 41.1452 60.3516 42.2824 61.1481 44.1735L61.6089 43.9795L61.1482 44.1736C61.7716 45.6535 61.4358 47.4427 60.2534 49.1768C59.0742 50.9064 57.086 52.5204 54.5564 53.5779L54.5563 53.5779C52.7313 54.3411 50.8914 54.7026 49.2304 54.7026C46.2632 54.7026 43.9952 53.5654 43.1987 51.6756C42.5746 50.1949 42.91 48.4055 44.0922 46.6713C45.2712 44.9418 47.2594 43.3277 49.789 42.2699ZM52.6693 49.0577L52.6689 49.0578C51.3098 49.6268 49.8981 49.9156 48.5532 49.9156C47.8773 49.9156 47.2187 49.8423 46.5929 49.6963C46.4552 49.6642 46.3737 49.5287 46.4046 49.3976L46.4049 49.3965C46.4351 49.267 46.5687 49.1792 46.7099 49.211C48.5104 49.6283 50.5518 49.4035 52.4716 48.5989C54.0729 47.9298 55.4437 46.9239 56.4269 45.6783L56.4271 45.678C56.5122 45.5701 56.6712 45.5495 56.7826 45.6361C56.8921 45.7224 56.9092 45.8785 56.8252 45.9849L56.8249 45.9852C55.7997 47.284 54.3647 48.3495 52.6693 49.0577ZM13.7051 55.8074L13.3734 56.1816L13.7051 55.8074C10.2229 52.7209 7.90592 49.0266 6.95739 45.5697C6.00743 42.1075 6.44156 38.9511 8.34261 36.8233C9.86274 35.1218 12.1411 34.2728 14.8167 34.2728C18.8514 34.2728 23.711 36.2108 27.8989 39.9226C31.3803 43.0092 33.6972 46.7031 34.6457 50.1599C35.5956 53.6218 35.1617 56.7782 33.2606 58.9068C31.7413 60.6074 29.4622 61.4565 26.7866 61.4565C22.7518 61.4565 17.8922 59.5192 13.7051 55.8074Z" stroke="#808080"/>
</svg>
