<svg fill="none" height="44" viewBox="0 0 55 44" width="55" xmlns="http://www.w3.org/2000/svg"><path d="m17.907 0c-1.7605 0-3.1977 1.43723-3.1977 3.19767v3.19768h-11.51163c-1.76044 0-3.19767 1.43722-3.19767 3.19767v30.69768c0 1.7604 1.43723 3.1977 3.19767 3.1977h48.60463c1.7605 0 3.1977-1.4373 3.1977-3.1977v-30.69768c0-1.76045-1.4372-3.19767-3.1977-3.19767h-11.5116v-3.19768c0-1.76044-1.4372-3.19767-3.1977-3.19767zm0 1.27907h19.186c1.074 0 1.9186.84463 1.9186 1.9186v3.19768h-23.0232v-3.19768c0-1.07397.8446-1.9186 1.9186-1.9186zm-14.70933 6.39535h48.60463c1.074 0 1.9186.84463 1.9186 1.9186v30.69768c0 1.074-.8446 1.9186-1.9186 1.9186h-48.60463c-1.07396 0-1.9186-.8446-1.9186-1.9186v-30.69768c0-1.07397.84464-1.9186 1.9186-1.9186zm24.30233 5.11628c-2.4691 0-4.4767 2.0077-4.4767 4.4767v3.1977h-3.1977c-2.4691 0-4.4768 2.0077-4.4768 4.4768 0 2.469 2.0077 4.4767 4.4768 4.4767h3.1977v3.1977c0 2.469 2.0076 4.4767 4.4767 4.4767s4.4767-2.0077 4.4767-4.4767v-3.1977h3.1977c2.4691 0 4.4768-2.0077 4.4768-4.4767 0-2.4691-2.0077-4.4768-4.4768-4.4768h-3.1977v-3.1977c0-2.469-2.0076-4.4767-4.4767-4.4767zm0 1.2791c1.7826 0 3.1977 1.4151 3.1977 3.1976v3.8372c0 .1697.0674.3323.1873.4523.1199.1199.2826.1873.4522.1873h3.8372c1.7826 0 3.1977 1.4151 3.1977 3.1977 0 1.7825-1.4151 3.1976-3.1977 3.1976h-3.8372c-.1696 0-.3323.0674-.4522.1874-.1199.1199-.1873.2826-.1873.4522v3.8372c0 1.7826-1.4151 3.1976-3.1977 3.1976s-3.1977-1.415-3.1977-3.1976v-3.8372c0-.1696-.0674-.3323-.1873-.4522-.1199-.12-.2826-.1874-.4522-.1874h-3.8372c-1.7826 0-3.1977-1.4151-3.1977-3.1976 0-1.7826 1.4151-3.1977 3.1977-3.1977h3.8372c.1696 0 .3323-.0674.4522-.1873.1199-.12.1873-.2826.1873-.4523v-3.8372c0-1.7825 1.4151-3.1976 3.1977-3.1976z" fill="#fff"/></svg>