<svg fill="none" height="92" viewBox="0 0 92 92" width="92" xmlns="http://www.w3.org/2000/svg"><g fill="#fff"><path d="m46.5467 29c4.8697 0 8.8029 3.5775 8.8029 8.092 0 4.4293-3.9332 8.0068-8.8029 8.0068-4.9633 0-8.8966-3.5775-8.8966-8.0068 0-4.5145 3.9333-8.092 8.8966-8.092zm0 1.7036c-3.9332 0-7.0236 2.8109-7.0236 6.3884 0 3.4923 3.0904 6.3032 7.0236 6.3032 3.8395 0 6.9299-2.8109 6.9299-6.3032 0-3.5775-3.0904-6.3884-6.9299-6.3884z"/><path d="m35.1219 57.45c0 .4259-.4683.7666-1.0301.6814-.4683 0-.8429-.4259-.7492-.9369.7492-6.0477 6.368-10.7326 13.2043-10.7326 6.7426 0 12.4551 4.6849 13.2043 10.7326 0 .511-.3746.9369-.8428.9369-.5619.0852-1.0301-.2555-1.0301-.6814-.6556-5.2811-5.5252-9.2845-11.3314-9.2845s-10.7695 4.0034-11.425 9.2845z"/><path d="m63.8717 35.8994c3.8395 0 6.9299 2.8109 6.9299 6.2181 0 3.4923-3.0904 6.3032-6.9299 6.3032-3.7459 0-6.8363-2.8109-6.8363-6.3032 0-3.4072 3.0904-6.2181 6.8363-6.2181zm0 1.7036c-2.7158 0-4.9633 2.0443-4.9633 4.5145 0 2.5553 2.2475 4.5996 4.9633 4.5996 2.8094 0 5.057-2.0443 5.057-4.5996 0-2.4702-2.2476-4.5145-5.057-4.5145z"/><path d="m60.1255 51.8278c-.4682.2556-1.0301.0852-1.3111-.3407-.1872-.4259 0-.937.4683-1.1925 1.4047-.5962 2.9967-1.0221 4.5887-1.0221 5.057 0 9.3648 3.4071 10.114 7.9216.0936.4259-.281.937-.7492.937-.5619.0851-1.0301-.2556-1.1238-.6815-.5619-3.7478-4.1205-6.4736-8.241-6.4736-1.311 0-2.6221.3408-3.7459.8518z"/><path d="m29.1284 35.8994c3.7459 0 6.8363 2.8109 6.8363 6.2181 0 3.4923-3.0904 6.3032-6.8363 6.3032-3.8395 0-6.9299-2.8109-6.9299-6.3032 0-3.4072 3.0904-6.2181 6.9299-6.2181zm0 1.7036c-2.8094 0-5.057 2.0443-5.057 4.5145 0 2.5553 2.2476 4.5996 5.057 4.5996 2.7158 0 4.9633-2.0443 4.9633-4.5996 0-2.4702-2.2475-4.5145-4.9633-4.5145z"/><path d="m20.8873 57.4496c-.0937.4259-.5619.7666-1.0301.6815-.5619 0-.9365-.5111-.8429-.937.7492-4.5145 5.057-7.9216 10.114-7.9216 1.592 0 3.184.4259 4.6824 1.0221.3746.2555.5619.7666.3746 1.1925-.281.4259-.8429.5963-1.3111.3407-1.1238-.511-2.4348-.8518-3.7459-.8518-4.1205 0-7.6791 2.7258-8.241 6.4736z"/></g></svg>