<svg width="93" height="129" viewBox="0 0 93 129" fill="none" xmlns="http://www.w3.org/2000/svg">
<g filter="url(#filter0_d)">
<path d="M79.1791 27.3012C80.6585 25.5528 81.5999 23.401 81.5999 20.8457V9.68317C81.5999 4.30363 77.2962 0 71.9167 0H21.08C15.7005 0 11.3969 4.30363 11.3969 9.68317V20.8457C11.3969 23.2665 12.3383 25.5528 13.8177 27.3012C8.03466 30.2599 4 36.3119 4 43.3053V102.346C4 112.298 12.0693 120.233 21.887 120.233H71.1098C81.0619 120.233 88.9967 112.163 88.9967 102.346V43.3053C89.1312 36.3119 85.0966 30.2599 79.1791 27.3012ZM21.08 25.2838C18.6592 25.2838 16.6419 23.2665 16.6419 20.8457V9.68317C16.6419 7.26238 18.6592 5.24505 21.08 5.24505H71.9167C74.3375 5.24505 76.3548 7.26238 76.3548 9.68317V20.8457C76.3548 23.2665 74.3375 25.2838 71.9167 25.2838H71.1098H21.887H21.08ZM83.7517 102.211C83.7517 109.205 78.1032 114.853 71.1098 114.853H21.887C14.8936 114.853 9.24505 109.205 9.24505 102.211V43.3053C9.24505 36.3119 14.8936 30.6634 21.887 30.6634H71.1098C78.1032 30.6634 83.7517 36.3119 83.7517 43.3053V102.211Z" fill="#06B9FF"/>
<path d="M24.0388 6.99414H20.1387V23.4017H24.0388V6.99414Z" fill="#06B9FF"/>
<path d="M36.4114 6.99414H32.5112V23.4017H36.4114V6.99414Z" fill="#06B9FF"/>
<path d="M49.323 6.99414H45.4229V23.4017H49.323V6.99414Z" fill="#06B9FF"/>
<path d="M61.5611 6.99414H57.6609V23.4017H61.5611V6.99414Z" fill="#06B9FF"/>
<path d="M72.7229 6.99414H68.8228V23.4017H72.7229V6.99414Z" fill="#06B9FF"/>
<path d="M7.49598 62.4054C7.49598 62.4054 17.3136 41.5597 36.8145 53.3947C56.3153 65.2297 84.2889 66.5745 86.1718 57.6983V103.021L82.8095 112.973L75.1437 117.68H19.331L10.3202 112.704C10.3202 112.704 5.20967 96.5655 5.34416 95.893C5.47865 95.2206 7.49598 62.4054 7.49598 62.4054Z" fill="#06B9FF"/>
<path d="M57.6616 46.1294C61.004 46.1294 63.7136 43.4198 63.7136 40.0774C63.7136 36.735 61.004 34.0254 57.6616 34.0254C54.3192 34.0254 51.6096 36.735 51.6096 40.0774C51.6096 43.4198 54.3192 46.1294 57.6616 46.1294Z" fill="#06B9FF"/>
<path d="M73.5299 52.8566C76.1295 52.8566 78.237 50.7491 78.237 48.1495C78.237 45.5498 76.1295 43.4424 73.5299 43.4424C70.9302 43.4424 68.8228 45.5498 68.8228 48.1495C68.8228 50.7491 70.9302 52.8566 73.5299 52.8566Z" fill="#06B9FF"/>
<path d="M61.5622 56.8886C63.7905 56.8886 65.5969 55.0823 65.5969 52.854C65.5969 50.6257 63.7905 48.8193 61.5622 48.8193C59.334 48.8193 57.5276 50.6257 57.5276 52.854C57.5276 55.0823 59.334 56.8886 61.5622 56.8886Z" fill="#06B9FF"/>
</g>
<defs>
<filter id="filter0_d" x="0" y="0" width="93" height="128.233" filterUnits="userSpaceOnUse" color-interpolation-filters="sRGB">
<feFlood flood-opacity="0" result="BackgroundImageFix"/>
<feColorMatrix in="SourceAlpha" type="matrix" values="0 0 0 0 0 0 0 0 0 0 0 0 0 0 0 0 0 0 127 0"/>
<feOffset dy="4"/>
<feGaussianBlur stdDeviation="2"/>
<feColorMatrix type="matrix" values="0 0 0 0 0 0 0 0 0 0 0 0 0 0 0 0 0 0 0.25 0"/>
<feBlend mode="normal" in2="BackgroundImageFix" result="effect1_dropShadow"/>
<feBlend mode="normal" in="SourceGraphic" in2="effect1_dropShadow" result="shape"/>
</filter>
</defs>
</svg>
