<svg width="115" height="120" viewBox="0 0 115 120" fill="none" xmlns="http://www.w3.org/2000/svg">
<rect x="59.5" y="61.5" width="39" height="39" rx="2.5" stroke="white"/>
<rect x="61.2856" y="63.2856" width="35.4286" height="35.4286" rx="2" fill="white"/>
<path d="M80.9048 96.32C78.2382 96.32 75.9315 95.7467 73.9848 94.6C72.0382 93.4267 70.5315 91.76 69.4648 89.6C68.4248 87.4133 67.9048 84.84 67.9048 81.88C67.9048 78.9467 68.4248 76.4 69.4648 74.24C70.5315 72.0533 72.0382 70.3867 73.9848 69.24C75.9315 68.0667 78.2382 67.48 80.9048 67.48C82.6915 67.48 84.3715 67.7733 85.9448 68.36C87.5448 68.92 88.9315 69.7333 90.1048 70.8C90.5315 71.2 90.7448 71.6667 90.7448 72.2C90.7448 72.5733 90.6382 72.9067 90.4248 73.2C90.2115 73.4667 89.9582 73.6 89.6648 73.6C89.3448 73.6 88.9582 73.4533 88.5048 73.16C87.1448 72.0933 85.9048 71.3467 84.7848 70.92C83.6915 70.4933 82.4248 70.28 80.9848 70.28C77.8915 70.28 75.5048 71.2933 73.8248 73.32C72.1715 75.32 71.3448 78.1733 71.3448 81.88C71.3448 85.6133 72.1715 88.4933 73.8248 90.52C75.5048 92.52 77.8915 93.52 80.9848 93.52C82.3982 93.52 83.6648 93.3067 84.7848 92.88C85.9048 92.4533 87.1448 91.7067 88.5048 90.64C88.9582 90.3467 89.3448 90.2 89.6648 90.2C89.9582 90.2 90.2115 90.3333 90.4248 90.6C90.6382 90.8667 90.7448 91.2 90.7448 91.6C90.7448 92.1333 90.5315 92.6 90.1048 93C88.9315 94.0667 87.5448 94.8933 85.9448 95.48C84.3715 96.04 82.6915 96.32 80.9048 96.32Z" fill="#808080"/>
<rect x="16.5" y="61.5" width="39" height="39" rx="2.5" stroke="white"/>
<rect x="18.2856" y="63.2856" width="35.4286" height="35.4286" rx="2" fill="white"/>
<path d="M42.0034 81.52C43.6301 81.9467 44.8834 82.7467 45.7634 83.92C46.6701 85.0933 47.1234 86.56 47.1234 88.32C47.1234 90.8 46.3101 92.7067 44.6834 94.04C43.0568 95.3467 40.7501 96 37.7634 96H27.6834C27.1768 96 26.7634 95.8533 26.4434 95.56C26.1501 95.2667 26.0034 94.88 26.0034 94.4V69.4C26.0034 68.92 26.1501 68.5333 26.4434 68.24C26.7634 67.9467 27.1768 67.8 27.6834 67.8H37.3234C40.2301 67.8 42.4834 68.44 44.0834 69.72C45.6834 71 46.4834 72.8133 46.4834 75.16C46.4834 76.68 46.0834 77.9867 45.2834 79.08C44.5101 80.1733 43.4168 80.9867 42.0034 81.52ZM29.2434 80.32H36.8434C38.9501 80.32 40.5368 79.8933 41.6034 79.04C42.6968 78.1867 43.2434 76.9467 43.2434 75.32C43.2434 72.12 41.1101 70.52 36.8434 70.52H29.2434V80.32ZM37.4434 93.28C39.6568 93.28 41.2834 92.88 42.3234 92.08C43.3901 91.2533 43.9234 89.9733 43.9234 88.24C43.9234 84.7733 41.7634 83.04 37.4434 83.04H29.2434V93.28H37.4434Z" fill="#808080"/>
<rect x="38.5" y="18.5" width="39" height="39" rx="2.5" stroke="white"/>
<rect x="40.2856" y="20.2856" width="35.4286" height="35.4286" rx="2" fill="white"/>
<path d="M71.2288 51.12C71.3354 51.3333 71.3888 51.56 71.3888 51.8C71.3888 52.2 71.2288 52.5333 70.9088 52.8C70.6154 53.0667 70.2554 53.2 69.8288 53.2C69.1621 53.2 68.6954 52.88 68.4288 52.24L65.5888 45.76H50.5088L47.6288 52.24C47.3621 52.88 46.8954 53.2 46.2288 53.2C45.8021 53.2 45.4288 53.0667 45.1088 52.8C44.7888 52.5067 44.6288 52.16 44.6288 51.76C44.6288 51.5467 44.6821 51.3333 44.7887 51.12L56.2288 25.68C56.3888 25.3067 56.6288 25.0267 56.9488 24.84C57.2688 24.6533 57.6154 24.56 57.9888 24.56C58.3888 24.56 58.7488 24.6667 59.0688 24.88C59.3888 25.0667 59.6288 25.3333 59.7888 25.68L71.2288 51.12ZM51.7088 43.04H64.3888L58.0288 28.68L51.7088 43.04Z" fill="#808080"/>
</svg>
