<svg width="92" height="92" viewBox="0 0 92 92" fill="none" xmlns="http://www.w3.org/2000/svg">
<path fill-rule="evenodd" clip-rule="evenodd" d="M71.2727 23.4318C68.0941 22.4295 64.6005 22 61.25 22C55.6659 22 49.6523 23.1455 45.5 26.2955C41.3477 23.1455 35.3341 22 29.75 22C24.1659 22 18.1523 23.1455 14 26.2955V68.2477C14 68.9636 14.7159 69.6795 15.4318 69.6795C15.7182 69.6795 15.8614 69.5364 16.1477 69.5364C20.0136 67.675 25.5977 66.3864 29.75 66.3864C35.3341 66.3864 41.3477 67.5318 45.5 70.6818C49.3659 68.2477 56.3818 66.3864 61.25 66.3864C65.975 66.3864 70.8432 67.2455 74.8523 69.3932C75.1386 69.5364 75.2818 69.5364 75.5682 69.5364C76.2841 69.5364 77 68.8205 77 68.1045V26.2955C75.2818 25.0068 73.4205 24.1477 71.2727 23.4318V23.4318ZM71.2727 62.091C68.1227 61.0887 64.6864 60.6592 61.25 60.6592C56.3818 60.6592 49.3659 62.5205 45.5 64.9546V32.0228C49.3659 29.5887 56.3818 27.7274 61.25 27.7274C64.6864 27.7274 68.1227 28.1569 71.2727 29.1592V62.091V62.091Z" fill="#808080"/>
<circle cx="46" cy="46" r="45" stroke="none" stroke-width="2"/>
</svg>
