<svg viewBox="0 0 156.272 146.588" xmlns="http://www.w3.org/2000/svg"><g fill="#06b9ff"><path d="m20.658 77.639a20.658 20.658 0 0 1 -14.615-35.273l36.314-36.312a20.666 20.666 0 0 1 29.228 0 20.666 20.666 0 0 1 0 29.228l-36.313 36.313a20.6 20.6 0 0 1 -14.614 6.044zm36.313-74a16.919 16.919 0 0 0 -12.043 4.986l-36.314 36.312a17.032 17.032 0 0 0 24.086 24.087l36.314-36.313a17.031 17.031 0 0 0 0-24.086 16.921 16.921 0 0 0 -12.044-4.989z"/><path d="m7.329 70.309a18.849 18.849 0 0 0 26.657 0l19.67-19.67-18.27-18.27-16.729 16.731a2.522 2.522 0 1 1 -3.566-3.566l16.73-16.734-4.821-4.818-19.671 19.67a18.85 18.85 0 0 0 0 26.657z"/><path d="m149.273 64.495a6.98 6.98 0 0 1 -4.951-2.047l-38.122-38.123a7 7 0 0 1 0-9.9 7.17 7.17 0 0 1 9.9 0l38.123 38.123a7 7 0 0 1 -4.952 11.949zm-2.38-4.619a3.366 3.366 0 1 0 4.761-4.76l-38.123-38.123a3.448 3.448 0 0 0 -4.76 0 3.366 3.366 0 0 0 0 4.76z"/><path d="m29.931 146.588a9.135 9.135 0 0 1 -4.969-1.44l-.142.14v-.005l-.011.01-2.54-2.561.011-.01-.015-.015.131-.131a9.666 9.666 0 0 1 -.077-10c1.774-3.153 5.759-11.206 4.428-17.867a18.1 18.1 0 0 1 5.053-16.354l76.887-76.887 37.393 37.394-76.887 76.887a18.094 18.094 0 0 1 -16.348 5.056c-6.66-1.329-14.715 2.654-17.867 4.428a10.309 10.309 0 0 1 -5.047 1.355zm-3.819-5.151a5.9 5.9 0 0 0 7.082.629c4.353-2.452 12.786-6.34 20.363-4.825a14.473 14.473 0 0 0 13.065-4.062l74.316-74.317-32.252-32.253-74.317 74.317a14.477 14.477 0 0 0 -4.062 13.065c1.514 7.571-2.373 16.008-4.824 20.364a5.9 5.9 0 0 0 .629 7.081z"/></g></svg>