<svg fill="none" height="92" viewBox="0 0 92 92" width="92" xmlns="http://www.w3.org/2000/svg"><g stroke="#fff" stroke-linejoin="round" stroke-width="1.5"><path d="m33.874 28.7319c2.9686 0 5.375-2.4064 5.375-5.375 0-2.9685-2.4064-5.375-5.375-5.375-2.9685 0-5.375 2.4065-5.375 5.375 0 2.9686 2.4065 5.375 5.375 5.375z"/><path d="m61.499 39.2319c2.0711 0 3.75-1.6789 3.75-3.75 0-2.071-1.6789-3.75-3.75-3.75-2.071 0-3.75 1.679-3.75 3.75 0 2.0711 1.679 3.75 3.75 3.75z"/><path d="m51.749 55.7319h15l5-20"/><path d="m56.749 70.2319v-13"/><path d="m64.749 70.2319v-13"/><path d="m65.249 44.4819c0-.8619-.3426-1.6886-.9521-2.2981s-1.4359-.9519-2.2979-.9519c-.8619 0-1.6888.3424-2.2983.9519s-.9517 1.4362-.9517 2.2981v5.75h-6c-.3978 0-.7792.1581-1.0605.4394s-.4395.6628-.4395 1.0606c0 .3979.1582.7794.4395 1.0607s.6627.4393 1.0605.4393h11c.3978 0 .7793-.158 1.0606-.4393s.4394-.6628.4394-1.0607z"/><path d="m65.249 48.2319-6 2v3"/><path d="m32.249 37.232 6.6621 5.116c.0927.0544.1885.1025.2876.144.034.015.0651.035.1001.049.1072.041.2173.0744.3291.1.051.013.0999.03.1529.041.1032.0168.2074.0272.312.031.053 0 .1002.016.1572.016h6c.663 0 1.2987-.2634 1.7676-.7322.4688-.4689.7324-1.1047.7324-1.7678 0-.663-.2636-1.2989-.7324-1.7677-.4689-.4689-1.1046-.7323-1.7676-.7323h-5.2842l-8.3779-6.551c-1.063-.6937-2.321-1.0264-3.5879-.949-1.2587.0035-2.4649.505-3.355 1.395-.89.8901-1.3916 2.0963-1.395 3.355v34.253h9.5v-27.405"/><path d="m29.249 50.2319v19"/></g><path d="m56.0728 38.1528c.1015.6636-.0629 1.3404-.4576 1.8834-.3946.543-.9874.9084-1.6499 1.0167-.6625.1082-1.3411-.0493-1.8882-.4384-.547-.3891-.9181-.9784-1.0332-1.6397z" fill="#fff"/><path d="m52.3002 38.7692-6.2865 1.0277.2055 1.2573 6.2866-1.0277z" fill="#fff"/></svg>