<svg viewBox="0 0 118.505 131.283" xmlns="http://www.w3.org/2000/svg"><g fill="#06b9ff"><path d="m27.773 24.178h25.947v3.647h-25.947z"/><path d="m27.773 105.34h25.947v3.647h-25.947z"/><path d="m27.773 85.049h25.947v3.647h-25.947z"/><path d="m27.773 44.469h25.947v3.647h-25.947z"/><path d="m27.773 64.759h25.947v3.647h-25.947z"/><path d="m53.721 131.283h-51.898a1.824 1.824 0 0 1 -1.823-1.823v-125.76a1.824 1.824 0 0 1 1.823-1.819h51.9a1.824 1.824 0 0 1 1.821 1.819v125.76a1.824 1.824 0 0 1 -1.823 1.823zm-50.074-3.646h48.253v-122.109h-48.253z"/><path d="m99.1 129.86a1.824 1.824 0 0 1 -1.823-1.823v-125.032a1.823 1.823 0 1 1 3.647 0v125.032a1.824 1.824 0 0 1 -1.824 1.823z"/><path d="m99.1 130.222a1.829 1.829 0 0 1 -1.363-.611l-17.577-19.774a1.824 1.824 0 0 1 2.726-2.424l16.214 18.241 16.216-18.241a1.824 1.824 0 0 1 2.726 2.424l-17.578 19.773a1.829 1.829 0 0 1 -1.364.612z"/><path d="m81.522 23.39a1.824 1.824 0 0 1 -1.363-3.035l17.581-19.773a1.886 1.886 0 0 1 2.726 0l17.578 19.772a1.824 1.824 0 0 1 -2.726 2.424l-16.218-18.239-16.215 18.24a1.822 1.822 0 0 1 -1.363.611z"/></g></svg>