<svg width="54" height="54" viewBox="0 0 54 54" fill="none" xmlns="http://www.w3.org/2000/svg">
<circle cx="27" cy="27" r="27" fill="#808080"/>
<path d="M30.9464 14C31.1508 13.9999 31.3532 14.0403 31.542 14.1187C31.7308 14.1971 31.9022 14.3121 32.0464 14.457L43.5464 25.952C43.8383 26.2446 44.0023 26.6411 44.0023 27.0545C44.0023 27.4679 43.8383 27.8644 43.5464 28.157L32.0464 39.652C31.7496 39.9177 31.3624 40.0597 30.9642 40.0487C30.566 40.0378 30.1871 39.8747 29.9054 39.593C29.6237 39.3113 29.4607 38.9324 29.4497 38.5342C29.4387 38.136 29.5807 37.7488 29.8464 37.452L40.2394 27.058L29.8445 16.663C29.6267 16.4451 29.4784 16.1676 29.4182 15.8654C29.3581 15.5633 29.3888 15.2501 29.5065 14.9654C29.6242 14.6807 29.8235 14.4373 30.0795 14.2658C30.3354 14.0944 30.6364 14.0025 30.9445 14.002L30.9464 14Z" fill="white"/>
<path d="M11.5585 25.4948L38.8364 25.4948C39.2498 25.4948 39.6462 25.659 39.9385 25.9513C40.2308 26.2436 40.3949 26.64 40.3949 27.0533C40.3949 27.4667 40.2308 27.8631 39.9385 28.1553C39.6462 28.4476 39.2498 28.6118 38.8364 28.6118L11.5585 28.6118C11.1451 28.6118 10.7487 28.4476 10.4564 28.1553C10.1641 27.8631 10 27.4667 10 27.0533C10 26.64 10.1641 26.2436 10.4564 25.9513C10.7487 25.659 11.1451 25.4948 11.5585 25.4948V25.4948Z" fill="white"/>
</svg>
