<svg viewBox="0 0 136.272 98.408" xmlns="http://www.w3.org/2000/svg"><g fill="#06b9ff"><path d="m134.43 98.408h-132.588a1.842 1.842 0 0 1 -1.842-1.842v-77.551a1.842 1.842 0 0 1 1.842-1.842h132.588a1.842 1.842 0 0 1 1.842 1.842v77.551a1.842 1.842 0 0 1 -1.842 1.842zm-130.746-3.684h128.9v-73.868h-128.9z"/><path d="m97.432 20.215-6.2-16.531h-46.2l-6.2 16.531-3.449-1.293 6.654-17.722a1.84 1.84 0 0 1 1.724-1.2h48.747a1.84 1.84 0 0 1 1.724 1.2l6.648 17.727z"/><path d="m68.135 85.457a26.941 26.941 0 1 1 26.942-26.941 26.971 26.971 0 0 1 -26.942 26.941zm0-50.2a23.257 23.257 0 1 0 23.258 23.259 23.283 23.283 0 0 0 -23.258-23.257z"/></g></svg>