<svg width="65" height="92" viewBox="0 0 65 92" fill="none" xmlns="http://www.w3.org/2000/svg">
<path d="M52.546 41.5C51.346 38.7 48.3794 38.6667 47.046 39L16.5459 43.5C15.2126 43.6667 12.3459 44.6 11.5459 47L2.54602 65C-0.253975 68.2 1.37936 71.6667 2.54602 73L17.546 90.5C25.146 92.1 26.046 86.1667 25.546 83L17.546 71.5L19.546 68.5V59C20 52.5 28.046 53 28.046 59V65L45.546 70L38.546 78.5C38.946 86.1 44.8794 85.9625 47.546 85.1291C51.3794 79.4625 60.8258 68.6169 62.0459 66.6291C63.0459 65 63.5459 62.8821 62.546 61C59.7127 55.6667 53.746 44.3 52.546 41.5Z" stroke="white" stroke-width="2"/>
<circle cx="32.0459" cy="15" r="14" stroke="white" stroke-width="2"/>
<circle cx="45.0459" cy="59" r="7" stroke="white" stroke-width="2"/>
<rect x="18" y="69" width="3" height="5" fill="white"/>
<path d="M25.081 71.2344L19.9714 75.0548L19.7558 67.7206L25.081 71.2344Z" fill="white"/>
</svg>
