<svg width="65" height="65" viewBox="0 0 65 65" fill="none" xmlns="http://www.w3.org/2000/svg">
<path fill-rule="evenodd" clip-rule="evenodd" d="M17.875 26C18.7725 26 19.5 26.7275 19.5 27.625V30.875H22.75V27.625C22.75 26.7275 23.4775 26 24.375 26C25.2725 26 26 26.7275 26 27.625V37.375C26 38.2725 25.2725 39 24.375 39C23.4775 39 22.75 38.2725 22.75 37.375V34.125H19.5V37.375C19.5 38.2725 18.7725 39 17.875 39C16.9775 39 16.25 38.2725 16.25 37.375V27.625C16.25 26.7275 16.9775 26 17.875 26Z" fill="#808080"/>
<path fill-rule="evenodd" clip-rule="evenodd" d="M27.625 27.625C27.625 26.7275 28.3525 26 29.25 26H33.3125C35.5561 26 37.375 27.8189 37.375 30.0625C37.375 32.3061 35.5561 34.125 33.3125 34.125H30.875V37.375C30.875 38.2725 30.1475 39 29.25 39C28.3525 39 27.625 38.2725 27.625 37.375V27.625ZM30.875 30.875H33.3125C33.7612 30.875 34.125 30.5112 34.125 30.0625C34.125 29.6138 33.7612 29.25 33.3125 29.25H30.875V30.875Z" fill="#808080"/>
<path fill-rule="evenodd" clip-rule="evenodd" d="M43.875 38.9999C44.531 38.9999 45.1226 38.6056 45.375 37.9999L49.4375 28.2499C49.7826 27.4215 49.3909 26.4701 48.5624 26.1249C47.734 25.7798 46.7826 26.1716 46.4374 27L43.875 33.1499L41.3125 27C40.9673 26.1716 40.0159 25.7798 39.1875 26.1249C38.3591 26.4701 37.9673 27.4215 38.3124 28.2499L42.3749 37.9999C42.6273 38.6056 43.2189 38.9999 43.875 38.9999Z" fill="#808080"/>
<path fill-rule="evenodd" clip-rule="evenodd" d="M32.5 11.375C20.833 11.375 11.375 20.833 11.375 32.5C11.375 44.167 20.833 53.625 32.5 53.625C44.167 53.625 53.625 44.167 53.625 32.5C53.625 20.833 44.167 11.375 32.5 11.375ZM8.125 32.5C8.125 19.038 19.038 8.125 32.5 8.125C45.962 8.125 56.875 19.038 56.875 32.5C56.875 45.962 45.962 56.875 32.5 56.875C19.038 56.875 8.125 45.962 8.125 32.5Z" fill="#808080"/>
<path fill-rule="evenodd" clip-rule="evenodd" d="M27.625 1.625C27.625 0.727545 28.3525 0 29.25 0H35.75C36.6475 0 37.375 0.727545 37.375 1.625C37.375 2.52245 36.6475 3.25 35.75 3.25H34.125V13C34.125 13.8975 33.3975 14.625 32.5 14.625C31.6025 14.625 30.875 13.8975 30.875 13V3.25H29.25C28.3525 3.25 27.625 2.52245 27.625 1.625Z" fill="#808080"/>
<path fill-rule="evenodd" clip-rule="evenodd" d="M32.5 50.375C33.3975 50.375 34.125 51.1025 34.125 52V61.75H35.75C36.6475 61.75 37.375 62.4775 37.375 63.375C37.375 64.2725 36.6475 65 35.75 65H29.25C28.3525 65 27.625 64.2725 27.625 63.375C27.625 62.4775 28.3525 61.75 29.25 61.75H30.875V52C30.875 51.1025 31.6025 50.375 32.5 50.375Z" fill="#808080"/>
<path fill-rule="evenodd" clip-rule="evenodd" d="M14.1151 57.779C13.4805 58.4138 12.4515 58.4138 11.817 57.779L7.22082 53.1829C6.58622 52.5483 6.58622 51.5194 7.22082 50.8848C7.85543 50.2502 8.88432 50.2502 9.51893 50.8848L10.6679 52.0338L17.5623 45.1396C18.1969 44.5049 19.2257 44.5049 19.8604 45.1396C20.495 45.7742 20.495 46.803 19.8604 47.4377L12.966 54.3319L14.1151 55.481C14.7498 56.1155 14.7498 57.1445 14.1151 57.779Z" fill="#808080"/>
<path fill-rule="evenodd" clip-rule="evenodd" d="M45.1395 19.8606C44.5049 19.226 44.5049 18.1971 45.1395 17.5625L52.0339 10.6683L50.8848 9.51917C50.2501 8.88456 50.2501 7.85567 50.8848 7.22106C51.5194 6.58647 52.5482 6.58647 53.1829 7.22106L57.7791 11.8173C58.4136 12.4519 58.4136 13.4807 57.7791 14.1154C57.1445 14.75 56.1156 14.75 55.481 14.1154L54.332 12.9664L47.4376 19.8606C46.803 20.4952 45.7741 20.4952 45.1395 19.8606Z" fill="#808080"/>
<path fill-rule="evenodd" clip-rule="evenodd" d="M7.22106 14.1154C6.58647 13.4807 6.58647 12.4519 7.22106 11.8172L11.8173 7.22106C12.4519 6.58647 13.4808 6.58647 14.1154 7.22106C14.7499 7.85567 14.7499 8.88456 14.1154 9.51917L12.9663 10.6682L19.8606 17.5625C20.4951 18.1971 20.4951 19.2261 19.8606 19.8606C19.226 20.4952 18.197 20.4952 17.5625 19.8606L10.6683 12.9662L9.51915 14.1154C8.88456 14.75 7.85566 14.75 7.22106 14.1154Z" fill="#808080"/>
<path fill-rule="evenodd" clip-rule="evenodd" d="M45.1396 45.1395C45.7742 44.5049 46.8031 44.5049 47.4377 45.1395L54.3319 52.0339L55.481 50.8848C56.1157 50.2501 57.1445 50.2501 57.779 50.8848C58.4138 51.5194 58.4138 52.5484 57.779 53.1829L53.1829 57.7791C52.5483 58.4136 51.5194 58.4136 50.8848 57.7791C50.2502 57.1445 50.2502 56.1156 50.8848 55.481L52.0338 54.332L45.1396 47.4377C44.5049 46.803 44.5049 45.7742 45.1396 45.1395Z" fill="#808080"/>
<path fill-rule="evenodd" clip-rule="evenodd" d="M1.625 37.375C0.727545 37.375 0 36.6475 0 35.75V29.25C0 28.3527 0.727545 27.625 1.625 27.625C2.52245 27.625 3.25 28.3527 3.25 29.25V30.875H13C13.8975 30.875 14.625 31.6027 14.625 32.5C14.625 33.3975 13.8975 34.125 13 34.125H3.25V35.75C3.25 36.6475 2.52245 37.375 1.625 37.375Z" fill="#808080"/>
<path fill-rule="evenodd" clip-rule="evenodd" d="M50.375 32.5C50.375 31.6027 51.1025 30.875 52 30.875H61.75V29.25C61.75 28.3527 62.4775 27.625 63.375 27.625C64.2725 27.625 65 28.3527 65 29.25V35.75C65 36.6475 64.2725 37.375 63.375 37.375C62.4775 37.375 61.75 36.6475 61.75 35.75V34.125H52C51.1025 34.125 50.375 33.3975 50.375 32.5Z" fill="#808080"/>
</svg>
