<svg fill="none" height="50" viewBox="0 0 45 50" width="45" xmlns="http://www.w3.org/2000/svg"><path d="m41.0645 39.1813c.4242.0001.8446-.0805 1.2387-.2376l1.5549 3.692c.0301.0721.0741.1376.1295.1926.0555.0551.1213.0987.1936.1283s.1498.0446.228.0442c.0781-.0004.1554-.0162.2274-.0465.0721-.0304.1374-.0746.1923-.1303.0549-.0556.0982-.1215.1276-.194.0294-.0724.0441-.1499.0435-.228-.0007-.0782-.0168-.1555-.0473-.2274l-1.6289-3.868c.5645-.5123.9382-1.2013 1.0595-1.9539.1214-.7527-.0167-1.5242-.3917-2.188-.3749-.6638-.9644-1.1804-1.6716-1.465s-1.4902-.3203-2.2204-.1012c-.6207-2.5525-2.1474-4.5517-4.5018-5.9321-.0435-.0342-.0914-.0622-.1426-.0831-1.3793-.783-3.034-1.359-4.9498-1.7152-.6958-6.8318-8.5617-18.20239-8.9034-18.69314-.007-.00989-.0145-.01979-.0221-.02969-3.0331-3.82756-6.1976-5.887732-9.4057-6.1231071-3.3756-.2468559-5.55019 1.6456471-5.76913 1.8454871-1.19766.99831-1.72938 2.22893-1.58111 3.6583.06302.54281.20369 1.07375.4177 1.57656-1.28556.53686-4.2029 1.9895-5.022057 4.39299-.452735 1.3281-.2046911 2.7177.737105 4.1304.005246.008.010789.0159.016629.0236.056423.0764 1.422543 1.894 4.941973 4.0397 2.89399 1.7644 7.82759 4.0736 15.36789 5.5324l-18.60612 10.9448c-.10007.0589-.18069.1458-.2319.25s-.07076.2211-.05622.3363c.01453.1152.06251.2236.13799.3118.07549.0882.17517.1523.28672.1845 1.64807.4697 3.35409.705 5.06778.699 3.37525 0 6.94845-.8635 10.55215-2.5704.0489-.0232.0969-.0466.1454-.0693l-2.5364 3.7079c-.043.0629-.0735.1334-.0899.2078l-2.1 9.5455c-.0338.1538-.0051.3148.0797.4475.0849.1327.219.2263.3728.2601.1539.0339.3148.0052.4476-.0797.1327-.0848.2262-.2189.2601-.3728l2.075-9.4328 3.65-5.3357c.0249-.0366.0457-.0759.0618-.1171 1.4378-.8205 2.8113-1.749 4.1087-2.7773.1399.1287.2797.2543.4195.3776l-3.5218 4.1749c-.0506.0599-.0887.1293-.1124.204-.0236.0748-.0322.1535-.0252.2315l1.1453 12.7908c.0132.1477.0812.2851.1905.3851.1093.1001.2522.1557.4004.1559.0176 0 .0356-.0008.0537-.0024.1568-.014.3017-.0898.4027-.2107s.1498-.2769.1358-.4338l-1.1233-12.5445 3.3641-3.9881c.6251.5017 1.2802.9647 1.9618 1.3865.0077.0052.0149.011.0231.0159.0045.0029.0099.0048.0141.0075.447.2738.9076.5249 1.38.7522l-2.8076 2.7345c-.0732.0713-.1267.1603-.1555.2584-.0287.098-.0317.2018-.0086.3014l2.4818 10.6909c.0357.1534.1308.2864.2645.3698.1337.0833.295.1101.4484.0744.1534-.0356.2864-.1307.3697-.2644.0834-.1337.1101-.295.0745-.4484l-2.4062-10.3655 2.9258-2.8496.0087.0033c1.6872.6127 3.3455.7961 4.9285.5444.6993-.1108 1.3823-.3076 2.0334-.5858-.1027.4895-.095.9958.0226 1.4819.1177.4862.3423.9399.6575 1.3283.3153.3883.7132.7014 1.1647.9165.4516.215.9455.327 1.4456.3271zm2.1743-3.3621c0 .4301-.1275.8505-.3664 1.2081s-.5785.6363-.9758.8009-.8345.2076-1.2563.1237-.8093-.291-1.1134-.5951-.5112-.6915-.5951-1.1133-.0408-.859.1238-1.2563c.1646-.3974.4433-.737.8009-.9759s.778-.3664 1.208-.3664c.5765.0007 1.1291.23 1.5367.6376.4077.4076.6369.9603.6376 1.5367zm-31.6592-34.63046c.173 0 .3503.00644.5312.02039 2.8513.21865 5.7198 2.12273 8.5264 5.65939.297.42967 6.6571 9.69558 8.3303 16.20138l-19.2269-21.62995c.5988-.16653 1.2175-.25103 1.839-.25121zm-4.40457 1.58309c.00842-.00703.01812-.01564.02613-.02306.40908-.34562.86237-.63521 1.34792-.86113l18.99672 21.37066-.7877-.4572c-.007-.004-.0139-.0079-.0209-.0116-3.5038-1.8944-6.9063-3.9704-10.1937-6.2195-5.2773-3.6463-8.66125-6.84205-9.9572-9.37584-.01064-.02466-.02294-.04857-.03682-.07156-.28253-.53605-.4669-1.11831-.54439-1.71928-.1065-1.0293.27586-1.89013 1.16994-2.63149zm-5.24 12.18017c-.7277-1.0979-.92121-2.1025-.5919-3.0711.67425-1.9828 3.3482-3.2642 4.43074-3.71119 1.54498 2.66369 4.92503 5.80619 10.10333 9.38329 3.3202 2.2709 6.7564 4.3673 10.2946 6.2808l1.1343.6585c-1.0985-.0601-2.1995-.0601-3.298 0-.0107-.0023-.0213-.005-.0323-.0067-8.7242-1.357-14.25708-3.8824-17.36228-5.7616-3.23309-1.9573-4.57387-3.6371-4.67849-3.772zm22.60707 15.1702c-.0261.0229-2.6563 2.3062-6.6166 4.1818-3.3286 1.577-8.23895 3.1446-13.37997 2.1417l18.10027-10.6476c.6594-.077 4.0634-.42 7.5989.2293 1.1743.2051 2.3229.537 3.4256.9898l-.351.1146c-1.2991.4249-2.4062 1.2953-3.1257 2.4574l-1.8435 2.9809c-1.073-.718-2.0792-1.5312-3.0062-2.4299-.1072-.1028-.2491-.1617-.3976-.165-.1486-.0033-.2925.0491-.4042.147zm10.9457 4.4287c-1.9283.2886-3.9988-.1794-6.1234-1.3636l1.8392-2.9732c.572-.9236 1.4519-1.6154 2.4844-1.953l1.4793-.483c2.0284 1.235 3.3065 2.9892 3.8149 5.2495-1.0087.8093-2.2149 1.3351-3.4944 1.5233z" fill="#06b9ff"/></svg>