<svg width="44" height="65" viewBox="0 0 44 65" fill="none" xmlns="http://www.w3.org/2000/svg">
<path d="M18.0003 63.2981L19.0003 53.2982C19.0003 52.7982 18.8003 51.1981 18.0003 50.7981C17.0003 50.2981 14.0003 47.2981 13.5003 46.2981C13.0003 45.2981 11.0003 39.7981 11.0003 38.7981C11.0003 37.7981 9.50027 33.7981 9.00027 32.2981C8.60027 31.0981 7.70867 30.3502 5.50016 27.2982C3.29165 24.2462 7.56566 18.4775 12 24.2982L15.5 29.2979C16.3335 30.6311 17.5003 32.4199 17.5003 28.7979C17.5003 26.2982 17.4491 22.9 17.5003 18.7982C17.5401 15.6067 17.4273 12.9132 17.5003 10.7982C17 7.79816 22 4.79816 23.645 10.7982M30.0003 29.2979L29.5868 7.79816M29.5868 7.79816C29.5868 7.79816 29.6157 9.29869 29.5868 4.29888C29.5579 -0.700925 23.645 0.545858 23.645 4.29824C23.645 8.05063 23.645 10.7982 23.645 10.7982M29.5868 7.79816C30.1671 5.54113 35.5 2.79846 36.0003 8.79846V15.2982M36.0003 29.2979V15.2982M36.0003 15.2982C36.0003 13.7985 41 10.7982 42 16.2985C42 16.2985 42.3586 33.246 42.5003 36.2982C42.642 39.3504 40.6308 46.3107 38.0003 48.7982C37.6864 49.1121 37.1756 49.82 36.8387 50.7981M23.645 10.7982L24 29.2982M37 62.7988L36.5 52.7988C36.5 52.054 36.6387 51.3785 36.8387 50.7981M32.5 50.7981H36.8387" stroke="white" stroke-width="1.5" stroke-linecap="round"/>
<circle cx="25.5" cy="35.2988" r="1.75" stroke="white" stroke-width="1.5"/>
<path d="M10.9859 37.5123C12.1273 37.24 12.8319 36.094 12.5596 34.9526C12.2874 33.8112 11.1414 33.1067 10 33.3789" stroke="white" stroke-width="1.5"/>
<circle cx="24.5" cy="48.2988" r="1.75" stroke="white" stroke-width="1.5"/>
<circle cx="32" cy="40.7988" r="2.25" stroke="white" stroke-width="1.5"/>
<path d="M36 14.7988C34.3431 14.7988 33 13.4557 33 11.7988C33 10.142 34.3431 8.79883 36 8.79883" stroke="white" stroke-width="1.5"/>
<path d="M24 25.7988C25.6569 25.7988 27 24.4557 27 22.7988C27 21.142 25.6569 19.7988 24 19.7988" stroke="white" stroke-width="1.5"/>
<circle cx="32" cy="60.7988" r="2.25" stroke="white" stroke-width="1.5"/>
<circle cx="18" cy="40.7988" r="2.25" stroke="white" stroke-width="1.5"/>
<path d="M6 36.2988L6.5 37.7988" stroke="white" stroke-width="1.5" stroke-linecap="round"/>
<path d="M5 32.7988L5.5 34.2988" stroke="white" stroke-width="1.5" stroke-linecap="round"/>
<path d="M3 28.8931L3.77427 30.2717" stroke="white" stroke-width="1.5" stroke-linecap="round"/>
<path d="M1.25525 24.7988L1.49265 26.362" stroke="white" stroke-width="1.5" stroke-linecap="round"/>
<path d="M2.77661 20.8999L1.97127 22.2606" stroke="white" stroke-width="1.5" stroke-linecap="round"/>
<path d="M5.40833 18.0723L4.05252 18.8858" stroke="white" stroke-width="1.5" stroke-linecap="round"/>
<path d="M9.51965 17.6475L7.99998 17.2109" stroke="white" stroke-width="1.5" stroke-linecap="round"/>
<path d="M13.0249 20.1899L12 18.9859" stroke="white" stroke-width="1.5" stroke-linecap="round"/>
<path d="M7.1803 40.7988L7.49633 42.3481" stroke="white" stroke-width="1.5" stroke-linecap="round"/>
<path d="M8 44.8462L8.63974 46.2921" stroke="white" stroke-width="1.5" stroke-linecap="round"/>
<path d="M10 48.8462L10.6397 50.2921" stroke="white" stroke-width="1.5" stroke-linecap="round"/>
<path d="M12 52.0195L13.1108 53.1448" stroke="white" stroke-width="1.5" stroke-linecap="round"/>
<path d="M14.6459 54.7988L14.4513 56.3679" stroke="white" stroke-width="1.5" stroke-linecap="round"/>
<path d="M14.6459 58.7988L14.4513 60.3679" stroke="white" stroke-width="1.5" stroke-linecap="round"/>
</svg>
