<svg xmlns="http://www.w3.org/2000/svg" viewBox="0 0 66.5 56.5"><defs><style>.a{fill:none;stroke:#16cafb;stroke-linejoin:round;stroke-width:1.5px;}</style></defs><title>icon-nutrition</title><polyline class="a" points="51.25 46.75 51.25 55.75 15.25 55.75 15.25 46.75"/><path class="a" d="M33.25,52.25h0A32.6,32.6,0,0,1,.75,19.75h65A32.6,32.6,0,0,1,33.25,52.25Z"/><path class="a" d="M62.187,19.75a6.281,6.281,0,0,0-3.828-4.992c.007-.159.024-.314.024-.475A10.616,10.616,0,0,0,43.292,4.639,12.544,12.544,0,0,0,22.479,8.858,10.573,10.573,0,0,0,10.247,14.3,6.277,6.277,0,0,0,4.309,19.75H62.187Z"/></svg>