<svg width="37" height="75" viewBox="0 0 37 75" fill="none" xmlns="http://www.w3.org/2000/svg">
<mask id="path-1-inside-1_201_2530" fill="white">
<path d="M5.59276 59.574C5.5925 42.432 5.59278 12.4824 5.59288 2.98103C5.5929 1.32419 6.93604 0 8.59288 0H28.1249C29.7817 0 31.1248 1.32419 31.1249 2.98103C31.125 12.4825 31.1253 42.4322 31.125 59.5741C31.1248 80.1418 5.59308 80.1418 5.59276 59.574Z"/>
</mask>
<path d="M31.1249 2.98103L29.1249 2.98105L31.1249 2.98103ZM7.59276 59.574C7.5925 42.432 7.59278 12.4825 7.59288 2.98105L3.59288 2.98101C3.59278 12.4824 3.5925 42.432 3.59276 59.574L7.59276 59.574ZM8.59288 2H28.1249V-2H8.59288L8.59288 2ZM29.1249 2.98105C29.125 12.4825 29.1253 42.4322 29.125 59.5741L33.125 59.5741C33.1253 42.4322 33.125 12.4824 33.1249 2.981L29.1249 2.98105ZM29.125 59.5741C29.125 64.2917 27.6691 67.6354 25.6718 69.7806C23.6659 71.9351 21.0091 72.9999 18.3589 72.9999C15.7087 72.9999 13.052 71.9351 11.0461 69.7806C9.04879 67.6353 7.59284 64.2916 7.59276 59.574L3.59276 59.574C3.59285 65.1403 5.32848 69.5095 8.11849 72.5062C10.8998 75.4937 14.6261 76.9999 18.3589 76.9999C22.0917 76.9999 25.818 75.4937 28.5994 72.5063C31.3894 69.5096 33.125 65.1404 33.125 59.5741L29.125 59.5741ZM28.1249 2C28.6937 2 29.1249 2.44525 29.1249 2.98105L33.1249 2.981C33.1248 0.203125 30.8697 -2 28.1249 -2V2ZM7.59288 2.98105C7.59289 2.44525 8.02405 2 8.59288 2L8.59288 -2C5.84803 -2 3.59291 0.203133 3.59288 2.98101L7.59288 2.98105Z" fill="#FFFFFF" mask="url(#path-1-inside-1_201_2530)"/>
<rect x="1" y="12.3477" width="34.8794" height="8.6383" rx="2" fill="white" stroke="#FFFFFF" stroke-width="2"/>
<path d="M12.7658 1.41846V8.51065" stroke="#FFFFFF" stroke-width="2"/>
<path d="M19.8581 25.5322H29.7872" stroke="#FFFFFF" stroke-width="2"/>
<path d="M19.8581 36.8799H29.7872" stroke="#FFFFFF" stroke-width="2"/>
<path d="M22.695 31.2061H29.7872" stroke="#FFFFFF" stroke-width="2"/>
<path d="M22.695 42.5537H29.7872" stroke="#FFFFFF" stroke-width="2"/>
<path d="M18.4396 1.41846V8.51065" stroke="#FFFFFF" stroke-width="2"/>
<path d="M24.1135 1.41846V8.51065" stroke="#FFFFFF" stroke-width="2"/>
<path d="M7.09229 49.4777C8.84686 50.4582 10.473 51.4387 11.9889 52.3476M11.9889 52.3476C19.3476 56.7599 24.1104 59.4868 28.3689 52.3476C27.2313 49.2385 22.3626 44.8857 11.9889 52.3476Z" stroke="#FFFFFF" stroke-width="2.5"/>
</svg>
