<?xml version="1.0" encoding="UTF-8" standalone="no"?>
<svg
   xmlns:dc="http://purl.org/dc/elements/1.1/"
   xmlns:cc="http://creativecommons.org/ns#"
   xmlns:rdf="http://www.w3.org/1999/02/22-rdf-syntax-ns#"
   xmlns:svg="http://www.w3.org/2000/svg"
   xmlns="http://www.w3.org/2000/svg"
   xmlns:sodipodi="http://sodipodi.sourceforge.net/DTD/sodipodi-0.dtd"
   xmlns:inkscape="http://www.inkscape.org/namespaces/inkscape"
   viewBox="0 0 31.826 44"
   version="1.1"
   id="svg12"
   sodipodi:docname="icon-up.svg"
   inkscape:version="0.92+devel unknown">
  <metadata
     id="metadata16">
    <rdf:RDF>
      <cc:Work
         rdf:about="">
        <dc:format>image/svg+xml</dc:format>
        <dc:type
           rdf:resource="http://purl.org/dc/dcmitype/StillImage" />
      </cc:Work>
    </rdf:RDF>
  </metadata>
  <sodipodi:namedview
     pagecolor="#ffffff"
     bordercolor="#666666"
     inkscape:document-rotation="0"
     borderopacity="1"
     objecttolerance="10"
     gridtolerance="10"
     guidetolerance="10"
     inkscape:pageopacity="0"
     inkscape:pageshadow="2"
     inkscape:window-width="1600"
     inkscape:window-height="839"
     id="namedview14"
     showgrid="false"
     inkscape:zoom="15.25"
     inkscape:cx="14.86382"
     inkscape:cy="22"
     inkscape:window-x="0"
     inkscape:window-y="0"
     inkscape:window-maximized="1"
     inkscape:current-layer="svg12" />
  <defs
     id="defs4">
    <style
       id="style2">.a{fill:#43e450;}</style>
  </defs>
  <title
     id="title6">icon-up</title>
  <path
     class="a"
     d="M29.826,17.913a1.994,1.994,0,0,1-1.414-.586l-12.5-12.5-12.5,12.5A2,2,0,0,1,.586,14.5L14.5.586a2,2,0,0,1,2.829,0L31.241,14.5a2,2,0,0,1-1.414,3.414Z"
     id="path8"
     style="fill:#666666;fill-opacity:1" />
  <path
     class="a"
     d="M15.913,44a2,2,0,0,1-2-2V2a2,2,0,0,1,4,0V42A2,2,0,0,1,15.913,44Z"
     id="path10"
     style="fill:#666666;fill-opacity:1" />
</svg>
