<svg xmlns="http://www.w3.org/2000/svg" viewBox="0 0 65.477 59.5"><defs><style>.a,.b{fill:none;stroke:#16cafb;stroke-linejoin:round;stroke-width:1.5px;}.a{stroke-linecap:round;}</style></defs><title>icon-muac</title><path class="a" d="M32.739,30.263C22.472,24.363,13.7,17.383,13.7,10.75"/><path class="a" d="M32.739,48.209A119.424,119.424,0,0,0,52.75,58.75L64.727,44.773s-8.575-3.029-18.694-7.706"/><path class="a" d="M32.738.75c-10,0-20.988,5-20.988,19,0,6.377,3.145,12.213,7.694,17.319"/><path class="a" d="M19.444,37.068C9.325,41.744.75,44.773.75,44.773L12.727,58.75s41-15.978,41-39c0-14-10.988-19-20.988-19"/><path class="a" d="M51.773,10.75c0,9.441-17.765,19.586-32.33,26.318"/><path class="a" d="M17.08,18.354s2.624-6.6,15.624-6.6,15.694,6.6,15.694,6.6"/><line class="b" x1="32.704" y1="7.75" x2="32.704" y2="0.816"/><line class="b" x1="40.704" y1="8.75" x2="40.704" y2="1.816"/><line class="b" x1="46.704" y1="11.75" x2="46.704" y2="4.816"/><line class="b" x1="18.704" y1="11.75" x2="18.704" y2="4.816"/><line class="b" x1="24.704" y1="8.75" x2="24.704" y2="1.816"/><line class="b" x1="53.034" y1="49.75" x2="59.117" y2="42.652"/><line class="b" x1="46.704" y1="46.303" x2="52.25" y2="39.83"/><line class="b" x1="23.416" y1="30.469" x2="27.25" y2="25.83"/><line class="b" x1="18.444" y1="27.273" x2="22.25" y2="22.83"/><line class="b" x1="15.145" y1="22.975" x2="17.715" y2="19.975"/><line class="b" x1="6.75" y1="41.773" x2="15.077" y2="51.49"/><line class="b" x1="14.75" y1="38.773" x2="22.246" y2="47.521"/><line class="b" x1="21.721" y1="35.75" x2="28.304" y2="43.421"/><line class="b" x1="29.721" y1="32.75" x2="34.953" y2="39.012"/><line class="b" x1="36.75" y1="28.773" x2="40.943" y2="33.666"/><line class="b" x1="41.75" y1="24.773" x2="46.036" y2="29.775"/><line class="b" x1="46.75" y1="20.773" x2="49.371" y2="23.831"/></svg>