<svg width="24" height="24" viewBox="0 0 24 24" fill="none" xmlns="http://www.w3.org/2000/svg">
<g clip-path="url(#clip0)">
<path d="M19.9839 5.41919C19.6776 4.34857 18.6909 3.5625 17.5232 3.5625C16.3555 3.5625 15.3688 4.34857 15.0623 5.41919H0V6.82544H15.0624C15.3688 7.89587 16.3555 8.68213 17.5232 8.68213C18.6909 8.68213 19.6776 7.89587 19.9841 6.82544H24V5.41919H19.9839ZM17.5232 7.27588C16.8871 7.27588 16.3696 6.75842 16.3696 6.12231C16.3696 5.48621 16.8873 4.96875 17.5232 4.96875C18.1593 4.96875 18.6768 5.48621 18.6768 6.12231C18.6768 6.75842 18.1593 7.27588 17.5232 7.27588Z" fill="white"/>
<path d="M4.50714 9.44446C3.33948 9.44446 2.35272 10.2307 2.04639 11.3011H0V12.7074H2.04639C2.35272 13.778 3.33966 14.5641 4.50732 14.5641C5.67499 14.5641 6.66174 13.778 6.96808 12.7074H24V11.3011H6.96808C6.66174 10.2307 5.6748 9.44446 4.50714 9.44446V9.44446ZM4.50714 13.1578C3.87122 13.1578 3.35376 12.6404 3.35376 12.0043C3.35376 11.3683 3.87122 10.8507 4.50714 10.8507C5.14325 10.8507 5.66071 11.3683 5.66071 12.0043C5.66071 12.6404 5.14325 13.1578 4.50714 13.1578Z" fill="white"/>
<path d="M12.3942 15.3264C11.2266 15.3264 10.2396 16.1125 9.93329 17.1831H0V18.5894H9.93329C10.2396 19.6598 11.2266 20.446 12.3942 20.446C13.5617 20.446 14.5486 19.6598 14.855 18.5894H24V17.1831H14.855C14.5486 16.1125 13.5617 15.3264 12.3942 15.3264V15.3264ZM12.3942 19.0398C11.7581 19.0398 11.2407 18.5223 11.2407 17.8862C11.2407 17.2501 11.7581 16.7327 12.3942 16.7327C13.0302 16.7327 13.5478 17.2501 13.5478 17.8862C13.5478 18.5223 13.0303 19.0398 12.3942 19.0398Z" fill="white"/>
</g>
<defs>
<clipPath id="clip0">
<rect width="24" height="24" fill="white"/>
</clipPath>
</defs>
</svg>
