<svg width="62" height="46" viewBox="0 0 62 46" fill="none" xmlns="http://www.w3.org/2000/svg">
<path d="M36.6524 10.5524C36.6676 10.6815 36.647 10.8066 36.5988 10.9178C36.7009 11.4231 36.7811 11.9484 36.8369 12.4946H36.8381V12.4958C36.8402 12.5124 36.8414 12.5292 36.8421 12.5457C37.3311 17.378 37.6913 21.6928 37.3411 25.0246L37.3456 25.052L37.3491 25.075C37.4499 25.8204 37.8204 26.4544 38.3388 26.8772C38.8439 27.2894 39.4902 27.501 40.1595 27.4157L40.1779 27.4131C47.3996 26.4336 50.3551 21.5072 52.9018 17.2623C54.6387 14.3669 56.1983 11.7675 58.7984 10.6893C59.4634 10.4136 59.9887 9.89074 60.2826 9.2714C60.4869 8.841 60.5782 8.36638 60.5245 7.90052C60.4718 7.44032 60.276 6.9832 59.9071 6.58048C59.3284 5.94883 58.3278 5.43733 56.7902 5.20747C54.7076 4.89555 52.8323 4.67042 50.3118 4.62241C47.7779 4.57393 44.5547 4.70234 39.7643 5.09703C39.306 5.15497 38.8789 5.3049 38.4953 5.52506C38.0803 5.7632 37.7152 6.08268 37.4146 6.45727C37.0696 6.88743 36.8095 7.39847 36.6572 7.95774L36.6546 7.95703C36.5079 8.49598 36.463 9.07985 36.5411 9.67814C36.547 9.72331 36.5623 9.84558 36.5936 10.0936L36.5966 10.114C36.6354 10.4226 36.6477 10.5134 36.6524 10.5524ZM35.3544 7.36181C35.5632 6.70416 35.8898 6.0964 36.3114 5.57047C36.7224 5.05848 37.2224 4.62123 37.7913 4.29465C38.3378 3.98131 38.948 3.76871 39.6042 3.6876L39.6321 3.685C44.4499 3.28771 47.724 3.15907 50.3341 3.20896C52.9609 3.25933 54.8783 3.48825 56.9953 3.80513C58.8848 4.08773 60.1634 4.76998 60.949 5.62722C61.5357 6.26761 61.8472 6.99929 61.9323 7.73971C62.0167 8.47446 61.8774 9.21322 61.5631 9.87537C61.1231 10.8021 60.337 11.5847 59.3414 11.9973C57.1696 12.8981 55.7247 15.3062 54.1154 17.9886C51.4065 22.5037 48.2625 27.7444 40.3664 28.8152L40.3408 28.8182C39.2691 28.9556 38.2423 28.6238 37.4463 27.9747C37.2529 27.8167 37.0731 27.6401 36.9097 27.4466C36.2336 29.9564 34.8864 31.6231 32.4873 32.1432C27.1213 33.3066 23.2156 34.7369 20.2028 36.4689C17.2139 38.1871 15.0905 40.2098 13.2772 42.5699L13.276 42.5715L13.2772 42.5727C12.7513 43.2566 12.1981 43.945 11.5237 44.5071C10.8074 45.1042 9.97877 45.5377 8.95409 45.6413H8.95291C7.44156 45.7943 6.01014 45.2984 4.91783 44.3728C3.83191 43.4529 3.08132 42.1068 2.92358 40.5524C2.52535 36.6167 1.94384 33.0976 1.39071 29.7493C0.886532 26.6975 0.405293 23.7861 0.102124 20.7944C0.0668882 20.4432 0.0418212 20.0937 0.0257404 19.7459C0.00895025 19.3784 0.000909675 19.0437 0.000673194 18.7363C-0.000982175 18.6997 0.00043676 18.6635 0.00469342 18.6278C0.0463141 13.848 1.75087 9.43741 4.67142 6.11863C7.53047 2.86938 11.5528 0.665607 16.3207 0.181293L16.3231 0.180347C16.3344 0.179164 16.3458 0.178455 16.3569 0.177746C21.1121 -0.300419 25.9152 0.147004 29.6819 1.99889C32.0926 3.18413 34.0755 4.93197 35.3544 7.36181ZM10.6203 43.4207C11.1789 42.9551 11.6779 42.332 12.1577 41.7081L12.1591 41.7091C14.0805 39.2085 16.3307 37.0655 19.499 35.2441C22.644 33.436 26.6812 31.9516 32.1881 30.7574C34.4631 30.2643 35.5114 28.2582 35.8888 25.2419C36.2961 21.9863 35.9333 17.6145 35.4348 12.6878C35.4331 12.6774 35.4317 12.667 35.4305 12.6564L35.4303 12.6552H35.4315L35.4305 12.6462L35.4303 12.6441C34.9529 7.93433 32.4939 4.95609 29.0612 3.26832C25.5506 1.54201 21.0144 1.131 16.4948 1.58552L16.4728 1.58812L16.4702 1.58836L16.4671 1.58812L16.4647 1.58836C12.0735 2.03318 8.3688 4.06266 5.73535 7.05533C3.02787 10.132 1.45007 14.2264 1.41767 18.6661C1.41885 18.6824 1.41932 18.699 1.41932 18.7155C1.41932 19.0657 1.42571 19.3911 1.43919 19.6849C1.45409 20.0067 1.47726 20.3307 1.5099 20.6558C1.80715 23.5901 2.28579 26.4863 2.78737 29.522C3.34026 32.8692 3.92153 36.3856 4.32544 40.3547C4.33183 40.39 4.33561 40.4262 4.33679 40.4633C4.46615 41.6142 5.02685 42.6096 5.8323 43.2921C6.62924 43.9675 7.66692 44.3345 8.76183 44.2385C8.79494 44.2328 8.82876 44.2292 8.86328 44.2283C9.5453 44.1481 10.1155 43.8414 10.6203 43.4207ZM57.4491 8.27912C57.7052 8.23324 57.9502 8.40351 57.9961 8.65962C58.0419 8.91573 57.8714 9.16072 57.6153 9.2066C54.1688 9.83375 52.4364 12.8562 50.6025 16.0565C48.4841 19.7525 46.237 23.6733 41.1122 24.7988C40.8571 24.8539 40.6057 24.6919 40.5506 24.4367C40.4955 24.1818 40.6577 23.9302 40.9127 23.8751C45.6255 22.8402 47.7652 19.1067 49.7821 15.5871C51.7279 12.1922 53.5656 8.98573 57.4491 8.27912ZM5.82781 14.5892C5.77366 14.8443 5.52298 15.0073 5.26782 14.9531C5.01289 14.8992 4.84996 14.6483 4.90411 14.3933C5.16661 13.1719 5.64028 12.0437 6.28114 11.0185C7.89939 8.43 10.5837 6.49582 13.6213 5.37537C16.6456 4.25965 20.0299 3.9482 23.0633 4.60018C24.4961 4.90808 25.8521 5.43047 27.057 6.1839C27.2783 6.32153 27.3462 6.61264 27.2086 6.83422C27.0707 7.05557 26.7796 7.12344 26.558 6.98557C25.4475 6.29126 24.1941 5.80908 22.8672 5.52388C20.0079 4.9095 16.8102 5.20581 13.9464 6.26217C11.0954 7.31381 8.58447 9.11603 7.08305 11.5173C6.498 12.4533 6.06595 13.4805 5.82781 14.5892Z" fill="#808080"/>
</svg>
