<svg viewBox="0 0 59.401 53.992" xmlns="http://www.w3.org/2000/svg"><g fill="#808080"><path d="m29.7 28.213a.752.752 0 0 1 -.374-.1c-11.681-6.713-17.604-12.874-17.604-18.313a.752.752 0 0 1 1.5 0c0 4.791 5.826 10.672 16.849 17.006a.752.752 0 0 1 -.376 1.4z"/><path d="m47.81 53.992a.749.749 0 0 1 -.273-.051 109.868 109.868 0 0 1 -18.252-9.613.752.752 0 0 1 .831-1.255 109.256 109.256 0 0 0 17.475 9.266l9.779-11.413c-2.415-.891-8.792-3.316-15.954-6.626a.752.752 0 1 1 .631-1.365c9.017 4.165 16.775 6.919 16.853 6.947a.752.752 0 0 1 .32 1.2l-10.838 12.647a.751.751 0 0 1 -.572.263z"/><path d="m17.67 34.371a.749.749 0 0 1 -.561-.252c-4.748-5.328-7.155-10.769-7.155-16.173 0-13.246 10.638-17.946 19.746-17.946a.752.752 0 0 1 0 1.5c-8.818 0-18.242 4.319-18.242 16.442 0 5.024 2.278 10.128 6.772 15.172a.752.752 0 0 1 -.561 1.253z"/><path d="m11.591 53.992a.751.751 0 0 1 -.571-.263l-10.839-12.649a.752.752 0 0 1 .32-1.2c.077-.027 7.835-2.779 16.852-6.947a.752.752 0 1 1 .631 1.365c-7.162 3.313-13.538 5.737-15.954 6.628l9.78 11.413c4.365-1.8 36.132-15.6 36.132-34.393 0-12.122-9.423-16.446-18.242-16.446a.752.752 0 1 1 0-1.5c9.108 0 19.745 4.7 19.745 17.946 0 8.781-6.53 17.8-18.884 26.084a109.757 109.757 0 0 1 -18.7 9.91.749.749 0 0 1 -.27.052z"/><path d="m17.669 34.37a.752.752 0 0 1 -.315-1.435c18.585-8.589 28.82-16.8 28.82-23.133a.752.752 0 0 1 1.5 0c0 8.907-16.148 18.239-29.694 24.5a.745.745 0 0 1 -.311.068z"/><path d="m43.872 17.435a.751.751 0 0 1 -.7-.468c-.022-.05-2.468-5.508-13.506-5.508s-13.416 5.451-13.439 5.507a.753.753 0 0 1 -1.4-.561c.1-.263 2.7-6.45 14.839-6.45s14.792 6.181 14.9 6.444a.752.752 0 0 1 -.7 1.036z"/><path d="m28.917.812h1.504v6.275h-1.504z"/><path d="m36.157 1.717h1.504v6.275h-1.504z"/><path d="m41.586 4.431h1.504v6.276h-1.504z"/><path d="m16.248 4.431h1.504v6.276h-1.504z"/><path d="m21.677 1.717h1.504v6.275h-1.504z"/><path d="m46.59 41.131h8.46v1.504h-8.46z" transform="matrix(.65062844 -.75939623 .75939623 .65062844 -14.051 53.225)"/><path d="m40.991 38.294h7.714v1.504h-7.714z" transform="matrix(.65062844 -.75939623 .75939623 .65062844 -13.983 47.699)"/><path d="m20.276 24.795h5.446v1.505h-5.446z" transform="matrix(.6372357 -.77066897 .77066897 .6372357 -11.345 26.992)"/><path d="m15.84 21.992h5.294v1.504h-5.294z" transform="matrix(.65062844 -.75939623 .75939623 .65062844 -10.813 21.985)"/><path d="m13.155 18.755h3.575v1.504h-3.575z" transform="matrix(.65062844 -.75939623 .75939623 .65062844 -9.593 18.162)"/><path d="m9.198 36.483h1.504v11.58h-1.504z" transform="matrix(.75933945 -.6506947 .6506947 .75933945 -25.112 16.648)"/><path d="m16.061 33.907h1.504v10.425h-1.504z" transform="matrix(.75937352 -.65065494 .65065494 .75937352 -21.407 20.353)"/><path d="m21.956 31.323h1.505v9.147h-1.505z" transform="matrix(.75894182 -.65115844 .65115844 .75894182 -17.9 23.44)"/><path d="m28.585 28.852h1.504v7.385h-1.504z" transform="matrix(.76738901 -.6411818 .6411818 .76738901 -14.042 26.381)"/><path d="m34.476 25.41h1.504v5.832h-1.504z" transform="matrix(.75935081 -.65068145 .65068145 .75935081 -9.953 29.739)"/><path d="m39.043 21.775h1.504v5.96h-1.504z" transform="matrix(.75940759 -.65061518 .65061518 .75940759 -6.532 31.847)"/><path d="m42.814 18.434h1.504v3.645h-1.504z" transform="matrix(.75937352 -.65065494 .65065494 .75937352 -2.696 33.221)"/></g></svg>