<svg width="92" height="92" viewBox="0 0 92 92" fill="none" xmlns="http://www.w3.org/2000/svg">
<path d="M45.999 47.217C45.8678 47.2168 45.7389 47.1823 45.625 47.117C33.944 40.404 28.0251 34.243 28.0251 28.806C28.0322 28.6112 28.1145 28.4267 28.2549 28.2914C28.3952 28.1561 28.5826 28.0804 28.7776 28.0804C28.9725 28.0804 29.1599 28.1561 29.3003 28.2914C29.4406 28.4267 29.5229 28.6112 29.53 28.806C29.53 33.597 35.3562 39.478 46.3792 45.812C46.5226 45.8949 46.6346 46.0228 46.698 46.1758C46.7614 46.3289 46.7726 46.4986 46.7297 46.6587C46.6869 46.8187 46.5926 46.9602 46.4612 47.0611C46.3298 47.162 46.1686 47.2169 46.0029 47.217H45.999Z" fill="#808080"/>
<path d="M64.1091 72.9961C64.0157 72.9961 63.9229 72.9784 63.836 72.9441C57.464 70.3195 51.3532 67.1013 45.584 63.3321C45.4247 63.2189 45.3156 63.0482 45.2798 62.8561C45.244 62.664 45.2845 62.4655 45.3923 62.3025C45.5002 62.1396 45.6673 62.025 45.8582 61.9829C46.049 61.9409 46.2487 61.9746 46.4151 62.0771C51.9479 65.6879 57.7969 68.7893 63.8902 71.3431L73.669 59.9301C71.254 59.0391 64.8771 56.6151 57.7151 53.3051C57.534 53.2214 57.3934 53.0692 57.3245 52.882C57.2556 52.6947 57.2638 52.4878 57.3474 52.3066C57.4311 52.1255 57.5835 51.985 57.7708 51.916C57.958 51.8471 58.1648 51.8554 58.346 51.9391C67.363 56.1061 75.121 58.8581 75.198 58.8861C75.3135 58.9266 75.4173 58.9948 75.5005 59.0846C75.5837 59.1744 75.6439 59.2831 75.6756 59.4013C75.7072 59.5196 75.7094 59.6438 75.6821 59.7631C75.6549 59.8824 75.5989 59.9933 75.5191 60.0861L64.6809 72.7351C64.61 72.8172 64.5223 72.8831 64.4236 72.9281C64.3249 72.9732 64.2177 72.9964 64.1091 72.9961Z" fill="#808080"/>
<path d="M33.969 53.375C33.8629 53.3753 33.7581 53.3531 33.6614 53.3096C33.5646 53.2662 33.4781 53.2025 33.408 53.123C28.66 47.796 26.2529 42.354 26.2529 36.95C26.2529 23.704 36.891 19.004 46 19.004C46.1948 19.0111 46.3793 19.0935 46.5146 19.2338C46.65 19.3742 46.7256 19.5616 46.7256 19.7565C46.7256 19.9515 46.65 20.1388 46.5146 20.2792C46.3793 20.4195 46.1948 20.5019 46 20.509C37.182 20.509 27.7581 24.828 27.7581 36.95C27.7581 41.974 30.036 47.079 34.53 52.122C34.6267 52.2303 34.6901 52.3641 34.7124 52.5076C34.7347 52.651 34.7148 52.7978 34.6555 52.9303C34.5962 53.0628 34.5 53.1752 34.3782 53.2542C34.2564 53.3331 34.1141 53.375 33.969 53.375Z" fill="#808080"/>
<path d="M27.8902 72.9961C27.7817 72.996 27.6743 72.9724 27.5757 72.927C27.4772 72.8816 27.3897 72.8155 27.3191 72.7331L16.48 60.084C16.3999 59.9914 16.3436 59.8806 16.3162 59.7613C16.2887 59.642 16.291 59.5177 16.3225 59.3994C16.3541 59.2811 16.4141 59.1723 16.4973 59.0825C16.5806 58.9926 16.6845 58.9245 16.8001 58.8841C16.8781 58.8561 24.6351 56.1041 33.6521 51.9371C33.7418 51.8956 33.8388 51.8723 33.9375 51.8683C34.0362 51.8644 34.1346 51.8799 34.2273 51.914C34.32 51.9481 34.4052 52.0002 34.4778 52.0672C34.5504 52.1342 34.6092 52.2149 34.6507 52.3046C34.6921 52.3943 34.7153 52.4912 34.7193 52.59C34.7232 52.6887 34.7077 52.7872 34.6736 52.8799C34.6395 52.9727 34.5875 53.0578 34.5205 53.1304C34.4535 53.203 34.3727 53.2617 34.283 53.3031C27.121 56.6131 20.7451 59.0371 18.3291 59.9281L28.1092 71.3411C32.4732 69.5411 64.241 55.7411 64.241 36.9481C64.241 24.8261 54.818 20.5071 46 20.5071C45.8052 20.5 45.6207 20.4176 45.4854 20.2772C45.3501 20.1369 45.2744 19.9495 45.2744 19.7546C45.2744 19.5596 45.3501 19.3723 45.4854 19.2319C45.6207 19.0916 45.8052 19.0092 46 19.0021C55.108 19.0021 65.7451 23.7021 65.7451 36.9481C65.7451 45.7291 59.2151 54.748 46.8611 63.032C40.9618 66.9304 34.6993 70.2492 28.1612 72.9421C28.075 72.9768 27.9831 72.9952 27.8902 72.9961Z" fill="#808080"/>
<path d="M33.968 53.374C33.7964 53.3743 33.6299 53.3159 33.4961 53.2085C33.3623 53.1011 33.2691 52.9513 33.2322 52.7837C33.1953 52.6161 33.2169 52.4409 33.2932 52.2873C33.3696 52.1336 33.4963 52.0108 33.6521 51.939C52.2371 43.35 62.4731 35.139 62.4731 28.806C62.4656 28.7029 62.4794 28.5993 62.5137 28.5018C62.5479 28.4042 62.602 28.3148 62.6724 28.2391C62.7427 28.1634 62.8278 28.1031 62.9226 28.0618C63.0174 28.0205 63.1198 27.9991 63.2231 27.9991C63.3265 27.9991 63.4287 28.0205 63.5234 28.0618C63.6182 28.1031 63.7035 28.1634 63.7739 28.2391C63.8443 28.3148 63.8981 28.4042 63.9324 28.5018C63.9667 28.5993 63.9807 28.7029 63.9731 28.806C63.9731 37.713 47.8251 47.045 34.2791 53.306C34.1814 53.3506 34.0754 53.3738 33.968 53.374Z" fill="#808080"/>
<path d="M60.1711 36.439C60.0209 36.4402 59.8738 36.3961 59.749 36.3127C59.6242 36.2292 59.5272 36.1102 59.4709 35.971C59.4489 35.921 57.0021 30.463 45.9641 30.463C34.9261 30.463 32.5449 35.914 32.5219 35.97C32.4475 36.1557 32.3025 36.3041 32.1186 36.3828C31.9347 36.4615 31.7271 36.4639 31.5415 36.3895C31.3558 36.3151 31.2073 36.17 31.1286 35.9861C31.0499 35.8023 31.0476 35.5946 31.122 35.409C31.222 35.145 33.8219 28.959 45.9609 28.959C58.0999 28.959 60.754 35.14 60.861 35.403C60.9077 35.5175 60.9253 35.6417 60.9125 35.7647C60.8998 35.8877 60.857 36.0056 60.7878 36.108C60.7186 36.2105 60.6252 36.2943 60.5158 36.352C60.4065 36.4097 60.2847 36.4396 60.1611 36.439H60.1711Z" fill="#808080"/>
<path d="M46.7201 19.816H45.2161V26.091H46.7201V19.816Z" fill="#808080"/>
<path d="M53.9601 20.7211H52.4561V26.9961H53.9601V20.7211Z" fill="#808080"/>
<path d="M59.389 23.4349H57.885V29.7109H59.389V23.4349Z" fill="#808080"/>
<path d="M34.0511 23.4349H32.5471V29.7109H34.0511V23.4349Z" fill="#808080"/>
<path d="M39.4801 20.7211H37.9761V26.9961H39.4801V20.7211Z" fill="#808080"/>
<path d="M69.2992 57.1855L63.7949 63.61L64.9371 64.5885L70.4414 58.164L69.2992 57.1855Z" fill="#808080"/>
<path d="M63.0849 54.632L58.0659 60.49L59.208 61.4685L64.227 55.6106L63.0849 54.632Z" fill="#808080"/>
<path d="M40.4533 41.973L36.9829 46.17L38.1428 47.1291L41.6132 42.932L40.4533 41.973Z" fill="#808080"/>
<path d="M35.9373 39.2488L32.4929 43.269L33.6351 44.2476L37.0795 40.2273L35.9373 39.2488Z" fill="#808080"/>
<path d="M31.8331 36.6652L29.5071 39.38L30.6492 40.3586L32.9752 37.6437L31.8331 36.6652Z" fill="#808080"/>
<path d="M23.052 56.3914L21.9099 57.37L29.445 66.1631L30.587 65.1845L23.052 56.3914Z" fill="#808080"/>
<path d="M30.2922 53.6753L29.1501 54.6539L35.9332 62.5704L37.0753 61.5918L30.2922 53.6753Z" fill="#808080"/>
<path d="M36.6012 50.9391L35.459 51.9191L41.4151 58.8611L42.5573 57.8811L36.6012 50.9391Z" fill="#808080"/>
<path d="M43.8463 48.2327L42.6921 49.197L47.4273 54.8642L48.5814 53.8999L43.8463 48.2327Z" fill="#808080"/>
<path d="M50.2011 44.6265L49.0591 45.6051L52.8539 50.0336L53.9959 49.055L50.2011 44.6265Z" fill="#808080"/>
<path d="M54.7255 41.0059L53.584 41.985L57.4639 46.5086L58.6055 45.5295L54.7255 41.0059Z" fill="#808080"/>
<path d="M59.25 37.3864L58.1079 38.365L60.4795 41.1329L61.6216 40.1543L59.25 37.3864Z" fill="#808080"/>
</svg>
