<svg viewBox="0 0 92 92" xmlns="http://www.w3.org/2000/svg"><g fill="#808080"><path d="m62.66 74.76h-39.32a.75.75 0 0 1 -.75-.75v-48.18a.75.75 0 0 1 .75-.75h34a.75.75 0 0 1 .53.22l5.32 5.38a.75.75 0 0 1 .22.53v42.79a.75.75 0 0 1 -.75.76zm-38.57-1.5h37.82v-41.74l-4.91-4.94h-32.91z"/><path d="m68.66 68.76h-6v-1.5h5.25v-46.68h-37.82v5.25h-1.5v-6a.75.75 0 0 1 .75-.75h39.32a.75.75 0 0 1 .75.75v48.17a.75.75 0 0 1 -.75.76z"/><path d="m27.99 34.3h26.21v1.5h-26.21z"/><path d="m27.99 56.05h26.21v1.5h-26.21z"/><path d="m27.99 50.61h28.15v1.5h-28.15z"/><path d="m27.95 39.74h30.09v1.5h-30.09z"/><path d="m27.99 61.48h30.09v1.5h-30.09z"/><path d="m27.95 45.17h30.09v1.5h-30.09z"/><path d="m62.34 32.44h-5a.75.75 0 0 1 -.75-.75v-6h1.5v5.25h4.25z"/></g></svg>