<svg viewBox="0 0 37.005 54.399" xmlns="http://www.w3.org/2000/svg"><g fill="none" stroke="#666" stroke-width="1.5"><circle cx="18.558" cy="9.838" r="9.088" stroke-miterlimit="10"/><g stroke-linecap="round" stroke-linejoin="round"><path d="m25.558 34.232c0 4.491-2.509 8.131-7 8.131s-7.058-3.64-7.058-8.131z"/><path d="m10.371 19.937-9.047 10.595a2.4 2.4 0 0 0 .258 3.368 2.4 2.4 0 0 0 3.372-.258l6.668-7.542-.12 7.653"/><path d="m10.829 37.072-3.873 3.334c-1.074 1-1.074 2.914-.025 4.6l4.015 7.249a2.4 2.4 0 0 0 3.172 1.173 2.4 2.4 0 0 0 1.173-3.172l-2.713-5.982 2.87-1.913"/><path d="m26.634 19.937 9.047 10.594a2.4 2.4 0 0 1 -.258 3.372 2.4 2.4 0 0 1 -3.372-.258l-6.668-7.545.175 7.653"/><path d="m26.177 37.072 3.872 3.334c1.074 1 1.074 2.914.025 4.6l-4.015 7.249a2.4 2.4 0 0 1 -3.172 1.173 2.4 2.4 0 0 1 -1.173-3.172l2.713-5.982-2.87-1.913"/></g></g></svg>