<svg width="43" height="56" viewBox="0 0 43 56" fill="none" xmlns="http://www.w3.org/2000/svg">
<path d="M7.76752 20.1921C7.44334 19.9264 6.96485 19.9756 6.69978 20.2991C6.43472 20.6239 6.48201 21.1018 6.80681 21.3675L9.41143 23.498C9.54707 23.6094 9.71756 23.6697 9.89178 23.6697C9.92165 23.6697 9.95214 23.6678 9.98263 23.6635C10.188 23.6386 10.374 23.531 10.4978 23.3654L14.0495 18.631C14.3008 18.2956 14.2324 17.8196 13.8976 17.5682C13.5623 17.3175 13.0869 17.384 12.8349 17.72L9.75925 21.8211L7.76752 20.1921Z" fill="#06b9ff"/>
<path d="M6.8053 42.6736L9.41055 44.8047C9.54619 44.916 9.71668 44.9758 9.8909 44.9758C9.92077 44.9758 9.95126 44.9739 9.98175 44.9702C10.1871 44.9453 10.3731 44.8376 10.4969 44.6721L14.0486 39.9376C14.3 39.6023 14.2315 39.1263 13.8968 38.8749C13.5614 38.6248 13.086 38.6913 12.834 39.0267L9.75837 43.1278L7.76664 41.4982C7.44184 41.2325 6.96397 41.281 6.6989 41.6052C6.43384 41.9294 6.48175 42.4072 6.8053 42.6736Z" fill="#06b9ff"/>
<path d="M9.89058 34.5592C11.6148 34.5592 13.016 33.1573 13.016 31.4338C13.016 29.7096 11.6148 28.3071 9.89058 28.3071C8.1664 28.3071 6.76392 29.7102 6.76392 31.4338C6.76392 33.1567 8.16703 34.5592 9.89058 34.5592ZM9.89058 29.8247C10.7766 29.8247 11.499 30.5465 11.499 31.4332C11.499 32.3198 10.7766 33.041 9.89058 33.041C9.00329 33.041 8.28214 32.3198 8.28214 31.4332C8.28214 30.5465 9.00329 29.8247 9.89058 29.8247Z" fill="#06b9ff"/>
<path d="M33.5632 21.2046H16.9922V22.7228H33.5632V21.2046Z" fill="#06b9ff"/>
<path d="M33.5632 30.6724H16.9922V32.1906H33.5632V30.6724Z" fill="#06b9ff"/>
<path d="M33.5632 42.5093H16.9922V44.0275H33.5632V42.5093Z" fill="#06b9ff"/>
<path d="M0 11.5473V51.3179C0 53.8995 2.10062 56.0001 4.68222 56.0001H37.3507C39.9323 56.0001 42.033 53.8995 42.033 51.3179V11.5473C42.033 8.96572 39.9323 6.86572 37.3507 6.86572H31.6692V8.65461H37.3507C38.9461 8.65461 40.2441 9.95194 40.2441 11.5473V51.3179C40.2441 52.9132 38.9461 54.2112 37.3507 54.2112H4.68284C3.08747 54.2112 1.78951 52.9132 1.78951 51.3179V11.5473C1.78951 9.95194 3.08747 8.65461 4.68284 8.65461H10.3644V6.86572H4.68284C2.10062 6.86572 0 8.96572 0 11.5473Z" fill="#06b9ff"/>
<path d="M21.0166 6.81298C21.9317 6.81298 22.6736 6.07112 22.6736 5.156C22.6736 4.24088 21.9317 3.49902 21.0166 3.49902C20.1015 3.49902 19.3596 4.24088 19.3596 5.156C19.3596 6.07112 20.1015 6.81298 21.0166 6.81298Z" fill="#06b9ff"/>
<path d="M27.8821 4.2616H26.0945C25.6695 1.84302 23.5546 0 21.0166 0C18.4785 0 16.3636 1.84302 15.9386 4.2616H14.151C12.8748 4.2616 11.8369 5.29946 11.8369 6.57626V9.18088C11.8369 10.4571 12.8748 11.4955 14.151 11.4955H27.8815C29.1577 11.4955 30.1956 10.4571 30.1956 9.18088V6.57626C30.1962 5.29946 29.1577 4.2616 27.8821 4.2616ZM28.4073 9.18026C28.4073 9.47022 28.1715 9.70604 27.8821 9.70604H14.151C13.8616 9.70604 13.6258 9.47022 13.6258 9.18026V6.57564C13.6258 6.28568 13.8616 6.04986 14.151 6.04986H16.755C17.249 6.04986 17.6497 5.64915 17.6497 5.15573C17.6497 3.29902 19.1605 1.78889 21.0166 1.78889C22.8726 1.78889 24.3834 3.29902 24.3834 5.15573C24.3834 5.64915 24.7835 6.04986 25.2781 6.04986H27.8821C28.1715 6.04986 28.4073 6.28568 28.4073 6.57564V9.18026Z" fill="#06b9ff"/>
</svg>
