<svg width="32" height="61" viewBox="0 0 32 61" fill="none" xmlns="http://www.w3.org/2000/svg">
<path d="M13.2507 32.5C14.7826 32.0254 15.1699 32.8027 15.2507 34V36.5C19.5393 37.9437 21.5318 37.1694 24.7507 34.5L23.2507 32C22.5463 31.1032 22.7507 31 23.7507 30L25.2507 28.5C26.0743 27.6625 25.1858 26.7395 24.2507 26" stroke="white" stroke-linecap="round"/>
<path d="M20.2507 17C24.0085 17.588 25.785 18.1578 25.7507 21.5C25.7464 24.2814 25.492 25.4269 24.7507 27" stroke="white" stroke-linecap="round"/>
<path d="M29.2507 43.5C29.2507 43.5 28.5691 36.7298 27.7507 32.0006C33.2507 26.5003 31.2507 17.5003 25.7507 13.5005C22.2508 10.9549 16.8272 10.0392 15.7508 11.0002C13.1764 13.2984 11.7283 14.5734 6.75077 13.5002C-3.2533 22.273 0.352639 34.8537 13.2508 37.0002C13.2508 37.0002 13.7508 60.0002 14.7508 60.0002H19.7508C20.7508 60.0002 19.0245 40.9781 19.2508 39.5002C19.477 38.0223 21.2507 37.0002 22.2508 39.5002C23.2508 42.0002 24.2507 60.0002 25.2508 60.0002H29.7508L29.2507 43.5Z" stroke="white"/>
<path d="M16.2507 29.5C16.0602 30.1151 16.2507 30.5 16.7507 30.5H17.7507C18.5851 30.3983 18.788 30.5701 18.7507 31" stroke="white" stroke-width="0.5" stroke-linecap="round"/>
<path d="M6.75077 19C4.20707 26.321 5.49575 30.2182 12.7507 32.5C12.2507 31.5 9.25077 24.5 6.75077 19Z" stroke="white" stroke-linecap="round"/>
<path d="M24.7507 27C23.7332 24.2836 19.7252 22.2378 16.3543 23.5006C12.9834 24.7633 11.2332 28.2836 12.2507 31" stroke="white"/>
<circle cx="10.2507" cy="6" r="5.5" stroke="white"/>
<path d="M16.2507 29.5002L18.2507 25.5002C18.6627 24.9528 19.2507 25 19.2507 26.0002" stroke="white" stroke-width="0.5" stroke-linecap="round"/>
<path d="M19.2507 26L18.2507 28C17.9641 28.7382 18.105 28.9427 18.7507 29H20.2507C21.2336 29.0392 20.977 29.4204 20.7507 30" stroke="white" stroke-width="0.5" stroke-linecap="round"/>
<path d="M18.7507 31L17.7507 33C16.9195 34.9681 18.2507 35 18.7507 34.5" stroke="white" stroke-width="0.5" stroke-linecap="round"/>
<path d="M20.7507 30L18.7507 34.5" stroke="white" stroke-width="0.5" stroke-linecap="round"/>
</svg>
