<svg width="30" height="30" viewBox="0 0 30 30" fill="none" xmlns="http://www.w3.org/2000/svg">
<path d="M14.798 18.18C14.598 18.18 14.438 18.1133 14.318 17.98C14.198 17.8333 14.138 17.6467 14.138 17.42C14.138 16.98 14.1914 16.5667 14.298 16.18C14.4047 15.78 14.578 15.38 14.818 14.98C15.058 14.58 15.378 14.1533 15.778 13.7C16.098 13.34 16.3447 13.02 16.518 12.74C16.7047 12.46 16.838 12.1933 16.918 11.94C16.998 11.6733 17.038 11.4 17.038 11.12C17.038 10.6133 16.858 10.2133 16.498 9.92C16.138 9.62667 15.6314 9.48 14.978 9.48C14.4047 9.48 13.878 9.56667 13.398 9.74C12.918 9.9 12.4514 10.1333 11.998 10.44C11.7447 10.6 11.518 10.6733 11.318 10.66C11.1314 10.6467 10.9714 10.5867 10.838 10.48C10.718 10.36 10.638 10.2133 10.598 10.04C10.5714 9.85333 10.598 9.66667 10.678 9.48C10.7714 9.28 10.9314 9.1 11.158 8.94C11.6914 8.55333 12.3114 8.25333 13.018 8.04C13.7247 7.82667 14.418 7.72 15.098 7.72C15.898 7.72 16.598 7.85333 17.198 8.12C17.798 8.38667 18.2647 8.76 18.598 9.24C18.9314 9.72 19.098 10.2867 19.098 10.94C19.098 11.3533 19.038 11.7467 18.918 12.12C18.798 12.4933 18.6047 12.8733 18.338 13.26C18.0847 13.6333 17.7247 14.0467 17.258 14.5C16.8447 14.9133 16.5114 15.2933 16.258 15.64C16.0047 15.9733 15.818 16.3 15.698 16.62C15.5914 16.9267 15.518 17.2533 15.478 17.6C15.4647 17.7733 15.398 17.9133 15.278 18.02C15.158 18.1267 14.998 18.18 14.798 18.18ZM14.778 22.08C14.3914 22.08 14.078 21.96 13.838 21.72C13.598 21.48 13.478 21.1733 13.478 20.8C13.478 20.4267 13.598 20.1267 13.838 19.9C14.078 19.66 14.3914 19.54 14.778 19.54C15.178 19.54 15.4847 19.66 15.698 19.9C15.9247 20.1267 16.038 20.4267 16.038 20.8C16.038 21.1733 15.9247 21.48 15.698 21.72C15.4847 21.96 15.178 22.08 14.778 22.08Z" fill="#808080"/>
<circle cx="14.5" cy="14.5" r="11.75" stroke="#808080" stroke-width="1.5"/>
</svg>
