<svg version="1" xmlns="http://www.w3.org/2000/svg" width="933.333" height="933.333" viewBox="0 0 700.000000 700.000000"><path d="M250.5 183.1c-11.7 4.1-18.6 12.6-20.5 25.5-1.3 9.4-1.3 273.4 0 282.8 1.9 13 8.8 21.5 20.8 25.5 6.2 2.1 6.8 2.1 101.5 1.9l95.2-.3 5.5-2.2c5.5-2.2 11.6-7.6 13.9-12 2.4-4.7 3.3-13.3 2.1-20.2-1.4-8-4.9-13.5-11.1-17.3-8.9-5.6-12-5.8-87.1-5.8H302v-84.9l67.8-.3c73.3-.4 71.2-.2 79.8-6.1 6.5-4.4 9.6-10.7 10.2-20.6.8-14.1-5.6-24.2-18-28.7-5-1.8-9.3-1.9-72.5-2.2l-67.3-.3v-78.8l72.3-.3c79.2-.3 75.4-.1 84.9-6.3 7.9-5.2 12-17.4 9.9-28.8-1.3-7.4-3.2-10.7-8.2-15-8.8-7.6-2.1-7.2-108.9-7.4-94.3-.3-95.6-.2-101.5 1.8z"/></svg>