<svg width="35" height="30" viewBox="0 0 35 30" fill="none" xmlns="http://www.w3.org/2000/svg">
<path d="M21.0891 2.50021e-06C21.2949 -8.33099e-05 21.4987 0.0463702 21.6887 0.136693C21.8788 0.227017 22.0514 0.359429 22.1966 0.526313L33.775 13.7647C34.0689 14.1017 34.234 14.5583 34.234 15.0344C34.234 15.5104 34.0689 15.9671 33.775 16.3041L22.1966 29.5424C21.8978 29.8485 21.5079 30.012 21.107 29.9993C20.7061 29.9867 20.3246 29.7989 20.041 29.4745C19.7574 29.1501 19.5932 28.7137 19.5822 28.2551C19.5711 27.7966 19.7141 27.3505 19.9816 27.0088L30.4454 15.0384L19.9796 3.06688C19.7604 2.81592 19.611 2.49629 19.5505 2.14834C19.4899 1.80039 19.5208 1.43971 19.6393 1.11184C19.7578 0.78397 19.9586 0.503603 20.2162 0.306132C20.4739 0.10866 20.777 0.00293216 21.0871 0.00230467L21.0891 2.50021e-06Z" fill="white"/>
<path d="M1.56896 13.2384L29.0329 13.2384C29.4491 13.2384 29.8482 13.4275 30.1425 13.7641C30.4367 14.1007 30.602 14.5572 30.602 15.0333C30.602 15.5093 30.4367 15.9658 30.1425 16.3024C29.8482 16.639 29.4491 16.8281 29.0329 16.8281L1.56896 16.8281C1.1528 16.8281 0.753662 16.639 0.459394 16.3024C0.165127 15.9658 -0.000137228 15.5093 -0.000137192 15.0333C-0.000137156 14.5572 0.165127 14.1007 0.459395 13.7641C0.753662 13.4275 1.1528 13.2384 1.56896 13.2384Z" fill="white"/>
</svg>
