<svg width="35" height="30" viewBox="0 0 35 30" fill="none" xmlns="http://www.w3.org/2000/svg">
<path d="M13.1449 2.50021e-06C12.9391 -8.33099e-05 12.7353 0.0463702 12.5453 0.136693C12.3552 0.227017 12.1826 0.359429 12.0374 0.526313L0.45904 13.7647C0.165096 14.1017 -1.18017e-06 14.5583 -1.14379e-06 15.0344C-1.1074e-06 15.5104 0.165096 15.9671 0.45904 16.3041L12.0374 29.5424C12.3362 29.8485 12.7261 30.012 13.127 29.9993C13.5279 29.9867 13.9094 29.7989 14.193 29.4745C14.4766 29.1501 14.6408 28.7137 14.6518 28.2551C14.6629 27.7966 14.5199 27.3505 14.2524 27.0088L3.78859 15.0384L14.2544 3.06688C14.4736 2.81592 14.623 2.49629 14.6835 2.14834C14.7441 1.80039 14.7132 1.43971 14.5947 1.11184C14.4762 0.78397 14.2755 0.503603 14.0178 0.306132C13.7601 0.10866 13.4571 0.00293216 13.1469 0.00230467L13.1449 2.50021e-06Z" fill="white"/>
<path d="M32.665 13.2384L5.20109 13.2384C4.78493 13.2384 4.38579 13.4275 4.09152 13.7641C3.79725 14.1007 3.63199 14.5572 3.63199 15.0333C3.63199 15.5093 3.79725 15.9658 4.09152 16.3024C4.38579 16.639 4.78493 16.8281 5.20109 16.8281L32.665 16.8281C33.0812 16.8281 33.4803 16.639 33.7746 16.3024C34.0689 15.9658 34.2341 15.5093 34.2341 15.0333C34.2341 14.5572 34.0689 14.1007 33.7746 13.7641C33.4803 13.4275 33.0812 13.2384 32.665 13.2384Z" fill="white"/>
</svg>
